<?xml version="1.0" encoding="utf-8"?>
<!-- Generator: Adobe Illustrator 27.0.0, SVG Export Plug-In . SVG Version: 6.00 Build 0)  -->
<svg version="1.1" id="Layer_1" xmlns="http://www.w3.org/2000/svg" xmlns:xlink="http://www.w3.org/1999/xlink" x="0px" y="0px"
	 viewBox="0 0 500 500" style="enable-background:new 0 0 500 500;" xml:space="preserve">
<style type="text/css">
	.st0{fill:#FFFFFF;}
	.st1{fill:#FFB300;}
</style>
<g>
	<path class="st0" d="M59.719,375.853c-1.269,0.78-2.622,0.938-3.981,0.476c-1.623-0.526-3.154-1.958-4.526-4.188
		c-1.372-2.229-1.96-4.241-1.698-5.927c0.2-1.423,0.95-2.559,2.219-3.34c1.269-0.78,2.622-0.938,3.981-0.476
		c1.564,0.512,3.04,1.854,4.37,3.935l5.547-3.414l-4.171-6.779l0.399-0.245l8.655,14.066l-0.398,0.246l-4.216-6.853l-5.547,3.413
		c1.298,2.15,1.853,4.108,1.587,5.746C61.738,373.936,60.988,375.071,59.719,375.853z M59.462,375.436
		c1.142-0.703,1.812-1.766,1.995-3.053c0.234-1.568-0.305-3.461-1.599-5.563s-2.74-3.438-4.246-3.935
		c-1.231-0.417-2.482-0.298-3.624,0.405s-1.812,1.766-1.996,3.052c-0.234,1.569,0.306,3.461,1.599,5.564
		c1.294,2.103,2.74,3.437,4.246,3.935C57.069,376.258,58.32,376.138,59.462,375.436z"/>
	<path class="st0" d="M47.243,357.174l-6.054-12.255l0.42-0.208l6.28,12.714l-4.085,2.018l-0.227-0.458L47.243,357.174z
		 M51.184,357.316l-7.431-15.042l0.401-0.198l7.431,15.042L51.184,357.316z M59.937,350.902l-6.214-12.579l0.401-0.198l6.44,13.038
		l-3.646,1.801l-5.998-12.141l-2.749,1.358l5.998,12.141l-0.401,0.197l-6.224-12.598l3.551-1.755l5.998,12.141L59.937,350.902z"/>
	<path class="st0" d="M33.917,325.358l-4.096,1.565l-0.175-0.457l10.14-3.876l2.454,6.423l5.646-2.158l-2.842-7.437l0.438-0.167
		l5.896,15.429l-0.438,0.167l-2.872-7.516l-5.646,2.158l2.485,6.502l-10.14,3.875l-0.175-0.457l4.096-1.565L33.917,325.358z
		 M34.334,325.199l4.772,12.486l5.189-1.983l-4.772-12.486L34.334,325.199z"/>
	<path class="st0" d="M41.621,307.819l2.123,7.629l-16.263,4.526l-2.249-8.08l0.451-0.126l2.111,7.588l15.381-4.28l-1.986-7.137
		c-0.628-2.256-1.965-4.203-3.59-5.121l-14.171,3.943l-0.131-0.472l7.998-2.226l-0.873-3.138l0.431-0.12l0.873,3.138l9.536-2.653
		l0.131,0.472l-3.322,0.924C39.642,303.487,40.982,305.522,41.621,307.819z"/>
	<path class="st0" d="M27.162,283.61l-0.934-6.19l-8.022,1.209l-0.076-0.505l18.446-2.78l0.076,0.505l-9.96,1.501l0.933,6.191
		L27.162,283.61z M36.44,283.87l0.908,6.022l-16.698,2.517l-1.216-8.064l0.463-0.069l1.139,7.559l15.793-2.38l-0.832-5.517
		c-0.283-1.875-0.854-3.812-1.745-4.863l0.442-0.066C35.6,280.013,36.151,281.954,36.44,283.87z"/>
	<path class="st0" d="M33.91,256.745l0.219,7.45l-16.986,0.499l-0.015-0.511l16.539-0.486l-0.204-6.939
		c-0.072-2.469-0.973-4.85-2.507-6.296l-14.474,0.425l-0.015-0.49l8.302-0.244l-0.096-3.257l0.447-0.013l0.096,3.257l9.898-0.291
		l0.015,0.489l-3.683,0.108C32.889,251.726,33.834,254.169,33.91,256.745z"/>
	<path class="st0" d="M20.103,242.914c-1.02-0.063-1.799-0.582-2.333-1.597c-0.669-1.237-0.929-3.237-0.753-6.043
		s0.681-4.759,1.5-5.902c0.656-0.941,1.493-1.358,2.514-1.294c1.02,0.064,1.82,0.583,2.354,1.598
		c0.648,1.235,0.908,3.236,0.732,6.042s-0.682,4.758-1.479,5.904C21.981,242.562,21.123,242.978,20.103,242.914z M20.134,242.404
		c0.851,0.053,1.576-0.286,2.116-1.084c0.769-1.04,1.249-2.909,1.418-5.63s-0.073-4.635-0.706-5.784
		c-0.438-0.838-1.116-1.265-1.966-1.318c-0.829-0.052-1.575,0.286-2.115,1.063c-0.749,1.063-1.229,2.932-1.398,5.653
		s0.073,4.635,0.686,5.761C18.606,241.924,19.306,242.352,20.134,242.404z M26.822,244.315l1.046-16.75l0.446,0.028l-1.046,16.75
		L26.822,244.315z M34.846,242.939l0.868-13.901l0.468,0.029l-0.9,14.411l-4.931-0.308l0.032-0.51L34.846,242.939z"/>
	<path class="st0" d="M36.919,213.143l-0.88,4.752l-16.706-3.093l0.089-0.481l16.267,3.011l0.791-4.271
		c0.372-2.01,0.139-3.677-0.727-4.963l-14.78-2.736l0.093-0.502l7.976,1.477l0.787-4.25l-8.123-1.504l0.093-0.502l18.339,3.395
		l-0.093,0.502l-9.777-1.81l-0.787,4.25l9.525,1.764l-0.093,0.502l-2.68-0.496C37.116,209.39,37.292,211.133,36.919,213.143z"/>
	<path class="st0" d="M27.135,194.957c-1.29-0.366-2.148-1.163-2.597-2.154c-0.469-0.996-0.492-2.242-0.125-3.532
		s1.04-2.338,1.963-2.939c0.902-0.607,2.045-0.813,3.335-0.447s2.133,1.137,2.583,2.127c0.469,0.996,0.512,2.248,0.146,3.538
		s-1.06,2.332-1.983,2.933C29.554,195.09,28.425,195.323,27.135,194.957z M27.275,194.465c1.126,0.32,2.123,0.16,2.92-0.388
		c0.838-0.537,1.462-1.488,1.794-2.655c0.331-1.167,0.3-2.304-0.131-3.201c-0.39-0.885-1.154-1.545-2.281-1.865
		c-1.146-0.326-2.144-0.166-2.941,0.382c-0.838,0.537-1.462,1.488-1.793,2.655c-0.332,1.167-0.3,2.305,0.131,3.202
		C25.364,193.48,26.128,194.14,27.275,194.465z M35.538,182.119l-8.313-2.36l0.14-0.492l8.313,2.36L35.538,182.119z M41.48,196.883
		l3.645-12.839l0.43,0.122l-3.785,13.331l-4.054-1.151l3.575-12.594l-3.153-0.895l-3.576,12.593l-0.43-0.122l3.715-13.085
		l4.034,1.146l-3.575,12.593L41.48,196.883z"/>
	<path class="st0" d="M32.188,173.441c-0.635-0.247-1.043-0.725-1.202-1.494c-0.274-1.294,0.128-3.331,1.33-6.428
		c1.202-3.097,2.287-4.892,3.355-5.642c0.636-0.461,1.26-0.539,1.895-0.292s1.024,0.717,1.202,1.495
		c0.262,1.267-0.147,3.323-1.35,6.42c-1.202,3.097-2.279,4.872-3.335,5.65C33.427,173.603,32.823,173.688,32.188,173.441z
		 M32.373,172.965c0.477,0.185,0.97,0.148,1.473-0.205c0.962-0.654,1.969-2.365,3.156-5.422s1.598-4.999,1.329-6.131
		c-0.133-0.6-0.473-0.96-0.949-1.145c-0.497-0.192-0.971-0.148-1.473,0.205c-0.962,0.654-1.969,2.365-3.155,5.422
		c-1.187,3.057-1.598,4.999-1.33,6.131C31.557,172.419,31.876,172.772,32.373,172.965z M36.856,176.304l6.072-15.643l0.437,0.169
		l-6.072,15.643L36.856,176.304z M47.103,178.271l5.078-13.082l0.417,0.162l-5.263,13.559l-3.553-1.379l4.901-12.625l-2.74-1.063
		l-4.901,12.626l-0.417-0.162l5.085-13.102l3.593,1.395l-4.901,12.626L47.103,178.271z"/>
	<path class="st0" d="M44.702,148.527c-1.22-0.654-1.964-1.608-2.248-2.702c-0.292-1.123-0.055-2.421,0.608-3.66
		c0.674-1.257,1.624-2.174,2.72-2.552c1.068-0.37,2.275-0.279,3.495,0.375c1.238,0.664,1.983,1.618,2.248,2.702
		c0.311,1.133,0.074,2.431-0.6,3.688c-0.664,1.239-1.613,2.155-2.729,2.523C47.148,149.282,45.941,149.191,44.702,148.527z
		 M44.934,148.096c1.107,0.593,2.153,0.67,3.105,0.335c1.019-0.324,1.88-1.119,2.493-2.263c0.613-1.145,0.809-2.321,0.514-3.348
		c-0.259-0.96-0.892-1.807-2-2.4c-1.088-0.583-2.145-0.642-3.087-0.325c-1.019,0.324-1.89,1.137-2.503,2.282
		c-0.613,1.145-0.798,2.302-0.503,3.329C43.202,146.685,43.845,147.512,44.934,148.096z M54,148.17l5.33,2.856l-0.241,0.45
		l-5.331-2.856l-2.403,4.486l-0.394-0.211l4.495-8.389c1.045-1.952,1.473-3.921,1.11-5.589l-9.271-4.968l0.231-0.432l16.441,8.809
		l-0.231,0.432l-6.719-3.6c0.355,1.591-0.101,3.569-1.167,5.559L54,148.17z"/>
	<path class="st0" d="M55.03,126.407l-2.715-1.798l0.282-0.426l2.715,1.798L57.286,123l0.39,0.258l-4.253,6.424l-0.391-0.259
		L55.03,126.407z M74.561,125.861l-8.288-5.487l-2.138,3.23l8.074,5.346l-0.27,0.408L56.73,119.289l0.271-0.408l6.761,4.476
		l2.138-3.229l-6.885-4.559l0.282-0.426l15.545,10.292L74.561,125.861z M60.803,134.033c-2.201-1.457-3.244-2.812-3.466-4.056
		c-0.121-0.744,0.048-1.423,0.459-2.044c0.423-0.639,0.982-1.06,1.702-1.221c1.233-0.282,2.899,0.132,5.099,1.589
		c2.201,1.457,3.232,2.829,3.455,4.074c0.15,0.737-0.037,1.405-0.46,2.044c-0.411,0.621-0.953,1.054-1.702,1.221
		C64.658,135.921,63.004,135.49,60.803,134.033z M61.074,133.625c2.058,1.363,3.6,1.771,4.691,1.549
		c0.631-0.144,1.114-0.488,1.455-1.002s0.48-1.111,0.354-1.73c-0.21-1.109-1.2-2.352-3.258-3.714
		c-2.041-1.351-3.589-1.789-4.674-1.538c-0.637,0.114-1.114,0.487-1.455,1.002s-0.486,1.082-0.354,1.731
		C58.037,131.002,59.033,132.274,61.074,133.625z"/>
	<path class="st0" d="M75.353,105.287L88.566,90.63l0.465,0.419l-6.666,7.395l7.151,6.447l7.464-8.281l0.487,0.439L81.979,114.23
		l-0.487-0.439l7.544-8.369l-7.151-6.446l-6.526,7.24l-10.539-9.5l0.459-0.509L75.353,105.287z"/>
	<path class="st0" d="M101.382,79.616l-6.476,5.542l-4.825-5.638l8.152-6.976l-3.934-4.597l-8.152,6.977l-0.407-0.476l8.672-7.422
		l4.748,5.548l-8.129,6.957l4.012,4.688l5.933-5.077c2.015-1.725,3.892-3.841,4.481-5.718l0.427,0.498
		C105.339,75.759,103.443,77.853,101.382,79.616z M111.099,73.184l-4.186-4.891l-4.8,4.108l-0.407-0.476l4.801-4.108l-3.062-3.578
		l-4.8,4.108l-0.407-0.476l4.801-4.108l-2.268-2.649l0.543-0.465l10.329,12.069L111.099,73.184z M113.598,76.105L99.4,88.255
		l-0.426-0.498l14.741-12.615l4.845,5.661l-0.543,0.465L113.598,76.105z"/>
	<path class="st0" d="M110.775,58.052l5.991-3.908l-2.491-3.819l0.599-0.391l2.491,3.819l6.016-3.924l0.358,0.549l-12.606,8.222
		L110.775,58.052z M118.71,68.035c-1.677-2.571-2.134-4.799-1.777-6.598c0.305-1.551,1.285-2.831,2.608-3.694
		c1.348-0.879,2.889-1.244,4.432-0.897c1.79,0.398,3.645,1.715,5.322,4.286c1.693,2.596,2.15,4.825,1.793,6.623
		c-0.305,1.551-1.276,2.79-2.625,3.669c-1.323,0.863-2.873,1.269-4.415,0.922C122.258,71.947,120.403,70.631,118.71,68.035z
		 M119.309,67.644c1.563,2.396,3.195,3.645,4.82,4.008c1.41,0.361,2.793,0.028,3.992-0.753c1.198-0.782,2.061-1.914,2.299-3.35
		c0.322-1.633-0.137-3.647-1.7-6.043c-1.547-2.372-3.204-3.603-4.845-3.992c-1.394-0.336-2.777-0.003-3.976,0.778
		c-1.198,0.781-2.061,1.914-2.315,3.325C117.278,63.275,117.762,65.272,119.309,67.644z M132.864,53.075l3.82-2.491l0.342,0.524
		l-3.819,2.491l7.571,11.608l-0.574,0.375L125.94,43.713l0.574-0.375L132.864,53.075z"/>
	<path class="st0" d="M141.164,43.874l17.251-8.277l0.271,0.564l-17.896,8.587l-3.494-7.282l0.645-0.31L141.164,43.874z
		 M141.598,50.84l21.174-10.16l0.284,0.591l-21.174,10.161L141.598,50.84z M148.914,60.023l17.573-8.433l0.284,0.591l-18.218,8.742
		l-3.224-6.718l0.645-0.31L148.914,60.023z"/>
	<path class="st1" d="M174.79,25.132c-0.318-1.118-0.062-2.182,0.503-3.025c0.714-0.978,1.935-1.696,3.397-2.112
		c1.434-0.407,2.85-0.438,3.971,0.018c0.954,0.411,1.702,1.189,2.02,2.308c0.326,1.147,0.099,2.203-0.496,3.054
		c-0.714,0.978-1.935,1.696-3.369,2.104c-1.462,0.416-2.879,0.446-4-0.01C175.892,27.05,175.115,26.279,174.79,25.132z
		 M175.478,24.937c0.269,0.946,0.837,1.528,1.586,1.873c0.999,0.46,2.264,0.441,3.583,0.066c1.319-0.375,2.376-1.016,2.983-1.932
		c0.484-0.695,0.632-1.481,0.364-2.427c-0.261-0.917-0.801-1.508-1.578-1.845c-0.998-0.46-2.235-0.45-3.554-0.075
		s-2.405,1.024-3.012,1.94C175.394,23.226,175.217,24.02,175.478,24.937z M181.193,30.874l1.336,4.702l-0.66,0.187l-1.336-4.702
		l-4.788,1.36l-0.171-0.602l6.881-1.956c2.208-0.627,4.186-1.406,5.412-2.653l0.171,0.602c-1.111,1.214-3.118,2.001-5.412,2.653
		L181.193,30.874z M198.43,33.412l0.688-0.196l2.249,7.914l-18.521,5.264l-2.249-7.914l0.66-0.187l0.807,2.838l17.174-4.881
		L198.43,33.412z M182.234,41.733l1.1,3.871l17.174-4.881l-1.1-3.871L182.234,41.733z M186.628,32.334l-0.179-0.631l4.989-1.417
		l-3.561-12.529l0.688-0.196l4.351,15.311l-0.688,0.195l-0.611-2.15L186.628,32.334z M194.156,15.755l4.424,15.568l-0.688,0.195
		l-4.424-15.568L194.156,15.755z"/>
	<path class="st1" d="M210.508,36.429l-3.25-22.122l-3.009,0.442l-0.095-0.649l14.246-2.093l0.095,0.649l-3.097,0.455l2.023,13.774
		c0.447,3.038,0.629,6.537,0.401,8.469l0.324-0.048c2.389-0.351,4.533-0.937,5.916-1.984l0.096,0.649
		c-1.324,1.038-3.472,1.595-5.92,1.955l-10.972,1.612l-0.091-0.62L210.508,36.429z M214.72,13.211l-6.754,0.992l3.25,22.122
		l5.928-0.871c0.22-1.991,0.033-5.519-0.4-8.469L214.72,13.211z M219.831,22.765l5.604-0.823l-1.651-11.238l0.708-0.104
		l3.796,25.838l-0.708,0.104l-2.05-13.951l-5.604,0.823L219.831,22.765z"/>
	<path class="st1" d="M234.438,21.883l23.482-0.385l0.011,0.625l-23.483,0.385L234.438,21.883z M236.866,10.009l0.05,3.04
		l18.238-0.299l-0.05-3.04l0.716-0.012l0.133,8.136l-19.668,0.322l-0.133-8.136L236.866,10.009z M237.282,35.399l19.639-0.322
		l0.01,0.626l-20.354,0.333L236.495,31l18.953-0.311l-0.062-3.814l-18.953,0.311l-0.011-0.655l19.668-0.322l0.083,5.096
		l-18.953,0.311L237.282,35.399z M255.164,13.376l-18.238,0.299l0.062,3.814l18.238-0.299L255.164,13.376z"/>
	<path class="st1" d="M275.408,35.083l-11.255-1.27l1.373-12.173l10.366,1.169l1.203-10.662l-10.366-1.169l0.074-0.652l11.047,1.247
		l-1.35,11.965l-10.337-1.166l-1.229,10.899l10.544,1.19c3.258,0.367,6.487-0.348,8.531-1.977l2.309-20.465l0.711,0.08
		l-2.927,25.945l-0.711-0.081l0.541-4.798C282.1,34.789,278.725,35.458,275.408,35.083z"/>
	<path class="st1" d="M300.316,29.652c-1.59,4.059-5.351,6.842-9.571,7.516l0.165-0.666c3.809-0.745,8.178-3.255,9.877-10.111
		l2.639-10.646l0.666,0.165l-2.64,10.646c-1.699,6.856,1.063,10.95,4.011,13.554l-0.165,0.666
		C302.011,38.057,299.884,33.998,300.316,29.652z M308.638,22.718l6.886,1.707l1.413-5.699l0.694,0.172l-6.283,25.343l-0.694-0.172
		l2.762-11.138l-6.886-1.707l0.15-0.607l6.886,1.707l1.8-7.262l-6.885-1.707L308.638,22.718z"/>
	<path class="st0" d="M336.342,31.673l1.7-4.328l-10.569-4.151l0.239-0.61l11.235,4.412l-1.929,4.91
		c-3.649,9.293-9.993,13.461-18.123,12.638l0.229-0.583C326.827,44.65,332.834,40.605,336.342,31.673z M342.29,40.253l4.244,1.667
		l-0.229,0.583l-4.244-1.667l-5.066,12.899l-0.638-0.25l9.544-24.301l0.638,0.25L342.29,40.253z"/>
	<path class="st0" d="M365.704,40.195l-6.495,10.734l10.454,6.325l-0.34,0.561l-5.252-3.178l-4.906,8.108l4.156,2.514
		c2.652,1.604,5.373,2.346,7.73,1.96l11.139-18.409l0.611,0.371l-13.514,22.335l-0.611-0.37l2.005-3.314
		c-2.225,0.396-4.981-0.402-7.684-2.037l-11.092-6.71l0.324-0.536l6.323,3.826l4.905-8.108l-5.176-3.132l7.174-11.856l10.76,6.51
		l-0.34,0.561L365.704,40.195z"/>
	<path class="st0" d="M383.928,82.918c-1.156-2.374-1.45-5.586-0.715-7.747c-1.773,1.216-5.116,1.673-8.018,0.766l0.429-0.535
		c2.426,0.833,6.676,0.337,8.612-2.084l0.986-1.234l0.559,0.447l-0.968,1.211c-1.806,2.259-1.6,6.202-0.463,8.6
		c2.589,0.581,6.527-0.049,8.333-2.308l0.969-1.21l0.559,0.446l-0.987,1.234c-1.936,2.421-1.52,6.533-0.159,8.841l-0.429,0.536
		c-1.477-2.593-1.804-5.908-1.018-7.989C389.719,83.122,386.618,83.467,383.928,82.918z M397.548,61.251l-6.636-5.306l0.391-0.489
		l7.172,5.733l-0.373,0.466c-4.505,5.635-10.063,6.763-15.847,3.972l0.409-0.512C387.987,67.576,393.21,66.676,397.548,61.251z
		 M402.806,64.461l0.559,0.447l-8.75,10.944l-0.559-0.447l4.468-5.588l-3.702-2.96l0.409-0.513l3.703,2.96L402.806,64.461z
		 M407.686,68.096l0.559,0.447l-8.991,11.247l-0.559-0.447L407.686,68.096z"/>
	<path class="st0" d="M404.827,88.21l-2.619,2.522l12.653,13.139l2.619-2.522l0.496,0.515l-6.913,6.658l-13.646-14.17l6.913-6.658
		L404.827,88.21z M414.41,104.306l-12.653-13.139l-3.393,3.267l12.654,13.139L414.41,104.306z M406.163,83.281l16.293,16.917
		l-0.473,0.455l-16.292-16.917L406.163,83.281z M421.053,85.164c-3.095,0.869-7.55-0.964-11.497-4.032l0.515-0.496
		c3.654,2.978,9.488,5.512,12.129,2.968l0.622-0.6l0.496,0.516l-0.622,0.6c-2.641,2.543-0.449,8.17,2.51,12.231l-0.515,0.496
		C421.671,92.638,420.11,88.181,421.053,85.164z"/>
	<path class="st0" d="M424.182,121.577l-6.348-8.576l19.117-14.149l0.426,0.575l-18.614,13.777l5.922,8.001
		c2.058,2.779,5.013,4.818,7.913,5.23l16.29-12.057l0.426,0.575l-20.985,15.532l-0.426-0.575l4.145-3.068
		C429.366,126.528,426.345,124.5,424.182,121.577z"/>
	<path class="st0" d="M439.45,145.362l-5.381-9.695l20.667-11.471l5.699,10.269l-0.573,0.318l-5.353-9.643l-19.546,10.849
		l5.033,9.069c1.592,2.867,4.049,5.083,6.562,5.802l18.009-9.996l0.333,0.6l-10.165,5.641l2.214,3.988l-0.548,0.304l-2.213-3.987
		l-12.119,6.726l-0.332-0.599l4.222-2.344C443.56,150.615,441.07,148.281,439.45,145.362z"/>
	<path class="st0" d="M447.315,162.127l-0.378-0.843l2.393-1.074l0.379,0.843L447.315,162.127z M453.59,159.147l-0.269-0.598
		l14.577-6.609l0.317,0.707L453.59,159.147z"/>
</g>
</svg>
