<?xml version="1.0" encoding="utf-8"?>
<!-- Generator: Adobe Illustrator 27.0.0, SVG Export Plug-In . SVG Version: 6.00 Build 0)  -->
<svg version="1.1" id="Layer_2" xmlns="http://www.w3.org/2000/svg" xmlns:xlink="http://www.w3.org/1999/xlink" x="0px" y="0px"
	 viewBox="0 0 434.702 386.603" style="enable-background:new 0 0 434.702 386.603;" xml:space="preserve">
<style type="text/css">
	.st0{fill:none;stroke:#A6CBFF;stroke-width:21;stroke-miterlimit:10;}
	.st1{fill:#A6CBFF;}
</style>
<path class="st0" d="M410.205,374.468H26.317c-6.6,0-12-5.4-12-12V25.851c0-6.6,5.4-12,12-12h383.888c6.6,0,12,5.4,12,12v336.617
	C422.205,369.068,416.805,374.468,410.205,374.468z"/>
<circle class="st0" cx="218.261" cy="194.159" r="83.305"/>
<path class="st1" d="M257.932,189.241l-55.247-31.897c-3.786-2.186-8.519,0.546-8.519,4.918v63.794c0,4.372,4.733,7.104,8.519,4.918
	l55.247-31.897C261.718,196.892,261.718,191.427,257.932,189.241z"/>
<line class="st0" x1="14.317" y1="76.721" x2="422.205" y2="76.721"/>
<line class="st0" x1="14.317" y1="308.587" x2="422.205" y2="308.587"/>
<line class="st0" x1="92.801" y1="13.851" x2="92.801" y2="76.721"/>
<line class="st0" x1="174.083" y1="13.851" x2="174.083" y2="76.721"/>
<line class="st0" x1="255.364" y1="13.851" x2="255.364" y2="76.721"/>
<line class="st0" x1="336.646" y1="13.851" x2="336.646" y2="76.721"/>
<line class="st0" x1="92.801" y1="308.587" x2="92.801" y2="374.468"/>
<line class="st0" x1="174.083" y1="308.587" x2="174.083" y2="374.468"/>
<line class="st0" x1="255.364" y1="308.587" x2="255.364" y2="374.468"/>
<line class="st0" x1="336.646" y1="308.587" x2="336.646" y2="374.468"/>
</svg>
