<?xml version="1.0" encoding="utf-8"?>
<!-- Generator: Adobe Illustrator 27.0.0, SVG Export Plug-In . SVG Version: 6.00 Build 0)  -->
<svg version="1.1" id="Layer_1" xmlns="http://www.w3.org/2000/svg" xmlns:xlink="http://www.w3.org/1999/xlink" x="0px" y="0px"
	 viewBox="0 0 434.956 392.936" style="enable-background:new 0 0 434.956 392.936;" xml:space="preserve">
<style type="text/css">
	.st0{fill:none;stroke:#A6CBFF;stroke-width:9;stroke-linecap:round;stroke-linejoin:round;stroke-miterlimit:10;}
	.st1{fill:#FFD778;}
	.st2{fill:#FFD778;stroke:#A6CBFF;stroke-width:9;stroke-linecap:round;stroke-linejoin:round;stroke-miterlimit:10;}
	.st3{font-family:'ChangaOne';}
	.st4{font-size:70px;}
</style>
<polyline class="st0" points="41.444,131.279 93.734,92.428 147.02,131.279 "/>
<path class="st0" d="M170.064,183.146H18.4c-6.6,0-12-5.4-12-12V19.482c0-6.6,5.4-12,12-12h151.664c6.6,0,12,5.4,12,12v151.664
	C182.064,177.746,176.664,183.146,170.064,183.146z"/>
<path class="st0" d="M170.064,381.256H18.4c-6.6,0-12-5.4-12-12V217.592c0-6.6,5.4-12,12-12h151.664c6.6,0,12,5.4,12,12v151.664
	C182.064,375.856,176.664,381.256,170.064,381.256z"/>
<path class="st0" d="M368.164,183.146H216.5c-6.6,0-12-5.4-12-12V19.482c0-6.6,5.4-12,12-12h151.664c6.6,0,12,5.4,12,12v151.664
	C380.164,177.746,374.764,183.146,368.164,183.146z"/>
<path class="st1" d="M282.175,366.193l-59.8-58.675c-2.245-2.203-4.008-4.876-4.982-7.866c-1.394-4.278-1.504-9.858,5.275-13.015
	c0,0,22.561-14.238,52.921,9.524c1.607,1.257,3.863-0.368,3.193-2.295l-45.402-130.543c-1.974-5.675-1.742-11.917,0.804-17.359
	c3.999-8.551,12.498-18.049,29.676-9.736c5.355,2.591,9.434,7.245,11.303,12.893l16.994,51.343c0.443,1.337,2.182,1.674,3.082,0.59
	c5.03-6.054,19.174-18.58,37.793,2.782c0.651,0.746,1.788,0.83,2.53,0.175c4.936-4.362,22.898-17.411,40.074,5.578
	c0.626,0.839,1.828,0.971,2.617,0.284c4.792-4.173,20.633-15.22,33.272,7.767c0,0,30.762,107.457,5.293,141.235
	c0,0-12.464,20.095-41.581,29.607C342.586,399.148,306.693,390.25,282.175,366.193z"/>
<path class="st0" d="M140.343,133.02H48.121c-6.6,0-12-5.4-12-12V69.608c0-6.6,5.4-12,12-12h92.222c6.6,0,12,5.4,12,12v51.411
	C152.343,127.62,146.943,133.02,140.343,133.02z"/>
<path class="st2" d="M40.946,60.006l42.98,37.697c5.897,5.172,14.714,5.172,20.611,0l42.98-37.697"/>
<path class="st2" d="M254.689,40.936c0,0-17.115,2.432-17.996,20.328c-0.044,0.895,0.118,1.79,0.497,2.602
	c2.939,6.307,18.038,33.948,28.931,46.245c0,0,32.493,36.979,56.839,37.434c2.651,0.05,15.782,0.032,22.157-16.265
	c0,0,3.894-10.569-21.678-19.727c-2.556-0.915-5.37-0.79-7.837,0.343c-1.648,0.757-3.89,1.831-6.86,3.334
	c-2.368,1.199-5.142,1.349-7.607,0.366c-6.755-2.694-20.204-10.371-30.602-30.929c-1.158-2.289-0.959-5.041,0.492-7.157
	c2.799-4.082,6.66-9.25,5.154-11.81C276.18,65.699,263.843,40.192,254.689,40.936z"/>
<text transform="matrix(1 0 0 1 22.8663 312.5236)" class="st1 st3 st4">Blog</text>
</svg>
