<?xml version="1.0" encoding="utf-8"?>
<!-- Generator: Adobe Illustrator 27.0.0, SVG Export Plug-In . SVG Version: 6.00 Build 0)  -->
<svg version="1.1" xmlns="http://www.w3.org/2000/svg" xmlns:xlink="http://www.w3.org/1999/xlink" x="0px" y="0px"
	 viewBox="0 0 389.008 313.903" style="enable-background:new 0 0 389.008 313.903;" xml:space="preserve">
<style type="text/css">
	.st0{display:none;}
	.st1{fill:#FFD778;}
	.st2{fill:none;stroke:#789CD6;stroke-width:13;stroke-miterlimit:10;}
	.st3{fill:#789CD6;}
</style>
<g id="Layer_1" class="st0">
	
		<image style="display:inline;overflow:visible;" width="450" height="414" xlink:href="9CC41C4.jpg"  transform="matrix(1 0 0 1 -23.4917 -28.2497)">
	</image>
</g>
<g id="Layer_2">
	<circle class="st1" cx="284.008" cy="198.25" r="105"/>
	<circle class="st2" cx="43.767" cy="202.529" r="36.5"/>
	<circle class="st2" cx="284.008" cy="202.529" r="36.5"/>
	<circle class="st2" cx="165.146" cy="44.977" r="36.5"/>
	<path class="st2" d="M139.069,264.25c-2.518,0-4.943-0.582-7.128-1.633c-2.118,2.167-3.433,5.123-3.433,8.374v29.475
		c0,3.529,2.888,6.417,6.417,6.417h60.311c3.449,0,6.272-2.822,6.272-6.272v-29.62c0-3.044-1.158-5.824-3.044-7.946
		c-1.788,0.775-3.743,1.205-5.77,1.205H139.069z"/>
	<path class="st2" d="M224.216,205.562L169.38,132.81c-2.101-2.788-6.302-2.741-8.341,0.093l-55.247,76.807
		c-1.1,1.53-1.283,3.537-0.477,5.24l18.873,39.878c1.645,3.477,4.417,6.184,7.754,7.789c2.185,1.05,4.61,1.633,7.128,1.633h53.626
		c2.027,0,3.981-0.43,5.77-1.205c3.372-1.461,6.144-4.172,7.624-7.696l18.766-44.664
		C225.569,208.986,225.326,207.034,224.216,205.562z"/>
	<line class="st2" x1="63.316" y1="171.708" x2="141.308" y2="72.605"/>
	<line class="st2" x1="188.985" y1="72.605" x2="264.465" y2="171.708"/>
	<circle class="st3" cx="165.008" cy="208.686" r="15.782"/>
	<line class="st2" x1="165.008" y1="208.686" x2="165.008" y2="130.761"/>
</g>
</svg>
