<?xml version="1.0" encoding="utf-8"?>
<!-- Generator: Adobe Illustrator 27.0.0, SVG Export Plug-In . SVG Version: 6.00 Build 0)  -->
<svg version="1.1" xmlns="http://www.w3.org/2000/svg" xmlns:xlink="http://www.w3.org/1999/xlink" x="0px" y="0px"
	 viewBox="0 0 595.276 841.89" style="enable-background:new 0 0 595.276 841.89;" xml:space="preserve">
<style type="text/css">
	.st0{display:none;}
	.st1{clip-path:url(#SVGID_00000147189780573812424730000010315601481921467810_);fill:#FFF9EC;}
	.st2{opacity:0.8;clip-path:url(#SVGID_00000147189780573812424730000010315601481921467810_);fill:#B5DDBB;}
	.st3{opacity:0.8;clip-path:url(#SVGID_00000147189780573812424730000010315601481921467810_);fill:#FBD407;}
	.st4{opacity:0.8;clip-path:url(#SVGID_00000147189780573812424730000010315601481921467810_);fill:#919BCE;}
	.st5{opacity:0.8;clip-path:url(#SVGID_00000147189780573812424730000010315601481921467810_);fill:#F1B9D5;}
	.st6{clip-path:url(#SVGID_00000147189780573812424730000010315601481921467810_);fill:#F1B9D5;}
	.st7{opacity:0.8;clip-path:url(#SVGID_00000147189780573812424730000010315601481921467810_);fill:#36B77C;}
	.st8{opacity:0.8;clip-path:url(#SVGID_00000147189780573812424730000010315601481921467810_);fill:#22B46D;}
	.st9{clip-path:url(#SVGID_00000147189780573812424730000010315601481921467810_);fill:#C0E1C0;}
	.st10{clip-path:url(#SVGID_00000147189780573812424730000010315601481921467810_);}
	.st11{fill:#22B46D;}
	.st12{fill:#FFFFFF;}
	.st13{fill:none;stroke:#FFFFFF;stroke-width:4;stroke-linecap:round;stroke-linejoin:round;stroke-miterlimit:10;}
	.st14{opacity:0.8;clip-path:url(#SVGID_00000147189780573812424730000010315601481921467810_);fill:#FBD30C;}
	.st15{opacity:0.8;clip-path:url(#SVGID_00000147189780573812424730000010315601481921467810_);fill:#D898C3;}
	.st16{opacity:0.8;clip-path:url(#SVGID_00000147189780573812424730000010315601481921467810_);fill:#B6B8DC;}
	.st17{opacity:0.7;clip-path:url(#SVGID_00000147189780573812424730000010315601481921467810_);fill:#D898C3;}
	.st18{opacity:0.7;clip-path:url(#SVGID_00000147189780573812424730000010315601481921467810_);fill:#FBD30C;}
	.st19{opacity:0.7;clip-path:url(#SVGID_00000147189780573812424730000010315601481921467810_);fill:#29B67F;}
	.st20{opacity:0.8;clip-path:url(#SVGID_00000147189780573812424730000010315601481921467810_);fill:#29B67F;}
	.st21{opacity:0.8;clip-path:url(#SVGID_00000147189780573812424730000010315601481921467810_);}
	.st22{opacity:0.8;}
	.st23{fill:#F1B9D5;}
	.st24{clip-path:url(#SVGID_00000147189780573812424730000010315601481921467810_);fill:none;stroke:#000000;stroke-miterlimit:10;}
	.st25{opacity:0.7;fill:#FBD30C;}
	.st26{opacity:0.7;fill:#D898C3;}
	.st27{opacity:0.7;fill:#9796C9;}
	.st28{opacity:0.7;fill:#29B67F;}
	.st29{fill:none;stroke:#000000;stroke-miterlimit:10;}
</style>
<g id="Layer_1" class="st0">
	
		<image style="display:inline;overflow:visible;" width="491" height="602" xlink:href="../jQuery/pf/img/image13.JPG"  transform="matrix(1.2233 0 0 1.2233 -2.6827 52.7312)">
	</image>
</g>
<g id="Layer_2">
	<g>
		<defs>
			<rect id="SVGID_1_" x="0" width="595.276" height="841.89"/>
		</defs>
		<clipPath id="SVGID_00000016044542565532552370000005632291677038938023_">
			<use xlink:href="#SVGID_1_"  style="overflow:visible;"/>
		</clipPath>
		
			<rect style="clip-path:url(#SVGID_00000016044542565532552370000005632291677038938023_);fill:#FFF9EC;" width="595.276" height="841.89"/>
		<path style="opacity:0.8;clip-path:url(#SVGID_00000016044542565532552370000005632291677038938023_);fill:#B5DDBB;" d="
			M146.599,177.824c0,0-81.177,36.05-38.807,115.467C107.792,293.292,189.241,261.532,146.599,177.824z"/>
		<path style="opacity:0.8;clip-path:url(#SVGID_00000016044542565532552370000005632291677038938023_);fill:#FBD407;" d="
			M624.603,386.958c9.613-7.92,13.35-21.482,8.286-33.559c-5.064-12.077-17.356-18.918-29.743-17.614
			c2.273-12.246-3.581-25.037-15.224-31.034c-11.642-5.997-25.456-3.336-34.106,5.625c-6.131-10.842-18.837-16.878-31.611-13.988
			c-12.773,2.89-21.644,13.807-22.511,26.232c-11.665-4.365-25.279-0.821-33.206,9.603c-7.927,10.424-7.705,24.49-0.383,34.565
			c-11.742,4.155-19.892,15.62-19.265,28.701c0.628,13.081,9.839,23.713,21.925,26.724c-6.324,10.73-5.198,24.752,3.691,34.37
			c8.889,9.617,22.78,11.841,33.973,6.379c2.053,12.285,11.929,22.303,24.92,23.956c12.991,1.653,25.062-5.572,30.126-16.951
			c9.469,8.091,23.474,9.417,34.488,2.333c11.015-7.084,15.617-20.378,12.182-32.35c12.455,0.112,24.035-7.875,27.919-20.382
			C639.949,407.063,634.93,393.922,624.603,386.958z"/>
		<path style="opacity:0.8;clip-path:url(#SVGID_00000016044542565532552370000005632291677038938023_);fill:#919BCE;" d="
			M81.441,231.358c7.822-9.692,8.754-23.729,1.363-34.54c-7.391-10.811-20.808-15.038-32.679-11.268
			c-0.238-12.453-8.547-23.805-21.158-27.336c-12.611-3.531-25.606,1.855-32.277,12.374c-8.187-9.386-21.848-12.742-33.779-7.34
			s-18.423,17.881-16.772,30.226c-12.305-1.928-24.927,4.283-30.594,16.089c-5.667,11.806-2.62,25.54,6.581,33.935
			c-10.665,6.433-16.342,19.304-13.095,31.991c3.247,12.687,14.41,21.248,26.854,21.766c-4.035,11.783-0.11,25.292,10.532,32.924
			c10.643,7.631,24.697,7.014,34.562-0.588c4.483,11.62,16.173,19.446,29.231,18.451c13.058-0.995,23.428-10.501,26.098-22.667
			c10.903,6.02,24.889,4.501,34.252-4.655c9.364-9.156,11.197-23.103,5.422-34.139c12.222-2.397,21.959-12.55,23.246-25.583
			C100.519,247.963,92.958,236.1,81.441,231.358z"/>
		<path style="opacity:0.8;clip-path:url(#SVGID_00000016044542565532552370000005632291677038938023_);fill:#F1B9D5;" d="
			M625.455,190.805c16.667-19.115,15.322-48.142-3.345-65.605c-18.666-17.464-47.718-16.876-65.682,1.026
			c-8.22-23.991-34.031-37.34-58.488-29.906c-24.457,7.434-38.474,32.887-31.953,57.395c-24.887-4.877-49.353,10.802-55.143,35.699
			c-5.791,24.897,9.244,49.763,33.729,56.37c-16.667,19.115-15.322,48.142,3.345,65.605c18.666,17.464,47.718,16.875,65.682-1.026
			c8.22,23.992,34.031,37.34,58.488,29.906c24.457-7.434,38.474-32.887,31.953-57.395c24.887,4.877,49.353-10.802,55.143-35.699
			C664.975,222.278,649.94,197.412,625.455,190.805z"/>
		<path style="clip-path:url(#SVGID_00000016044542565532552370000005632291677038938023_);fill:#F1B9D5;" d="M108.709,523.835
			c4.787-22.982-9.457-45.799-32.439-51.432c-22.981-5.633-46.162,8.011-52.545,30.602c-17.51-15.636-44.392-14.709-60.761,2.377
			c-16.369,17.086-16.143,43.983,0.229,60.807c-22.296,7.346-34.935,31.09-28.322,53.809c6.613,22.719,30.019,35.972,52.775,30.205
			C-17.14,673.184-2.896,696,20.086,701.633c22.981,5.633,46.162-8.011,52.545-30.602c17.51,15.636,44.392,14.709,60.761-2.377
			c16.369-17.086,16.143-43.983-0.23-60.807c22.296-7.346,34.935-31.09,28.322-53.809
			C154.871,531.321,131.465,518.068,108.709,523.835z"/>
		<path style="opacity:0.8;clip-path:url(#SVGID_00000016044542565532552370000005632291677038938023_);fill:#919BCE;" d="
			M522.865,767.372c17.553-7.051,26.498-26.793,20.015-44.723c-6.483-17.93-25.985-27.387-43.988-21.582
			c2.67-18.727-9.954-36.344-28.724-39.695c-18.769-3.351-36.71,8.81-40.684,27.304c-14.883-11.676-36.452-9.551-48.739,5.028
			c-12.286,14.579-10.725,36.197,3.304,48.886c-17.553,7.051-26.498,26.793-20.015,44.723c6.483,17.93,25.985,27.387,43.988,21.582
			c-2.67,18.727,9.954,36.344,28.724,39.695c18.769,3.351,36.71-8.81,40.684-27.304c14.883,11.676,36.452,9.551,48.739-5.028
			C538.455,801.679,536.894,780.061,522.865,767.372z"/>
		<path style="opacity:0.8;clip-path:url(#SVGID_00000016044542565532552370000005632291677038938023_);fill:#36B77C;" d="
			M214.363,150.254c24.106-2.901,41.764-24.399,39.693-48.784c-2.071-24.385-23.101-42.597-47.351-41.391
			c9.541-22.327-0.248-48.368-22.401-58.767C162.15-9.087,135.863,0.02,124.782,21.624C110.217,2.198,82.77-2.345,62.688,11.641
			c-20.083,13.986-25.34,41.305-12.17,61.703c-24.106,2.901-41.764,24.399-39.693,48.784c2.071,24.385,23.101,42.597,47.351,41.391
			c-9.541,22.327,0.248,48.368,22.401,58.767c22.153,10.399,48.441,1.292,59.521-20.312c14.565,19.426,42.012,23.969,62.094,9.983
			C222.276,197.971,227.533,170.652,214.363,150.254z"/>
		<polygon style="opacity:0.8;clip-path:url(#SVGID_00000016044542565532552370000005632291677038938023_);fill:#22B46D;" points="
			115.029,380.061 111.083,373.227 91.425,384.576 91.425,361.877 83.533,361.877 83.533,384.576 63.875,373.227 59.929,380.061 
			79.587,391.411 59.929,402.76 63.875,409.595 83.533,398.246 83.533,420.945 91.425,420.945 91.425,398.246 111.083,409.595 
			115.029,402.76 95.371,391.411 		"/>
		<polygon style="opacity:0.8;clip-path:url(#SVGID_00000016044542565532552370000005632291677038938023_);fill:#22B46D;" points="
			301.571,70.916 297.625,64.081 277.967,75.43 277.967,52.731 270.075,52.731 270.075,75.43 250.417,64.081 246.471,70.916 
			266.129,82.265 246.471,93.615 250.417,100.45 270.075,89.1 270.075,111.799 277.967,111.799 277.967,89.1 297.625,100.45 
			301.571,93.615 281.913,82.265 		"/>
		<polygon style="opacity:0.8;clip-path:url(#SVGID_00000016044542565532552370000005632291677038938023_);fill:#22B46D;" points="
			512.822,520.043 508.876,513.208 489.218,524.558 489.218,501.859 481.326,501.859 481.326,524.558 461.668,513.208 
			457.722,520.043 477.38,531.393 457.722,542.742 461.668,549.577 481.326,538.227 481.326,560.926 489.218,560.926 
			489.218,538.227 508.876,549.577 512.822,542.742 493.164,531.393 		"/>
		<polygon style="opacity:0.8;clip-path:url(#SVGID_00000016044542565532552370000005632291677038938023_);fill:#22B46D;" points="
			534.59,30.15 530.644,23.315 510.986,34.665 510.986,11.966 503.093,11.966 503.093,34.665 483.435,23.315 479.489,30.15 
			499.147,41.5 479.489,52.849 483.435,59.684 503.093,48.335 503.093,71.034 510.986,71.034 510.986,48.335 530.644,59.684 
			534.59,52.849 514.932,41.5 		"/>
		<polygon style="opacity:0.8;clip-path:url(#SVGID_00000016044542565532552370000005632291677038938023_);fill:#22B46D;" points="
			193.351,692.494 189.404,685.659 169.746,697.009 169.746,674.31 161.854,674.31 161.854,697.009 142.196,685.659 138.25,692.494 
			157.908,703.844 138.25,715.193 142.196,722.028 161.854,710.678 161.854,733.377 169.746,733.377 169.746,710.678 
			189.404,722.028 193.351,715.193 173.693,703.844 		"/>
		<path style="clip-path:url(#SVGID_00000016044542565532552370000005632291677038938023_);fill:#C0E1C0;" d="M330.674,658.612
			c-6.519,0-12.391,2.762-16.518,7.176c-4.127-4.414-9.998-7.176-16.518-7.176c-6.519,0-12.391,2.762-16.518,7.176
			c-4.127-4.414-9.998-7.176-16.518-7.176c-12.49,0-22.616,10.125-22.616,22.616c0,12.49,10.125,22.616,22.616,22.616
			c6.519,0,12.391-2.762,16.518-7.176c4.127,4.413,9.998,7.176,16.518,7.176c6.519,0,12.391-2.762,16.518-7.176
			c4.127,4.413,9.998,7.176,16.518,7.176c12.49,0,22.616-10.125,22.616-22.616C353.289,668.737,343.164,658.612,330.674,658.612z"/>
		<g style="clip-path:url(#SVGID_00000016044542565532552370000005632291677038938023_);">
			<path class="st11" d="M260.624,678.693v-0.792h5.928v0.792H260.624z M267.597,686.373v-2.34h-1.776
				c-0.08,0.128-0.168,0.244-0.264,0.349c-0.224,0.264-0.498,0.474-0.822,0.63c-0.324,0.155-0.686,0.233-1.086,0.233
				s-0.762-0.078-1.086-0.233c-0.324-0.156-0.6-0.366-0.828-0.63c-0.228-0.265-0.404-0.572-0.528-0.925
				c-0.124-0.352-0.186-0.724-0.186-1.115c0-0.393,0.062-0.765,0.186-1.116c0.124-0.353,0.3-0.66,0.528-0.924
				c0.228-0.265,0.504-0.475,0.828-0.63c0.324-0.156,0.686-0.234,1.086-0.234s0.76,0.08,1.08,0.24
				c0.288,0.136,0.54,0.315,0.756,0.54h2.112v-4.128h0.9v10.283H267.597z M265.376,682.342c0-0.288-0.038-0.561-0.114-0.816
				c-0.076-0.256-0.186-0.481-0.33-0.678s-0.324-0.35-0.54-0.462s-0.464-0.168-0.744-0.168c-0.28,0-0.528,0.056-0.744,0.168
				c-0.216,0.112-0.396,0.266-0.54,0.462s-0.254,0.422-0.33,0.678c-0.076,0.256-0.114,0.528-0.114,0.816s0.038,0.56,0.114,0.815
				c0.076,0.256,0.186,0.482,0.33,0.678c0.144,0.196,0.324,0.351,0.54,0.463c0.216,0.111,0.464,0.168,0.744,0.168
				c0.28,0,0.528-0.057,0.744-0.168c0.216-0.112,0.396-0.267,0.54-0.463c0.144-0.195,0.254-0.422,0.33-0.678
				C265.338,682.901,265.376,682.63,265.376,682.342z M262.004,676.905v-0.792h3.288v0.792H262.004z M266.276,682.342
				c0,0.304-0.04,0.596-0.12,0.876h1.44v-2.185h-1.584l0.072,0.192C266.212,681.577,266.276,681.949,266.276,682.342z
				 M269.732,686.661V675.97h0.912v10.691H269.732z"/>
			<path class="st11" d="M276.956,679.497h-3.636v1.776l4.272-0.18v0.756l-5.172,0.264v-5.844h4.656v0.768h-3.756v1.717h3.636
				V679.497z M280.784,686.733v-2.76h-7.488v-0.792h8.4v3.552H280.784z M278.192,682.581v-6.516h0.9v2.652h1.716v-2.748h0.912v6.611
				h-0.912v-3.071h-1.716v3.071H278.192z"/>
			<path class="st11" d="M291.908,684.873v-2.352h-3.6v-6.216h0.912v2.268h6.3v-2.268h0.912v6.216h-3.588v2.352h4.788v0.792H287.12
				v-0.792H291.908z M295.52,681.729v-2.364h-6.3v2.364H295.52z"/>
			<path class="st11" d="M299.216,684.897v-4.8h4.176v-2.952h-4.176v-0.792h5.088v4.536h-4.176v3.144l5.771-0.3v0.78
				L299.216,684.897z M307.147,686.674v-6.049h-2.04v-0.815h2.04v-3.84h0.912v10.704H307.147z"/>
			<path class="st11" d="M314.288,676.426h5.592c0.008,0.983-0.118,1.91-0.378,2.777c-0.261,0.868-0.628,1.666-1.104,2.395
				c-0.476,0.728-1.042,1.382-1.697,1.962c-0.656,0.58-1.373,1.074-2.148,1.481l-0.6-0.672c0.743-0.359,1.413-0.802,2.01-1.326
				c0.596-0.523,1.105-1.098,1.53-1.722c0.424-0.624,0.756-1.284,0.995-1.979c0.24-0.696,0.376-1.404,0.408-2.124h-4.607V676.426z
				 M321.811,686.674V675.97h0.912v4.188h1.74v0.816h-1.74v5.7H321.811z"/>
			<path class="st11" d="M325.855,676.426h5.593c0.008,0.983-0.118,1.91-0.378,2.777c-0.261,0.868-0.629,1.666-1.104,2.395
				c-0.476,0.728-1.042,1.382-1.698,1.962s-1.372,1.074-2.147,1.481l-0.601-0.672c0.744-0.359,1.414-0.802,2.011-1.326
				c0.596-0.523,1.105-1.098,1.529-1.722s0.756-1.284,0.996-1.979c0.24-0.696,0.376-1.404,0.408-2.124h-4.608V676.426z
				 M333.74,686.674V675.97h0.911v10.704H333.74z"/>
		</g>
		<path style="opacity:0.8;clip-path:url(#SVGID_00000016044542565532552370000005632291677038938023_);fill:#B5DDBB;" d="
			M380.11,62.838c0,0-7.692,106.41,100.427,106.41C480.538,169.248,492.931,64.975,380.11,62.838z"/>
		<path style="opacity:0.8;clip-path:url(#SVGID_00000016044542565532552370000005632291677038938023_);fill:#B5DDBB;" d="
			M585.027,449.22c0,0-98.988,39.795-51.532,136.943C533.495,586.163,632.627,551.53,585.027,449.22z"/>
		<path style="opacity:0.8;clip-path:url(#SVGID_00000016044542565532552370000005632291677038938023_);fill:#B5DDBB;" d="
			M543.057,657.919c0,0-8.967,35.68,27.753,42.136C570.81,700.055,581.246,665.382,543.057,657.919z"/>
		<path style="opacity:0.8;clip-path:url(#SVGID_00000016044542565532552370000005632291677038938023_);fill:#B5DDBB;" d="
			M65.674,696.959c0,0-36.78-0.853-34.954,36.385C30.72,733.345,66.843,735.853,65.674,696.959z"/>
		<path style="opacity:0.8;clip-path:url(#SVGID_00000016044542565532552370000005632291677038938023_);fill:#B5DDBB;" d="
			M51.94,780.07c0,0,7.619,35.992,43.442,25.661C95.382,805.731,89.525,769.998,51.94,780.07z"/>
		<path style="opacity:0.8;clip-path:url(#SVGID_00000016044542565532552370000005632291677038938023_);fill:#B5DDBB;" d="
			M406.576,308.077c0,0,34.934-11.537,20.72-46.004C427.296,262.072,392.425,271.83,406.576,308.077z"/>
		<path style="opacity:0.8;clip-path:url(#SVGID_00000016044542565532552370000005632291677038938023_);fill:#B5DDBB;" d="
			M34.164,419.073c0,0-8.779,35.727,27.975,41.99C62.139,461.062,72.392,426.334,34.164,419.073z"/>
		<path style="opacity:0.8;clip-path:url(#SVGID_00000016044542565532552370000005632291677038938023_);fill:#B5DDBB;" d="
			M136.951,744.552c0,0-7.109,88.536,82.901,89.253C219.853,833.805,230.861,747.078,136.951,744.552z"/>
		<path style="opacity:0.8;clip-path:url(#SVGID_00000016044542565532552370000005632291677038938023_);fill:#B5DDBB;" d="
			M526.689,126.509c0,0-39.955,0.228-36.805,40.597C489.883,167.106,529.178,168.696,526.689,126.509z"/>
		<g style="clip-path:url(#SVGID_00000016044542565532552370000005632291677038938023_);">
			
				<ellipse transform="matrix(0.7561 -0.6544 0.6544 0.7561 -10.2652 399.5068)" class="st12" cx="530.887" cy="213.526" rx="3.354" ry="2.635"/>
			
				<ellipse transform="matrix(0.9971 -0.076 0.076 0.9971 -14.9814 41.7774)" class="st12" cx="541.599" cy="217.793" rx="2.635" ry="3.354"/>
			<path class="st13" d="M507.04,215.036c0,0,5.431,8.105,12.413,13.956c3.732,3.128,8.295,5.108,13.111,5.821
				c7.123,1.055,19.224,1.783,26.755-3.596"/>
		</g>
		<g style="clip-path:url(#SVGID_00000016044542565532552370000005632291677038938023_);">
			
				<ellipse transform="matrix(0.1262 -0.992 0.992 0.1262 -353.1858 1095.6122)" class="st12" cx="445.342" cy="748.295" rx="3.354" ry="2.635"/>
			
				<ellipse transform="matrix(0.6918 -0.7221 0.7221 0.6918 -396.88 558.8069)" class="st12" cx="456.166" cy="744.323" rx="2.635" ry="3.354"/>
			<path class="st13" d="M428.592,765.337c0,0,9.454,2.411,18.558,2.108c4.867-0.162,9.586-1.733,13.649-4.417
				c6.008-3.968,15.505-11.503,17.523-20.535"/>
		</g>
		<g style="clip-path:url(#SVGID_00000016044542565532552370000005632291677038938023_);">
			
				<ellipse transform="matrix(0.5636 -0.8261 0.8261 0.5636 -23.9798 155.8674)" class="st12" cx="135.527" cy="100.629" rx="2.454" ry="1.928"/>
			
				<ellipse transform="matrix(0.9445 -0.3285 0.3285 0.9445 -25.4016 52.9067)" class="st12" cx="143.903" cy="101.642" rx="1.928" ry="2.454"/>
			<path class="st13" d="M118.94,106.16c0,0,5.359,4.717,11.393,7.55c3.226,1.514,6.824,2.061,10.365,1.664
				c5.236-0.587,13.933-2.336,18.254-7.551"/>
		</g>
		
			<circle style="opacity:0.8;clip-path:url(#SVGID_00000016044542565532552370000005632291677038938023_);fill:#36B77C;" cx="369.176" cy="108.8" r="11.828"/>
		
			<circle style="opacity:0.8;clip-path:url(#SVGID_00000016044542565532552370000005632291677038938023_);fill:#FBD30C;" cx="99.374" cy="339.816" r="15.655"/>
		
			<circle style="opacity:0.8;clip-path:url(#SVGID_00000016044542565532552370000005632291677038938023_);fill:#D898C3;" cx="193.351" cy="473.621" r="19.904"/>
		
			<circle style="opacity:0.8;clip-path:url(#SVGID_00000016044542565532552370000005632291677038938023_);fill:#D898C3;" cx="473.361" cy="640.245" r="9.952"/>
		
			<circle style="opacity:0.8;clip-path:url(#SVGID_00000016044542565532552370000005632291677038938023_);fill:#919BCE;" cx="445.307" cy="356.426" r="9.952"/>
		
			<circle style="opacity:0.8;clip-path:url(#SVGID_00000016044542565532552370000005632291677038938023_);fill:#B6B8DC;" cx="209.496" cy="767.471" r="16.436"/>
		
			<circle style="opacity:0.7;clip-path:url(#SVGID_00000016044542565532552370000005632291677038938023_);fill:#D898C3;" cx="318.326" cy="258.103" r="19.904"/>
		
			<circle style="opacity:0.7;clip-path:url(#SVGID_00000016044542565532552370000005632291677038938023_);fill:#FBD30C;" cx="317.542" cy="218.295" r="19.904"/>
		
			<circle style="opacity:0.7;clip-path:url(#SVGID_00000016044542565532552370000005632291677038938023_);fill:#FBD30C;" cx="252.454" cy="241.821" r="6.263"/>
		
			<circle style="opacity:0.7;clip-path:url(#SVGID_00000016044542565532552370000005632291677038938023_);fill:#D898C3;" cx="384.243" cy="508.138" r="3.837"/>
		
			<circle style="opacity:0.7;clip-path:url(#SVGID_00000016044542565532552370000005632291677038938023_);fill:#29B67F;" cx="339.137" cy="452.678" r="4.516"/>
		
			<circle style="opacity:0.8;clip-path:url(#SVGID_00000016044542565532552370000005632291677038938023_);fill:#29B67F;" cx="194.38" cy="493.526" r="19.904"/>
		<g style="opacity:0.8;clip-path:url(#SVGID_00000016044542565532552370000005632291677038938023_);">
			<g class="st22">
				<path class="st23" d="M198.886,159.435c2.124-0.371,3.187-0.551,5.314-0.9c0.673-0.111,1.296-0.115,1.87-0.015
					c0.573,0.1,1.076,0.28,1.508,0.539c0.432,0.259,0.78,0.586,1.047,0.98c0.266,0.395,0.437,0.836,0.513,1.324
					c0.055,0.35,0.053,0.678-0.005,0.981c-0.058,0.304-0.149,0.581-0.274,0.832c-0.125,0.25-0.274,0.475-0.445,0.676
					c-0.172,0.2-0.352,0.373-0.538,0.518c0.312,0.066,0.649,0.166,1.011,0.302c0.362,0.135,0.706,0.332,1.034,0.588
					c0.328,0.256,0.616,0.58,0.866,0.971c0.249,0.391,0.416,0.862,0.501,1.413c0.085,0.551,0.05,1.091-0.101,1.621
					c-0.152,0.53-0.41,1.015-0.775,1.456c-0.365,0.441-0.829,0.819-1.393,1.133c-0.565,0.315-1.211,0.531-1.942,0.65
					c-2.298,0.375-3.446,0.569-5.741,0.969C200.356,167.858,199.866,165.05,198.886,159.435z M200.526,160.385
					c0.32,1.865,0.481,2.798,0.801,4.663c1.534-0.263,2.301-0.392,3.836-0.645c0.448-0.074,0.841-0.202,1.179-0.385
					c0.338-0.183,0.619-0.401,0.841-0.655c0.222-0.254,0.379-0.532,0.469-0.835s0.11-0.617,0.058-0.942
					c-0.052-0.325-0.168-0.618-0.347-0.878c-0.18-0.26-0.416-0.476-0.708-0.647c-0.292-0.171-0.629-0.287-1.009-0.348
					c-0.38-0.06-0.797-0.053-1.248,0.021C202.848,159.99,202.074,160.12,200.526,160.385z M201.533,166.246
					c0.398,2.315,0.596,3.472,0.994,5.786c1.741-0.299,2.611-0.445,4.354-0.729c0.518-0.085,0.975-0.239,1.374-0.463
					c0.398-0.224,0.728-0.492,0.991-0.803c0.262-0.311,0.448-0.654,0.558-1.031c0.11-0.376,0.135-0.758,0.074-1.146
					c-0.061-0.388-0.202-0.747-0.423-1.078c-0.221-0.331-0.506-0.603-0.853-0.818c-0.348-0.214-0.748-0.365-1.201-0.453
					c-0.453-0.088-0.941-0.089-1.465-0.004C204.173,165.797,203.293,165.944,201.533,166.246z"/>
				<path class="st23" d="M215.413,169.982c3.264-0.478,4.897-0.705,8.167-1.132c0.063,0.482,0.095,0.723,0.158,1.206
					c-3.823,0.499-5.733,0.767-9.549,1.336c-0.841-5.637-1.262-8.456-2.103-14.094c0.575-0.086,0.863-0.128,1.439-0.213
					C214.279,162.245,214.657,164.824,215.413,169.982z"/>
				<path class="st23" d="M223.41,162.914c-0.143-1.105-0.091-2.14,0.158-3.104c0.25-0.964,0.654-1.814,1.213-2.548
					s1.255-1.334,2.089-1.799c0.833-0.465,1.765-0.757,2.793-0.877c1.028-0.119,2.001-0.047,2.919,0.214
					c0.917,0.262,1.732,0.687,2.444,1.274c0.712,0.587,1.299,1.321,1.762,2.203c0.464,0.882,0.75,1.877,0.864,2.986
					c0.114,1.109,0.035,2.142-0.234,3.099c-0.269,0.958-0.683,1.797-1.243,2.518c-0.56,0.722-1.246,1.309-2.062,1.762
					c-0.816,0.453-1.722,0.737-2.721,0.853c-1,0.116-1.947,0.047-2.845-0.208c-0.898-0.255-1.701-0.669-2.411-1.244
					c-0.71-0.574-1.306-1.296-1.787-2.167C223.867,165.007,223.553,164.019,223.41,162.914z M236.226,161.411
					c-0.099-0.944-0.337-1.786-0.715-2.523c-0.378-0.737-0.856-1.351-1.433-1.843c-0.577-0.492-1.233-0.847-1.966-1.064
					c-0.734-0.217-1.504-0.28-2.309-0.186c-0.805,0.093-1.54,0.33-2.205,0.71c-0.665,0.38-1.222,0.876-1.672,1.486
					c-0.449,0.611-0.774,1.319-0.974,2.122c-0.2,0.804-0.239,1.677-0.119,2.62c0.12,0.943,0.375,1.778,0.765,2.508
					c0.39,0.73,0.873,1.336,1.449,1.82c0.576,0.484,1.224,0.832,1.945,1.045c0.721,0.213,1.473,0.274,2.259,0.183
					c0.786-0.091,1.505-0.322,2.157-0.695c0.653-0.372,1.203-0.86,1.653-1.462c0.45-0.603,0.781-1.304,0.994-2.104
					C236.267,163.228,236.325,162.356,236.226,161.411z"/>
				<path class="st23" d="M239.192,161.108c-0.11-1.109-0.028-2.142,0.25-3.098c0.278-0.957,0.707-1.794,1.286-2.511
					c0.58-0.717,1.293-1.296,2.139-1.736c0.846-0.44,1.785-0.705,2.816-0.793c1.03-0.089,2.001,0.012,2.91,0.301
					c0.909,0.289,1.71,0.738,2.403,1.346s1.258,1.359,1.695,2.255c0.437,0.895,0.694,1.899,0.774,3.01
					c0.081,1.112-0.029,2.142-0.326,3.091c-0.297,0.949-0.736,1.776-1.316,2.48c-0.58,0.705-1.284,1.271-2.112,1.7
					c-0.828,0.429-1.742,0.686-2.743,0.772c-1.002,0.086-1.946-0.011-2.835-0.292c-0.889-0.282-1.679-0.719-2.372-1.315
					c-0.692-0.595-1.266-1.335-1.721-2.219C239.586,163.214,239.302,162.217,239.192,161.108z M252.037,159.986
					c-0.071-0.947-0.284-1.795-0.64-2.543c-0.356-0.748-0.815-1.376-1.377-1.885c-0.562-0.508-1.206-0.883-1.933-1.122
					c-0.726-0.239-1.494-0.324-2.301-0.255c-0.807,0.069-1.548,0.284-2.223,0.644c-0.675,0.36-1.246,0.839-1.714,1.436
					c-0.467,0.597-0.812,1.295-1.035,2.092c-0.223,0.798-0.288,1.67-0.197,2.615c0.092,0.946,0.322,1.789,0.69,2.529
					c0.368,0.741,0.833,1.361,1.393,1.863c0.561,0.501,1.198,0.868,1.911,1.103c0.713,0.235,1.463,0.318,2.251,0.25
					c0.788-0.068,1.512-0.277,2.175-0.63c0.663-0.353,1.227-0.824,1.694-1.413c0.467-0.59,0.819-1.28,1.055-2.073
					C252.025,161.804,252.109,160.934,252.037,159.986z"/>
				<path class="st23" d="M257.669,155.88c-0.246-0.434-0.37-0.65-0.617-1.084c0.046,0.469,0.069,0.704,0.116,1.173
					c0.28,4.3,0.42,6.45,0.7,10.75c-0.564,0.037-0.846,0.055-1.41,0.094c-0.386-5.687-0.578-8.53-0.964-14.217
					c0.603-0.041,0.904-0.061,1.507-0.1c2.385,3.684,3.559,5.532,5.87,9.241c0.197,0.355,0.295,0.532,0.492,0.887
					c0.157-0.374,0.235-0.561,0.393-0.935c1.896-3.937,2.863-5.902,4.835-9.822c0.603-0.026,0.905-0.039,1.508-0.064
					c0.232,5.695,0.348,8.543,0.58,14.238c-0.564,0.023-0.847,0.035-1.411,0.059c-0.187-4.305-0.28-6.458-0.467-10.763
					c-0.005-0.471-0.007-0.707-0.012-1.178c-0.199,0.457-0.298,0.686-0.497,1.144c-1.791,3.579-2.671,5.372-4.398,8.965
					c-0.352,0.019-0.528,0.028-0.88,0.048C260.906,160.932,259.838,159.244,257.669,155.88z"/>
				<path class="st23" d="M275.524,165.867c-0.565,0.018-0.847,0.027-1.412,0.046c-0.195-5.697-0.293-8.545-0.488-14.242
					c0.58-0.02,0.87-0.029,1.45-0.048C275.254,157.321,275.344,160.169,275.524,165.867z"/>
				<path class="st23" d="M280.726,154.611c-0.267-0.45-0.401-0.676-0.668-1.126c0.027,0.524,0.041,0.786,0.068,1.31
					c0.098,4.376,0.147,6.565,0.245,10.941c-0.565,0.013-0.847,0.019-1.412,0.033c-0.143-5.698-0.214-8.547-0.357-14.246
					c0.596-0.015,0.893-0.022,1.489-0.035c3.138,4.271,4.677,6.418,7.694,10.732c0.343,0.552,0.513,0.828,0.854,1.381
					c-0.02-0.684-0.03-1.026-0.049-1.71c-0.029-4.21-0.043-6.316-0.071-10.526c0.58-0.004,0.87-0.006,1.45-0.008
					c0.023,5.7,0.035,8.55,0.058,14.25c-0.58,0.002-0.87,0.004-1.45,0.008C285.5,161.191,283.93,158.99,280.726,154.611z"/>
				<path class="st23" d="M299.888,158.021c2.71,0.039,4.066,0.067,6.776,0.14c0.012,0.026,0.016,0.089,0.014,0.19
					c-0.003,0.114-0.005,0.171-0.008,0.285c-0.017,1.089-0.192,2.089-0.524,2.998c-0.332,0.91-0.8,1.693-1.403,2.351
					c-0.603,0.657-1.341,1.166-2.213,1.529c-0.873,0.363-1.861,0.536-2.967,0.521c-1.005-0.014-1.933-0.205-2.789-0.573
					c-0.856-0.369-1.598-0.883-2.226-1.544c-0.629-0.661-1.126-1.454-1.49-2.38c-0.364-0.925-0.547-1.945-0.546-3.06
					c0.001-1.114,0.185-2.134,0.556-3.058c0.371-0.924,0.881-1.715,1.528-2.37s1.414-1.161,2.299-1.515
					c0.885-0.353,1.845-0.523,2.878-0.509c1.307,0.018,2.483,0.325,3.522,0.916c1.038,0.592,1.864,1.397,2.476,2.413
					c-0.483,0.284-0.724,0.427-1.206,0.712c-0.486-0.885-1.155-1.575-2.005-2.066c-0.851-0.491-1.787-0.745-2.804-0.759
					c-0.809-0.011-1.568,0.129-2.274,0.419c-0.707,0.291-1.319,0.711-1.836,1.258c-0.517,0.548-0.927,1.208-1.227,1.979
					c-0.301,0.772-0.452,1.633-0.456,2.582c-0.003,0.95,0.142,1.812,0.434,2.586c0.292,0.774,0.689,1.438,1.19,1.992
					c0.501,0.554,1.095,0.983,1.78,1.287c0.686,0.305,1.423,0.462,2.213,0.473c0.866,0.012,1.636-0.114,2.311-0.381
					c0.675-0.266,1.253-0.644,1.737-1.134c0.484-0.49,0.862-1.073,1.135-1.751c0.273-0.678,0.432-1.421,0.478-2.231
					c-2.148-0.052-3.221-0.073-5.369-0.104C299.878,158.739,299.881,158.5,299.888,158.021z"/>
				<path class="st23" d="M322.58,154.451c-0.392-0.453-0.873-0.822-1.446-1.107s-1.212-0.444-1.915-0.479
					c-0.495-0.025-0.936,0.02-1.32,0.135c-0.384,0.115-0.708,0.274-0.971,0.478c-0.264,0.204-0.471,0.445-0.62,0.723
					c-0.149,0.279-0.23,0.576-0.244,0.893c-0.025,0.557,0.129,1.039,0.461,1.447c0.332,0.408,0.897,0.801,1.694,1.183
					c0.813,0.382,1.218,0.574,2.028,0.958c0.315,0.156,0.677,0.334,1.086,0.534c0.409,0.2,0.792,0.462,1.148,0.787
					c0.356,0.325,0.652,0.72,0.889,1.184c0.237,0.464,0.335,1.025,0.297,1.682c-0.033,0.557-0.182,1.071-0.447,1.544
					c-0.265,0.473-0.62,0.88-1.068,1.223c-0.447,0.343-0.978,0.605-1.593,0.787c-0.615,0.183-1.284,0.256-2.008,0.22
					c-0.647-0.032-1.24-0.156-1.778-0.371c-0.538-0.215-1.019-0.475-1.447-0.778c-0.426-0.304-0.792-0.633-1.096-0.988
					c-0.305-0.355-0.54-0.694-0.707-1.018c0.398-0.349,0.597-0.524,0.997-0.872c0.152,0.324,0.363,0.65,0.631,0.978
					c0.267,0.329,0.577,0.624,0.929,0.888c0.353,0.263,0.741,0.481,1.167,0.653c0.426,0.173,0.881,0.271,1.364,0.295
					c0.522,0.026,1-0.022,1.435-0.145c0.434-0.123,0.811-0.302,1.13-0.539c0.321-0.236,0.572-0.52,0.758-0.852
					c0.186-0.332,0.289-0.7,0.312-1.105c0.011-0.202-0.008-0.419-0.059-0.65c-0.051-0.231-0.16-0.465-0.327-0.703
					c-0.167-0.238-0.414-0.483-0.742-0.736c-0.328-0.252-0.762-0.507-1.303-0.763c-0.824-0.377-1.237-0.565-2.064-0.94
					c-0.593-0.282-1.094-0.571-1.5-0.868c-0.407-0.297-0.734-0.61-0.979-0.937s-0.418-0.671-0.52-1.03
					c-0.102-0.359-0.145-0.735-0.128-1.127c0.021-0.506,0.144-0.973,0.371-1.401c0.226-0.428,0.543-0.795,0.948-1.1
					c0.405-0.306,0.89-0.537,1.454-0.695c0.563-0.157,1.191-0.219,1.884-0.185c0.979,0.049,1.82,0.259,2.52,0.627
					c0.699,0.368,1.281,0.832,1.745,1.392C323.158,153.981,322.965,154.138,322.58,154.451z"/>
				<path class="st23" d="M327.357,161.824c-0.13,1.972-0.195,2.957-0.326,4.929c-0.564-0.037-0.846-0.056-1.41-0.091
					c0.361-5.689,0.541-8.533,0.901-14.221c2.153,0.136,3.229,0.21,5.38,0.368c0.809,0.059,1.533,0.238,2.172,0.535
					c0.639,0.297,1.175,0.677,1.609,1.138s0.757,0.983,0.97,1.566c0.212,0.583,0.292,1.19,0.24,1.821s-0.232,1.217-0.535,1.757
					c-0.305,0.541-0.705,1.003-1.201,1.389c-0.497,0.386-1.078,0.676-1.745,0.873c-0.667,0.196-1.396,0.264-2.191,0.206
					C329.676,161.98,328.903,161.926,327.357,161.824z M331.311,160.881c0.578,0.042,1.112-0.01,1.601-0.156
					c0.49-0.147,0.916-0.361,1.282-0.644c0.366-0.282,0.659-0.624,0.879-1.026s0.35-0.836,0.387-1.303
					c0.038-0.467-0.02-0.917-0.175-1.348c-0.154-0.432-0.391-0.816-0.711-1.152c-0.32-0.337-0.713-0.615-1.18-0.835
					c-0.467-0.22-0.994-0.351-1.58-0.394c-1.569-0.115-2.353-0.17-3.923-0.273c-0.181,2.745-0.272,4.118-0.453,6.863
					C328.987,160.713,329.762,160.767,331.311,160.881z"/>
				<path class="st23" d="M340.269,162.453c-0.192,2.119-0.287,3.179-0.479,5.298c-0.563-0.051-0.845-0.076-1.408-0.125
					c0.498-5.678,0.747-8.517,1.245-14.195c2.072,0.182,3.107,0.278,5.177,0.479c0.807,0.079,1.519,0.265,2.132,0.556
					c0.615,0.292,1.126,0.66,1.532,1.103c0.407,0.444,0.698,0.95,0.873,1.515c0.175,0.566,0.229,1.165,0.161,1.794
					c-0.07,0.655-0.254,1.243-0.55,1.766c-0.296,0.522-0.7,0.954-1.179,1.299c-0.406,0.292-0.884,0.526-1.43,0.674
					c1.205,2.43,1.799,3.646,2.972,6.082c-0.676-0.074-1.014-0.11-1.691-0.181c-1.052-2.274-1.584-3.409-2.663-5.678
					c-0.336,0.005-0.685-0.01-1.043-0.045C342.459,162.654,341.729,162.585,340.269,162.453z M344.056,161.588
					c0.564,0.055,1.083,0.023,1.555-0.095c0.472-0.118,0.88-0.303,1.224-0.554c0.344-0.251,0.623-0.566,0.838-0.945
					c0.215-0.379,0.347-0.801,0.396-1.267s0.006-0.907-0.127-1.322c-0.133-0.415-0.344-0.78-0.633-1.097
					c-0.289-0.316-0.655-0.579-1.099-0.789c-0.445-0.21-0.954-0.343-1.525-0.399c-1.489-0.145-2.233-0.215-3.723-0.35
					c-0.234,2.589-0.351,3.883-0.585,6.472C341.85,161.376,342.585,161.445,344.056,161.588z"/>
				<path class="st23" d="M352.335,169.037c-0.562-0.064-0.843-0.096-1.406-0.159c0.633-5.665,0.95-8.497,1.584-14.162
					c0.578,0.065,0.866,0.097,1.444,0.163C353.308,160.543,352.984,163.374,352.335,169.037z"/>
				<path class="st23" d="M359.124,158.656c-0.199-0.485-0.299-0.727-0.499-1.211c-0.049,0.522-0.073,0.784-0.122,1.306
					c-0.538,4.344-0.807,6.516-1.345,10.861c-0.562-0.07-0.843-0.104-1.405-0.172c0.685-5.659,1.028-8.488,1.714-14.147
					c0.593,0.072,0.889,0.108,1.482,0.182c2.491,4.682,3.705,7.03,6.071,11.737c0.26,0.596,0.389,0.894,0.647,1.49
					c0.079-0.68,0.119-1.019,0.199-1.699c0.583-4.17,0.874-6.255,1.457-10.425c0.576,0.081,0.864,0.121,1.44,0.203
					c-0.804,5.643-1.206,8.465-2.01,14.107c-0.576-0.082-0.864-0.123-1.44-0.203C362.902,165.861,361.664,163.455,359.124,158.656z"
					/>
				<path class="st23" d="M377.637,164.819c2.685,0.433,4.026,0.659,6.706,1.126c0.007,0.027,0.003,0.091-0.014,0.19
					c-0.02,0.112-0.029,0.169-0.049,0.281c-0.175,1.075-0.494,2.039-0.955,2.89c-0.462,0.852-1.04,1.559-1.734,2.121
					c-0.694,0.562-1.5,0.958-2.419,1.19c-0.92,0.232-1.926,0.259-3.021,0.083c-0.995-0.16-1.889-0.484-2.685-0.973
					c-0.796-0.49-1.458-1.106-1.986-1.852c-0.528-0.746-0.905-1.603-1.132-2.571c-0.226-0.968-0.261-2.004-0.098-3.107
					c0.162-1.102,0.494-2.084,0.996-2.945c0.502-0.861,1.122-1.568,1.859-2.123c0.738-0.555,1.572-0.943,2.502-1.164
					c0.929-0.221,1.906-0.249,2.93-0.084c1.295,0.209,2.418,0.683,3.364,1.419c0.946,0.737,1.648,1.654,2.108,2.749
					c-0.521,0.211-0.781,0.317-1.3,0.529c-0.354-0.947-0.918-1.726-1.691-2.337c-0.773-0.61-1.665-0.997-2.674-1.16
					c-0.801-0.129-1.575-0.101-2.318,0.084c-0.743,0.185-1.412,0.511-2.005,0.977c-0.593,0.467-1.095,1.06-1.505,1.779
					c-0.412,0.72-0.686,1.549-0.827,2.489c-0.141,0.94-0.121,1.814,0.056,2.622c0.177,0.808,0.474,1.523,0.892,2.144
					c0.417,0.621,0.944,1.132,1.58,1.533c0.636,0.401,1.345,0.664,2.128,0.79c0.858,0.138,1.64,0.125,2.349-0.04
					c0.708-0.165,1.338-0.454,1.89-0.869c0.55-0.414,1.011-0.936,1.381-1.567c0.369-0.631,0.635-1.343,0.798-2.138
					c-2.125-0.365-3.188-0.542-5.316-0.886C377.523,165.528,377.561,165.292,377.637,164.819z"/>
			</g>
		</g>
		
			<circle style="opacity:0.7;clip-path:url(#SVGID_00000016044542565532552370000005632291677038938023_);fill:#29B67F;" cx="318.326" cy="238.199" r="19.904"/>
		
			<polyline style="clip-path:url(#SVGID_00000016044542565532552370000005632291677038938023_);fill:none;stroke:#000000;stroke-miterlimit:10;" points="
			225.893,198.39 279.016,198.39 279.016,225.297 		"/>
		
			<line style="clip-path:url(#SVGID_00000016044542565532552370000005632291677038938023_);fill:none;stroke:#000000;stroke-miterlimit:10;" x1="252.454" y1="225.297" x2="252.454" y2="198.39"/>
		
			<line style="clip-path:url(#SVGID_00000016044542565532552370000005632291677038938023_);fill:none;stroke:#000000;stroke-miterlimit:10;" x1="252.454" y1="256.362" x2="252.454" y2="229.455"/>
		
			<line style="clip-path:url(#SVGID_00000016044542565532552370000005632291677038938023_);fill:none;stroke:#000000;stroke-miterlimit:10;" x1="225.893" y1="241.821" x2="281.696" y2="241.821"/>
		
			<line style="clip-path:url(#SVGID_00000016044542565532552370000005632291677038938023_);fill:none;stroke:#000000;stroke-miterlimit:10;" x1="225.893" y1="255.482" x2="281.696" y2="255.482"/>
		
			<polyline style="clip-path:url(#SVGID_00000016044542565532552370000005632291677038938023_);fill:none;stroke:#000000;stroke-miterlimit:10;" points="
			224.486,280.966 252.454,255.482 281.696,280.966 		"/>
		
			<line style="clip-path:url(#SVGID_00000016044542565532552370000005632291677038938023_);fill:none;stroke:#000000;stroke-miterlimit:10;" x1="355.585" y1="196.143" x2="355.585" y2="280.966"/>
		<g style="clip-path:url(#SVGID_00000016044542565532552370000005632291677038938023_);">
			<circle class="st25" cx="233.41" cy="311.635" r="3.837"/>
			<path class="st26" d="M251.191,333.812c0,11.116-8.4,20.127-18.761,20.127s-18.761-9.011-18.761-20.127"/>
			<circle class="st27" cx="268.287" cy="336.127" r="3.837"/>
			<circle class="st27" cx="358.295" cy="376.473" r="3.837"/>
			<circle class="st26" cx="358.295" cy="341.457" r="3.837"/>
			<circle class="st28" cx="294.377" cy="376.473" r="3.837"/>
			<line class="st29" x1="203.431" y1="328.682" x2="261.429" y2="328.682"/>
			<line class="st29" x1="233.41" y1="311.635" x2="233.41" y2="328.682"/>
			<line class="st29" x1="203.431" y1="364.539" x2="261.429" y2="364.539"/>
			<line class="st29" x1="233.41" y1="364.539" x2="233.41" y2="356.113"/>
			<polyline class="st29" points="203.431,369.829 267.307,369.829 267.307,383.153 203.431,383.153 203.431,396.869 
				267.307,396.869 			"/>
			<line class="st29" x1="267.307" y1="309.675" x2="268.287" y2="364.539"/>
			<line class="st29" x1="268.287" y1="336.127" x2="284.746" y2="336.127"/>
			<line class="st29" x1="294.49" y1="309.865" x2="343.276" y2="309.865"/>
			<polyline class="st29" points="293.022,363.148 306.348,311.635 318.77,363.148 331.87,311.635 344.744,363.148 			"/>
			<line class="st29" x1="358.295" y1="311.635" x2="359.199" y2="371.279"/>
			<line class="st29" x1="359.199" y1="341.457" x2="375.009" y2="341.457"/>
			<polyline class="st29" points="294.377,376.473 358.295,376.473 358.295,398.398 			"/>
		</g>
		<g style="clip-path:url(#SVGID_00000016044542565532552370000005632291677038938023_);">
			<circle class="st25" cx="233.41" cy="537.77" r="3.837"/>
			<path class="st26" d="M251.191,559.948c0,11.116-8.4,20.127-18.761,20.127s-18.761-9.011-18.761-20.127"/>
			<circle class="st27" cx="268.287" cy="562.263" r="3.837"/>
			<circle class="st27" cx="358.295" cy="602.609" r="3.837"/>
			<circle class="st26" cx="358.295" cy="567.592" r="3.837"/>
			<circle class="st28" cx="294.377" cy="602.609" r="3.837"/>
			<line class="st29" x1="203.431" y1="554.817" x2="261.429" y2="554.817"/>
			<line class="st29" x1="233.41" y1="537.77" x2="233.41" y2="554.817"/>
			<line class="st29" x1="203.431" y1="590.674" x2="261.429" y2="590.674"/>
			<line class="st29" x1="233.41" y1="590.674" x2="233.41" y2="582.249"/>
			<polyline class="st29" points="203.431,595.965 267.307,595.965 267.307,609.289 203.431,609.289 203.431,623.004 
				267.307,623.004 			"/>
			<line class="st29" x1="267.307" y1="535.811" x2="268.287" y2="590.674"/>
			<line class="st29" x1="268.287" y1="562.263" x2="284.746" y2="562.263"/>
			<line class="st29" x1="294.49" y1="536" x2="343.276" y2="536"/>
			<polyline class="st29" points="293.022,589.283 306.348,537.77 318.77,589.283 331.87,537.77 344.744,589.283 			"/>
			<line class="st29" x1="358.295" y1="537.77" x2="359.199" y2="597.414"/>
			<line class="st29" x1="359.199" y1="567.592" x2="375.009" y2="567.592"/>
			<polyline class="st29" points="294.377,602.609 358.295,602.609 358.295,624.534 			"/>
		</g>
		
			<line style="clip-path:url(#SVGID_00000016044542565532552370000005632291677038938023_);fill:none;stroke:#000000;stroke-miterlimit:10;" x1="165.018" y1="443.182" x2="222.851" y2="443.182"/>
		
			<line style="clip-path:url(#SVGID_00000016044542565532552370000005632291677038938023_);fill:none;stroke:#000000;stroke-miterlimit:10;" x1="194.38" y1="425.804" x2="194.38" y2="443.182"/>
		
			<line style="clip-path:url(#SVGID_00000016044542565532552370000005632291677038938023_);fill:none;stroke:#000000;stroke-miterlimit:10;" x1="223.991" y1="453.717" x2="239.945" y2="453.717"/>
		
			<line style="clip-path:url(#SVGID_00000016044542565532552370000005632291677038938023_);fill:none;stroke:#000000;stroke-miterlimit:10;" x1="223.991" y1="475.375" x2="239.945" y2="475.375"/>
		
			<line style="clip-path:url(#SVGID_00000016044542565532552370000005632291677038938023_);fill:none;stroke:#000000;stroke-miterlimit:10;" x1="239.945" y1="425.804" x2="239.945" y2="511.272"/>
		
			<line style="clip-path:url(#SVGID_00000016044542565532552370000005632291677038938023_);fill:none;stroke:#000000;stroke-miterlimit:10;" x1="255.899" y1="424.379" x2="255.899" y2="511.272"/>
		
			<polyline style="clip-path:url(#SVGID_00000016044542565532552370000005632291677038938023_);fill:none;stroke:#000000;stroke-miterlimit:10;" points="
			312.308,424.379 273.277,424.379 273.277,472.526 312.308,472.526 		"/>
		
			<line style="clip-path:url(#SVGID_00000016044542565532552370000005632291677038938023_);fill:none;stroke:#000000;stroke-miterlimit:10;" x1="273.277" y1="448.453" x2="309.174" y2="448.453"/>
		
			<line style="clip-path:url(#SVGID_00000016044542565532552370000005632291677038938023_);fill:none;stroke:#000000;stroke-miterlimit:10;" x1="323.418" y1="421.5" x2="323.418" y2="482.497"/>
		
			<line style="clip-path:url(#SVGID_00000016044542565532552370000005632291677038938023_);fill:none;stroke:#000000;stroke-miterlimit:10;" x1="323.418" y1="451.999" x2="339.942" y2="451.999"/>
		
			<path style="clip-path:url(#SVGID_00000016044542565532552370000005632291677038938023_);fill:none;stroke:#000000;stroke-miterlimit:10;" d="
			M339.942,421.5c-0.57,1.455,0,60.997,0,60.997"/>
		
			<polyline style="clip-path:url(#SVGID_00000016044542565532552370000005632291677038938023_);fill:none;stroke:#000000;stroke-miterlimit:10;" points="
			273.277,487.154 336.524,487.154 336.524,509.847 		"/>
		
			<polyline style="clip-path:url(#SVGID_00000016044542565532552370000005632291677038938023_);fill:none;stroke:#000000;stroke-miterlimit:10;" points="
			402.619,422.955 363.303,422.955 363.303,477.369 402.619,477.369 		"/>
		
			<line style="clip-path:url(#SVGID_00000016044542565532552370000005632291677038938023_);fill:none;stroke:#000000;stroke-miterlimit:10;" x1="384.101" y1="488.48" x2="384.101" y2="508.138"/>
		
			<path style="clip-path:url(#SVGID_00000016044542565532552370000005632291677038938023_);fill:none;stroke:#000000;stroke-miterlimit:10;" d="
			M363.303,508.138"/>
		
			<line style="clip-path:url(#SVGID_00000016044542565532552370000005632291677038938023_);fill:none;stroke:#000000;stroke-miterlimit:10;" x1="363.303" y1="508.138" x2="405.183" y2="508.138"/>
	</g>
</g>
</svg>
