<?xml version="1.0" encoding="utf-8"?>
<!-- Generator: Adobe Illustrator 27.0.0, SVG Export Plug-In . SVG Version: 6.00 Build 0)  -->
<svg version="1.1" xmlns="http://www.w3.org/2000/svg" xmlns:xlink="http://www.w3.org/1999/xlink" x="0px" y="0px"
	 viewBox="0 0 595.276 841.89" style="enable-background:new 0 0 595.276 841.89;" xml:space="preserve">
<style type="text/css">
	.st0{fill:#FDF7DD;}
	.st1{fill:#FFFDF1;}
	.st2{fill:#EAD8EA;}
	.st3{fill:#FFFFFF;stroke:#000000;stroke-miterlimit:10;}
	.st4{fill:#75C7A4;stroke:#47775B;stroke-miterlimit:10;}
	.st5{fill:#EEE474;stroke:#000000;stroke-miterlimit:10;}
	.st6{fill:#9AC6EA;stroke:#000000;stroke-miterlimit:10;}
	.st7{fill:#519FC6;stroke:#000000;stroke-miterlimit:10;}
	.st8{fill:#F6A9C8;stroke:#85416E;stroke-miterlimit:10;}
	.st9{fill:#F16894;stroke:#85416E;stroke-miterlimit:10;}
	.st10{fill:#ECF8FB;stroke:#000000;stroke-miterlimit:10;}
	.st11{fill:#9D9ACC;stroke:#000000;stroke-miterlimit:10;}
	.st12{fill:#F9CDE0;stroke:#000000;stroke-linecap:round;stroke-linejoin:round;stroke-miterlimit:10;}
	.st13{fill:#F9C9DA;stroke:#000000;stroke-linecap:round;stroke-linejoin:round;stroke-miterlimit:10;}
	.st14{fill:#F6C9D8;stroke:#000000;stroke-miterlimit:10;}
	.st15{fill:#FFFFFF;stroke:#000000;stroke-linecap:round;stroke-linejoin:round;stroke-miterlimit:10;}
	.st16{stroke:#000000;stroke-miterlimit:10;}
	.st17{fill:none;stroke:#000000;stroke-linecap:round;stroke-linejoin:round;stroke-miterlimit:10;}
	.st18{fill:#FFFFFF;stroke:#F6A5C2;stroke-miterlimit:10;}
	.st19{fill:#F3AFC4;stroke:#000000;stroke-miterlimit:10;}
	.st20{fill:#EE9EB6;stroke:#000000;stroke-miterlimit:10;}
	.st21{fill:#EF374A;stroke:#000000;stroke-miterlimit:10;}
	.st22{fill:#C63746;stroke:#000000;stroke-miterlimit:10;}
	.st23{fill:#DE3543;stroke:#000000;stroke-miterlimit:10;}
	.st24{fill:#EF3E4D;stroke:#000000;stroke-linecap:round;stroke-linejoin:round;stroke-miterlimit:10;}
	.st25{fill:none;stroke:#FFFFFF;stroke-linecap:round;stroke-linejoin:round;stroke-miterlimit:10;}
	.st26{fill:#F4EC5F;stroke:#000000;stroke-miterlimit:10;}
	.st27{fill:#FEF2F0;stroke:#000000;stroke-miterlimit:10;}
	.st28{fill:#EF3F3D;stroke:#000000;stroke-miterlimit:10;}
	.st29{fill:#FFFFFF;stroke:#85416E;stroke-miterlimit:10;}
	.st30{fill:#8FD0B6;stroke:#000000;stroke-miterlimit:10;}
	.st31{fill:#FAC8CF;stroke:#000000;stroke-miterlimit:10;}
	.st32{fill:#FFFFFF;}
	.st33{fill:#F8F3A4;stroke:#000000;stroke-miterlimit:10;}
	.st34{fill:none;stroke:#000000;stroke-miterlimit:10;}
	.st35{fill:#FAF4A4;stroke:#000000;stroke-miterlimit:10;}
	.st36{fill:#F47523;stroke:#000000;stroke-miterlimit:10;}
	.st37{fill:#F4782B;stroke:#000000;stroke-miterlimit:10;}
</style>
<g id="Layer_1">
	
		<image style="overflow:visible;" width="603" height="603" xlink:href="../jQuery/pf/img/image09.JPG"  transform="matrix(0.9872 0 0 0.9872 0 108.5159)">
	</image>
</g>
<g id="Layer_2">
	<polygon class="st0" points="0,270.913 0,841.89 595.276,841.89 595.276,259.486 	"/>
	<polygon class="st1" points="0,270.913 210.154,600.356 396.809,596.778 595.276,272.494 595.276,0 0,0 	"/>
	<path class="st2" d="M293.23,225.65c-15.949-22.521-78.219-130.185-172.405-48.248c-53.633,46.658-53.878,130.453-12.41,188.449
		c30.592,42.786,83.255,94.946,173.907,148.187c5.089,2.989,11.246,3.73,16.817,1.818c25.052-8.6,99.079-38.861,169.419-115.241
		c51.026-55.407,61.727-140.649,19.683-203.344c-32.256-48.099-113.886-81.164-188.172,28.706
		C298.493,228.31,294.858,227.949,293.23,225.65z"/>
	<path class="st3" d="M463.241,176.832H449.8c-7.571,0-13.708-6.137-13.708-13.708v-17.367c0-0.759-0.476-1.482-1.213-1.661
		c-1.054-0.255-2.004,0.547-2.004,1.561v17.457c0,7.576-6.142,13.718-13.718,13.718h-13.431c-0.759,0-1.482,0.476-1.661,1.213
		c-0.255,1.054,0.547,2.004,1.561,2.004h13.154c7.785,0,14.095,6.311,14.095,14.095v21.382c0,0.759,0.476,1.482,1.213,1.661
		c1.054,0.255,2.004-0.547,2.004-1.561v-21.66c0-7.687,6.231-13.918,13.918-13.918h13.332c1.014,0,1.816-0.95,1.561-2.004
		C464.723,177.308,463.999,176.832,463.241,176.832z"/>
	<path class="st4" d="M400.815,542.408c-0.014-0.615-0.266-15.263,5.671-31.103c8.076-21.548,23.667-34.834,45.087-38.421
		c3.028-0.507,6.074-0.69,9.074-0.562c3.007-9.564,8.345-17.827,15.509-23.98c8.655-7.437,23.722-15.26,46.337-10.315l-2.137,9.77
		c-14.921-3.265-27.604-0.528-37.684,8.132c-5.404,4.641-9.528,10.832-12.034,18.03c3.093,0.899,6.064,2.157,8.848,3.761
		c9.632,5.549,12.048,12.156,12.38,16.721c0.349,4.81-1.476,9.507-5.005,12.887c-3.697,3.541-8.745,5.235-13.848,4.641
		c-6.828-0.791-10.504-4.303-12.386-7.11c-3.45-5.146-4.258-12.573-2.431-22.569c-1.651,0.03-3.312,0.183-4.972,0.461
		c-17.859,2.99-30.4,13.688-37.273,31.798c-5.338,14.062-5.142,27.514-5.139,27.647L400.815,542.408z M468.118,483.638
		c-1.825,9.61-0.38,13.867,0.814,15.649c0.668,0.996,1.937,2.363,5.231,2.745c2.139,0.243,4.24-0.455,5.778-1.929
		c0.806-0.771,2.13-2.439,1.948-4.941c-0.227-3.128-2.716-6.082-7.397-8.78C472.488,485.227,470.348,484.31,468.118,483.638z"/>
	<path class="st5" d="M412.258,443.921c-35.776,10.26-30.408,41.509-30.165,42.838l-9.066,1.731
		c-0.082-0.419-1.937-10.404,1.664-21.96c3.348-10.739,12.141-24.918,35.022-31.481L412.258,443.921z"/>
	<path class="st6" d="M112.209,245.906c-6.481,0-12.357,2.574-16.675,6.75c-4.317-4.176-10.194-6.75-16.675-6.75
		c-6.511,0-12.412,2.597-16.735,6.808c-4.323-4.21-10.224-6.808-16.735-6.808c-13.251,0-23.993,10.742-23.993,23.993
		c0,13.251,10.742,23.993,23.993,23.993c6.511,0,12.412-2.597,16.735-6.808c4.323,4.21,10.224,6.808,16.735,6.808
		c6.481,0,12.357-2.574,16.675-6.75c4.317,4.176,10.194,6.75,16.675,6.75c13.251,0,23.993-10.742,23.993-23.993
		C136.203,256.649,125.46,245.906,112.209,245.906z"/>
	<path class="st6" d="M496.135,409.282c-6.528,0-12.448,2.396-16.797,6.282c-4.349-3.886-10.268-6.282-16.797-6.282
		c-6.559,0-12.503,2.417-16.858,6.335c-4.354-3.918-10.299-6.335-16.858-6.335c-13.348,0-24.169,9.997-24.169,22.329
		c0,12.332,10.821,22.329,24.169,22.329c6.559,0,12.503-2.417,16.858-6.335c4.354,3.918,10.299,6.335,16.858,6.335
		c6.528,0,12.448-2.396,16.797-6.282c4.349,3.886,10.268,6.282,16.797,6.282c13.348,0,24.169-9.997,24.169-22.329
		C520.304,419.278,509.483,409.282,496.135,409.282z"/>
	<path class="st6" d="M237.127,506.874c-6.481,0-12.357,2.574-16.675,6.75c-4.317-4.176-10.194-6.75-16.675-6.75
		c-6.511,0-12.412,2.597-16.735,6.808c-4.323-4.21-10.224-6.808-16.735-6.808c-13.251,0-23.993,10.742-23.993,23.993
		c0,13.251,10.742,23.993,23.993,23.993c6.511,0,12.412-2.597,16.735-6.808c4.323,4.21,10.224,6.808,16.735,6.808
		c6.481,0,12.357-2.574,16.675-6.75c4.317,4.176,10.194,6.75,16.675,6.75c13.251,0,23.993-10.742,23.993-23.993
		C261.121,517.616,250.378,506.874,237.127,506.874z"/>
	<path class="st7" d="M227.147,370.691h-27.068c-6.6,0-12-5.4-12-12v-21.738c0-6.6,5.4-12,12-12h27.068c6.6,0,12,5.4,12,12v21.738
		C239.147,365.291,233.747,370.691,227.147,370.691z"/>
	<path class="st7" d="M200.545,396.908v-8.619c0-4.056,1.951-7.975,5.42-10.076c2.062-1.249,4.687-1.897,7.826-0.819
		c4.566,1.568,7.5,6.035,7.5,10.862v8.652c0,0,6.222-1.777,11.917-2.306c3.622-0.336,7.295,0.9,9.685,3.642
		c1.681,1.929,2.853,4.647,1.806,8.251c-1.142,3.931-4.541,6.787-8.564,7.543c-10.292,1.933-35.044,5.862-48.335,1.848
		c-3.039-0.918-5.733-2.818-7.373-5.536c-1.358-2.25-2.213-5.278-0.475-8.594c1.529-2.918,4.526-4.784,7.8-5.147
		C190.721,396.279,195.231,396.093,200.545,396.908z"/>
	<path class="st7" d="M460.158,253.126l-11.353,0.643c-3.097,0.175-6.048,1.659-7.789,4.226c-1.323,1.952-2.004,4.553-0.336,7.68
		c1.843,3.454,5.563,5.491,9.478,5.491h10v7.979c0,3.587,2.142,6.94,5.526,8.129c2.272,0.798,5.018,0.746,7.787-1.737
		c2.322-2.082,3.545-5.129,3.599-8.247l0.652-37.954c0.073-4.261-2.002-8.39-5.694-10.519c-2.405-1.387-5.319-1.791-8.259,0.874
		c-2.38,2.158-3.611,5.31-3.611,8.523V253.126z"/>
	<path class="st7" d="M435.68,252.387l3.825-4.631c2.012-2.435,2.792-5.743,1.798-8.741c-0.555-1.672-1.626-3.31-3.616-4.37
		c-3.264-1.74-7.323-0.835-9.786,1.926c-6.318,7.083-20.813,24.367-25.246,35.808c-1.385,3.576-1.538,7.559-0.146,11.132
		c1.227,3.151,3.73,6.296,8.81,5.078c3.227-0.774,5.868-3.09,7.312-6.078l4.563-9.442l1.539,5.93
		c1.005,3.872,4.014,7.013,7.923,7.861c2.458,0.533,5.168,0.191,7.372-2.432c2.151-2.56,2.76-6.083,1.877-9.307L435.68,252.387z"/>
	<path class="st7" d="M349.435,271.091c-2.623-0.407-5.533,0.15-7.766,3.282c-1.915,2.685-2.38,6.148-1.473,9.319
		c1.583,5.533,5.983,15.102,17.858,18.835c1.579,0.496,3.203,0.81,4.843,1.034c6.037,0.824,21.539,2.078,30.976-4.916
		c4.185-3.102,6.387-8.361,4.998-13.382c-0.881-3.182-3.208-5.993-8.881-5.158c-2.543,0.374-4.866,1.602-6.81,3.283
		c-2.462,2.128-7.38,5.161-14.738,4.205c0,0-8.888-0.629-11.609-9.722C355.792,274.397,353.019,271.647,349.435,271.091z"/>
	<path class="st7" d="M345.329,226.787c-6.517,2.146-17.599,7.887-17.863,22.157c-0.023,1.256,0.115,2.508,0.354,3.741
		c0.855,4.413,3.728,13.466,13.13,17.015c4.691,1.77,9.932,1.575,14.544-0.394c6.144-2.623,14.105-8.917,13.996-23.921
		c0,0,1.334-16.831-14.831-19.429C351.534,225.453,348.336,225.797,345.329,226.787z"/>
	<path class="st7" d="M387.091,242.306l-11.353,0.643c-3.097,0.175-6.048,1.659-7.789,4.226c-1.323,1.952-2.004,4.553-0.336,7.68
		c1.843,3.454,5.563,5.491,9.478,5.491h10v7.979c0,3.587,2.142,6.94,5.526,8.129c2.272,0.798,5.018,0.746,7.787-1.737
		c2.322-2.082,3.545-5.129,3.599-8.247l0.652-37.954c0.073-4.261-2.002-8.39-5.694-10.519c-2.405-1.387-5.319-1.791-8.259,0.874
		c-2.38,2.158-3.611,5.31-3.611,8.523V242.306z"/>
	<path class="st7" d="M278.692,238.348c0,0-10.435-4-7.209-12.148c1.128-2.85,3.643-4.92,6.589-5.767
		c6.244-1.795,19.817-5.15,31.622-4.326c6.125,0.427,11.9,3.354,15.437,8.374c2.732,3.877,4.25,9.058,0.243,14.804
		c-3.163,4.535-8.343,7.245-13.857,7.649c-4.549,0.333-10.864,0.85-15.799,1.463c-0.234,0.029-0.208,0.378,0.027,0.368
		c5.415-0.226,12.963-0.792,18.713-0.43c4.079,0.257,7.737,2.915,8.825,6.855c0.921,3.335,0.07,7.264-7.018,9.636
		c0,0-21.177,6.47-35.325-0.193c-10.347-4.873-11.727-19.154-2.589-26.032C278.463,238.516,278.576,238.432,278.692,238.348z"/>
	<path class="st7" d="M314.365,269.054c0,0-8.424,5.71-29.82,3.007c-3.118-0.394-6.381-0.013-9.042,1.658
		c-1.75,1.099-2.859,3.354-3.087,5.95c-0.586,6.676,4.021,9.967,10.673,10.781c1.717,0.21,4.556-0.07,6.561-0.331v11.589
		c0,4.266,1.865,8.401,5.278,10.96c2.805,2.103,6.366,2.904,9.753-1.674c1.667-2.253,2.54-4.996,2.676-7.795l0.692-14.238
		c0,0,17.979-2.624,18.267-12.339c0.026-0.882-0.139-1.759-0.411-2.599C324.997,271.217,322.057,265.115,314.365,269.054z"/>
	<path class="st7" d="M260.765,252.852l-38.221,1.602c-5.33,0.223-9.459,5.128-8.327,10.34c0.05,0.229,0.11,0.458,0.18,0.687
		c1.087,3.519,4.592,5.721,8.271,5.559c7.75-0.34,27.656-1.222,34.785-1.619c2.555-0.142,5.06-0.864,7.206-2.259
		c1.927-1.254,3.802-3.14,4.181-5.841C269.492,256.665,265.463,252.656,260.765,252.852z"/>
	<path class="st7" d="M223.748,206.786c9.908-1.325,28.549-3.418,39.133-2.065c2.377,0.304,4.634,1.353,6.262,3.111
		c2.588,2.796,4.048,7.775-5.291,15L262.4,232.99c0,0,11.326,3.671,6.855,11.932c-1.858,3.433-5.463,5.564-9.356,5.852
		l-33.957,2.515c-4.998,0.37-9.622-3.128-10.228-8.103c-0.394-3.238,0.997-6.753,6.923-9.293v-9.868c0,0-13.513,0.588-10.296-9.82
		C213.916,211.109,218.463,207.493,223.748,206.786z"/>
	<path class="st7" d="M222.424,293.29c0,0-10.435-4-7.209-12.148c1.128-2.85,3.643-4.92,6.589-5.767
		c6.244-1.795,19.817-5.15,31.622-4.326c6.125,0.427,11.9,3.354,15.437,8.374c2.732,3.877,4.25,9.058,0.243,14.804
		c-3.163,4.535-8.343,7.245-13.857,7.649c-4.549,0.333-10.864,0.85-15.799,1.463c-0.234,0.029-0.208,0.378,0.027,0.368
		c5.415-0.226,12.963-0.792,18.713-0.43c4.079,0.257,7.737,2.915,8.825,6.855c0.921,3.335,0.07,7.264-7.018,9.636
		c0,0-21.177,6.47-35.325-0.193c-10.347-4.873-11.727-19.154-2.589-26.032C222.196,293.458,222.309,293.374,222.424,293.29z"/>
	<path class="st7" d="M140.99,289.464c-2.623-0.407-5.533,0.15-7.766,3.282c-1.915,2.685-2.38,6.148-1.473,9.319
		c1.583,5.533,5.983,15.102,17.858,18.835c1.579,0.496,3.203,0.811,4.843,1.034c6.037,0.824,21.539,2.078,30.976-4.916
		c4.185-3.102,6.387-8.361,4.998-13.382c-0.881-3.182-3.208-5.993-8.881-5.158c-2.543,0.374-4.866,1.602-6.81,3.283
		c-2.462,2.128-7.38,5.161-14.738,4.205c0,0-8.888-0.629-11.609-9.722C147.347,292.77,144.574,290.02,140.99,289.464z"/>
	<path class="st7" d="M181.578,233.63c0,0-11.712-1.049-14.888,7.413c-0.684,1.821-0.859,3.823-0.376,5.708
		c0.882,3.442,4.199,8.232,16.301,4.714v6.843c0,0-7.884-0.444-13.901,2.486c-4.117,2.005-6.634,6.439-5.874,10.956
		c0.727,4.322,5.683,8.599,19.352,4.365c0,0-0.257,4.465,3.864,6.706c2.69,1.463,6.028,1.388,8.619-0.245
		c2.136-1.346,4.365-3.939,4.738-8.922c0,0,2.8-28.732-0.212-45.992c-0.688-3.943-3.34-8.518-7.34-8.366
		C189.374,219.39,182.61,219.846,181.578,233.63z"/>
	<path class="st7" d="M141.877,251.003l-14.567,1.355c-4.469,0.416-8.728-2.414-9.75-6.784c-0.427-1.825-0.268-3.801,1.099-5.686
		c1.378-1.9,3.565-3.052,5.889-3.379l25.879-3.639c1.356-0.191,2.74-0.202,4.084,0.061c2.812,0.549,6.561,2.348,6.561,8.045
		c0,0,0,52.988-34.277,44.305c0,0-6.427-1.542-5.399-7.712c0.702-4.212,4.349-7.237,8.593-7.707
		C135.17,269.286,142.791,265.937,141.877,251.003z"/>
	<path class="st8" d="M332.387,326.539h-61.618c-6.6,0-12,5.519-12,12.265v14.622c0,6.746,5.4,12.265,12,12.265h22.173l3.093,3.87
		l4.657,5.828l4.657-5.828l3.093-3.87h23.946c6.6,0,12-5.519,12-12.265v-14.622C344.387,332.058,338.987,326.539,332.387,326.539z"
		/>
	<path class="st9" d="M330.918,323.493H269.3c-6.6,0-12,5.4-12,12V349.8c0,6.6,5.4,12,12,12h22.173l3.093,3.787l4.657,5.702
		l4.657-5.702l3.093-3.787h23.946c6.6,0,12-5.4,12-12v-14.307C342.918,328.893,337.518,323.493,330.918,323.493z"/>
	
		<ellipse transform="matrix(0.5 -0.866 0.866 0.5 -91.211 160.0604)" class="st10" cx="93.011" cy="159.021" rx="6.457" ry="13.566"/>
	
		<ellipse transform="matrix(0.7624 -0.6472 0.6472 0.7624 25.8013 385.2724)" class="st11" cx="537.486" cy="157.505" rx="10.174" ry="6.217"/>
	
		<ellipse transform="matrix(0.7624 -0.6472 0.6472 0.7624 -406.8648 378.1613)" class="st11" cx="311.471" cy="743.067" rx="10.174" ry="6.217"/>
	
		<ellipse transform="matrix(0.7624 -0.6472 0.6472 0.7624 -335.3517 428.6494)" class="st11" cx="415.972" cy="670.939" rx="6.217" ry="12.642"/>
	<g>
		<path class="st12" d="M240.917,629.509l-20.702,104.204c-0.864,4.349,2.463,8.402,6.897,8.402h0.811
			c3.375,0,6.274-2.398,6.907-5.713l19.891-104.204c0.894-4.684-3.034-8.88-7.767-8.297h0
			C243.942,624.271,241.508,626.532,240.917,629.509z"/>
		<path class="st12" d="M366.063,629.509l20.702,104.204c0.864,4.349-2.463,8.402-6.897,8.402h-0.811
			c-3.375,0-6.274-2.398-6.907-5.713L352.26,632.197c-0.894-4.684,3.034-8.88,7.767-8.297h0
			C363.038,624.271,365.472,626.532,366.063,629.509z"/>
		<path class="st12" d="M395.973,603.606c-0.622,1.463-1.586,2.892-2.866,4.28c-11.322,12.266-47.348,21.233-90.044,21.233
			s-78.722-8.967-90.044-21.233c-1.28-1.387-2.244-2.816-2.866-4.279c0-0.001,0.001-0.002,0.001-0.003
			c0,0.001-0.001,0.002-0.001,0.003c-0.548-1.288-0.836-2.602-0.836-3.937v8.216c0,17.693,41.972,32.037,93.746,32.037
			s93.746-14.343,93.746-32.037v-8.216C396.809,601.004,396.521,602.318,395.973,603.606z"/>
		<ellipse class="st13" cx="303.063" cy="600.024" rx="93.746" ry="29.81"/>
	</g>
	<path class="st14" d="M299.923,514.16c0.807-0.011,1.615-0.032,2.423-0.02c4.891,0.076,32.106-0.671,51.204-25.26
		c-0.368-3.118-3.054-3.799-3.054-3.799c-40.72-4.816-95.888,5.254-95.888,5.254c-1.409,0.188-2.436,0.857-3.19,1.792
		C257.714,499.088,274.541,514.494,299.923,514.16z"/>
	<path class="st3" d="M259.875,401.604c-2.384,0.457-7.264,2.301-7.84,9.744c-0.069,0.893-0.606,1.68-1.415,2.064
		c-2.705,1.283-8.387,4.748-6.967,10.73c0.2,0.845,0.014,1.738-0.59,2.361c-1.981,2.041-5.855,7.086-2.848,12.983
		c0.42,0.824,0.387,1.807-0.17,2.546c-1.763,2.343-4.829,7.814,0.054,12.905c0.724,0.755,0.847,1.898,0.358,2.822
		c-1.267,2.392-2.675,7.082,2.63,11.038c0.777,0.579,1.202,1.529,1.007,2.477c-0.525,2.543-0.613,7.665,6.028,10.504
		c0.985,0.421,1.581,1.461,1.442,2.523c-0.241,1.845-0.083,4.581,2.554,5.83c0.308,0.146,0.589,0.329,0.813,0.586
		c2.554,2.927,20.16,21.621,50.768,18.46c0.088-0.009,0.177-0.013,0.266-0.012c1.978,0.026,26.25-0.153,44.277-23.749
		c0.16-0.209,0.349-0.392,0.568-0.538c1.701-1.133,9.687-6.859,8.386-13.748c-0.16-0.85,0.08-1.719,0.718-2.304
		c2.199-2.013,6.669-6.989,3.564-11.879c-0.562-0.885-0.524-2.018,0.117-2.848c1.697-2.193,3.983-6.715-0.586-11.691
		c-0.63-0.686-0.861-1.652-0.543-2.528c1.016-2.802,2.549-9.091-2.391-12.689c-0.711-0.518-1.147-1.328-1.086-2.205
		c0.194-2.776-0.123-8.902-6.108-11.935c-0.838-0.424-1.334-1.324-1.286-2.262c0.133-2.614-0.64-7.635-8.15-9.083
		c-0.977-0.188-1.757-0.914-1.98-1.883c-0.68-2.951-2.956-8.779-10.256-7.715c-0.593,0.086-1.195-0.081-1.689-0.418l-8.797-5.998
		c0,0-6.374-5.778-18.076-0.505c-0.657,0.296-1.405,0.321-2.061,0.023c-3.356-1.522-14.4-5.679-20.572,2.265
		c-0.559,0.719-1.435,1.1-2.337,0.98c-3.229-0.428-11.106-0.105-15.983,11.675C261.374,400.897,260.691,401.447,259.875,401.604z"/>
	<path class="st15" d="M366.655,573.467c-0.455-0.898-0.493-1.982,0.021-2.848c1.81-3.047,0.499-8.384-0.373-11.124
		c-0.27-0.849-0.191-1.784,0.305-2.524c1.506-2.248,0.131-7.665-0.754-10.517c-0.281-0.906-0.078-1.914,0.581-2.597
		c2.258-2.341-0.647-7.541-2.292-10.063c-0.504-0.773-0.433-1.763,0.126-2.497c2.726-3.583-0.937-9.49-2.985-12.274
		c-0.65-0.884-0.635-2.089,0.031-2.961c3.974-5.205,0.588-9.283-1.535-11.109c-0.722-0.621-0.87-1.66-0.435-2.507
		c2.632-5.119-2.591-9.762-4.831-11.444c-0.475-0.356-0.769-0.882-0.881-1.458c-0.242-0.048-0.28-0.055-0.523-0.103
		c-19.074,24.04-45.913,24.774-50.764,24.698c-0.798-0.013-1.595,0.008-2.393,0.019c-25.216,0.344-41.994-14.849-48.397-21.881
		c-0.073-0.08-0.2-0.073-0.265,0.014c-1.951,2.611-1.898,7.14-1.673,9.702c0.095,1.083-0.381,2.126-1.249,2.779
		c-4.045,3.044-2.821,8.891-1.834,11.894c0.337,1.026,0.057,2.129-0.655,2.94c-0.507,0.577-0.957,1.296-1.335,2.011
		c-0.883,1.666-1.009,3.625-0.424,5.417c0.61,1.869,0.845,3.333,0.861,4.474c0.026,1.76-0.969,3.297-2.427,4.283
		c-3.747,2.532-3.677,11.027-3.464,14.648c0.06,1.025-0.303,2.007-0.939,2.814c-3.328,4.22-2.656,10.364-2.112,13.172
		c0.167,0.86,0.032,1.741-0.372,2.518c-0.269,0.517-0.483,1.122-0.652,1.775c-0.995,3.84,0.016,7.93,2.425,11.083
		c1.342,1.757,2.196,3.917,2.716,5.657c0.478,1.599,1.735,2.874,3.352,3.287c1.716,0.439,2.746,1.546,3.359,2.614
		c0.9,1.569,2.629,2.478,4.438,2.51l50.276,0.882l42.035,0.681c1.047,0.017,2.081,0.245,3.054,0.631
		c5.52,2.189,8.258,0.069,9.356-1.282c0.504-0.621,1.193-1.042,1.944-1.318c4.272-1.569,5.167-5.372,5.291-7.717
		c0.062-1.158,0.786-2.139,1.827-2.65C370.376,582.501,368.157,576.433,366.655,573.467z"/>
	<path class="st15" d="M244.946,530.867c0,0,2.891,5.639,0,8.71c-1.734,1.843-0.925,3.601,0,4.712
		c0.812,0.975,1.175,2.241,1.122,3.509c-0.115,2.726-0.043,7.126,1.427,9.038c0.895,1.163,1.149,2.687,0.868,4.128
		c-0.612,3.13-1.087,7.795,0.744,10.382c0.786,1.11,1.175,2.448,1.001,3.797c-0.367,2.843-0.482,7.46,1.963,10.255
		c0.979,1.119,1.51,2.56,1.37,4.04c-0.278,2.941-0.01,7.435,3.988,8.358c1.273,0.294,2.315,1.16,3.076,2.222
		c0.678,0.946,1.983,1.72,4.493,1.053c1.577-0.418,3.246-0.005,4.537,0.992c1.893,1.461,5.089,2.857,9.295,0.79
		c1.491-0.732,3.225-0.659,4.689,0.125c1.992,1.066,5.058,1.753,8.147-1.255c0.915-0.891,2.109-1.444,3.386-1.425
		c2.409,0.034,6.201-0.854,6.38-6.741c0.025-0.805,0.223-1.596,0.586-2.316c0.864-1.71,2.079-5.303-0.553-8.761
		c-0.904-1.188-1.3-2.686-1.038-4.156c0.408-2.289,0.295-5.899-3.014-9.267c-1.097-1.116-1.682-2.617-1.569-4.178
		c0.2-2.755-0.219-7.076-4.258-9.218c-1.471-0.78-2.561-2.159-2.815-3.805c-0.168-1.089-0.138-2.485,0.302-4.247"/>
	<path class="st15" d="M319.078,547.137c0,0,1.935,6.234-4.243,10.5c-0.758,0.523-1.335,1.269-1.661,2.13
		c-0.491,1.295-1.038,3.333-0.917,5.8c0.055,1.121-0.335,2.212-1.045,3.081c-1.352,1.657-3.268,4.992-2.892,10.319
		c0.057,0.803-0.106,1.605-0.454,2.33c-0.929,1.937-2.446,6.123-0.361,9.658c0.436,0.738,0.696,1.562,0.684,2.419
		c-0.035,2.422,0.466,7.206,5.059,6.585c1.757-0.238,3.472,0.464,4.551,1.872c1.482,1.934,4.064,3.747,7.917,1.3
		c1.5-0.953,3.425-0.895,4.95,0.018c2.15,1.287,5.172,2.411,7.257,0.353c1.167-1.153,2.923-1.406,4.5-0.954
		c2.014,0.577,4.641,0.426,6.599-2.911c0.77-1.312,2.161-2.116,3.668-2.324c1.561-0.216,3.226-1.855,2.799-8.143
		c-0.095-1.394,0.41-2.778,1.437-3.724c1.499-1.382,3.21-4.151,1.554-9.047c-0.127-0.375-0.219-0.762-0.249-1.156
		c-0.103-1.373-0.126-4.561,1.695-5.863c1.029-0.736,1.859-1.723,2.126-2.959c0.298-1.382,0.285-3.093-0.952-4.426
		c-1.319-1.421-1.836-3.468-0.984-5.21c0.317-0.649,0.774-1.287,1.429-1.837c0.538-0.452,0.975-1.016,1.248-1.663
		c0.477-1.131,1.012-2.885,0.584-4.399c-0.366-1.292-0.314-2.681,0.396-3.821c1.355-2.176,2.71-5.652-0.021-8.382
		c-0.943-0.942-1.514-2.184-1.467-3.516c0.085-2.406,0.551-6.004,2.454-7.784"/>
	<g>
		<path class="st16" d="M323.141,442.874c0.566-1.07,0.89-2.289,0.89-3.584c0-4.242-3.439-7.68-7.68-7.68
			c-1.424,0-2.752,0.394-3.895,1.069C311.826,436.745,312.323,443.608,323.141,442.874z"/>
		<path class="st3" d="M312.455,432.679c-2.263,1.336-3.785,3.793-3.785,6.611c0,4.242,3.439,7.68,7.68,7.68
			c2.947,0,5.503-1.661,6.791-4.097C312.323,443.608,311.826,436.745,312.455,432.679z"/>
		<path class="st17" d="M315.905,427.507c0,0,3.625,2.659,0,5.172"/>
		<path class="st17" d="M320.629,428.517c0,0,3.447,2.951,0,4.395"/>
		<circle class="st15" cx="319.598" cy="434.993" r="2.081"/>
	</g>
	<g>
		<path class="st16" d="M301.855,442.905c0.566-1.07,0.89-2.289,0.89-3.584c0-4.242-3.439-7.68-7.68-7.68
			c-1.424,0-2.752,0.394-3.895,1.069C290.539,436.776,291.037,443.639,301.855,442.905z"/>
		<path class="st3" d="M291.169,432.71c-2.263,1.336-3.785,3.793-3.785,6.611c0,4.242,3.439,7.68,7.68,7.68
			c2.947,0,5.503-1.661,6.791-4.097C291.037,443.639,290.539,436.776,291.169,432.71z"/>
		<path class="st17" d="M294.619,427.537c0,0,3.625,2.659,0,5.172"/>
		<path class="st17" d="M299.343,428.547c0,0,3.447,2.951,0,4.395"/>
		<circle class="st15" cx="298.311" cy="435.024" r="2.081"/>
	</g>
	<path class="st18" d="M287.384,450.232c0,0,3.832-2.784,8.041-1.299c0,0,1.499-3.717,6.102-2.786c0,0,4.974-3.895,9.243-1.482
		c0,0,3.842-2.789,6.747,1.482c0,0,5.503-2.596,9.029,4.086"/>
	<path class="st17" d="M296.868,464.831c0,0,9.372,8.125,19.843,0"/>
	<path class="st19" d="M301.855,461.661c0,0-1.746,12.624,7.65,12.623c8.482-0.002,7.132-13.267,7.132-13.267L301.855,461.661z"/>
	<ellipse class="st20" cx="310.29" cy="448.573" rx="7.227" ry="4.803"/>
	<path class="st15" d="M291.749,461.307c0,0,1.143,7.428,15.973,0.779c1.024-0.459,2.201-0.429,3.192,0.097
		c2.946,1.563,9.1,4.132,8.684-1.95"/>
	<path class="st17" d="M309.221,461.769c0,0,1.718,7.954,0.299,9.824"/>
	<g>
		<path class="st21" d="M298.311,391.857c0,0-26.419-35.327-39.407-10.217c0,0-5.542,17.49,9.524,20.781
			c0,0,21.204,1.385,28.439-0.693C294.546,394.152,298.311,391.857,298.311,391.857z"/>
		<path class="st21" d="M339.602,382.758c0,0-14.474-24.669-27.325-4.928l-7.656,13.68c0,0,6.346,3.684,3.29,9.524
			C307.912,401.035,355.707,402.751,339.602,382.758z"/>
		<path class="st22" d="M308.743,397.988c0,0,23.504-24.17,29.171-13.51c0,0,12.083,17.264-29.377,14.974"/>
		<path class="st23" d="M296.268,395.471c0,0-20.691-19.439-24.469-4.759c0,0-4.453,13.331,24.703,9.657"/>
		<path class="st24" d="M304.622,391.511c0,0-3.442-1.905-6.31,0.346c0,0-3.765,2.295-1.444,9.871c0,0,5.503,3.81,11.044-0.693
			C310.967,395.195,304.622,391.511,304.622,391.511z"/>
	</g>
	<path class="st25" d="M311.471,445.576c0,0,2.317-0.315,3.475,1.425"/>
	<path class="st17" d="M306.458,514.006c0,0,0.871,5.656-3.974,4.117"/>
	<circle class="st26" cx="303.851" cy="525.381" r="9.401"/>
	<path class="st17" d="M300.604,514.15c0,0-0.456,4.572,3.246,4.038"/>
	<polygon class="st27" points="99.833,46.545 54.724,46.545 46.267,46.545 46.267,55.003 46.267,100.112 54.724,100.112 
		54.724,55.003 99.833,55.003 	"/>
	<polygon class="st27" points="99.833,800.055 54.724,800.055 46.267,800.055 46.267,791.597 46.267,746.488 54.724,746.488 
		54.724,791.597 99.833,791.597 	"/>
	<polygon class="st27" points="495.442,800.055 540.551,800.055 549.009,800.055 549.009,791.597 549.009,746.488 540.551,746.488 
		540.551,791.597 495.442,791.597 	"/>
	<polygon class="st27" points="495.442,46.545 540.551,46.545 549.009,46.545 549.009,55.003 549.009,100.112 540.551,100.112 
		540.551,55.003 495.442,55.003 	"/>
	<path class="st6" d="M399.459,146.226c-6.031,0-11.5,2.396-15.518,6.282c-4.018-3.886-9.487-6.282-15.518-6.282
		c-6.059,0-11.551,2.417-15.574,6.335c-4.023-3.918-9.515-6.335-15.574-6.335c-12.332,0-22.329,9.997-22.329,22.329
		c0,12.332,9.997,22.329,22.329,22.329c6.059,0,11.551-2.417,15.574-6.335c4.023,3.918,9.515,6.335,15.574,6.335
		c6.031,0,11.5-2.396,15.518-6.282c4.018,3.886,9.487,6.282,15.518,6.282c12.332,0,22.329-9.997,22.329-22.329
		C421.788,156.223,411.791,146.226,399.459,146.226z"/>
	<path class="st28" d="M333.313,147.63c-0.646-0.998-3.126-5.743-7.37-2.414c-2.417,1.896-2.596,5.491-0.917,8.063
		c1.239,1.897,3.415,4.241,7.234,6.707c0.214,0.138,0.48,0.183,0.725,0.112c1.102-0.319,4.37-1.47,7.57-4.608
		c2.322-2.276,2.957-5.913,1.262-8.688c-1.3-2.129-4.77-3.71-8.208,0.857C333.536,147.755,333.379,147.732,333.313,147.63z"/>
	<path class="st28" d="M185.344,77.847c-1.119-0.401-5.971-2.665-7.322,2.557c-0.77,2.974,1.271,5.94,4.167,6.963
		c2.136,0.755,5.288,1.296,9.82,0.937c0.254-0.02,0.492-0.146,0.644-0.351c0.682-0.923,2.579-3.821,3.217-8.258
		c0.463-3.218-1.241-6.494-4.272-7.669c-2.326-0.902-6.043-0.052-6.002,5.665C185.596,77.811,185.458,77.888,185.344,77.847z"/>
	<path class="st28" d="M558.401,268.035c-0.646-0.998-3.126-5.743-7.37-2.414c-2.417,1.896-2.596,5.491-0.917,8.063
		c1.239,1.897,3.415,4.241,7.234,6.707c0.214,0.138,0.48,0.183,0.725,0.112c1.102-0.319,4.37-1.47,7.57-4.608
		c2.322-2.276,2.957-5.913,1.262-8.688c-1.3-2.129-4.769-3.71-8.208,0.857C558.624,268.16,558.467,268.137,558.401,268.035z"/>
	<path class="st28" d="M86.031,337.18c-0.933-0.736-4.813-4.426-7.755,0.095c-1.675,2.574-0.684,6.035,1.736,7.927
		c1.785,1.396,4.601,2.911,9.012,4.012c0.248,0.062,0.513,0.018,0.722-0.128c0.94-0.658,3.661-2.802,5.677-6.806
		c1.462-2.904,0.889-6.551-1.611-8.63c-1.918-1.595-5.712-1.972-7.492,3.461C86.282,337.226,86.127,337.255,86.031,337.18z"/>
	<path class="st28" d="M45.905,388.575c-0.32-0.932-1.369-5.244-5.447-3.413c-2.323,1.043-3.184,3.899-2.347,6.303
		c0.618,1.774,1.901,4.093,4.481,6.839c0.145,0.154,0.349,0.243,0.561,0.234c0.951-0.037,3.809-0.311,7.009-2.196
		c2.322-1.368,3.559-4.167,2.749-6.737c-0.621-1.972-3.096-3.937-6.774-0.949C46.059,388.72,45.938,388.67,45.905,388.575z"/>
	<path class="st28" d="M171.084,754.048c-0.32-0.932-1.369-5.244-5.447-3.413c-2.323,1.043-3.184,3.899-2.347,6.303
		c0.618,1.773,1.901,4.093,4.481,6.839c0.145,0.154,0.349,0.243,0.561,0.234c0.951-0.037,3.809-0.311,7.009-2.196
		c2.322-1.368,3.559-4.167,2.749-6.737c-0.621-1.972-3.096-3.937-6.774-0.949C171.238,754.193,171.117,754.143,171.084,754.048z"/>
	<path class="st29" d="M276.599,336.976c-0.783-1.075-3.847-6.219-8.38-2.238c-2.581,2.267-2.558,6.293-0.522,9.06
		c1.501,2.042,4.077,4.523,8.495,7.039c0.248,0.141,0.547,0.174,0.816,0.079c1.211-0.425,4.788-1.913,8.166-5.616
		c2.451-2.686,2.934-6.787,0.869-9.779c-1.584-2.296-5.556-3.847-9.112,1.467C276.855,337.102,276.679,337.086,276.599,336.976z"/>
	<path class="st28" d="M515.241,390.116c-0.791-0.587-4.096-3.549-6.423,0.269c-1.325,2.174-0.418,5.017,1.633,6.525
		c1.513,1.112,3.884,2.299,7.565,3.102c0.207,0.045,0.425,0.002,0.595-0.124c0.763-0.568,2.964-2.412,4.536-5.778
		c1.14-2.442,0.576-5.449-1.547-7.11c-1.628-1.274-4.781-1.493-6.122,3.052C515.45,390.148,515.322,390.176,515.241,390.116z"/>
	<path class="st28" d="M516.881,617.828c-0.052-0.984,0.123-5.418-4.302-4.777c-2.52,0.365-4.132,2.876-3.986,5.418
		c0.108,1.875,0.705,4.458,2.433,7.806c0.097,0.188,0.269,0.329,0.475,0.379c0.924,0.225,3.748,0.746,7.343-0.189
		c2.608-0.678,4.565-3.031,4.492-5.724c-0.056-2.067-1.897-4.635-6.254-2.771C516.989,618.01,516.886,617.929,516.881,617.828z"/>
	<path class="st28" d="M112.204,617.649c-0.672-1.04-3.256-5.982-7.677-2.515c-2.517,1.974-2.704,5.72-0.955,8.398
		c1.29,1.976,3.557,4.417,7.535,6.985c0.223,0.144,0.5,0.19,0.755,0.116c1.148-0.332,4.551-1.531,7.885-4.8
		c2.418-2.371,3.08-6.159,1.314-9.049c-1.354-2.217-4.968-3.865-8.549,0.893C112.436,617.779,112.273,617.755,112.204,617.649z"/>
	<path class="st28" d="M539.154,538.513c-0.672-1.04-3.256-5.982-7.677-2.515c-2.517,1.974-2.704,5.72-0.955,8.398
		c1.29,1.976,3.557,4.417,7.535,6.985c0.223,0.144,0.5,0.19,0.755,0.116c1.148-0.332,4.551-1.531,7.885-4.8
		c2.418-2.371,3.079-6.159,1.314-9.049c-1.354-2.217-4.968-3.865-8.549,0.893C539.385,538.642,539.222,538.619,539.154,538.513z"/>
	<path class="st28" d="M63.614,504.829c-1.584-0.785-8.362-4.961-11.254,2.52c-1.647,4.26,0.859,8.991,4.96,11
		c3.026,1.482,7.589,2.822,14.344,3.068c0.379,0.014,0.752-0.132,1.011-0.409c1.166-1.246,4.465-5.202,6.168-11.645
		c1.235-4.674-0.719-9.804-4.995-12.061c-3.28-1.731-8.916-1.114-9.837,7.337C63.993,504.819,63.776,504.909,63.614,504.829z"/>
	
		<ellipse transform="matrix(0.9493 -0.3145 0.3145 0.9493 -206.051 75.0912)" class="st10" cx="129.677" cy="676.085" rx="13.566" ry="6.457"/>
	
		<ellipse transform="matrix(0.7624 -0.6472 0.6472 0.7624 -105.7667 449.9848)" class="st10" cx="559.815" cy="369.004" rx="12.911" ry="6.457"/>
	
		<ellipse transform="matrix(0.7624 -0.6472 0.6472 0.7624 6.1872 344.7559)" class="st30" cx="472.512" cy="163.954" rx="7.254" ry="4.433"/>
	
		<ellipse transform="matrix(0.6821 -0.7312 0.7312 0.6821 -134.8098 537.4218)" class="st30" cx="550.736" cy="423.769" rx="4.335" ry="7.713"/>
	
		<ellipse transform="matrix(0.9676 -0.2526 0.2526 0.9676 -125.7324 26.6165)" class="st30" cx="40.778" cy="502.907" rx="4.433" ry="7.254"/>
	
		<ellipse transform="matrix(0.9353 -0.3537 0.3537 0.9353 -79.4252 37.3328)" class="st31" cx="62.41" cy="235.932" rx="6.457" ry="12.391"/>
	
		<ellipse transform="matrix(0.9816 -0.1908 0.1908 0.9816 -9.3889 65.8078)" class="st31" cx="336.976" cy="81.651" rx="12.391" ry="6.457"/>
	<g>
		<path class="st32" d="M302.112,333.749c0.037,0.15,0.056,0.392,0.056,0.728l-0.056,1.484c-0.02,0.43-0.028,1.718-0.028,3.864
			v2.884c0.037,3.435,0.074,5.227,0.112,5.376c0.018,0.131,0.074,0.196,0.168,0.196c0.093,0.038,0.392,0.038,0.896,0
			c0.149-0.019,0.346-0.028,0.588-0.028c0.354,0,0.606,0.038,0.756,0.112c0.262,0.131,0.43,0.327,0.505,0.588
			c0.018,0.056,0.027,0.131,0.027,0.224c0,0.187-0.056,0.364-0.168,0.532c-0.131,0.224-0.42,0.382-0.868,0.476
			c-0.541,0.074-1.493,0.121-2.855,0.14h-1.372c-0.971,0-1.503-0.01-1.596-0.028c-0.15-0.056-0.299-0.187-0.448-0.392
			c-0.075-0.13-0.112-0.252-0.112-0.364c0-0.074,0.018-0.168,0.056-0.28c0.093-0.28,0.233-0.458,0.42-0.532
			c0.242-0.13,0.56-0.214,0.952-0.252l0.841-0.112l0.056-2.744c0-1.101-0.019-1.988-0.056-2.66
			c-0.038-1.344-0.057-2.501-0.057-3.472c0-0.784,0.01-1.391,0.028-1.82l0.056-1.288c0-0.056-0.027-0.084-0.084-0.084
			c-0.019,0-0.178,0.066-0.476,0.196c-0.355,0.187-0.719,0.28-1.092,0.28c-0.392,0-0.654-0.093-0.784-0.28
			c-0.112-0.149-0.187-0.364-0.224-0.644c0-0.205,0.075-0.382,0.224-0.532c0.149-0.149,0.438-0.345,0.868-0.588
			c0.392-0.205,0.84-0.56,1.344-1.064c0.448-0.448,0.774-0.69,0.979-0.728C301.533,332.844,301.981,333.115,302.112,333.749z"/>
		<path class="st32" d="M313.62,333.245c0.579,0.299,1.12,0.747,1.624,1.344c0.542,0.691,0.896,1.363,1.064,2.016
			c0.112,0.467,0.168,0.934,0.168,1.4c0,0.392-0.019,0.691-0.056,0.896c-0.112,0.747-0.364,1.41-0.756,1.988
			c-0.43,0.635-1.195,1.316-2.297,2.044c-1.063,0.691-2.118,1.195-3.164,1.512l-0.699,0.224l-0.057,1.54
			c-0.019,0.411-0.027,0.878-0.027,1.4c0,0.318,0.009,0.486,0.027,0.504c0.037,0.056,0.43,0.084,1.177,0.084l2.548-0.028
			l0.924-0.028c0.373-0.019,0.83-0.028,1.372-0.028c0.429,0,0.709,0.009,0.84,0.028c0.485,0.038,0.766,0.084,0.84,0.14
			c0.393,0.243,0.588,0.569,0.588,0.98c0,0.243-0.079,0.438-0.237,0.588c-0.159,0.149-0.406,0.271-0.742,0.364
			c-0.336,0.075-1.923,0.13-4.761,0.168l-4.256,0.056l-0.336-0.336c-0.149-0.149-0.242-0.382-0.279-0.7
			c-0.038-0.28-0.01-1.325,0.084-3.136c0.018-0.97,0.074-1.698,0.168-2.184c0.111-0.429,0.261-0.746,0.447-0.952
			c0.411-0.41,0.971-0.672,1.681-0.784c0.56-0.13,1.036-0.308,1.428-0.532c0.354-0.186,0.914-0.513,1.68-0.98
			c0.69-0.504,1.167-0.97,1.429-1.4c0.168-0.317,0.252-0.737,0.252-1.26c0-0.747-0.112-1.344-0.336-1.792
			c-0.374-0.635-0.738-1.027-1.093-1.176c-0.354-0.205-0.868-0.308-1.54-0.308c-1.25,0-2.343,0.355-3.275,1.064
			c-0.225,0.224-0.458,0.336-0.7,0.336c-0.299,0-0.514-0.065-0.645-0.196c-0.111-0.112-0.168-0.354-0.168-0.728
			c0-0.242,0.019-0.438,0.057-0.588c0.037-0.112,0.13-0.233,0.28-0.364c0.783-0.784,1.922-1.306,3.415-1.568
			c0.448-0.074,0.794-0.112,1.036-0.112c0.299,0,0.663,0.047,1.093,0.14C312.921,332.993,313.321,333.115,313.62,333.245z"/>
		<path class="st32" d="M326.444,332.825c0.951,0,1.577,0.075,1.876,0.224c0.447,0.224,0.672,0.569,0.672,1.036
			c0,0.112-0.01,0.206-0.028,0.28c-0.094,0.485-0.43,1.102-1.008,1.848c-0.579,0.747-1.158,1.41-1.736,1.988
			c-0.709,0.709-1.036,1.083-0.979,1.12c0.522,0.149,1.017,0.317,1.483,0.504c0.373,0.149,0.85,0.392,1.429,0.728
			c0.504,0.336,0.867,0.644,1.092,0.924c0.746,0.859,1.12,1.97,1.12,3.332c0,1.232-0.271,2.259-0.812,3.08
			c-0.71,1.064-1.698,1.811-2.968,2.24c-1.027,0.336-2.035,0.504-3.024,0.504c-0.224,0-0.522-0.019-0.896-0.056
			c-1.27-0.131-2.277-0.542-3.024-1.232c-0.242-0.187-0.383-0.345-0.42-0.476c-0.056-0.093-0.084-0.28-0.084-0.56
			c0-0.261,0.019-0.448,0.057-0.56c0.037-0.112,0.111-0.214,0.224-0.308c0.168-0.168,0.354-0.252,0.56-0.252
			c0.225,0,0.551,0.159,0.98,0.476c0.485,0.299,0.877,0.495,1.176,0.588c0.336,0.094,0.84,0.14,1.512,0.14
			c0.878,0,1.652-0.121,2.324-0.364c0.672-0.224,1.166-0.532,1.484-0.924c0.279-0.336,0.485-0.69,0.616-1.064
			c0.074-0.373,0.111-0.718,0.111-1.036c0-0.41-0.027-0.812-0.084-1.204c-0.037-0.168-0.121-0.345-0.252-0.532
			c-0.187-0.317-0.522-0.625-1.008-0.924c-0.448-0.298-0.952-0.532-1.512-0.7c-0.616-0.205-1.4-0.308-2.353-0.308h-1.428
			l-0.308-0.336c-0.206-0.261-0.309-0.504-0.309-0.728c0-0.168,0.037-0.317,0.112-0.448c0.074-0.13,0.382-0.392,0.924-0.784
			c0.485-0.373,1.176-0.956,2.072-1.75c0.896-0.793,1.614-1.498,2.156-2.114c0.037-0.093,0.018-0.168-0.057-0.224
			c-0.094-0.037-1.083-0.019-2.968,0.056c-1.438,0.056-2.277,0.075-2.521,0.056c-0.279,0-0.494-0.046-0.644-0.14
			c-0.168-0.149-0.28-0.327-0.336-0.532c-0.019-0.056-0.028-0.14-0.028-0.252c0-0.149,0.019-0.261,0.057-0.336
			c0.148-0.28,0.392-0.466,0.728-0.56c0.354-0.093,1.11-0.168,2.269-0.224c0.634-0.037,1.035-0.056,1.203-0.056
			c0.28-0.019,0.514-0.033,0.7-0.042s0.317-0.023,0.393-0.042C325.025,332.844,325.511,332.825,326.444,332.825z"/>
	</g>
	<path class="st33" d="M136.749,245.96l-14.567,1.355c-4.469,0.416-8.728-2.414-9.75-6.784c-0.427-1.825-0.268-3.801,1.099-5.686
		c1.378-1.9,3.565-3.052,5.889-3.379l25.879-3.639c1.356-0.191,2.74-0.202,4.084,0.061c2.812,0.549,6.561,2.348,6.561,8.045
		c0,0,0,52.988-34.277,44.305c0,0-6.427-1.542-5.399-7.712c0.702-4.212,4.349-7.237,8.593-7.707
		C130.041,264.243,137.663,260.894,136.749,245.96z"/>
	<path class="st33" d="M175.557,228.949c0,0-11.712-1.049-14.888,7.413c-0.684,1.821-0.859,3.823-0.376,5.708
		c0.882,3.442,4.199,8.232,16.301,4.714v6.843c0,0-7.884-0.444-13.901,2.486c-4.117,2.005-6.634,6.439-5.874,10.956
		c0.727,4.322,5.683,8.599,19.352,4.365c0,0-0.257,4.465,3.864,6.706c2.69,1.463,6.028,1.388,8.619-0.245
		c2.136-1.347,4.365-3.939,4.738-8.922c0,0,2.8-28.732-0.212-45.992c-0.688-3.943-3.34-8.518-7.34-8.366
		C183.353,214.709,176.589,215.165,175.557,228.949z"/>
	<path class="st33" d="M136.937,283.202c-2.623-0.407-5.533,0.15-7.766,3.282c-1.915,2.685-2.38,6.148-1.473,9.319
		c1.583,5.533,5.983,15.102,17.858,18.835c1.579,0.496,3.203,0.811,4.843,1.034c6.037,0.824,21.539,2.078,30.976-4.916
		c4.185-3.102,6.387-8.361,4.998-13.382c-0.881-3.182-3.208-5.993-8.881-5.158c-2.543,0.374-4.866,1.602-6.81,3.283
		c-2.462,2.128-7.38,5.161-14.738,4.205c0,0-8.888-0.629-11.609-9.722C143.294,286.508,140.521,283.758,136.937,283.202z"/>
	<path class="st33" d="M345.252,266.582c-2.623-0.407-5.533,0.15-7.766,3.282c-1.915,2.685-2.38,6.148-1.473,9.319
		c1.583,5.533,5.983,15.102,17.858,18.835c1.579,0.496,3.203,0.81,4.843,1.034c6.037,0.824,21.539,2.078,30.976-4.916
		c4.185-3.102,6.387-8.361,4.998-13.382c-0.881-3.182-3.208-5.993-8.881-5.158c-2.543,0.374-4.866,1.602-6.81,3.283
		c-2.462,2.128-7.38,5.161-14.738,4.205c0,0-8.888-0.629-11.609-9.722C351.609,269.888,348.836,267.138,345.252,266.582z"/>
	<path class="st33" d="M217.197,203.246c9.908-1.325,28.549-3.418,39.133-2.065c2.377,0.304,4.634,1.353,6.262,3.112
		c2.588,2.796,4.048,7.775-5.291,15l-1.451,10.159c0,0,11.326,3.671,6.855,11.932c-1.858,3.433-5.463,5.564-9.356,5.852
		l-33.958,2.515c-4.998,0.37-9.622-3.128-10.228-8.103c-0.394-3.238,0.997-6.753,6.923-9.293v-9.868c0,0-13.513,0.588-10.296-9.82
		C207.365,207.57,211.911,203.953,217.197,203.246z"/>
	<polygon class="st7" points="233.5,219.292 234.917,231.192 237.463,231.192 239.595,219.292 	"/>
	<path class="st33" d="M255.285,248.327l-38.221,1.602c-5.33,0.223-9.459,5.128-8.327,10.34c0.05,0.229,0.11,0.458,0.18,0.687
		c1.087,3.519,4.592,5.721,8.271,5.559c7.75-0.34,27.656-1.222,34.785-1.619c2.555-0.142,5.061-0.864,7.206-2.259
		c1.927-1.254,3.802-3.14,4.181-5.841C264.012,252.14,259.983,248.13,255.285,248.327z"/>
	<path class="st33" d="M216.932,287.594c0,0-10.435-4-7.209-12.148c1.128-2.85,3.643-4.92,6.589-5.767
		c6.244-1.795,19.817-5.15,31.622-4.326c6.125,0.427,11.9,3.354,15.437,8.374c2.732,3.877,4.25,9.058,0.243,14.804
		c-3.163,4.535-8.343,7.245-13.857,7.649c-4.549,0.333-10.864,0.85-15.799,1.463c-0.234,0.029-0.208,0.378,0.027,0.368
		c5.415-0.226,12.963-0.792,18.713-0.43c4.079,0.257,7.737,2.915,8.825,6.855c0.921,3.335,0.07,7.264-7.018,9.636
		c0,0-21.177,6.47-35.325-0.193c-10.347-4.873-11.727-19.154-2.589-26.032C216.704,287.762,216.817,287.678,216.932,287.594z"/>
	<path class="st34" d="M216.932,287.594c0,0,21.423-6.61,28.162-4.508"/>
	<path class="st33" d="M275.46,232.65c0,0-10.435-4-7.209-12.148c1.128-2.85,3.643-4.92,6.589-5.767
		c6.244-1.795,19.817-5.15,31.622-4.326c6.125,0.427,11.9,3.354,15.437,8.374c2.732,3.877,4.25,9.058,0.243,14.804
		c-3.163,4.535-8.343,7.245-13.857,7.649c-4.549,0.333-10.864,0.85-15.799,1.463c-0.234,0.029-0.208,0.378,0.027,0.368
		c5.415-0.226,12.963-0.792,18.713-0.43c4.079,0.257,7.737,2.915,8.825,6.855c0.921,3.335,0.07,7.264-7.018,9.636
		c0,0-21.177,6.47-35.325-0.193c-10.347-4.873-11.727-19.154-2.589-26.032C275.231,232.818,275.345,232.734,275.46,232.65z"/>
	<path class="st34" d="M275.46,232.65c0,0,21.423-6.61,28.162-4.508"/>
	<path class="st33" d="M308.743,265.225c0,0-8.424,5.71-29.82,3.007c-3.118-0.394-6.381-0.013-9.042,1.658
		c-1.75,1.099-2.859,3.354-3.087,5.95c-0.586,6.676,4.021,9.967,10.673,10.781c1.717,0.21,4.556-0.07,6.561-0.331v11.589
		c0,4.266,1.865,8.401,5.278,10.96c2.805,2.103,6.366,2.904,9.753-1.674c1.667-2.253,2.54-4.996,2.676-7.795l0.692-14.238
		c0,0,17.979-2.624,18.267-12.339c0.026-0.882-0.139-1.759-0.411-2.599C319.375,267.388,316.435,261.286,308.743,265.225z"/>
	<path class="st33" d="M339.73,222.16c-6.517,2.146-17.599,7.887-17.863,22.157c-0.023,1.256,0.115,2.508,0.354,3.741
		c0.855,4.413,3.728,13.466,13.13,17.015c4.691,1.77,9.932,1.575,14.544-0.394c6.144-2.623,14.105-8.917,13.996-23.921
		c0,0,1.334-16.831-14.831-19.429C345.935,220.826,342.737,221.171,339.73,222.16z"/>
	
		<ellipse transform="matrix(0.2605 -0.9655 0.9655 0.2605 18.3179 511.3002)" class="st7" cx="342.918" cy="243.693" rx="4.938" ry="3.383"/>
	<path class="st35" d="M381.492,235.295l-11.353,0.643c-3.097,0.175-6.048,1.659-7.789,4.226c-1.323,1.952-2.004,4.553-0.336,7.68
		c1.843,3.454,5.563,5.491,9.478,5.491h10v7.979c0,3.587,2.142,6.94,5.526,8.129c2.272,0.798,5.018,0.746,7.787-1.737
		c2.322-2.082,3.545-5.129,3.599-8.247l0.652-37.954c0.073-4.261-2.002-8.39-5.694-10.519c-2.405-1.387-5.319-1.791-8.259,0.874
		c-2.38,2.158-3.611,5.31-3.611,8.523V235.295z"/>
	<path class="st33" d="M454.946,244.6l-11.353,0.643c-3.097,0.175-6.048,1.659-7.789,4.226c-1.323,1.952-2.004,4.553-0.336,7.68
		c1.843,3.454,5.563,5.491,9.478,5.491h10v7.979c0,3.587,2.142,6.94,5.526,8.129c2.272,0.798,5.018,0.746,7.787-1.737
		c2.322-2.082,3.545-5.129,3.599-8.247l0.652-37.954c0.073-4.261-2.002-8.39-5.694-10.519c-2.405-1.387-5.319-1.791-8.259,0.874
		c-2.38,2.158-3.611,5.31-3.611,8.523V244.6z"/>
	<path class="st33" d="M430.469,245.605l3.825-4.631c2.012-2.435,2.792-5.743,1.798-8.741c-0.555-1.672-1.626-3.31-3.616-4.37
		c-3.264-1.74-7.323-0.835-9.786,1.926c-6.318,7.083-20.813,24.367-25.246,35.808c-1.385,3.576-1.538,7.559-0.146,11.132
		c1.227,3.151,3.73,6.296,8.81,5.078c3.227-0.774,5.868-3.09,7.312-6.078l4.563-9.442l1.539,5.93
		c1.005,3.872,4.014,7.013,7.923,7.861c2.458,0.533,5.168,0.191,7.372-2.432c2.151-2.56,2.76-6.083,1.877-9.307L430.469,245.605z"/>
	<path class="st33" d="M218.829,366.902h-27.068c-6.6,0-12-5.4-12-12v-21.738c0-6.6,5.4-12,12-12h27.068c6.6,0,12,5.4,12,12v21.738
		C230.829,361.502,225.429,366.902,218.829,366.902z"/>
	<rect x="197.821" y="341.589" class="st7" width="15.152" height="5.802"/>
	<path class="st33" d="M192.227,393.118v-8.619c0-4.056,1.951-7.975,5.42-10.076c2.062-1.249,4.687-1.897,7.826-0.819
		c4.566,1.568,7.5,6.035,7.5,10.862v8.652c0,0,6.222-1.777,11.917-2.306c3.622-0.336,7.295,0.9,9.685,3.642
		c1.681,1.929,2.853,4.647,1.806,8.251c-1.142,3.931-4.541,6.787-8.564,7.543c-10.292,1.933-35.044,5.862-48.335,1.848
		c-3.039-0.918-5.733-2.818-7.373-5.536c-1.358-2.25-2.213-5.278-0.475-8.594c1.529-2.918,4.526-4.784,7.8-5.147
		C182.403,392.49,186.913,392.303,192.227,393.118z"/>
	<g>
		<path class="st7" d="M375.419,342.252h-5.817c-5.848,0-10.846-4.613-10.886-10.461c-0.02-2.967,1.182-5.727,5.083-6.967
			c0,0,16.968,0.391,23.24-1.576c3.293-1.033,6.953-0.329,9.563,1.93c2.122,1.836,3.442,4.633,1.683,8.819
			c-0.45,1.07-0.876,2.15-1.193,3.267l-2.658,9.376c0,0,6.562,4.042,9.144,10.196c1.696,4.044,0.641,8.856-2.767,11.616
			c-2.94,2.382-7.762,3.381-14.892-3.364c0,0-4.549,7.062-11.735,9.638c-5.277,1.891-11.322-0.139-13.996-5.065
			c-1.902-3.503-1.904-8.195,6.137-12.674c2.094-1.166,4.003-2.658,5.467-4.555C373.607,350.078,375.427,346.626,375.419,342.252z"
			/>
		<path class="st7" d="M381.9,383.418c0,0,17.432,0.654,22.594-2.978v-1.102c0-3.481,1.403-6.888,4.071-9.124
			c2.149-1.802,5.037-2.792,8.385-0.335c2.427,1.781,3.914,4.566,4.296,7.552c0.929,7.247,2.823,19.792-0.495,29.539
			c-1.668,4.902-5.419,8.803-10.18,10.838c-6.576,2.812-18.695,5.67-37.019,1.302c-3.439-0.82-6.041-3.631-6.653-7.114
			c-0.874-4.969-1.857-13.321-1.784-25.532c0.023-3.899,2.141-7.605,5.681-9.238C374.06,375.721,378.238,376.056,381.9,383.418z"/>
		<path class="st7" d="M417.782,365.771c-2.373,0-4.742-0.933-6.51-2.785c-3.104-3.25-1.859-6.96-0.645-11.678
			c0.002-0.006,0.007-0.01,0.008-0.017c0.888-4.743,0.074-13.869-1.637-23.075c-0.876-4.713,1.873-9.513,6.515-10.711
			c5.094-1.315,10.151,1.957,11.111,7.039c0.053,0.283,1.313,7.001,1.957,14.421c1.118,12.907-0.253,20.179-4.585,24.316
			C422.254,364.944,420.016,365.771,417.782,365.771z"/>
		<path class="st33" d="M369.221,337.483h-5.817c-5.848,0-10.846-4.613-10.886-10.461c-0.02-2.967,1.182-5.727,5.083-6.967
			c0,0,16.968,0.391,23.24-1.576c3.293-1.033,6.953-0.329,9.563,1.93c2.122,1.836,3.442,4.633,1.683,8.819
			c-0.45,1.07-0.876,2.15-1.193,3.267l-2.658,9.376c0,0,6.562,4.042,9.144,10.196c1.696,4.044,0.641,8.856-2.767,11.616
			c-2.94,2.382-7.762,3.381-14.892-3.364c0,0-4.549,7.062-11.735,9.638c-5.277,1.891-11.322-0.139-13.996-5.065
			c-1.902-3.503-1.904-8.195,6.137-12.674c2.094-1.166,4.003-2.658,5.467-4.555C367.409,345.309,369.23,341.857,369.221,337.483z"/>
		<path class="st33" d="M375.702,378.649c0,0,17.432,0.654,22.594-2.978v-1.102c0-3.481,1.403-6.888,4.071-9.124
			c2.149-1.802,5.037-2.792,8.385-0.335c2.427,1.781,3.914,4.566,4.296,7.552c0.929,7.247,2.823,19.792-0.495,29.539
			c-1.668,4.902-5.419,8.803-10.18,10.838c-6.576,2.812-18.695,5.67-37.019,1.302c-3.439-0.82-6.041-3.631-6.653-7.114
			c-0.874-4.969-1.857-13.321-1.784-25.532c0.024-3.899,2.141-7.605,5.681-9.238C367.862,370.952,372.041,371.287,375.702,378.649z"
			/>
		<path class="st7" d="M396.848,393.729c0,0-6.01,4.149-18.029,3.549v2.664c0,0,15.925,0.039,18.029-2.664V393.729z"/>
		<path class="st33" d="M411.584,361.002c-2.373,0-4.742-0.933-6.51-2.785c-3.104-3.25-1.859-6.96-0.645-11.678
			c0.002-0.006,0.007-0.01,0.008-0.017c0.888-4.743,0.074-13.869-1.637-23.075c-0.876-4.713,1.873-9.513,6.515-10.711
			c5.094-1.315,10.151,1.957,11.111,7.039c0.053,0.283,1.313,7.001,1.957,14.421c1.118,12.907-0.253,20.179-4.585,24.316
			C416.056,360.175,413.819,361.002,411.584,361.002z"/>
	</g>
	<circle class="st3" cx="66.728" cy="290.559" r="4.318"/>
	<circle class="st3" cx="42.91" cy="328.476" r="3.523"/>
	<circle class="st3" cx="19.876" cy="442.03" r="3.523"/>
	<circle class="st3" cx="24.819" cy="584.65" r="2.898"/>
	<circle class="st3" cx="71.046" cy="703.791" r="2.898"/>
	<circle class="st3" cx="467.252" cy="764.012" r="2.898"/>
	<circle class="st3" cx="281.008" cy="659.062" r="2.898"/>
	<circle class="st3" cx="525.68" cy="650.231" r="3.454"/>
	<circle class="st3" cx="525.68" cy="700.086" r="3.454"/>
	<circle class="st3" cx="534.315" cy="476.01" r="1.727"/>
	<circle class="st3" cx="369.517" cy="138.983" r="1.727"/>
	<circle class="st3" cx="261.121" cy="173.009" r="1.727"/>
	<circle class="st3" cx="564.863" cy="300.759" r="3"/>
	
		<ellipse transform="matrix(0.7624 -0.6472 0.6472 0.7624 -191.5392 488.4218)" class="st3" cx="569.264" cy="505.01" rx="9.193" ry="3"/>
	
		<ellipse transform="matrix(0.7624 -0.6472 0.6472 0.7624 -349.0262 253.5043)" class="st3" cx="170.658" cy="601.985" rx="9.193" ry="3"/>
	
		<ellipse transform="matrix(0.9685 -0.2489 0.2489 0.9685 -147.7229 35.7468)" class="st3" cx="67.485" cy="601.985" rx="9.193" ry="3"/>
	
		<ellipse transform="matrix(0.9685 -0.2489 0.2489 0.9685 -172.6715 134.852)" class="st3" cx="446.883" cy="750.187" rx="9.193" ry="3"/>
	
		<ellipse transform="matrix(0.7071 -0.7071 0.7071 0.7071 -12.6612 238.0393)" class="st3" cx="281.008" cy="134.303" rx="3" ry="9.193"/>
	<circle class="st3" cx="550.736" cy="551.533" r="1.727"/>
	<circle class="st3" cx="487.173" cy="603.291" r="1.121"/>
	<circle class="st3" cx="244.852" cy="495.596" r="1.973"/>
	<circle class="st3" cx="162.437" cy="330.635" r="2.953"/>
	<circle class="st3" cx="146.314" cy="137.256" r="2.953"/>
	<circle class="st3" cx="415.196" cy="80.068" r="2.953"/>
	<circle class="st3" cx="27.717" cy="322.586" r="4.318"/>
	<path class="st36" d="M176.135,495.158c-8.328-47.665-49.465-45.036-51.216-44.905l-0.987-11.959
		c0.553-0.049,13.716-1.069,28.16,5.181c13.421,5.81,30.538,19.133,35.865,49.617L176.135,495.158z"/>
	<path class="st37" d="M486.735,295.356c-25.324,0-45.853,20.529-45.853,45.853c0,9.377,2.82,18.093,7.651,25.356l-11.449,19.057
		l19.634-9.768c8.044,6.976,18.533,11.207,30.017,11.207c25.324,0,45.853-20.529,45.853-45.853
		C532.588,315.885,512.059,295.356,486.735,295.356z"/>
	<path class="st3" d="M467.556,358.687l-7.847-1.191c-2.074-0.315-3.513-2.269-3.198-4.342l3.98-26.224
		c0.315-2.074,2.269-3.513,4.342-3.198l7.847,1.191c2.074,0.315,3.513,2.269,3.198,4.342l-3.98,26.224
		C471.584,357.563,469.63,359.002,467.556,358.687z"/>
	<path class="st3" d="M478.924,329.839l-4.263,26.486c-0.324,2.012,0.961,3.975,2.959,4.374c0.034,0.007,0.069,0.013,0.103,0.02
		c0,0,14.21,2.209,20.214,2.622c2.322,0.16,4.237-1.978,3.63-4.226c-0.129-0.479-0.338-0.999-0.649-1.56
		c-0.252-0.456,0.026-1.019,0.544-1.066c2.562-0.232,8.114-1.37,4.573-6.941c-0.204-0.321-0.008-0.749,0.37-0.793
		c2.204-0.257,7.593-1.501,3.787-7.469c-0.023-0.036-0.01-0.084,0.031-0.092c0.009-0.002,0.018-0.004,0.027-0.006
		c4.693-1.002,4.412-7.813-0.34-8.488l-19.426-2.76c-0.467-0.066-0.737-0.561-0.535-0.986c1.271-2.67,5.049-11.03,5.325-16.555
		c0.126-2.518-1.6-4.855-4.108-5.108c-1.044-0.106-2.182,0.153-3.223,1.191c-0.641,0.639-1.057,1.464-1.314,2.332
		c-0.807,2.72-3.261,10.546-5.829,14.227C479.808,326.465,479.2,328.123,478.924,329.839z"/>
	<path class="st3" d="M492.809,569.959h-19.47c-10.967,0-19.858-8.891-19.858-19.858v-25.157c0-1.099-0.69-2.147-1.758-2.406
		c-1.526-0.37-2.902,0.793-2.902,2.261v25.288c0,10.975-8.897,19.872-19.872,19.872h-19.456c-1.099,0-2.147,0.689-2.406,1.758
		c-0.37,1.526,0.793,2.903,2.261,2.903h19.055c11.277,0,20.418,9.142,20.418,20.418v30.974c0,1.099,0.69,2.147,1.758,2.406
		c1.526,0.37,2.902-0.793,2.902-2.261V594.78c0-11.135,9.026-20.161,20.161-20.161h19.312c1.468,0,2.631-1.376,2.261-2.903
		C494.956,570.649,493.908,569.959,492.809,569.959z"/>
	<path class="st3" d="M107.967,412.498H94.526c-7.571,0-13.708-6.137-13.708-13.708l0-17.367c0-0.759-0.476-1.482-1.213-1.661
		c-1.054-0.255-2.004,0.547-2.004,1.561v17.457c0,7.576-6.142,13.718-13.718,13.718H50.452c-0.759,0-1.482,0.476-1.661,1.213
		c-0.255,1.054,0.547,2.004,1.561,2.004h13.154c7.785,0,14.095,6.311,14.095,14.095v21.382c0,0.759,0.476,1.482,1.213,1.661
		c1.054,0.255,2.004-0.547,2.004-1.561v-21.66c0-7.687,6.231-13.918,13.918-13.918h13.332c1.014,0,1.816-0.95,1.561-2.004
		C109.449,412.974,108.726,412.498,107.967,412.498z"/>
</g>
</svg>
