<?xml version="1.0" encoding="utf-8"?>
<!-- Generator: Adobe Illustrator 25.1.0, SVG Export Plug-In . SVG Version: 6.00 Build 0)  -->
<svg version="1.1" id="Layer_2" xmlns="http://www.w3.org/2000/svg" xmlns:xlink="http://www.w3.org/1999/xlink" x="0px" y="0px"
	 viewBox="0 0 595.276 841.89" style="enable-background:new 0 0 595.276 841.89;" xml:space="preserve">
<style type="text/css">
	.st0{fill:#FBF5ED;}
	.st1{fill:#F3ECE6;}
	.st2{fill:#F7D0A9;}
	.st3{fill:#FACFA0;}
	.st4{fill:#D7A87F;}
	.st5{fill:#DFC9B8;}
	.st6{fill:#E2C5B3;}
	.st7{fill:#B69E8D;}
	.st8{fill:#CBC9C8;}
	.st9{fill:#DDD9D9;}
	.st10{fill:#43B598;}
	.st11{fill:#FFFFFF;}
	.st12{fill:#EE7772;}
	.st13{fill:#378FCD;}
	.st14{fill:#DDDCDE;}
	.st15{fill:#F9F5F9;}
	.st16{fill:#44B597;}
	.st17{fill:#2CB193;}
	.st18{fill:#FEF5F8;}
	.st19{fill:#DDD4D1;}
	.st20{fill:#43B69D;}
	.st21{fill:#32B296;}
	.st22{fill:#F7F6F6;}
	.st23{fill:#EBEBEA;}
	.st24{fill:#11856F;}
	.st25{fill:#3DB49D;}
	.st26{fill:#EE7375;}
	.st27{fill:#D4534C;}
	.st28{fill:#F9F7F7;}
	.st29{fill:#FCC963;}
	.st30{fill:#F8C266;}
	.st31{fill:#FBC56F;}
	.st32{fill:#FBC057;}
	.st33{fill:#BF893B;}
	.st34{fill:#FBC770;}
	.st35{fill:#01A8CB;}
	.st36{fill:#FCC871;}
	.st37{fill:none;stroke:#000000;stroke-linecap:round;stroke-linejoin:round;stroke-miterlimit:10;}
	.st38{fill:#EA5754;}
	.st39{fill:#EE7373;}
	.st40{fill:#F7BE58;}
	.st41{fill:#3494CD;}
	.st42{fill:#3DB49A;}
	.st43{fill:#EF7A72;}
	.st44{fill:#F7B161;}
	.st45{fill:#FECE66;}
	.st46{fill:#E85F58;}
	.st47{fill:#B34359;}
	.st48{fill:#EC617F;}
	.st49{fill:#ED7094;}
	.st50{fill:#CA617E;}
	.st51{fill:#F3CC6E;}
	.st52{fill:#08ADCC;}
	.st53{fill:#F59F65;}
	.st54{fill:none;}
	.st55{fill:#EE7175;}
	.st56{fill:#EAF5FB;}
	.st57{fill:#EC605B;}
	.st58{fill:#ED756B;}
	.st59{fill:#EE766F;}
	.st60{fill:#EC6662;}
	.st61{fill:#EF796E;}
	.st62{fill:#EB5E65;}
	.st63{fill:#D6524F;}
	.st64{fill:#EE706E;}
	.st65{fill:#EF776D;}
	.st66{fill:#D5554E;}
</style>
<rect class="st0" width="595.276" height="841.89"/>
<ellipse class="st1" cx="293.634" cy="731.801" rx="110.507" ry="10.883"/>
<ellipse class="st1" cx="425.732" cy="688.189" rx="96.127" ry="10.883"/>
<rect x="457.308" y="657.58" transform="matrix(-1 -4.525148e-11 4.525148e-11 -1 918.6356 1340.4969)" class="st2" width="4.02" height="25.338"/>
<rect x="383.502" y="646.862" transform="matrix(-1 -4.490065e-11 4.490065e-11 -1 853.2127 1302.3209)" class="st3" width="86.208" height="8.597"/>
<rect x="383.505" y="655.438" transform="matrix(-1 -4.492330e-11 4.492330e-11 -1 853.216 1313.611)" class="st4" width="86.205" height="2.735"/>
<ellipse class="st1" cx="162.227" cy="688.189" rx="96.127" ry="10.883"/>
<rect x="123.774" y="657.58" class="st5" width="4.02" height="25.338"/>
<rect x="115.391" y="646.862" class="st6" width="86.208" height="8.597"/>
<rect x="115.391" y="655.459" class="st7" width="84.892" height="2.693"/>
<rect x="383.502" y="636.312" class="st8" width="4.7" height="95.659"/>
<rect x="501.145" y="591.349" class="st8" width="4.7" height="95.659"/>
<rect x="75.163" y="592.53" class="st9" width="4.7" height="95.659"/>
<rect x="236.243" y="592.53" class="st9" width="4.7" height="95.659"/>
<rect x="338.539" y="591.349" class="st9" width="4.7" height="95.659"/>
<g>
	<path class="st10" d="M341.509,482.651c-4.638-5.327-9.843-7.127-14.075-7.53c-5.827-0.556-11.658,1.66-15.599,5.989
		c-9.263,10.174-1.993,25.814,0.535,31.212c0.833,1.779,1.437,3.669,1.646,5.622c1.509,14.111-13.351,26.617-13.351,26.617
		c22.267-9.303,34.434-18.874,41.02-27.001C349.974,507.335,350.152,492.578,341.509,482.651z M323.579,491.064
		c-2.687,0.518-5.285-1.239-5.804-3.926c-0.518-2.687,1.239-5.285,3.926-5.804s5.285,1.239,5.804,3.926
		C328.024,487.947,326.266,490.545,323.579,491.064z"/>
	<circle class="st11" cx="322.64" cy="486.198" r="4.955"/>
</g>
<g>
	<path class="st12" d="M516.901,452.45c-5.217-8.991-12.236-13.042-18.238-14.806c-8.266-2.429-17.309-0.852-24.21,4.304
		c-16.221,12.118-10.077,36.746-7.93,45.251c0.708,2.804,1.054,5.702,0.811,8.584c-1.755,20.811-26.714,34.74-26.714,34.74
		c34.771-7.235,55.02-17.672,66.804-27.578C522.25,490.479,526.623,469.204,516.901,452.45z M488.647,459.606
		c-4.027,0-7.292-3.265-7.292-7.292s3.265-7.292,7.292-7.292s7.292,3.265,7.292,7.292S492.674,459.606,488.647,459.606z"/>
	<circle class="st11" cx="488.647" cy="452.314" r="7.292"/>
</g>
<g>
	<path class="st13" d="M63.89,479.802c-8.193,4.773-11.877,11.182-13.476,16.66c-2.202,7.543-0.749,15.789,3.966,22.077
		c11.08,14.777,33.534,9.132,41.289,7.159c2.556-0.65,5.2-0.97,7.828-0.754c18.986,1.567,31.731,24.31,31.731,24.31
		c-6.656-31.704-16.209-50.158-25.265-60.891C98.57,474.86,79.157,470.907,63.89,479.802z M70.464,505.562
		c0.007,3.673-2.966,6.657-6.64,6.663c-3.673,0.007-6.657-2.966-6.663-6.64c-0.007-3.673,2.966-6.657,6.64-6.663
		C67.475,498.916,70.458,501.888,70.464,505.562z"/>
	<circle class="st11" cx="63.813" cy="505.574" r="6.651"/>
</g>
<path class="st14" d="M141.352,568.671c-12.141,0.276-23.999,0.045-34.967-0.459c-4.195,3.739-7.885,6.834-10.736,9.149
	c-3.87,3.142-6.213,4.868-6.218,4.871c11.414,1.373,26.582,2.597,46.052,3.063c0.009-0.024,1.026-2.831,2.657-7.446
	C139.043,575.292,140.137,572.176,141.352,568.671z"/>
<path class="st15" d="M106.385,568.211c10.968,0.505,22.826,0.735,34.967,0.459c7.747-22.355,20.464-60.659,20.875-72.349
	C150.029,525.918,123.798,552.689,106.385,568.211z"/>
<path class="st16" d="M181.647,565.605c-6.192-14.597-14.086-37.636-19.421-69.284c-0.411,11.69-13.128,49.994-20.875,72.349
	C154.71,568.367,168.41,567.45,181.647,565.605z"/>
<path class="st17" d="M181.647,565.605c-13.237,1.845-26.938,2.762-40.296,3.065c-1.215,3.505-2.308,6.622-3.212,9.178
	c-1.631,4.615-2.649,7.422-2.657,7.446c15.662,0.375,34.115,0.258,55.65-0.669c-0.012-0.018-1.352-2.094-3.493-6.207
	C186.026,575.319,183.954,571.044,181.647,565.605z"/>
<path class="st16" d="M162.227,496.322c0,0-38.244,48.161-76.905,70.547c6.477,0.525,13.561,0.998,21.063,1.343
	C123.798,552.689,150.029,525.918,162.227,496.322z"/>
<path class="st17" d="M106.385,568.211c-7.503-0.345-14.587-0.818-21.063-1.343c-8.245,4.774-16.509,8.38-24.425,10.092
	c0,0,8.498,2.862,28.534,5.271c0.005-0.004,2.348-1.729,6.218-4.871C98.5,575.045,102.19,571.951,106.385,568.211z"/>
<path class="st18" d="M209.424,560.003c-16.973-17.37-38.523-42.148-47.197-63.682c5.335,31.648,13.229,54.687,19.421,69.284
	C191.254,564.267,200.614,562.438,209.424,560.003z"/>
<path class="st19" d="M209.424,560.003c-8.81,2.434-18.17,4.263-27.776,5.602c2.307,5.439,4.379,9.714,5.992,12.813
	c2.14,4.113,3.481,6.189,3.493,6.207c12.701-0.546,26.476-1.376,41.382-2.551c-0.025-0.022-1.32-1.151-3.551-3.181
	C224.893,575.191,217.7,568.473,209.424,560.003z"/>
<path class="st20" d="M218.801,557.101c-16.108-12.279-35.551-31.308-56.574-60.779c8.674,21.533,30.224,46.311,47.197,63.682
	C212.627,559.118,215.758,558.152,218.801,557.101z"/>
<path class="st21" d="M218.801,557.101c-3.043,1.052-6.174,2.017-9.377,2.903c8.276,8.47,15.469,15.188,19.54,18.891
	c2.231,2.03,3.527,3.159,3.551,3.181c9.805-0.773,20.084-1.692,30.887-2.784C263.402,579.291,245.781,577.667,218.801,557.101z"/>
<path class="st22" d="M191.134,592.53v11.816l21.605,13.389l19.779-16.432v-12.617C218.112,590.553,204.283,591.786,191.134,592.53z
	"/>
<path class="st23" d="M191.134,591.354v1.177c13.149-0.744,26.977-1.977,41.384-3.843v-0.075v-6.534c0,0-0.004-0.003-0.004-0.003
	c-14.907,1.176-28.681,2.005-41.382,2.551c0,0,0.002,0.003,0.002,0.003V591.354z"/>
<path class="st24" d="M135.362,591.927l-0.019,1.029c16.674,0.701,35.41,0.728,55.791-0.426v-1.177v-6.724
	c0,0-0.002-0.003-0.002-0.003c-21.535,0.926-39.987,1.044-55.65,0.669c0,0-0.001,0.003-0.001,0.003L135.362,591.927z"/>
<path class="st25" d="M135.344,592.956l-0.199,11.086l28.557,16.736l27.433-16.432V592.53
	C170.753,593.684,152.018,593.658,135.344,592.956z"/>
<path class="st26" d="M232.518,588.687v12.617l19.171,11.867l11.867-11.563l-0.123-17.791
	C252.877,585.774,242.556,587.387,232.518,588.687z"/>
<path class="st27" d="M232.518,588.612v0.075c10.038-1.3,20.358-2.913,30.915-4.87l-0.031-4.527
	c-10.803,1.092-21.082,2.011-30.887,2.784c0,0,0.004,0.003,0.004,0.003V588.612z"/>
<path class="st25" d="M60.897,584.254v17.963l13.389,10.955l15.144-10.346v-13.802C76.939,587.373,67.266,585.583,60.897,584.254z"
	/>
<path class="st24" d="M89.43,588.746v-6.514l0.001,0c-20.036-2.41-28.534-5.271-28.534-5.271v6.921v0.373
	c6.369,1.329,16.042,3.119,28.533,4.769V588.746z"/>
<path class="st23" d="M89.43,588.746v0.277c12.609,1.665,28.08,3.183,45.914,3.933l0.019-1.029l0.119-6.63
	c0,0,0.001-0.003,0.001-0.003c-19.471-0.467-34.639-1.69-46.052-3.063l-0.001,0V588.746z"/>
<path class="st28" d="M89.43,589.023v13.802l21.599,15.823l24.116-14.606l0.199-11.086
	C117.51,592.206,102.039,590.688,89.43,589.023z"/>
<path class="st14" d="M453.924,568.671c12.141,0.276,23.999,0.045,34.967-0.459c4.195,3.739,7.885,6.834,10.736,9.149
	c3.87,3.142,6.213,4.868,6.218,4.871c-11.414,1.373-26.582,2.597-46.052,3.063c-0.009-0.024-1.026-2.831-2.657-7.446
	C456.232,575.292,455.139,572.176,453.924,568.671z"/>
<path class="st15" d="M488.891,568.211c-10.968,0.505-22.826,0.735-34.967,0.459c-7.747-22.355-20.464-60.659-20.875-72.349
	C445.247,525.918,471.477,552.689,488.891,568.211z"/>
<path class="st29" d="M413.628,565.605c6.192-14.597,14.086-37.636,19.421-69.284c0.411,11.69,13.128,49.994,20.875,72.349
	C440.566,568.367,426.866,567.45,413.628,565.605z"/>
<path class="st30" d="M413.628,565.605c13.237,1.845,26.938,2.762,40.296,3.065c1.215,3.505,2.308,6.622,3.212,9.178
	c1.631,4.615,2.649,7.422,2.657,7.446c-15.662,0.375-34.115,0.258-55.65-0.669c0.012-0.018,1.352-2.094,3.493-6.207
	C409.249,575.319,411.321,571.044,413.628,565.605z"/>
<path class="st29" d="M433.049,496.322c0,0,38.244,48.161,76.905,70.547c-6.477,0.525-13.561,0.998-21.063,1.343
	C471.477,552.689,445.247,525.918,433.049,496.322z"/>
<path class="st30" d="M488.891,568.211c7.503-0.345,14.587-0.818,21.063-1.343c8.245,4.774,16.509,8.38,24.425,10.092
	c0,0-8.498,2.862-28.534,5.271c-0.005-0.004-2.348-1.729-6.218-4.871C496.775,575.045,493.086,571.951,488.891,568.211z"/>
<path class="st18" d="M385.852,560.003c16.973-17.37,38.523-42.148,47.197-63.682c-5.335,31.648-13.229,54.687-19.421,69.284
	C404.022,564.267,394.662,562.438,385.852,560.003z"/>
<path class="st19" d="M385.852,560.003c8.81,2.434,18.17,4.263,27.776,5.602c-2.307,5.439-4.379,9.714-5.992,12.813
	c-2.14,4.113-3.481,6.189-3.493,6.207c-12.701-0.546-26.476-1.376-41.382-2.551c0.025-0.022,1.32-1.151,3.552-3.181
	C370.383,575.191,377.576,568.473,385.852,560.003z"/>
<path class="st31" d="M376.475,557.101c16.108-12.279,35.551-31.308,56.574-60.779c-8.674,21.533-30.224,46.311-47.197,63.682
	C382.648,559.118,379.518,558.152,376.475,557.101z"/>
<path class="st32" d="M376.475,557.101c3.043,1.052,6.174,2.017,9.377,2.903c-8.276,8.47-15.469,15.188-19.54,18.891
	c-2.231,2.03-3.527,3.159-3.552,3.181c-9.805-0.773-20.084-1.692-30.887-2.784C331.874,579.291,349.495,577.667,376.475,557.101z"/>
<path class="st22" d="M404.141,592.53v11.816l-21.605,13.389l-19.779-16.432v-12.617
	C377.164,590.553,390.992,591.786,404.141,592.53z"/>
<path class="st23" d="M404.141,591.354v1.177c-13.149-0.744-26.977-1.977-41.384-3.843v-0.075v-6.534c0,0,0.004-0.003,0.004-0.003
	c14.907,1.176,28.681,2.005,41.382,2.551c0,0-0.002,0.003-0.002,0.003V591.354z"/>
<path class="st33" d="M459.913,591.927l0.019,1.029c-16.674,0.701-35.41,0.728-55.791-0.426v-1.177v-6.724
	c0,0,0.002-0.003,0.002-0.003c21.535,0.926,39.987,1.044,55.65,0.669c0,0,0.001,0.003,0.001,0.003L459.913,591.927z"/>
<path class="st34" d="M459.932,592.956l0.199,11.086l-28.557,16.736l-27.433-16.432V592.53
	C424.522,593.684,443.258,593.658,459.932,592.956z"/>
<path class="st26" d="M362.757,588.687v12.617l-19.171,11.867l-11.867-11.563l0.123-17.791
	C342.399,585.774,352.72,587.387,362.757,588.687z"/>
<path class="st33" d="M362.757,588.612v0.075c-10.038-1.3-20.358-2.913-30.915-4.87l0.031-4.527
	c10.803,1.092,21.082,2.011,30.887,2.784c0,0-0.004,0.003-0.004,0.003V588.612z"/>
<path class="st34" d="M534.379,584.254v17.963l-13.389,10.955l-15.144-10.346v-13.802
	C518.337,587.373,528.01,585.583,534.379,584.254z"/>
<path class="st33" d="M505.846,588.746v-6.514l-0.001,0c20.036-2.41,28.534-5.271,28.534-5.271v6.921v0.373
	c-6.369,1.329-16.042,3.119-28.533,4.769V588.746z"/>
<path class="st23" d="M505.846,588.746v0.277c-12.609,1.665-28.08,3.183-45.914,3.933l-0.019-1.029l-0.119-6.63
	c0,0-0.001-0.003-0.001-0.003c19.471-0.467,34.639-1.69,46.052-3.063l0.001,0V588.746z"/>
<path class="st28" d="M505.846,589.023v13.802l-21.599,15.823l-24.116-14.606l-0.199-11.086
	C477.765,592.206,493.237,590.688,505.846,589.023z"/>
<g>
	<path class="st35" d="M191.179,153.067c3.114-11.442-0.46-22.83-8.139-28.55c-8.495,0.508-17.563,7.314-22.6,17.921
		c-5.443,11.462-4.473,23.769,1.686,30.422c0.172,0.052,0.341,0.11,0.515,0.157C174.524,176.25,187.301,167.318,191.179,153.067z"/>
	<path class="st36" d="M124.888,137.393c-7.356-7.943-18.034-10.39-25.754-6.525c-3.642,6.8,0.16,17.812,9.377,25.895
		c6.421,5.632,13.913,8.474,19.989,8.166C134.047,157.551,132.709,145.839,124.888,137.393z"/>
	<path class="st37" d="M140.015,134.581c0,0,2.695,41.437,20.385,57.43"/>
	<path class="st37" d="M160.399,172.25c0,0-1.212,20.488,1.454,24.85"/>
	<path class="st37" d="M126.641,167.03c0,0,7.679,14.186,27.625,17.645"/>
	<path class="st38" d="M132.592,105.151c0-10.677,3.856-20.025,9.626-25.184c-11.848,1.13-21.17,12.993-21.17,27.471
		c0,15.225,10.307,27.568,23.021,27.568c1.864,0,3.675-0.272,5.411-0.773C139.915,132.056,132.592,119.865,132.592,105.151z"/>
	<path class="st39" d="M167.089,107.439c0-15.225-10.307-27.568-23.021-27.568c-0.624,0-1.24,0.038-1.851,0.097
		c-5.77,5.158-9.626,14.507-9.626,25.184c0,14.714,7.323,26.905,16.887,29.082C159.582,131.318,167.089,120.432,167.089,107.439z"/>
	<path class="st11" d="M156.86,94.435c-0.638,0-1.229-0.411-1.431-1.052c-2.494-7.953-9.669-7.658-9.972-7.644
		c-0.819,0.048-1.533-0.587-1.581-1.411c-0.048-0.825,0.576-1.532,1.4-1.584c3.374-0.212,10.447,1.552,13.015,9.741
		c0.248,0.791-0.192,1.632-0.982,1.88C157.16,94.413,157.009,94.435,156.86,94.435z"/>
	<path class="st11" d="M185.24,145.428c-0.514-0.378-0.748-1.059-0.531-1.695c2.696-7.886-3.261-11.895-3.514-12.064
		c-0.689-0.446-0.888-1.381-0.439-2.073c0.45-0.693,1.371-0.894,2.066-0.448c2.845,1.826,7.502,7.434,4.725,15.555
		c-0.268,0.784-1.121,1.202-1.904,0.934C185.495,145.588,185.36,145.516,185.24,145.428z"/>
	<path class="st11" d="M118.647,138.62c-0.586,0.253-1.292,0.11-1.73-0.399c-5.44-6.315-11.911-3.203-12.184-3.07
		c-0.733,0.368-1.64,0.068-2.01-0.669c-0.371-0.738-0.078-1.635,0.659-2.009c3.014-1.531,10.207-2.712,15.809,3.791
		c0.541,0.628,0.47,1.575-0.158,2.115C118.913,138.48,118.783,138.561,118.647,138.62z"/>
	<path class="st40" d="M108.511,156.764c-9.216-8.084-13.018-19.095-9.377-25.895c-1.313,0.658-2.551,1.476-3.661,2.504
		c-7.639,7.074-6.854,20.343,1.753,29.637c8.607,9.294,21.777,11.094,29.415,4.021c0.698-0.646,1.301-1.359,1.858-2.101
		C122.424,165.238,114.932,162.396,108.511,156.764z"/>
	<path class="st41" d="M160.44,142.438c5.037-10.607,14.105-17.413,22.6-17.921c-1.885-1.404-4.014-2.472-6.356-3.109
		c-11.883-3.233-24.66,5.698-28.538,19.95c-3.821,14.043,2.428,28.002,13.98,31.502C155.967,166.206,154.997,153.9,160.44,142.438z"
		/>
</g>
<g>
	<path class="st42" d="M396.106,143.892c-1.39-11.777,3.826-22.511,12.266-27.035c8.327,1.757,16.29,9.828,19.706,21.062
		c3.691,12.14,0.915,24.169-6.159,29.839c-0.178,0.026-0.353,0.058-0.533,0.079C409.155,169.28,397.837,158.559,396.106,143.892z"/>
	<path class="st43" d="M463.984,138.179c8.448-6.77,19.37-7.613,26.435-2.65c2.598,7.263-2.789,17.593-13.098,24.227
		c-7.182,4.622-15.012,6.327-20.975,5.125C451.949,156.763,455.002,145.377,463.984,138.179z"/>
	<path class="st37" d="M449.439,133.163c0,0-8.784,40.585-28.642,53.791"/>
	<path class="st37" d="M423.715,167.41c0,0-1.827,20.442-5.107,24.362"/>
	<path class="st37" d="M457.874,167.232c0,0-9.69,12.896-29.927,13.372"/>
	<path class="st44" d="M461.126,105.153c1.577-10.56-0.856-20.375-5.801-26.329c11.551,2.867,19.019,15.976,16.881,30.296
		c-2.248,15.058-14.264,25.744-26.839,23.866c-1.844-0.275-3.594-0.812-5.237-1.564C449.91,130.681,458.953,119.705,461.126,105.153
		z"/>
	<path class="st45" d="M426.669,102.321c2.248-15.058,14.264-25.744,26.839-23.866c0.617,0.092,1.22,0.221,1.816,0.369
		c4.945,5.954,7.378,15.769,5.801,26.329c-2.173,14.553-11.215,25.529-20.996,26.27C430.568,127.047,424.75,115.171,426.669,102.321
		z"/>
	<path class="st11" d="M438.706,90.97c0.631,0.094,1.277-0.225,1.57-0.829c3.641-7.497,10.694-6.146,10.992-6.088
		c0.803,0.168,1.603-0.354,1.772-1.162c0.169-0.809-0.344-1.601-1.151-1.773c-3.305-0.708-10.561-0.007-14.311,7.713
		c-0.362,0.745-0.051,1.643,0.694,2.004C438.413,90.904,438.559,90.948,438.706,90.97z"/>
	<path class="st11" d="M403.108,137.214c0.565-0.298,0.896-0.937,0.775-1.598c-1.502-8.198,4.982-11.283,5.257-11.412
		c0.747-0.34,1.083-1.234,0.741-1.985c-0.342-0.752-1.224-1.087-1.977-0.748c-3.083,1.386-8.517,6.245-6.97,14.687
		c0.149,0.815,0.931,1.354,1.746,1.205C402.832,137.334,402.976,137.283,403.108,137.214z"/>
	<path class="st11" d="M469.976,140.314c0.542,0.336,1.261,0.299,1.77-0.139c6.312-5.442,12.253-1.409,12.504-1.237
		c0.671,0.473,1.612,0.31,2.087-0.365c0.475-0.676,0.318-1.606-0.355-2.084c-2.755-1.959-9.695-4.189-16.195,1.415
		c-0.628,0.541-0.698,1.488-0.156,2.115C469.733,140.137,469.85,140.235,469.976,140.314z"/>
	<path class="st46" d="M477.322,159.755c10.309-6.634,15.696-16.964,13.098-24.227c1.202,0.844,2.305,1.836,3.251,3.018
		c6.51,8.124,3.775,21.132-6.11,29.053c-9.885,7.921-23.176,7.757-29.687-0.367c-0.595-0.742-1.086-1.536-1.528-2.352
		C462.31,166.082,470.139,164.378,477.322,159.755z"/>
	<path class="st42" d="M428.077,137.918c-3.415-11.234-11.379-19.305-19.706-21.062c2.072-1.111,4.335-1.852,6.746-2.137
		c12.23-1.443,23.548,9.277,25.279,23.945c1.706,14.453-6.536,27.337-18.479,29.092
		C428.992,162.087,431.768,150.059,428.077,137.918z"/>
</g>
<g>
	<path class="st47" d="M169.501,271.624c5.152-3.093,8.698-6.792,11.078-10.694c-21.559-2.045-36.705-3.914-36.705-3.914
		S144.091,265.12,169.501,271.624z"/>
	<path class="st48" d="M143.874,257.016v-22.168c-17.823,0.677-34.868,0.568-34.868,0.568l7.415,19.704l-7.415,23.902
		c30.754,3.117,49.377-0.724,60.495-7.398C144.091,265.12,143.874,257.016,143.874,257.016z"/>
	<path class="st47" d="M425.775,271.624c-5.152-3.093-8.698-6.792-11.078-10.694c21.559-2.045,36.705-3.914,36.705-3.914
		S451.184,265.12,425.775,271.624z"/>
	<path class="st48" d="M451.402,257.016v-22.168c17.823,0.677,34.868,0.568,34.868,0.568l-7.415,19.704l7.415,23.902
		c-30.754,3.117-49.377-0.724-60.495-7.398C451.184,265.12,451.402,257.016,451.402,257.016z"/>
	<path class="st49" d="M143.874,188.549v46.298v22.168c0,0,15.147,1.869,36.705,3.914c34.492,3.272,199.625,3.272,234.117,0
		c21.559-2.045,36.705-3.914,36.705-3.914v-22.168v-46.298C386.403,198.33,208.873,198.33,143.874,188.549z"/>
</g>
<g>
	<g>
		<path class="st11" d="M181.317,228.092c0.177-2.815,0.266-4.222,0.443-7.036c6.099-0.218,10.458-3.779,10.716-8.272
			c0.003-0.06,0.005-0.09,0.009-0.15c-3.962-0.228-5.943-0.347-9.905-0.595c0.183-2.915,0.274-4.372,0.457-7.286
			c3.866,0.243,5.799,0.359,9.665,0.581c0.091-1.577,0.136-2.366,0.227-3.944c3.639,0.209,5.458,0.309,9.097,0.501
			c-0.083,1.578-0.124,2.367-0.207,3.945c3.747,0.197,5.621,0.291,9.369,0.469c-0.139,2.917-0.208,4.376-0.346,7.293
			c-3.803-0.181-5.704-0.276-9.507-0.476c-0.003,0.06-0.005,0.09-0.008,0.15c-0.058,1.099-0.264,2.139-0.518,3.127
			c6.688,0.604,11.282,5.017,10.819,12.754c-3.53-0.165-5.295-0.251-8.825-0.433c0.141-3.748-2.27-6.123-5.929-5.973
			C193.181,226.3,187.557,228.435,181.317,228.092z M216.607,231.53c6.805,0.299,10.171,4.072,9.963,9.469
			c-0.207,5.396-3.887,8.917-10.758,8.615c-9.271-0.407-13.906-0.64-23.173-1.161c-6.971-0.392-10.169-4.407-9.845-9.647
			c0.324-5.241,3.958-8.814,10.862-8.426C202.834,230.896,207.424,231.126,216.607,231.53z M213.584,243.208
			c1.993,0.09,3.063-0.965,3.135-2.613c0.072-1.649-0.899-2.792-2.887-2.882c-7.216-0.327-10.823-0.507-18.036-0.903
			c-1.987-0.109-3.067,0.931-3.16,2.579c-0.093,1.647,0.866,2.804,2.859,2.914C202.73,242.699,206.348,242.88,213.584,243.208z
			 M210.715,214.141c2.697,0.128,4.046,0.19,6.743,0.308c0.203-4.636,0.305-6.954,0.509-11.589c3.801,0.167,5.701,0.245,9.503,0.393
			c-0.42,10.852-0.63,16.279-1.051,27.131c-3.857-0.149-5.786-0.229-9.643-0.398c0.145-3.297,0.217-4.946,0.362-8.243
			c-2.708-0.119-4.062-0.181-6.77-0.309C210.507,218.517,210.576,217.058,210.715,214.141z"/>
		<path class="st11" d="M243.276,227.259c15.541,0.41,31.075,0.679,46.622,0.806c-0.013,2.78-0.02,4.17-0.033,6.951
			c-7.183-0.034-10.774-0.069-17.956-0.172c-0.036,2.5-0.054,3.75-0.09,6.25c-3.961-0.057-5.941-0.091-9.901-0.168
			c0.049-2.5,0.074-3.75,0.123-6.249c-7.589-0.149-11.383-0.243-18.971-0.469C243.152,231.427,243.193,230.038,243.276,227.259z
			 M244.289,225.588c0.08-2.719,0.119-4.079,0.199-6.798c9.783,0.336,16.035-1.7,17.256-4.877
			c-6.459-0.129-9.688-0.208-16.145-0.394c0.076-2.639,0.114-3.958,0.19-6.597c6.415,0.184,9.622,0.263,16.038,0.391
			c0.03-1.5,0.045-2.25,0.075-3.75c4.082,0.082,6.123,0.117,10.205,0.176c-0.002,1.5-0.003,2.25-0.004,3.751
			c6.396,0.093,9.594,0.125,15.991,0.162c-0.015,2.64-0.023,3.96-0.039,6.6c-6.58-0.038-9.87-0.072-16.45-0.169
			c-0.111,0.699-0.323,1.396-0.635,2.091c9.176-0.562,17.305,2.93,18.535,9.937c-3.787-0.019-5.681-0.033-9.468-0.072
			c-2.094-3.322-9.349-6.082-14.711-4.208C261.139,223.296,253.345,226.003,244.289,225.588z M255.077,236.476
			c-0.067,2.879-0.101,4.319-0.168,7.198c11.111,0.225,22.214,0.386,33.327,0.483c-0.016,2.84-0.024,4.26-0.04,7.1
			c-14.49-0.126-28.97-0.375-43.456-0.744c0.164-5.718,0.246-8.577,0.409-14.295C249.12,236.332,251.106,236.384,255.077,236.476z"
			/>
		<path class="st11" d="M306.708,249.371c-0.06-14.467-0.12-28.935-0.18-43.402c10.898-0.045,16.347-0.108,27.244-0.314
			c0.273,14.465,0.547,28.93,0.821,43.395C323.44,249.261,317.862,249.325,306.708,249.371z M315.762,213.509
			c0.086,9.4,0.171,18.8,0.257,28.201c3.635-0.033,5.453-0.054,9.088-0.105c-0.131-9.4-0.262-18.799-0.393-28.199
			C321.133,213.455,319.343,213.476,315.762,213.509z M354.33,221.26c0.098,3.279,0.147,4.918,0.244,8.197
			c-1.927,0.057-2.891,0.085-4.819,0.137c0.229,8.398,0.343,12.596,0.571,20.994c-3.899,0.106-5.848,0.154-9.748,0.24
			c-0.343-15.547-0.686-31.094-1.029-46.642c3.803-0.084,5.704-0.131,9.507-0.234c0.19,6.978,0.285,10.467,0.475,17.445
			C351.452,221.345,352.411,221.317,354.33,221.26z"/>
		<path class="st11" d="M389.743,220.318c-2.739,7.143-10.291,11.269-21.46,11.882c-0.102-2.758-0.153-4.137-0.256-6.896
			c6.715-0.699,10.9-2.436,13.103-5.237c-1.09,0.499-2.393,0.805-3.251,0.842c-3.817,0.182-5.725,0.268-9.543,0.43
			c-0.098-2.618-0.147-3.927-0.244-6.546c5.999-0.224,8.999-0.348,14.996-0.62c0.032-0.402,0.012-0.852-0.009-1.301
			c-0.036-0.799-0.054-1.199-0.091-1.998c-5.806,0.264-8.71,0.384-14.517,0.603c-0.103-2.738-0.154-4.107-0.257-6.846
			c8.89-0.334,13.334-0.528,22.22-0.969c0.177,3.556,0.265,5.334,0.441,8.89c0.008,0.16,0.012,0.24,0.02,0.399
			c1.388-0.069,2.082-0.104,3.47-0.176c-0.218-4.235-0.327-6.352-0.546-10.586c3.2-0.165,4.799-0.251,7.998-0.43
			c0.617,11.043,0.926,16.565,1.543,27.608c-3.247,0.181-4.871,0.269-8.118,0.436c-0.201-3.895-0.301-5.843-0.502-9.738
			C392.741,220.17,391.742,220.22,389.743,220.318z M417.642,247.555c-4.099,0.258-6.149,0.381-10.249,0.617
			c-2.06-4.54-7.963-6.708-14.56-5.478c-4.696,4.44-12.234,7.201-21.673,7.562c-0.112-2.918-0.167-4.377-0.279-7.295
			c11.387-0.635,16.684-5.617,17.579-11.367c3.86-0.185,5.79-0.282,9.65-0.487c-0.022,1.503-0.301,2.97-0.686,4.393
			C405.906,234.703,414.487,238.284,417.642,247.555z M412.814,201.113c0.6,9.699,1.2,19.397,1.801,29.096
			c-3.351,0.207-5.026,0.307-8.378,0.5c-0.557-9.701-1.113-19.403-1.67-29.104C407.866,201.415,409.515,201.317,412.814,201.113z"/>
	</g>
</g>
<g>
	<path class="st50" d="M241.018,306.154h3.838v2.015h-6.776v-1.727l3.502-3.922c0.708-0.803,1.02-1.319,1.02-1.967
		c0-0.647-0.468-1.079-1.188-1.079s-1.248,0.384-1.295,1.463h-2.039c-0.012-2.291,1.523-3.478,3.371-3.478
		c1.931,0,3.394,1.188,3.394,3.022c0,1.415-0.672,2.279-1.871,3.574L241.018,306.154z"/>
	<path class="st50" d="M245.939,304.967v-4.114c0-2.23,1.523-3.394,3.538-3.394c2.015,0,3.538,1.164,3.538,3.394v4.114
		c0,2.243-1.523,3.394-3.538,3.394C247.463,308.361,245.939,307.209,245.939,304.967z M250.725,305.135v-4.45
		c0-0.815-0.588-1.211-1.248-1.211s-1.247,0.396-1.247,1.211v4.45c0,0.839,0.587,1.211,1.247,1.211S250.725,305.974,250.725,305.135
		z"/>
	<path class="st50" d="M257.038,306.154h3.838v2.015h-6.776v-1.727l3.502-3.922c0.708-0.803,1.02-1.319,1.02-1.967
		c0-0.647-0.468-1.079-1.188-1.079s-1.248,0.384-1.295,1.463h-2.039c-0.012-2.291,1.523-3.478,3.371-3.478
		c1.931,0,3.394,1.188,3.394,3.022c0,1.415-0.672,2.279-1.871,3.574L257.038,306.154z"/>
	<path class="st50" d="M268.916,304.631v0.228c0,2.351-1.619,3.502-3.622,3.502c-1.835,0-3.31-1.043-3.574-2.698l2.051-0.42
		c0.156,0.72,0.792,1.104,1.523,1.104c0.804,0,1.392-0.528,1.392-1.487v-0.228c0-0.959-0.588-1.499-1.511-1.499
		c-0.468,0-0.912,0.18-1.223,0.54h-1.991l0.624-6.021h5.769v2.003h-3.802l-0.204,1.919c0.324-0.192,0.744-0.3,1.295-0.3
		C267.237,301.273,268.916,302.34,268.916,304.631z"/>
	<path class="st50" d="M269.639,308.193v-2.303h2.327v2.303H269.639z"/>
	<path class="st50" d="M273.167,304.967v-4.114c0-2.23,1.523-3.394,3.538-3.394c2.015,0,3.538,1.164,3.538,3.394v4.114
		c0,2.243-1.523,3.394-3.538,3.394C274.69,308.361,273.167,307.209,273.167,304.967z M277.953,305.135v-4.45
		c0-0.815-0.588-1.211-1.248-1.211s-1.247,0.396-1.247,1.211v4.45c0,0.839,0.587,1.211,1.247,1.211S277.953,305.974,277.953,305.135
		z"/>
	<path class="st50" d="M284.265,306.154h3.838v2.015h-6.776v-1.727l3.502-3.922c0.708-0.803,1.02-1.319,1.02-1.967
		c0-0.647-0.468-1.079-1.188-1.079s-1.248,0.384-1.295,1.463h-2.039c-0.012-2.291,1.523-3.478,3.371-3.478
		c1.931,0,3.394,1.188,3.394,3.022c0,1.415-0.672,2.279-1.871,3.574L284.265,306.154z"/>
	<path class="st50" d="M289.187,308.193v-2.303h2.327v2.303H289.187z"/>
	<path class="st50" d="M292.715,304.967v-4.114c0-2.23,1.523-3.394,3.538-3.394c2.015,0,3.538,1.164,3.538,3.394v4.114
		c0,2.243-1.523,3.394-3.538,3.394C294.238,308.361,292.715,307.209,292.715,304.967z M297.5,305.135v-4.45
		c0-0.815-0.588-1.211-1.248-1.211s-1.247,0.396-1.247,1.211v4.45c0,0.839,0.587,1.211,1.247,1.211S297.5,305.974,297.5,305.135z"/>
	<path class="st50" d="M302.422,308.169v-7.256h-1.667v-1.787c1.188-0.048,1.847-0.432,2.051-1.475h1.895v10.518H302.422z"/>
	<path class="st50" d="M309.286,303.852v-2.099h5.973v2.099H309.286z"/>
	<path class="st50" d="M319.606,304.967v-4.114c0-2.23,1.523-3.394,3.538-3.394s3.538,1.164,3.538,3.394v4.114
		c0,2.243-1.523,3.394-3.538,3.394S319.606,307.209,319.606,304.967z M324.392,305.135v-4.45c0-0.815-0.588-1.211-1.247-1.211
		c-0.66,0-1.247,0.396-1.247,1.211v4.45c0,0.839,0.587,1.211,1.247,1.211C323.804,306.346,324.392,305.974,324.392,305.135z"/>
	<path class="st50" d="M330.704,306.154h3.838v2.015h-6.776v-1.727l3.502-3.922c0.708-0.803,1.02-1.319,1.02-1.967
		c0-0.647-0.468-1.079-1.188-1.079c-0.719,0-1.247,0.384-1.295,1.463h-2.039c-0.012-2.291,1.523-3.478,3.37-3.478
		c1.932,0,3.395,1.188,3.395,3.022c0,1.415-0.672,2.279-1.871,3.574L330.704,306.154z"/>
	<path class="st50" d="M335.626,308.193v-2.303h2.327v2.303H335.626z"/>
	<path class="st50" d="M339.153,304.967v-4.114c0-2.23,1.523-3.394,3.538-3.394s3.538,1.164,3.538,3.394v4.114
		c0,2.243-1.523,3.394-3.538,3.394S339.153,307.209,339.153,304.967z M343.938,305.135v-4.45c0-0.815-0.587-1.211-1.247-1.211
		c-0.659,0-1.247,0.396-1.247,1.211v4.45c0,0.839,0.588,1.211,1.247,1.211C343.352,306.346,343.938,305.974,343.938,305.135z"/>
	<path class="st50" d="M354.39,304.631v0.228c0,2.351-1.619,3.502-3.622,3.502c-1.835,0-3.31-1.043-3.574-2.698l2.052-0.42
		c0.155,0.72,0.791,1.104,1.522,1.104c0.804,0,1.392-0.528,1.392-1.487v-0.228c0-0.959-0.588-1.499-1.512-1.499
		c-0.468,0-0.911,0.18-1.223,0.54h-1.991l0.624-6.021h5.769v2.003h-3.802l-0.204,1.919c0.324-0.192,0.743-0.3,1.295-0.3
		C352.711,301.273,354.39,302.34,354.39,304.631z"/>
</g>
<g>
	<path class="st50" d="M242.122,334.38l-0.611-2.062h-3.214l-0.6,2.062h-2.411l3.37-10.518h2.495l3.37,10.518H242.122z
		 M238.872,330.338h2.051l-1.031-3.478L238.872,330.338z"/>
	<path class="st50" d="M255.631,334.38h-2.195l-0.552-6.764l-1.355,6.117h-2.423l-1.343-6.045l-0.563,6.692h-2.195l1.007-10.518
		h2.758l1.547,7.028l1.547-7.028h2.759L255.631,334.38z"/>
	<path class="st50" d="M258.084,334.38v-7.256h-1.667v-1.787c1.188-0.048,1.847-0.432,2.051-1.475h1.895v10.518H258.084z"/>
	<path class="st50" d="M261.805,331.178v-4.114c0-2.23,1.523-3.394,3.538-3.394c2.015,0,3.538,1.164,3.538,3.394v4.114
		c0,2.243-1.523,3.394-3.538,3.394C263.328,334.572,261.805,333.42,261.805,331.178z M266.59,331.346v-4.45
		c0-0.815-0.588-1.211-1.248-1.211s-1.247,0.396-1.247,1.211v4.45c0,0.839,0.587,1.211,1.247,1.211S266.59,332.185,266.59,331.346z"
		/>
	<path class="st50" d="M270.073,327.472v-2.303h2.327v2.303H270.073z M270.073,332.725v-2.303h2.327v2.303H270.073z"/>
	<path class="st50" d="M273.589,331.178v-4.114c0-2.23,1.523-3.394,3.538-3.394c2.015,0,3.538,1.164,3.538,3.394v4.114
		c0,2.243-1.523,3.394-3.538,3.394C275.112,334.572,273.589,333.42,273.589,331.178z M278.375,331.346v-4.45
		c0-0.815-0.588-1.211-1.248-1.211s-1.247,0.396-1.247,1.211v4.45c0,0.839,0.587,1.211,1.247,1.211S278.375,332.185,278.375,331.346
		z"/>
	<path class="st50" d="M281.869,331.178v-4.114c0-2.23,1.523-3.394,3.538-3.394c2.015,0,3.538,1.164,3.538,3.394v4.114
		c0,2.243-1.523,3.394-3.538,3.394C283.392,334.572,281.869,333.42,281.869,331.178z M286.654,331.346v-4.45
		c0-0.815-0.588-1.211-1.248-1.211s-1.247,0.396-1.247,1.211v4.45c0,0.839,0.587,1.211,1.247,1.211S286.654,332.185,286.654,331.346
		z"/>
	<path class="st50" d="M293.292,330.062v-2.099h5.972v2.099H293.292z"/>
	<path class="st50" d="M303.732,334.38v-10.518h3.957c2.075,0,3.599,1.031,3.599,3.298v0.852c0,2.267-1.523,3.298-3.599,3.298
		h-1.606v3.07H303.732z M306.083,329.271h1.487c0.803,0,1.379-0.48,1.379-1.391v-0.588c0-0.912-0.576-1.391-1.379-1.391h-1.487
		V329.271z"/>
	<path class="st50" d="M322.398,334.38h-2.195l-0.552-6.764l-1.354,6.117h-2.423l-1.344-6.045l-0.563,6.692h-2.194l1.007-10.518
		h2.759l1.547,7.028l1.547-7.028h2.759L322.398,334.38z"/>
	<path class="st50" d="M323.424,331.178v-4.114c0-2.23,1.523-3.394,3.539-3.394c2.015,0,3.538,1.164,3.538,3.394v4.114
		c0,2.243-1.523,3.394-3.538,3.394C324.947,334.572,323.424,333.42,323.424,331.178z M328.21,331.346v-4.45
		c0-0.815-0.588-1.211-1.247-1.211c-0.66,0-1.248,0.396-1.248,1.211v4.45c0,0.839,0.588,1.211,1.248,1.211
		C327.622,332.557,328.21,332.185,328.21,331.346z"/>
	<path class="st50" d="M338.66,330.842v0.228c0,2.351-1.619,3.502-3.622,3.502c-1.835,0-3.31-1.043-3.574-2.698l2.052-0.42
		c0.155,0.72,0.791,1.104,1.522,1.104c0.804,0,1.392-0.528,1.392-1.487v-0.228c0-0.959-0.588-1.499-1.512-1.499
		c-0.468,0-0.911,0.18-1.223,0.54h-1.991l0.624-6.021h5.769v2.003h-3.802l-0.204,1.919c0.324-0.192,0.743-0.3,1.295-0.3
		C336.981,327.484,338.66,328.551,338.66,330.842z"/>
	<path class="st50" d="M339.612,327.472v-2.303h2.326v2.303H339.612z M339.612,332.725v-2.303h2.326v2.303H339.612z"/>
	<path class="st50" d="M343.128,331.178v-4.114c0-2.23,1.523-3.394,3.538-3.394s3.538,1.164,3.538,3.394v4.114
		c0,2.243-1.523,3.394-3.538,3.394S343.128,333.42,343.128,331.178z M347.913,331.346v-4.45c0-0.815-0.588-1.211-1.247-1.211
		s-1.247,0.396-1.247,1.211v4.45c0,0.839,0.588,1.211,1.247,1.211S347.913,332.185,347.913,331.346z"/>
	<path class="st50" d="M351.407,331.178v-4.114c0-2.23,1.523-3.394,3.538-3.394s3.538,1.164,3.538,3.394v4.114
		c0,2.243-1.523,3.394-3.538,3.394S351.407,333.42,351.407,331.178z M356.192,331.346v-4.45c0-0.815-0.588-1.211-1.247-1.211
		s-1.247,0.396-1.247,1.211v4.45c0,0.839,0.588,1.211,1.247,1.211S356.192,332.185,356.192,331.346z"/>
</g>
<g>
	<g>
		<path class="st50" d="M247.678,353.221h3.421v16.799h-3.421v-4.411h-2.611c-0.288,2.629-2.214,4.069-4.897,4.069
			c-2.917,0-4.951-1.692-4.951-4.753v-6.788c0-3.025,2.017-4.735,4.934-4.735c2.539,0,4.411,1.296,4.861,3.637h2.665V353.221z
			 M241.827,357.812c0-1.098-0.738-1.692-1.674-1.674c-0.937,0.018-1.657,0.594-1.657,1.674v7.455c0,1.098,0.72,1.656,1.657,1.656
			c0.936,0,1.674-0.558,1.674-1.656V357.812z M245.104,362.8h2.575v-2.953h-2.575V362.8z"/>
		<path class="st50" d="M252.895,369.3v-2.863h8.121c1.854,0,2.827-0.072,3.781-0.216v2.863c-0.954,0.144-1.926,0.216-3.781,0.216
			H252.895z M253.201,357.974c0-3.133,2.305-4.555,5.257-4.555c2.953,0,5.24,1.422,5.24,4.555v1.729c0,3.133-2.287,4.555-5.24,4.555
			c-2.953,0-5.257-1.422-5.257-4.555V357.974z M256.55,360.009c0,1.17,0.954,1.603,1.908,1.603c0.955,0,1.909-0.432,1.909-1.603
			v-2.341c0-1.152-0.954-1.603-1.909-1.603c-0.954,0-1.908,0.45-1.908,1.603V360.009z M265.678,370.02v-16.799h3.421v16.799H265.678
			z"/>
		<path class="st50" d="M280.923,366.797h6.536v2.773h-16.565v-2.773h6.536v-2.701h3.493V366.797z M286.559,360.333v2.772h-14.873
			v-9.417h14.584v2.773h-11.109v3.871H286.559z"/>
		<path class="st50" d="M289.489,358.353c0-0.468,0.108-0.882,0.288-1.261h-1.081v-2.376h3.8v-1.513h3.475v1.513h3.799v2.376h-1.116
			c0.181,0.378,0.288,0.792,0.288,1.261v1.656c0,2.431-1.908,3.817-4.717,3.817c-2.827,0-4.736-1.387-4.736-3.817V358.353z
			 M293.63,364.456v2.971h11.451v2.593h-14.926v-5.563H293.63z M295.809,358.424c0-0.954-0.63-1.422-1.584-1.422
			c-0.973,0-1.603,0.468-1.603,1.422v1.314c0,0.936,0.504,1.477,1.603,1.477c0.954,0,1.584-0.541,1.584-1.477V358.424z
			 M304.649,357.704h1.62v2.953h-1.62v5.221h-3.421v-12.658h3.421V357.704z"/>
		<path class="st50" d="M317.104,355.958c0,4.447-3.907,6.446-9.76,6.554v-2.683c4.052-0.126,6.41-1.458,6.41-3.313v-0.27h-6.104
			v-2.647h9.453V355.958z M319.012,363.016c2.557,0,3.925,1.458,3.925,3.529c0,2.07-1.368,3.529-3.925,3.529h-7.238
			c-2.593,0-3.925-1.512-3.925-3.529s1.332-3.529,3.925-3.529H319.012z M318.165,367.751c0.864,0,1.297-0.486,1.297-1.206
			s-0.433-1.225-1.297-1.225h-5.545c-0.864,0-1.297,0.504-1.297,1.225s0.433,1.206,1.297,1.206H318.165z M322.648,356.264h1.621
			v2.953h-1.621v3.241h-3.421v-9.237h3.421V356.264z"/>
		<path class="st50" d="M333.753,360.045h7.706v2.683h-16.564v-2.683h5.365v-2.341h3.493V360.045z M337.75,363.592
			c2.269,0,3.349,1.351,3.349,3.241s-1.08,3.241-3.349,3.241h-9.146c-2.27,0-3.35-1.35-3.35-3.241s1.08-3.241,3.35-3.241H337.75z
			 M337.21,356.048h-11.56v-2.683h14.927v2.557c0,1.783-0.162,2.611-0.307,3.331h-3.349c0.18-0.684,0.288-1.422,0.288-2.539V356.048
			z M336.399,367.805c0.774,0,1.225-0.288,1.225-0.972c0-0.685-0.45-0.973-1.225-0.973h-6.446c-0.773,0-1.224,0.288-1.224,0.973
			c0,0.684,0.45,0.972,1.224,0.972H336.399z"/>
		<path class="st50" d="M347.539,367.463h11.902v2.557h-15.377v-5.203h2.755v-1.999h-3.925v-2.502h8.12
			c1.854,0,2.827-0.072,3.781-0.216v2.503c-0.954,0.144-1.927,0.216-3.781,0.216h-0.883v2.971h-2.593V367.463z M346.585,359.415
			c-2.106,0-3.276-1.188-3.276-2.935v-0.054c0-1.729,1.17-2.917,3.276-2.917h4.069c2.125,0,3.277,1.188,3.277,2.917v0.054
			c0,1.747-1.152,2.935-3.277,2.935H346.585z M346.549,356.498c0,0.415,0.307,0.738,0.883,0.738h2.395
			c0.576,0,0.864-0.324,0.864-0.738v-0.054c0-0.432-0.288-0.774-0.864-0.774h-2.395c-0.576,0-0.883,0.342-0.883,0.774V356.498z
			 M351.555,363.574h4.123v-10.353h3.421v13.378h-3.421v-0.666h-4.123V363.574z"/>
	</g>
</g>
<g>
	<path class="st51" d="M249.001,405.752c-6.961-4.319-13.344-4.535-18.172-3.536c-6.648,1.375-12.353,5.823-15.241,11.967
		c-6.789,14.44,6.613,29.29,11.259,34.409c1.531,1.687,2.846,3.575,3.746,5.669c6.494,15.123-5.701,34.061-5.701,34.061
		c21.499-17.92,31.713-32.684,36.236-43.941C266.817,430.216,261.972,413.8,249.001,405.752z M232.005,421.202
		c-2.801,1.493-6.281,0.432-7.774-2.368c-1.493-2.801-0.432-6.281,2.368-7.774s6.281-0.432,7.774,2.368
		C235.866,416.229,234.805,419.709,232.005,421.202z"/>
	<circle class="st11" cx="229.302" cy="416.131" r="5.746"/>
</g>
<g>
	<path class="st52" d="M419.441,343.466c-4.957-2.175-9.152-1.721-12.217-0.617c-4.221,1.52-7.537,4.963-8.853,9.251
		c-3.093,10.08,7.06,18.542,10.577,21.457c1.159,0.961,2.196,2.073,2.979,3.358c5.66,9.286-0.549,22.813-0.549,22.813
		c12.39-13.729,17.693-24.341,19.6-32.127C433.379,357.805,428.677,347.519,419.441,343.466z M409.765,355.159
		c-1.693,1.238-4.068,0.869-5.306-0.823c-1.238-1.693-0.869-4.068,0.823-5.306c1.693-1.238,4.068-0.869,5.306,0.823
		C411.827,351.545,411.458,353.921,409.765,355.159z"/>
	<circle class="st11" cx="407.524" cy="352.094" r="3.797"/>
</g>
<g>
	<path class="st53" d="M520.746,525.978c-5.71,0.523-13.779,3.147-24.807,10.454c0,0,10.228-2.956,16.196,2.034
		c0.826,0.691,1.503,1.542,2.059,2.464c1.689,2.797,6.597,10.878,14.055,9.76c3.173-0.476,5.961-2.456,7.484-5.28
		c1.106-2.051,1.873-4.97,0.861-8.708C534.707,529.739,527.93,525.321,520.746,525.978z M531.136,542.286
		c1.066,1.055,1.074,2.775,0.019,3.841c-1.055,1.066-2.775,1.074-3.841,0.019s-1.074-2.775-0.019-3.841
		C528.351,541.24,530.07,541.231,531.136,542.286z"/>
	<circle class="st11" cx="529.225" cy="544.216" r="2.716"/>
</g>
<g>
	<path class="st12" d="M116.755,392.693c1.293,5.278,4.888,12.472,13.288,21.78c0,0-4.209-9.17-0.372-15.466
		c0.531-0.872,1.234-1.626,2.02-2.277c2.384-1.976,9.268-7.713,7.171-14.546c-0.892-2.907-3.14-5.241-6.001-6.272
		c-2.078-0.748-4.922-1.057-8.282,0.418C118.316,379.078,115.128,386.051,116.755,392.693z M130.579,380.66
		c0.839-1.148,2.45-1.397,3.597-0.558c1.148,0.839,1.397,2.45,0.558,3.597c-0.839,1.148-2.45,1.397-3.597,0.558
		S129.739,381.808,130.579,380.66z"/>
	<circle class="st11" cx="132.656" cy="382.18" r="2.574"/>
</g>
<polygon class="st54" points="297.638,528.28 297.638,528.277 297.638,528.28 "/>
<polygon class="st55" points="297.638,528.274 297.638,528.274 297.638,528.274 "/>
<polygon class="st56" points="297.638,528.274 297.638,528.274 297.638,528.274 "/>
<polygon class="st56" points="297.638,528.277 297.638,528.274 297.638,528.274 297.638,528.274 "/>
<rect x="196.9" y="636.312" class="st8" width="4.7" height="95.659"/>
<polygon class="st57" points="297.638,528.277 297.638,528.274 297.638,528.28 "/>
<g>
	<path class="st14" d="M274.048,596.573c-13.721,0.312-27.12,0.051-39.515-0.519c-4.741,4.226-8.91,7.723-12.133,10.339
		c-4.374,3.551-7.022,5.501-7.027,5.505c12.898,1.551,30.039,2.934,52.043,3.462c0.01-0.027,1.16-3.199,3.003-8.414
		C271.439,604.056,272.675,600.534,274.048,596.573z"/>
	<path class="st15" d="M234.532,596.054c12.395,0.57,25.795,0.831,39.515,0.519c8.755-25.263,23.126-68.55,23.59-81.76
		C283.853,548.26,254.211,578.512,234.532,596.054z"/>
	<path class="st58" d="M319.585,593.109c-6.997-16.496-15.918-42.532-21.947-78.296c-0.464,13.211-14.836,56.497-23.59,81.76
		C289.143,596.23,304.625,595.194,319.585,593.109z"/>
	<path class="st57" d="M319.585,593.109c-14.959,2.085-30.442,3.121-45.537,3.464c-1.373,3.961-2.609,7.483-3.63,10.372
		c-1.843,5.215-2.993,8.387-3.003,8.414c17.7,0.424,38.553,0.291,62.889-0.756c-0.013-0.02-1.528-2.367-3.947-7.015
		C324.534,604.086,322.192,599.255,319.585,593.109z"/>
	<path class="st59" d="M297.638,514.813c0,0-43.218,54.426-86.909,79.723c7.319,0.594,15.325,1.128,23.803,1.518
		C254.211,578.512,283.853,548.26,297.638,514.813z"/>
	<path class="st60" d="M234.532,596.054c-8.479-0.39-16.484-0.924-23.803-1.518c-9.317,5.395-18.656,9.47-27.602,11.405
		c0,0,9.604,3.234,32.245,5.957c0.006-0.004,2.653-1.954,7.027-5.505C225.622,603.777,229.791,600.28,234.532,596.054z"/>
	<path class="st18" d="M350.974,586.778c-19.18-19.63-43.534-47.631-53.336-71.965c6.029,35.764,14.95,61.8,21.947,78.296
		C330.441,591.596,341.018,589.529,350.974,586.778z"/>
	<path class="st19" d="M350.974,586.778c-9.956,2.751-20.533,4.818-31.389,6.331c2.607,6.146,4.949,10.977,6.772,14.48
		c2.419,4.648,3.934,6.994,3.947,7.015c14.353-0.617,29.92-1.555,46.765-2.883c-0.028-0.024-1.492-1.3-4.013-3.594
		C368.456,603.941,360.327,596.35,350.974,586.778z"/>
	<path class="st61" d="M361.571,583.498c-18.203-13.876-40.176-35.38-63.933-68.685c9.802,24.334,34.156,52.336,53.336,71.965
		C354.595,585.778,358.133,584.687,361.571,583.498z"/>
	<path class="st62" d="M361.571,583.498c-3.439,1.189-6.977,2.28-10.597,3.28c9.353,9.572,17.482,17.163,22.081,21.348
		c2.521,2.294,3.985,3.57,4.013,3.594c11.081-0.874,22.697-1.912,34.905-3.146C411.974,608.575,392.061,606.739,361.571,583.498z"/>
	<path class="st22" d="M330.306,623.536v13.354l24.415,15.131l22.352-18.569v-14.258
		C360.792,621.301,345.165,622.695,330.306,623.536z"/>
	<path class="st23" d="M330.306,622.206v1.33c14.859-0.841,30.486-2.235,46.767-4.343v-0.085v-7.384c0,0-0.004-0.003-0.004-0.004
		c-16.846,1.328-32.412,2.266-46.765,2.883c0,0,0.002,0.004,0.002,0.004V622.206z"/>
	<path class="st63" d="M267.279,622.855l-0.021,1.163c18.843,0.793,40.016,0.822,63.048-0.482v-1.33v-7.599
		c0,0-0.002-0.004-0.002-0.004c-24.336,1.047-45.189,1.18-62.889,0.756c0,0-0.001,0.003-0.001,0.003L267.279,622.855z"/>
	<path class="st64" d="M267.258,624.018l-0.225,12.528l32.272,18.913l31.001-18.569v-13.354
		C307.274,624.84,286.101,624.81,267.258,624.018z"/>
	<path class="st26" d="M377.073,619.193v14.258l21.664,13.411l13.411-13.067l-0.139-20.105
		C400.08,615.901,388.417,617.724,377.073,619.193z"/>
	<path class="st27" d="M377.073,619.108v0.085c11.343-1.469,23.007-3.292,34.936-5.503l-0.035-5.115
		c-12.208,1.235-23.824,2.272-34.905,3.146c0,0,0.004,0.004,0.004,0.004V619.108z"/>
	<path class="st65" d="M183.127,614.183v20.299l15.131,12.38l17.114-11.692v-15.598
		C201.256,617.708,190.324,615.685,183.127,614.183z"/>
	<path class="st66" d="M215.372,619.26v-7.361l0.001,0c-22.642-2.723-32.245-5.957-32.245-5.957v7.821v0.422
		c7.197,1.502,18.129,3.525,32.245,5.389V619.26z"/>
	<path class="st23" d="M215.372,619.26v0.313c14.249,1.882,31.733,3.597,51.886,4.445l0.021-1.163l0.135-7.492
		c0,0,0.001-0.003,0.001-0.003c-22.003-0.527-39.144-1.91-52.043-3.462l-0.001,0V619.26z"/>
	<path class="st28" d="M215.372,619.572v15.598l24.409,17.882l27.253-16.506l0.225-12.528
		C247.105,623.17,229.621,621.454,215.372,619.572z"/>
</g>
<rect x="328.339" y="705.524" transform="matrix(-1 -4.525148e-11 4.525148e-11 -1 660.6985 1436.3855)" class="st2" width="4.02" height="25.338"/>
<rect x="262.916" y="705.524" class="st2" width="4.02" height="25.338"/>
<rect x="254.534" y="694.806" transform="matrix(-1 -4.490065e-11 4.490065e-11 -1 595.2756 1398.2094)" class="st3" width="86.208" height="8.597"/>
<rect x="254.537" y="703.382" transform="matrix(-1 -4.492330e-11 4.492330e-11 -1 595.279 1409.4994)" class="st4" width="86.205" height="2.735"/>
</svg>
