<?xml version="1.0" encoding="utf-8"?>
<!-- Generator: Adobe Illustrator 27.0.0, SVG Export Plug-In . SVG Version: 6.00 Build 0)  -->
<svg version="1.1" xmlns="http://www.w3.org/2000/svg" xmlns:xlink="http://www.w3.org/1999/xlink" x="0px" y="0px"
	 viewBox="0 0 595.276 841.89" style="enable-background:new 0 0 595.276 841.89;" xml:space="preserve">
<style type="text/css">
	.st0{fill:#CBE3F6;}
	.st1{fill:#FFFFFF;stroke:#000000;stroke-linecap:round;stroke-linejoin:round;stroke-miterlimit:10;}
	.st2{fill:none;stroke:#583C2B;stroke-linecap:round;stroke-linejoin:round;stroke-miterlimit:10;}
	.st3{fill:#A4D6F3;}
	.st4{fill:#FFFFFF;stroke:#000000;stroke-miterlimit:10;}
	.st5{fill:#FEF1D2;stroke:#000000;stroke-linecap:round;stroke-linejoin:round;stroke-miterlimit:10;}
	.st6{fill:#668BC7;stroke:#000000;stroke-miterlimit:10;}
	.st7{fill:#8496CC;}
	.st8{fill:#DEA0C8;}
	.st9{fill:#3E2519;}
	.st10{fill:#B6E3ED;stroke:#000000;stroke-miterlimit:10;}
	.st11{fill:none;stroke:#000000;stroke-linecap:round;stroke-linejoin:round;stroke-miterlimit:10;}
	.st12{fill:#FFFDF1;stroke:#000000;stroke-miterlimit:10;}
	.st13{fill:#F0F2BA;stroke:#000000;stroke-miterlimit:10;}
	.st14{fill:#7FC99A;stroke:#000000;stroke-miterlimit:10;}
	.st15{fill:#FFEFCD;stroke:#000000;stroke-linecap:round;stroke-linejoin:round;stroke-miterlimit:10;}
	.st16{fill:#F9F4AD;stroke:#000000;stroke-miterlimit:10;}
	.st17{fill:#FAF39F;stroke:#000000;stroke-miterlimit:10;}
	.st18{fill:#703016;stroke:#000000;stroke-miterlimit:10;}
	.st19{fill:#E7AE9F;stroke:#000000;stroke-linecap:round;stroke-linejoin:round;stroke-miterlimit:10;}
	.st20{fill:#592D14;}
	.st21{fill:url(#SVGID_1_);}
	.st22{fill:url(#SVGID_00000183954416339255731670000005170439024827693998_);}
	.st23{fill:url(#SVGID_00000142143834246612901060000010865887737588513938_);}
	.st24{fill:url(#SVGID_00000147936208691268970380000017875364447122309268_);}
	.st25{fill:#FFFBF4;stroke:#000000;stroke-miterlimit:10;}
	.st26{fill:none;stroke:#000000;stroke-miterlimit:10;}
	.st27{fill:#F9F8CE;stroke:#000000;stroke-miterlimit:10;}
	.st28{fill:#FEECCA;stroke:#000000;stroke-miterlimit:10;}
	.st29{fill:#9AD091;stroke:#000000;stroke-miterlimit:10;}
	.st30{fill:#9C3033;stroke:#000000;stroke-miterlimit:10;}
	.st31{fill:#F1855F;stroke:#000000;stroke-miterlimit:10;}
	.st32{fill:url(#SVGID_00000150797896390439899430000011081276517876697791_);}
	.st33{fill:url(#SVGID_00000142885253730248837130000016657074990021351866_);}
	.st34{fill:url(#SVGID_00000021100569716447244780000017923358093030904979_);}
	.st35{fill:url(#SVGID_00000105422326364461018320000013839477556987431583_);}
	.st36{fill:url(#SVGID_00000055677172642627424670000005196501343417397141_);}
	.st37{fill:#BBE5F4;stroke:#000000;stroke-miterlimit:10;}
	.st38{fill:#553E30;}
	.st39{fill:#FFFFFF;}
	.st40{fill:#583C2B;}
</style>
<g id="Layer_1">
	
		<image style="overflow:visible;" width="603" height="599" xlink:href="../jQuery/pf/img/image06.JPG"  transform="matrix(0.9872 0 0 0.9872 0 93.9616)">
	</image>
</g>
<g id="Layer_2">
	<rect class="st0" width="595.276" height="841.89"/>
	<path class="st1" d="M178.828,217.298c0,0-1.35-1.35,0-2.87c0,0-3.139-3.415,0.681-6.121c0,0-3.66-1.591,0-5.888
		c0,0-2.069-2.705,0-4.933c0,0-0.159-2.705,2.387-2.387c0,0-1.591-5.252,3.024-5.888c0,0-1.432-5.411,3.183-5.093
		c0,0,0.477-4.297,2.705-3.183c0,0,0.796-3.342,3.183-1.751c0,0-0.159-3.501,1.91-3.024c0,0,0-2.546,3.66-0.955
		c0,0,1.432-4.615,6.207-2.228c0,0,0.318-3.819,3.501-2.546c0,0,3.183-2.069,4.138,1.114c0,0,1.751-4.774,4.933-0.637
		c0,0,3.342-3.979,7.321,0.637c0,0,3.979-2.705,6.843,2.069c0,0,5.093-2.069,6.366,3.183c0,0,3.501-1.91,4.933,3.819
		c0,0,6.207,0,4.615,6.047c0,0,4.774-1.751,3.979,5.411c0,0,3.342-0.159,2.228,5.729c0,0,5.57,1.91,2.069,7.002
		c0,0,3.501,2.546-0.159,5.729c0,0,2.069,4.294-0.318,6.762l-4.138,9.336H179.19L178.828,217.298z"/>
	<path class="st2" d="M213.044,216.518c0,0,3.731,3.23,4.918-1.992c0,0,0.308,5.09,4.978,1.853"/>
	<ellipse class="st3" cx="294.803" cy="564.456" rx="243.675" ry="40.395"/>
	<path class="st4" d="M474.517,390.046c0,0,29.47-3.208,43.078,7.579c1.812,1.437,3.889,2.485,6.117,3.106
		c6.043,1.683,17.377,4.083,24.247,0.824c3.161-1.499,6.809-1.685,9.95-0.144c3.76,1.845,7.233,5.378,5.092,12.075
		c-1.934,6.046-7.154,10.433-13.359,11.774c-6.693,1.447-17.322,1.942-31.917-2.74c-0.675-0.217-1.391,0.184-1.531,0.88
		c-1.016,5.058-5.079,23.427-11.524,29.203c-0.559,0.501-1.069,1.052-1.578,1.602c-4.506,4.862-23.54,23.221-41.222,7.624
		C441.646,443.988,474.517,390.046,474.517,390.046z"/>
	<path class="st5" d="M73.293,408.438c0,0-3.278,5.382-30.901,4.375c-4.059-0.148-8.096,1.243-11.001,4.081
		c-2.658,2.596-4.622,6.464-2.628,11.835c1.955,5.268,6.764,8.969,12.318,9.824c8.641,1.33,24.1,2.324,36.49-4.405
		c0,0,19.948,52.946,35.319,46.115l-5.274-74.737L73.293,408.438z"/>
	<g>
		<rect x="103.999" y="251.62" class="st4" width="381.608" height="308.895"/>
		<rect x="103.999" y="226.635" class="st6" width="381.608" height="24.985"/>
	</g>
	<path class="st7" d="M192.763,346.486c0.335,0.432,0.587,0.864,0.756,1.296c0.167,0.432,0.204,0.913,0.108,1.44l-2.808,24.48
		l-15.624,0.936l2.448-21.6h-21.816l-2.16-13.32h32.256c1.104,0,1.991,0.432,2.664,1.296L192.763,346.486z M171.883,405.526
		c-2.16,0-4.116-0.36-5.868-1.08c-1.753-0.72-3.24-1.728-4.464-3.024c-1.224-1.296-2.16-2.833-2.808-4.608
		c-0.648-1.776-0.972-3.72-0.972-5.832c0-2.112,0.324-4.056,0.972-5.832c0.648-1.775,1.584-3.312,2.808-4.608
		c1.224-1.296,2.711-2.304,4.464-3.024c1.751-0.72,3.708-1.08,5.868-1.08h32.184c2.256,0,4.259,0.36,6.012,1.08
		c1.751,0.72,3.228,1.728,4.428,3.024c1.199,1.296,2.112,2.833,2.736,4.608c0.623,1.776,0.936,3.72,0.936,5.832
		c0,2.112-0.313,4.056-0.936,5.832c-0.625,1.775-1.537,3.312-2.736,4.608c-1.2,1.296-2.676,2.304-4.428,3.024
		c-1.753,0.72-3.756,1.08-6.012,1.08H171.883z M199.387,393.286c0.911,0,1.631-0.204,2.16-0.612
		c0.528-0.407,0.792-0.972,0.792-1.692c0-0.72-0.264-1.284-0.792-1.692c-0.529-0.407-1.249-0.612-2.16-0.612h-22.824
		c-0.913,0-1.632,0.205-2.16,0.612c-0.529,0.409-0.792,0.972-0.792,1.692c0,0.72,0.263,1.285,0.792,1.692
		c0.528,0.408,1.248,0.612,2.16,0.612H199.387z M216.379,350.302h7.488v12.6h-7.488v11.376h-15.84v-27.792l-3.672-7.848h19.512
		V350.302z"/>
	<path class="st7" d="M226.747,356.71c0-2.832,0.456-5.352,1.368-7.56c0.912-2.208,2.22-4.068,3.924-5.58
		c1.703-1.512,3.768-2.664,6.192-3.456c2.423-0.792,5.148-1.188,8.172-1.188s5.748,0.396,8.172,1.188
		c2.423,0.792,4.487,1.944,6.192,3.456c1.703,1.512,3.012,3.373,3.924,5.58c0.911,2.208,1.368,4.728,1.368,7.56v29.592
		c0,2.833-0.457,5.353-1.368,7.56c-0.912,2.207-2.221,4.068-3.924,5.58c-1.705,1.512-3.769,2.664-6.192,3.456
		c-2.425,0.792-5.148,1.188-8.172,1.188s-5.749-0.396-8.172-1.188c-2.424-0.792-4.489-1.944-6.192-3.456
		c-1.705-1.512-3.013-3.373-3.924-5.58c-0.912-2.208-1.368-4.728-1.368-7.56V356.71z M242.587,386.302c0,1.344,0.36,2.424,1.08,3.24
		c0.72,0.817,1.631,1.224,2.736,1.224c1.104,0,2.016-0.407,2.736-1.224c0.72-0.815,1.08-1.896,1.08-3.24V356.71
		c0-1.343-0.36-2.423-1.08-3.24c-0.72-0.815-1.632-1.224-2.736-1.224c-1.104,0-2.016,0.409-2.736,1.224
		c-0.72,0.817-1.08,1.897-1.08,3.24V386.302z M286.939,363.838h8.928v13.32h-8.928v28.368h-15.84v-59.04l-3.672-7.848h19.512
		V363.838z"/>
	<path class="st7" d="M296.659,403.366l15.84-50.328h-14.472v-13.32h44.424v13.32h-14.4l-4.535,14.472l10.943,1.512l10.008,34.344
		h-15.552l-7.992-27.648l-8.712,27.648H296.659z M363.188,338.638v66.888h-15.84v-59.04l-3.673-7.848H363.188z"/>
	<path class="st7" d="M417.188,403.366h-47.16v-13.32h47.16V403.366z M415.675,338.638h19.513v66.888h-15.84v-59.04L415.675,338.638
		z"/>
	<path class="st7" d="M305.659,455.135h-33.336c-1.056,0-1.944-0.384-2.664-1.152l-4.032-4.248c-0.72-0.767-1.08-1.656-1.08-2.664
		v-13.104l-3.672-7.849h19.512v17.496h25.272V455.135z M325.459,482.207v9.72h-49.392c-1.056,0-1.944-0.385-2.664-1.152
		l-4.032-4.248c-0.72-0.769-1.08-1.655-1.08-2.664v-13.176h40.248v-2.088h-40.248v-9.72h56.088v21.168h-40.248v2.16H325.459z
		 M324.379,433.822h7.488v12.24h-7.488v10.656h-15.84v-23.832l-3.672-7.849h19.512V433.822z"/>
	<path class="st8" d="M409.58,346.373c-8.803-6.601-15.972,5.134-15.972,5.134s-7.17-11.736-15.972-5.134
		c-3.637,2.728-5.614,7.198-5.355,11.737c0.38,6.672,4.102,17.123,21.328,25.21c17.226-8.087,20.948-18.537,21.328-25.21
		C415.194,353.571,413.217,349.1,409.58,346.373z"/>
	<g>
		<path class="st9" d="M227.5,307.734h1.911l3.198,5.681c0.095,0.173,0.201,0.388,0.318,0.644c0.117,0.256,0.21,0.535,0.279,0.838
			v-7.163h1.56v9.373h-1.911l-3.211-5.694c-0.122-0.208-0.234-0.433-0.338-0.676c-0.104-0.242-0.187-0.498-0.247-0.767v7.137h-1.56
			V307.734z"/>
		<path class="st9" d="M244.556,317.107h-1.807l-0.91-2.574h-3.159l-0.923,2.574h-1.703l3.484-9.373h1.495L244.556,317.107z
			 M239.161,313.143h2.197l-0.637-1.911c-0.113-0.312-0.201-0.574-0.267-0.787c-0.065-0.212-0.132-0.431-0.201-0.656
			c-0.035,0.13-0.067,0.247-0.098,0.351s-0.063,0.21-0.098,0.318s-0.071,0.223-0.11,0.345c-0.039,0.121-0.089,0.264-0.149,0.429
			L239.161,313.143z"/>
		<path class="st9" d="M251.433,307.734v1.404h-2.743v7.969h-1.664v-7.969h-2.756v-1.404H251.433z"/>
		<path class="st9" d="M252.616,307.734h1.664v9.373h-1.664V307.734z"/>
		<path class="st9" d="M260.013,307.591c0.528,0,1.033,0.076,1.514,0.228c0.481,0.152,0.904,0.39,1.268,0.715
			c0.364,0.325,0.652,0.743,0.865,1.254c0.212,0.511,0.318,1.131,0.318,1.859v1.547c0,0.737-0.106,1.363-0.318,1.879
			c-0.212,0.516-0.499,0.934-0.858,1.254c-0.359,0.321-0.78,0.554-1.261,0.702s-0.99,0.221-1.527,0.221
			c-0.538,0-1.047-0.074-1.528-0.221s-0.901-0.381-1.261-0.702c-0.36-0.321-0.646-0.739-0.858-1.254
			c-0.213-0.516-0.319-1.142-0.319-1.879v-1.547c0-0.728,0.106-1.348,0.319-1.859c0.212-0.511,0.5-0.93,0.864-1.254
			c0.364-0.325,0.787-0.563,1.268-0.715C258.979,307.667,259.484,307.591,260.013,307.591z M260.013,315.729
			c0.32,0,0.619-0.041,0.897-0.124c0.277-0.082,0.52-0.228,0.728-0.436s0.37-0.489,0.487-0.845s0.175-0.802,0.175-1.339v-1.131
			c0-0.537-0.058-0.983-0.175-1.339s-0.279-0.637-0.487-0.845s-0.451-0.353-0.728-0.436c-0.278-0.082-0.577-0.124-0.897-0.124
			c-0.312,0-0.607,0.042-0.884,0.124c-0.277,0.083-0.52,0.228-0.728,0.436s-0.373,0.49-0.494,0.845
			c-0.122,0.355-0.182,0.802-0.182,1.339v1.131c0,0.538,0.061,0.984,0.182,1.339c0.121,0.355,0.286,0.637,0.494,0.845
			s0.451,0.354,0.728,0.436C259.406,315.688,259.701,315.729,260.013,315.729z"/>
		<path class="st9" d="M265.746,307.734h1.911l3.198,5.681c0.095,0.173,0.201,0.388,0.318,0.644c0.117,0.256,0.21,0.535,0.279,0.838
			v-7.163h1.56v9.373h-1.911l-3.211-5.694c-0.122-0.208-0.234-0.433-0.338-0.676c-0.104-0.242-0.187-0.498-0.247-0.767v7.137h-1.56
			V307.734z"/>
		<path class="st9" d="M282.802,317.107h-1.807l-0.91-2.574h-3.159l-0.923,2.574H274.3l3.484-9.373h1.495L282.802,317.107z
			 M277.407,313.143h2.197l-0.637-1.911c-0.113-0.312-0.201-0.574-0.267-0.787c-0.065-0.212-0.132-0.431-0.201-0.656
			c-0.035,0.13-0.067,0.247-0.098,0.351s-0.063,0.21-0.098,0.318s-0.071,0.223-0.11,0.345c-0.039,0.121-0.089,0.264-0.149,0.429
			L277.407,313.143z"/>
		<path class="st9" d="M285.752,307.734v7.969h4.277v1.404h-5.941v-9.373H285.752z"/>
		<path class="st9" d="M294.593,307.734h3.536c0.563,0,1.046,0.067,1.45,0.202c0.402,0.134,0.734,0.321,0.994,0.559
			s0.453,0.522,0.578,0.852c0.126,0.329,0.188,0.685,0.188,1.066v0.273c0,0.381-0.064,0.743-0.194,1.085s-0.33,0.642-0.599,0.897
			c-0.269,0.256-0.603,0.459-1.001,0.611c-0.398,0.152-0.871,0.228-1.417,0.228h-1.872v3.601h-1.664V307.734z M296.256,309.125
			v2.977h1.651c0.546,0,0.975-0.104,1.287-0.312c0.312-0.208,0.468-0.585,0.468-1.131v-0.234c0-0.26-0.039-0.472-0.117-0.637
			c-0.077-0.165-0.188-0.297-0.331-0.396s-0.314-0.169-0.513-0.208c-0.2-0.039-0.416-0.059-0.65-0.059H296.256z"/>
		<path class="st9" d="M306.331,315.743c0.338,0,0.633-0.041,0.885-0.124c0.251-0.083,0.457-0.221,0.617-0.416
			c0.16-0.195,0.279-0.451,0.357-0.767s0.117-0.704,0.117-1.164v-5.538h1.664v5.512c0,0.771-0.08,1.413-0.241,1.924
			c-0.16,0.512-0.395,0.921-0.701,1.229c-0.309,0.308-0.688,0.526-1.138,0.657c-0.451,0.13-0.971,0.195-1.561,0.195
			c-0.589,0-1.109-0.065-1.56-0.195c-0.451-0.13-0.83-0.349-1.138-0.657s-0.542-0.717-0.702-1.229
			c-0.16-0.511-0.24-1.152-0.24-1.924v-5.512h1.664v5.538c0,0.459,0.039,0.847,0.117,1.164s0.196,0.572,0.357,0.767
			c0.16,0.195,0.366,0.333,0.617,0.416S305.993,315.743,306.331,315.743z"/>
		<path class="st9" d="M311.908,307.734h3.536c0.563,0,1.047,0.067,1.449,0.202c0.403,0.134,0.734,0.321,0.995,0.559
			c0.26,0.238,0.452,0.522,0.578,0.852c0.125,0.329,0.188,0.685,0.188,1.066v0.273c0,0.381-0.065,0.743-0.195,1.085
			s-0.329,0.642-0.598,0.897c-0.269,0.256-0.603,0.459-1.001,0.611c-0.398,0.152-0.871,0.228-1.417,0.228h-1.872v3.601h-1.664
			V307.734z M313.572,309.125v2.977h1.651c0.546,0,0.975-0.104,1.286-0.312c0.312-0.208,0.469-0.585,0.469-1.131v-0.234
			c0-0.26-0.039-0.472-0.117-0.637s-0.188-0.297-0.332-0.396c-0.143-0.1-0.313-0.169-0.513-0.208c-0.2-0.039-0.416-0.059-0.65-0.059
			H313.572z"/>
		<path class="st9" d="M320.176,307.734h3.536c0.563,0,1.047,0.067,1.449,0.202c0.403,0.134,0.734,0.321,0.995,0.559
			c0.26,0.238,0.452,0.522,0.578,0.852c0.125,0.329,0.188,0.685,0.188,1.066v0.273c0,0.381-0.065,0.743-0.195,1.085
			s-0.329,0.642-0.598,0.897c-0.269,0.256-0.603,0.459-1.001,0.611c-0.398,0.152-0.871,0.228-1.417,0.228h-1.872v3.601h-1.664
			V307.734z M321.84,309.125v2.977h1.651c0.546,0,0.975-0.104,1.286-0.312c0.312-0.208,0.469-0.585,0.469-1.131v-0.234
			c0-0.26-0.039-0.472-0.117-0.637s-0.188-0.297-0.332-0.396c-0.143-0.1-0.313-0.169-0.513-0.208c-0.2-0.039-0.416-0.059-0.65-0.059
			H321.84z"/>
		<path class="st9" d="M332.435,313.402v3.705h-1.664v-3.705l-3.211-5.668h1.859l2.223,4.134l2.185-4.134h1.819L332.435,313.402z"/>
		<path class="st9" d="M343.381,307.734c1.396,0,2.422,0.345,3.081,1.034c0.658,0.689,0.987,1.684,0.987,2.983v1.339
			c0,0.65-0.073,1.225-0.221,1.723c-0.147,0.499-0.384,0.917-0.708,1.254c-0.325,0.338-0.743,0.596-1.255,0.773
			c-0.512,0.178-1.131,0.267-1.859,0.267h-3.288v-9.373H343.381z M341.769,315.704h1.392c0.416,0,0.786-0.048,1.111-0.143
			s0.598-0.247,0.818-0.455c0.222-0.208,0.391-0.483,0.508-0.825c0.116-0.342,0.175-0.761,0.175-1.255v-1.209
			c0-0.988-0.219-1.681-0.656-2.08c-0.438-0.398-1.09-0.598-1.956-0.598h-1.392V315.704z"/>
		<path class="st9" d="M356.484,317.107h-1.807l-0.91-2.574h-3.159l-0.923,2.574h-1.703l3.484-9.373h1.495L356.484,317.107z
			 M351.09,313.143h2.197l-0.638-1.911c-0.112-0.312-0.201-0.574-0.267-0.787c-0.064-0.212-0.132-0.431-0.201-0.656
			c-0.034,0.13-0.067,0.247-0.098,0.351s-0.062,0.21-0.098,0.318c-0.034,0.108-0.071,0.223-0.11,0.345
			c-0.039,0.121-0.089,0.264-0.149,0.429L351.09,313.143z"/>
		<path class="st9" d="M360.853,313.402v3.705h-1.664v-3.705l-3.211-5.668h1.859l2.223,4.134l2.185-4.134h1.819L360.853,313.402z"/>
	</g>
	<path class="st1" d="M266.233,226.635c0,0,0.284-8.896-10.654-9.003c-3.016-0.029-6.004,1.08-7.972,3.366
		c-1.14,1.324-2.094,3.151-2.328,5.637c0,0,0.335,8.109,6.37,3.415c0,0,3.353,7.041,7.376,0.335
		C259.025,230.385,264.557,236.463,266.233,226.635z"/>
	<path class="st1" d="M181.923,217.782c-1.489-0.263-3.256-0.277-5.332,0.132c-1.643,0.324-3.183,1.055-4.43,2.171
		c-1.912,1.711-4.173,4.735-2.821,8.791c0,0,1.173,5.7,6.035,2.515c0,0,4.694,4.191,8.047-1.006c0,0,4.43,2.517,5.487-2.046
		C190.021,223.535,186.779,218.641,181.923,217.782z"/>
	<g>
		<line class="st4" x1="219.14" y1="150.794" x2="219.14" y2="161.084"/>
		<path class="st4" d="M219.14,163.084c-1.104,0-2-0.896-2-2v-10.29c0-1.104,0.896-2,2-2s2,0.896,2,2v10.29
			C221.14,162.188,220.244,163.084,219.14,163.084z"/>
	</g>
	<g>
		<line class="st4" x1="229.639" y1="165.284" x2="236.884" y2="158.039"/>
		<path class="st4" d="M229.64,167.284c-0.512,0-1.024-0.195-1.414-0.586c-0.781-0.781-0.781-2.047,0-2.828l7.245-7.245
			c0.78-0.781,2.048-0.781,2.828,0c0.781,0.781,0.781,2.047,0,2.828l-7.245,7.245C230.664,167.088,230.151,167.284,229.64,167.284z"
			/>
	</g>
	<g>
		<line class="st4" x1="208.745" y1="164.969" x2="201.553" y2="157.776"/>
		<path class="st4" d="M208.745,166.969c-0.512,0-1.024-0.195-1.414-0.586l-7.192-7.192c-0.781-0.781-0.781-2.047,0-2.828
			c0.781-0.781,2.048-0.781,2.828,0l7.192,7.192c0.781,0.781,0.781,2.047,0,2.828C209.769,166.773,209.257,166.969,208.745,166.969z
			"/>
	</g>
	<g>
		<circle class="st10" cx="286.308" cy="222.404" r="9.88"/>
		<path class="st11" d="M286.308,228.302c0,0,5.309-0.295,5.161-5.898"/>
	</g>
	<g>
		<circle class="st10" cx="85.349" cy="285.45" r="9.88"/>
		<path class="st11" d="M85.349,291.348c0,0,5.309-0.295,5.161-5.898"/>
	</g>
	<g>
		<circle class="st10" cx="558.194" cy="458.879" r="9.88"/>
		<path class="st11" d="M558.194,464.777c0,0,5.309-0.295,5.161-5.898"/>
	</g>
	<g>
		<circle class="st10" cx="504.269" cy="194.38" r="9.88"/>
		<path class="st11" d="M504.269,200.278c0,0,5.309-0.295,5.161-5.898"/>
	</g>
	<g>
		<line class="st11" x1="451.419" y1="194.38" x2="451.419" y2="219.353"/>
		<line class="st11" x1="438.454" y1="206.941" x2="464.236" y2="206.941"/>
		<line class="st11" x1="445.631" y1="201.119" x2="456.879" y2="212.367"/>
		<line class="st11" x1="456.879" y1="201.119" x2="445.631" y2="212.367"/>
	</g>
	<g>
		<line class="st11" x1="88.005" y1="483.269" x2="88.005" y2="508.242"/>
		<line class="st11" x1="75.04" y1="495.83" x2="100.822" y2="495.83"/>
		<line class="st11" x1="82.217" y1="490.008" x2="93.465" y2="501.256"/>
		<line class="st11" x1="93.465" y1="490.008" x2="82.217" y2="501.256"/>
	</g>
	<g>
		<line class="st11" x1="38.512" y1="304.283" x2="38.512" y2="329.256"/>
		<line class="st11" x1="25.547" y1="316.844" x2="51.329" y2="316.844"/>
		<line class="st11" x1="32.725" y1="311.022" x2="43.973" y2="322.27"/>
		<line class="st11" x1="43.973" y1="311.022" x2="32.725" y2="322.27"/>
	</g>
	<circle class="st1" cx="77.57" cy="312.369" r="4.277"/>
	<path class="st1" d="M461.871,359.578c0,0-4.439-3.222-1.028-7.58c0,0-0.51-7.201,1.735-5.685c0,0-0.598-3.032,2.813-2.843
		c0,0,0.758-6.252,4.359-4.832c0,0,0.8-5.023,4.948-3.886c0,0,2.272-5.117,5.105-3.222c0,0,0.749-3.222,4.349-1.327
		c0,0,1.198-3.411,4.2-1.516c0,0,3.201-1.715,5.47-0.573c0,0,4.543-1.511,4.164,1.521c0,0,5.32-1.327,6.734,4.169
		c0,0,7.366-2.085,13.108,2.274c0,0,6.5,1.966,12.374,8.279c0,0,5.74-0.509,7.418,4.039c0,0,2.626-0.189,3.573,3.79
		c0,0,3.076,1.327,0.875,3.601c0,0,5.379-0.379,3.294,5.685c0,0,4.738,2.843,1.895,7.58c0,0,2.464,2.843-0.379,5.117
		c0,0,3.79,3.79,0.19,6.633c0,0,0.948,5.117-1.327,6.443c0,0,0.802,2.757-3.673,2.8c0,0,1.841,4.022-3.591,4.591
		c0,0,1.2,3.032-3.727,1.137c0,0-2.653,3.948-7.391,0.932c0,0-1.137,2.069-5.496,0c0,0,1.064,3.483-4.829,2.714
		c0,0-14.219,4.227-29.335-4.612c0,0-13.707-7.174-16.525-21.393c0,0-3.971,0.384-3.843-3.843c0,0-4.996-0.256-4.355-3.715
		C462.978,365.859,459.226,363.29,461.871,359.578z"/>
	<circle class="st1" cx="480.185" cy="151.499" r="4.277"/>
	<circle class="st12" cx="431.608" cy="238.572" r="4.878"/>
	<circle class="st13" cx="450.51" cy="238.572" r="4.878"/>
	<circle class="st14" cx="469.411" cy="238.572" r="4.878"/>
	<circle class="st1" cx="144.976" cy="180.223" r="4.277"/>
	<circle class="st1" cx="43.973" cy="467.09" r="4.277"/>
	<circle class="st1" cx="471.63" cy="495.83" r="4.277"/>
	<circle class="st1" cx="242.587" cy="584.862" r="4.277"/>
	<circle class="st1" cx="132.166" cy="512.519" r="4.277"/>
	<path class="st15" d="M113.734,357.598c5.16,8.854,7.353,16.329,7.667,22.587l0.95-0.22c16.816,5.935,14.913-11.012,13.123-17.628
		c-0.33-1.22-1.321-3.632-2.063-4.655c-10.818-14.905-25.535-17.089-31.404-18.723c-0.898-0.25-1.782-0.542-2.667-0.837
		c-27.022-9.017-41.48,8.196-46.328,15.752c-1.108,1.727-1.937,3.614-2.536,5.576c-2.289,7.499-4.719,10.641-5.852,11.784
		c-0.548,0.553-1.08,1.126-1.538,1.757c-12.118,16.7-7.956,28.447-7.956,28.447c7.12,18.152,22.734-2.839,25.428-6.675
		c-4.372-9.687-4.102-20.124-4.102-20.124"/>
	<path class="st15" d="M56.456,374.638c0,0-0.27,10.437,4.102,20.124c4.958,10.984,15.884,21.002,39.941,13.746
		c0.783-0.236,1.58-0.441,2.359-0.692c3.958-1.276,19.475-9.123,18.544-27.631c-0.315-6.258-2.508-13.733-7.667-22.587"/>
	<polygon class="st16" points="135.01,458.879 129.238,456.439 125.133,461.175 125.67,454.931 119.898,452.491 126.002,451.072 
		126.539,444.828 129.775,450.195 135.879,448.776 131.775,453.512 	"/>
	<polygon class="st16" points="45.947,248.657 41.883,243.887 36.09,246.278 39.37,240.939 35.306,236.168 41.398,237.638 
		44.679,232.299 45.163,238.547 51.255,240.017 45.463,242.408 	"/>
	<polygon class="st16" points="282.663,148.511 276.905,146.037 272.772,150.749 273.346,144.508 267.588,142.034 273.7,140.651 
		274.274,134.411 277.478,139.797 283.591,138.414 279.458,143.125 	"/>
	<polygon class="st16" points="521.222,257.551 515.464,255.077 511.332,259.789 511.905,253.548 506.147,251.074 512.26,249.691 
		512.833,243.45 516.038,248.836 522.15,247.453 518.018,252.165 	"/>
	<path class="st17" d="M481.563,480.685L481.563,480.685c-2.036-3.941-6.378-6.122-10.755-5.404h0
		c-9.787,1.607-15.912-10.249-8.939-17.302l0,0c3.119-3.154,3.852-7.958,1.816-11.898v0c-4.552-8.812,4.83-18.301,13.693-13.848l0,0
		c3.963,1.991,8.758,1.204,11.877-1.95l0,0c6.974-7.053,18.898-1.061,17.402,8.743l0,0c-0.669,4.385,1.561,8.702,5.525,10.693l0,0
		c8.862,4.453,6.849,17.645-2.938,19.252h0c-4.377,0.719-7.793,4.174-8.463,8.559v0
		C499.284,487.335,486.116,489.496,481.563,480.685z"/>
	<path class="st18" d="M84.598,382.349c0,0-1.66-1.548,0-3.525c0,0,1.685-2.406,6.146-2.386c0,0,3.055-0.021,3.045,2.26
		c0,0,0.461,1.723-2.833,4.171c-0.46,0.342-0.998,0.564-1.567,0.633C88.133,383.656,85.835,383.711,84.598,382.349z"/>
	<path class="st19" d="M89.987,383.363c0.687,4.513-0.729,6.129-2.558,6.513v0c0,0,9.528,12.149,8.167-2.75l0,0
		C92.072,388.072,89.987,383.363,89.987,383.363z"/>
	<path class="st11" d="M81.921,388.76c0,0,9.655,5.038,8.066-5.397c0,0,3.808,8.618,9.835,0.216"/>
	<path class="st18" d="M498.737,367.225c0,0-0.047-1.818,2.016-1.979c0,0,2.322-0.388,4.815,2.174c0,0,1.727,1.735,0.418,3.01
		c0,0-0.726,1.231-3.976,0.722c-0.454-0.071-0.883-0.254-1.242-0.54C499.975,369.98,498.653,368.697,498.737,367.225z"/>
	<path class="st19" d="M501.182,370.875c-2.194,2.927-3.914,3.024-5.16,2.194l0,0c0,0-1.597,12.269,6.158,3.125l0,0
		C499.661,374.711,501.182,370.875,501.182,370.875z"/>
	<path class="st11" d="M493.568,369.294c0,0,2.541,8.349,7.615,1.582c0,0-2.789,7.016,5.399,5.744"/>
	<circle class="st20" cx="74.955" cy="380.009" r="3.26"/>
	<polyline class="st11" points="101.364,368.054 96.804,374.1 105.626,374.1 	"/>
	<radialGradient id="SVGID_1_" cx="71.6955" cy="393.2861" r="7.7066" gradientUnits="userSpaceOnUse">
		<stop  offset="0.2941" style="stop-color:#E7AE9F"/>
		<stop  offset="1" style="stop-color:#FFEFCD;stop-opacity:0"/>
	</radialGradient>
	<circle class="st21" cx="71.695" cy="393.286" r="7.707"/>
	
		<radialGradient id="SVGID_00000134929045908256426260000015191946238146243215_" cx="111.7058" cy="380.9717" r="7.7066" gradientUnits="userSpaceOnUse">
		<stop  offset="0.2941" style="stop-color:#E7AE9F"/>
		<stop  offset="1" style="stop-color:#FFEFCD;stop-opacity:0"/>
	</radialGradient>
	<circle style="fill:url(#SVGID_00000134929045908256426260000015191946238146243215_);" cx="111.706" cy="380.972" r="7.707"/>
	
		<radialGradient id="SVGID_00000145055650274771390580000011080955803498077337_" cx="485.6071" cy="365.2245" r="7.7066" gradientUnits="userSpaceOnUse">
		<stop  offset="0.2941" style="stop-color:#E7AE9F"/>
		<stop  offset="1" style="stop-color:#FFEFCD;stop-opacity:0"/>
	</radialGradient>
	<circle style="fill:url(#SVGID_00000145055650274771390580000011080955803498077337_);" cx="485.607" cy="365.225" r="7.707"/>
	
		<radialGradient id="SVGID_00000018918162013625648280000008890503205960610742_" cx="516.4462" cy="379.5816" r="7.7066" gradientUnits="userSpaceOnUse">
		<stop  offset="0.2941" style="stop-color:#E7AE9F"/>
		<stop  offset="1" style="stop-color:#FFEFCD;stop-opacity:0"/>
	</radialGradient>
	<circle style="fill:url(#SVGID_00000018918162013625648280000008890503205960610742_);" cx="516.446" cy="379.582" r="7.707"/>
	<g>
		<path class="st25" d="M389.173,181.577c0,0-1.887-2.949-1.698-5.791c0.161-2.419,2.623-4.14,4.964-3.51
			c1.659,0.447,3.353,1.948,3.474,6.172c0,0,2.268-4.013,6.655-3.869c1.836,0.06,3.505,1.31,3.753,3.13
			c0.237,1.735-0.73,3.898-6.076,5.071c0,0,4.113,1.507,5.728,4.611c1.452,2.789-1.1,6.058-4.156,5.32
			c-1.312-0.317-2.906-1.104-4.78-2.71c0,0,1.126,3.606-0.698,5.972c-2.329,3.022-7.21,1.076-7.212-2.74
			c-0.001-1.116,0.217-2.494,0.767-4.195c0,0-8.665,1.59-8.425-4.019C381.47,185.02,381.47,178.689,389.173,181.577z"/>
		<circle class="st26" cx="395.296" cy="184.22" r="2.224"/>
	</g>
	<g>
		<path class="st25" d="M533.722,310.486c0,0-1.887-2.949-1.698-5.791c0.161-2.419,2.623-4.14,4.964-3.51
			c1.659,0.447,3.353,1.948,3.474,6.172c0,0,2.268-4.013,6.655-3.869c1.836,0.06,3.505,1.31,3.753,3.13
			c0.237,1.735-0.73,3.898-6.076,5.071c0,0,4.113,1.507,5.728,4.611c1.452,2.789-1.1,6.058-4.156,5.32
			c-1.312-0.317-2.906-1.104-4.78-2.71c0,0,1.126,3.606-0.698,5.972c-2.329,3.022-7.21,1.076-7.212-2.74
			c-0.001-1.116,0.217-2.494,0.767-4.195c0,0-8.665,1.59-8.425-4.019C526.02,313.929,526.02,307.597,533.722,310.486z"/>
		<circle class="st26" cx="539.845" cy="313.128" r="2.224"/>
	</g>
	<g>
		
			<ellipse transform="matrix(0.9603 -0.2791 0.2791 0.9603 -63.321 145.2045)" class="st27" cx="478.212" cy="294.948" rx="44.124" ry="16.467"/>
		<g>
			<path d="M459.574,307.428l-3.009-10.351l-2.452,2.542l-1.654-1.543l3.624-3.66l2.027-0.589l3.76,12.934L459.574,307.428z"/>
			<path d="M468.378,297.69c0.26-0.49,0.455-0.911,0.587-1.26c0.132-0.35,0.218-0.653,0.26-0.912
				c0.041-0.258,0.046-0.487,0.014-0.685c-0.031-0.198-0.073-0.387-0.126-0.567l-0.042-0.143c-0.101-0.347-0.332-0.62-0.695-0.819
				c-0.363-0.199-0.879-0.202-1.549-0.007c-0.239,0.069-0.468,0.162-0.687,0.277c-0.22,0.116-0.424,0.272-0.613,0.47
				c-0.188,0.198-0.359,0.449-0.51,0.752c-0.152,0.303-0.282,0.672-0.39,1.105l-2.051-0.629c0.076-0.32,0.182-0.676,0.323-1.067
				c0.139-0.391,0.346-0.772,0.621-1.143c0.274-0.371,0.627-0.718,1.06-1.038c0.432-0.32,0.977-0.576,1.636-0.767
				c0.73-0.212,1.383-0.305,1.962-0.279c0.578,0.027,1.082,0.143,1.512,0.348c0.429,0.206,0.783,0.486,1.061,0.839
				c0.278,0.354,0.481,0.752,0.61,1.195l0.052,0.179c0.205,0.706,0.242,1.424,0.112,2.156c-0.131,0.732-0.414,1.492-0.846,2.279
				l-2.687,4.945l6.153-1.789l0.553,1.901l-9.149,2.66l-0.501-1.722L468.378,297.69z"/>
			<path d="M479.803,285.926l-0.826,17.906l-2.206,0.641l0.808-17.901L479.803,285.926z"/>
			<path d="M482.366,288.586c0.267-0.687,0.65-1.288,1.149-1.803c0.499-0.514,1.215-0.907,2.147-1.179
				c0.61-0.177,1.183-0.259,1.719-0.246c0.536,0.013,1.018,0.109,1.445,0.29c0.429,0.18,0.797,0.443,1.105,0.788
				c0.307,0.345,0.531,0.757,0.67,1.235l0.052,0.179c0.073,0.251,0.125,0.531,0.157,0.84c0.032,0.309,0.014,0.618-0.051,0.929
				c-0.066,0.311-0.184,0.615-0.358,0.911c-0.174,0.297-0.425,0.571-0.753,0.823c0.906-0.095,1.639,0.062,2.199,0.47
				c0.559,0.409,0.947,0.983,1.163,1.725l0.078,0.269c0.143,0.491,0.184,0.99,0.124,1.501c-0.058,0.51-0.233,0.995-0.52,1.455
				c-0.288,0.46-0.697,0.881-1.228,1.262c-0.532,0.381-1.192,0.687-1.981,0.916c-0.753,0.219-1.514,0.314-2.281,0.284
				c-0.767-0.03-1.527-0.201-2.28-0.514l0.608-2.122c0.377,0.137,0.717,0.246,1.019,0.326c0.303,0.081,0.586,0.131,0.852,0.151
				c0.265,0.02,0.516,0.015,0.755-0.015c0.237-0.03,0.488-0.084,0.75-0.16c0.813-0.236,1.365-0.572,1.653-1.006
				c0.289-0.435,0.35-0.938,0.183-1.512l-0.068-0.233c-0.184-0.634-0.504-1.043-0.96-1.229c-0.456-0.185-1.096-0.158-1.922,0.082
				l-1.741,0.506l-0.574-1.974l1.543-0.448c0.407-0.118,0.726-0.26,0.956-0.424c0.232-0.165,0.395-0.348,0.492-0.552
				c0.096-0.203,0.138-0.429,0.124-0.678c-0.014-0.248-0.061-0.51-0.141-0.786l-0.042-0.143c-0.143-0.491-0.405-0.8-0.785-0.93
				c-0.382-0.129-0.842-0.115-1.38,0.041c-0.55,0.16-0.966,0.391-1.248,0.694c-0.281,0.302-0.521,0.651-0.718,1.045L482.366,288.586
				z"/>
			<path d="M504.304,288.492c0.535,1.842,0.554,3.361,0.059,4.555c-0.495,1.195-1.527,2.02-3.094,2.475
				c-1.543,0.448-2.876,0.304-3.997-0.433c-1.123-0.737-1.948-2.014-2.477-3.833l-0.584-2.009c-0.528-1.818-0.519-3.335,0.029-4.552
				c0.548-1.216,1.582-2.045,3.101-2.487c1.53-0.445,2.845-0.298,3.941,0.44c1.096,0.739,1.909,2.017,2.438,3.835L504.304,288.492z
				 M501.4,287.138c-0.216-0.741-0.458-1.319-0.728-1.734c-0.27-0.414-0.551-0.712-0.843-0.893c-0.293-0.181-0.598-0.27-0.915-0.269
				c-0.318,0.002-0.631,0.048-0.942,0.138c-0.299,0.087-0.584,0.215-0.852,0.383c-0.268,0.169-0.482,0.413-0.643,0.732
				c-0.16,0.319-0.246,0.727-0.257,1.223c-0.011,0.497,0.089,1.11,0.301,1.839l0.594,2.045c0.216,0.742,0.464,1.318,0.746,1.729
				c0.282,0.411,0.578,0.707,0.89,0.889c0.312,0.181,0.63,0.271,0.954,0.268c0.323-0.003,0.634-0.049,0.933-0.135
				c0.311-0.09,0.598-0.219,0.861-0.386c0.262-0.167,0.466-0.405,0.61-0.713c0.144-0.307,0.216-0.708,0.214-1.2
				c0-0.493-0.11-1.116-0.329-1.87L501.4,287.138z"/>
		</g>
	</g>
	<line class="st11" x1="109.383" y1="257.444" x2="479.803" y2="257.444"/>
	<path class="st1" d="M176.167,533.72c0,0,0.961-7.719-5.301-13.137c-1.551-1.342-3.423-2.25-5.434-2.657
		c-4.159-0.84-11.744-0.901-15.431,8.318c0,0-11.434,4.025-8.037,16.667c0.578,2.152,1.819,4.069,3.621,5.382
		c2.406,1.753,6.591,3.743,13.188,3.743l17.439,17.569c0,0-2.052,7.987,2.777,12.991c1.555,1.611,3.671,2.542,5.896,2.798
		c4.284,0.494,12.584,0.039,17.453-9.434c0,0,12.803-5.991,6.308-18.617c-0.629-1.222-1.474-2.335-2.522-3.225
		c-2.04-1.733-5.913-3.941-12.062-3.387L176.167,533.72z"/>
	<path class="st28" d="M187.161,579.855c-0.538,0-1.085-0.031-1.625-0.094c-1.018-0.117-1.894-0.509-2.467-1.104
		c-2.487-2.577-1.366-7.636-1.354-7.687l0.733-3.07l-2.212-2.29l-19.102-19.244h-2.361c-5.127,0-8.187-1.444-9.85-2.656
		c-0.701-0.511-1.228-1.316-1.483-2.27c-1.791-6.666,2.559-9.126,4.513-9.874l2.426-0.854l0.887-2.363
		c1.413-3.531,3.495-5.106,6.75-5.106c0.732,0,1.504,0.081,2.294,0.24c1.062,0.215,2.045,0.694,2.846,1.387
		c3.803,3.29,3.396,8.025,3.377,8.225l-0.354,2.839l2.083,1.896l19.755,18.777l2.555-0.23c0.472-0.043,0.939-0.064,1.388-0.064
		c3.302,0,5.093,0.851,6.495,2.125c0.43,0.391,0.87,1.011,1.15,1.497c1.305,2.262,1.501,4.281,0.938,5.987
		c-0.373,1.127-1.115,2.115-1.918,2.911c-1.3,1.29-3.039,2.042-4.862,2.207l-1.733,0.157l-0.087,1.268
		c-0.094,1.358-0.514,2.686-1.263,3.822C192.86,579.046,190.952,579.855,187.161,579.855z"/>
	<path class="st29" d="M325.459,549.439c0,0-7.505-17.495-16.443,0c0,0-6.656,19.207,14.453,24.912c0,0,19.207,2.472,25.292-2.092
		c0,0,16.545-6.656,9.318-24.722c0,0-7.417-14.263-15.974,1.902C342.105,549.439,335.816,532.133,325.459,549.439z"/>
	<path class="st11" d="M392.104,486.23c0,0,22.327-3.996,12.089,14.218c-0.95,1.69-3.442,2.587-5.1,1.288
		c-1.228-0.962-0.271-3.556,2.738-5.442c0.272-0.171,1-0.588,1.618-0.856c2.458-1.062,14.027-3.929,14.824,7.492"/>
	<path class="st30" d="M366.287,506.589c3.004-3.265,5.992-5.108,8.675-6.107l-0.163-0.375c0,0-23.752-16.035-29.655-0.658
		c0,0-2.197,10.434,11.945,10.709c0,0,1.891,0.128,3.419,0.566C364.993,508.371,366.287,506.589,366.287,506.589z"/>
	<path class="st31" d="M520.879,514.964c0,0,4.311-13.836-1.546-19.232c-2.295-2.114-5.853,0.826-4.213,3.479
		c0.021,0.034,0.043,0.069,0.065,0.103c0.551,0.849,1.051,1.734,1.34,2.705c1.045,3.517,2.054,11.365-5.971,19.101
		c-0.531,0.512-1.383,0.464-1.833-0.121c-1.992-2.584-8.106-8.873-20.929-9.742c0,0-9.18-1.116-25.063,3.961
		c-1.342,0.429-2.66,0.944-3.933,1.546c-5.26,2.485-24.559,10.253-44.456,1.358c0,0-16.517-10.563-27.69-17.11
		c-1.525-0.894-3.225-1.459-4.99-1.565c-1.76-0.106-4.083,0.063-6.698,1.036c-2.683,0.999-5.671,2.842-8.675,6.107
		c0,0-1.294,1.782-5.78,4.136c-1.511,0.793-3.373,1.648-5.682,2.525c-1.192,0.452-2.312,1.085-3.311,1.878
		c-2.936,2.33-7.62,7.208-1.737,11.188c1.822,1.233,4.056,1.678,6.246,1.47c3.768-0.358,10.536-0.417,12.591,3.402l11.312,25.07
		c0,0,3.013,7.282-2.793,11.378c-1.655,1.168-2.855,2.9-3.064,4.915c-0.177,1.709,0.034,3.625,1.417,4.882
		c0,0,1.382,3.158,5.222,1.51c0,0,2.192,2.059,6.86-2.059c0,0,9.748-7.826,11.533-10.022c0,0,9.935-1.355,18.729,0.254
		c2.512,0.46,12.379,1.904,15.042,1.947c10.316,0.168,33.471-0.095,42.003-5.45c1.123-0.705,2.395-1.131,3.709-1.313l0.089-0.012
		c2.25-0.304,4.505,0.568,5.998,2.278c1.525,1.747,3.217,4.372,1.611,6.14c0,0-5.467,5.286-0.674,8.752c0,0,2.871,4.359,6.029,0
		c0,0,2.746,2.231,4.805-1.613c0,0,3.844,0.824,4.531-8.649c0,0,0-3.787,2.709-6.144c1.316-1.145,2.629-2.299,3.721-3.66
		c2.51-3.129,5.824-8.525,5.653-15.046c0,0,4.144-8.653,0.03-15.855c-0.448-0.784-0.34-1.766,0.301-2.401
		C515.419,524.073,519.553,519.556,520.879,514.964z"/>
	<path class="st30" d="M378.767,514.388c-0.93,3.56-2.451,11.587,0.091,19.351c1.012,3.092,3.339,5.655,6.405,6.745
		c2.098,0.746,4.582,0.912,6.782-0.856c1.308-1.051,2.473-3.19,2.757-4.233c0.554-2.033,1.172-5.341-1.584-10.579
		c-0.137-0.261-0.679-1.425-1.292-2.753c-0.622-1.347-2.466-5.913-4.065-10.995c-0.315-1.002-0.879-1.929-1.71-2.573
		c-1.241-0.961-3.196-1.454-5.446,1.673C379.794,511.434,379.161,512.88,378.767,514.388z"/>
	<path class="st11" d="M366.379,513.455c0,0,1.206-1.707,3.425-1.126c0.398,0.104,0.766,0.289,1.083,0.553
		c0.565,0.47,1.27,1.37,0.789,2.732"/>
	<path class="st11" d="M347.537,524.061c0,0,5.894,2.147,7.463-0.796"/>
	<path class="st11" d="M375.485,577.432c0,0-0.992-1.513,3.399-4.707"/>
	<path class="st11" d="M380.707,578.943c0,0-0.825-2.424,2.769-4.62"/>
	<path class="st11" d="M485.607,579.457c0,0-0.424-2.44,1.772-5.235"/>
	<line class="st11" x1="491.636" y1="579.457" x2="491.636" y2="575.42"/>
	<path class="st11" d="M496.441,577.844c0,0-0.519-1.626,0-3.622"/>
	<path class="st11" d="M482.849,562.742c0,0-11.44-9.979-10.442-20.259"/>
	<path class="st11" d="M399.1,566.861c0,0,6.933-5.115,9.428-9.506"/>
	
		<radialGradient id="SVGID_00000102514349713482782470000014437317583898181765_" cx="371.8037" cy="519.2763" r="2.8582" gradientTransform="matrix(1.5342 0 0 1.1979 -199.9419 -102.3806)" gradientUnits="userSpaceOnUse">
		<stop  offset="0.2941" style="stop-color:#E7AE9F"/>
		<stop  offset="1" style="stop-color:#FFEFCD;stop-opacity:0"/>
	</radialGradient>
	
		<ellipse style="fill:url(#SVGID_00000102514349713482782470000014437317583898181765_);" cx="370.497" cy="519.638" rx="5.532" ry="2.189"/>
	
		<radialGradient id="SVGID_00000067936925184471531850000004991323880712756352_" cx="263.2478" cy="263.6154" r="2.8582" gradientTransform="matrix(1.7901 0.4528 -0.4475 1.7691 -148.3768 -371.7297)" gradientUnits="userSpaceOnUse">
		<stop  offset="0.2941" style="stop-color:#E7AE9F"/>
		<stop  offset="1" style="stop-color:#FFEFCD;stop-opacity:0"/>
	</radialGradient>
	<path style="fill:url(#SVGID_00000067936925184471531850000004991323880712756352_);" d="M211.355,215.48
		c-0.452,1.785-3.707,2.502-7.272,1.6c-3.565-0.902-6.088-3.08-5.636-4.866s3.707-2.502,7.272-1.6
		C209.283,211.516,211.807,213.695,211.355,215.48z"/>
	
		<radialGradient id="SVGID_00000178918435832671449220000005136748091738742954_" cx="277.5979" cy="263.6154" r="2.8582" gradientTransform="matrix(1.818 -0.3232 0.3194 1.7967 -357.4883 -170.0548)" gradientUnits="userSpaceOnUse">
		<stop  offset="0.2941" style="stop-color:#E7AE9F"/>
		<stop  offset="1" style="stop-color:#FFEFCD;stop-opacity:0"/>
	</radialGradient>
	<path style="fill:url(#SVGID_00000178918435832671449220000005136748091738742954_);" d="M237.954,212.682
		c0.322,1.813-2.351,3.805-5.971,4.449c-3.62,0.644-6.816-0.305-7.138-2.118s2.351-3.805,5.971-4.449
		C234.435,209.921,237.631,210.869,237.954,212.682z"/>
	
		<radialGradient id="SVGID_00000096048884929973287860000014610749500373889154_" cx="455.6688" cy="469.8842" r="2.8582" gradientTransform="matrix(1.3684 0.6938 -0.5417 1.0684 131.0531 -357.9059)" gradientUnits="userSpaceOnUse">
		<stop  offset="0.2941" style="stop-color:#E7AE9F"/>
		<stop  offset="1" style="stop-color:#FFEFCD;stop-opacity:0"/>
	</radialGradient>
	<path style="fill:url(#SVGID_00000096048884929973287860000014610749500373889154_);" d="M505,462.756
		c-0.547,1.078-3.199,0.832-5.924-0.549c-2.725-1.382-4.491-3.376-3.944-4.454c0.547-1.078,3.199-0.832,5.924,0.549
		S505.547,461.677,505,462.756z"/>
	
		<radialGradient id="SVGID_00000105413213652227882210000007730874753091752590_" cx="438.5507" cy="469.8951" r="2.8582" gradientTransform="matrix(1.3287 0.7671 -0.5989 1.0374 175.3958 -375.4909)" gradientUnits="userSpaceOnUse">
		<stop  offset="0.2941" style="stop-color:#E7AE9F"/>
		<stop  offset="1" style="stop-color:#FFEFCD;stop-opacity:0"/>
	</radialGradient>
	<path style="fill:url(#SVGID_00000105413213652227882210000007730874753091752590_);" d="M481.454,451.154
		c-0.604,1.047-3.239,0.657-5.885-0.87c-2.646-1.527-4.3-3.615-3.696-4.661c0.604-1.047,3.239-0.657,5.885,0.87
		C480.403,448.02,482.058,450.107,481.454,451.154z"/>
	<path class="st26" d="M187.926,294.25c-0.5-1.097-4.704-1.705-11.547-0.286c2.267,2.492,3.783,5.675,4.167,9.206
		C186.12,298.928,188.426,295.348,187.926,294.25z"/>
	<path class="st26" d="M140.698,315.78c0.501,1.099,4.724,1.706,11.592,0.276c-2.29-2.474-3.828-5.649-4.242-9.175
		C142.494,311.113,140.198,314.684,140.698,315.78z"/>
	<path class="st37" d="M155.864,318.965c2.463,1.484,5.338,2.354,8.423,2.354c8.07,0,14.76-5.849,16.101-13.535
		c-3.407,2.311-7.408,4.564-11.817,6.574C164.164,316.366,159.841,317.908,155.864,318.965z"/>
	<path class="st4" d="M191.795,292.486c-1.664-3.649-9.263-4-18.938-1.447c1.309,0.808,2.492,1.792,3.522,2.924
		c6.842-1.418,11.046-0.81,11.547,0.286c0.501,1.098-1.805,4.678-7.379,8.92c-3.31,2.519-7.77,5.271-13.485,7.877
		c-5.707,2.602-10.702,4.162-14.771,5.009c-6.869,1.43-11.091,0.824-11.592-0.276c-0.5-1.096,1.797-4.667,7.351-8.9
		c-0.074-0.632-0.123-1.271-0.123-1.923c0-0.908,0.093-1.793,0.235-2.661c-8.275,5.629-12.996,11.597-11.332,15.247
		c1.669,3.662,9.314,4.003,19.035,1.421c3.977-1.056,8.3-2.599,12.707-4.608c4.409-2.01,8.41-4.263,11.817-6.574
		C188.71,302.139,193.464,296.146,191.795,292.486z"/>
	<path class="st37" d="M176.379,293.963c-1.03-1.132-2.213-2.116-3.522-2.924c-2.495-1.539-5.423-2.443-8.57-2.443
		c-8.128,0-14.853,5.933-16.126,13.701c-0.142,0.868-0.235,1.753-0.235,2.661c0,0.652,0.049,1.291,0.123,1.923
		c0.414,3.526,1.951,6.701,4.242,9.175c4.069-0.847,9.065-2.408,14.771-5.009c5.715-2.606,10.175-5.358,13.485-7.877
		C180.162,299.638,178.646,296.455,176.379,293.963z"/>
	<polyline class="st11" points="492.009,355.122 494.868,360.204 488.992,360.204 	"/>
	<polyline class="st11" points="520.594,369.097 514.56,369.097 517.828,374.655 	"/>
	<path class="st11" d="M477.399,355.122c0,0-4.129,1.112-2.858,5.876c0,0-4.129,1.112-2.541,6.511"/>
	<path class="st11" d="M530.281,379.42c0,0,2.7,5.876-3.176,6.035c0,0,2.382,6.829-3.335,5.717"/>
	<polyline class="st11" points="481.588,442.661 485.052,446.002 480.103,446.002 	"/>
	<polyline class="st11" points="501.88,452.437 497.055,452.437 500.024,455.406 	"/>
	<path class="st26" d="M486.911,452.21l4.35,2.742c0.465,0.293,0.655,0.866,0.474,1.386c-0.241,0.693-0.696,1.64-1.517,2.371
		c-3.076,2.737-7.801-1.094-5.777-4.679c0.3-0.532,0.717-1.09,1.281-1.668C486.035,452.04,486.531,451.97,486.911,452.21z"/>
	<circle class="st38" cx="208.008" cy="207.07" r="2.21"/>
	<circle class="st38" cx="227.319" cy="207.07" r="2.21"/>
	<circle class="st39" cx="73.199" cy="379.47" r="1.074"/>
	<circle class="st39" cx="207.537" cy="206.197" r="0.872"/>
	<circle class="st39" cx="226.923" cy="206.197" r="0.872"/>
	<path class="st40" d="M215.682,211.174c0.973-0.537,2.805-0.826,4.611,0.036c0.828,0.395,1.045,1.866,0.296,2.524
		c-0.525,0.462-1.346,0.815-2.628,0.792c0,0-1.526,0.03-2.587-0.864C214.62,213.026,214.884,211.614,215.682,211.174z"/>
</g>
</svg>
