<?xml version="1.0" encoding="utf-8"?>
<!-- Generator: Adobe Illustrator 25.1.0, SVG Export Plug-In . SVG Version: 6.00 Build 0)  -->
<svg version="1.1" xmlns="http://www.w3.org/2000/svg" xmlns:xlink="http://www.w3.org/1999/xlink" x="0px" y="0px"
	 viewBox="0 0 595.276 841.89" style="enable-background:new 0 0 595.276 841.89;" xml:space="preserve">
<style type="text/css">
	.st0{clip-path:url(#SVGID_2_);fill:#75B83C;}
	.st1{clip-path:url(#SVGID_2_);fill:url(#SVGID_3_);}
	.st2{clip-path:url(#SVGID_2_);fill:#98C21D;stroke:#FFFFFF;stroke-width:2;stroke-miterlimit:10;}
	.st3{clip-path:url(#SVGID_2_);fill:#FFFFFF;}
	.st4{clip-path:url(#SVGID_2_);fill:#FCDF61;}
	.st5{clip-path:url(#SVGID_2_);fill:#FFFFFF;stroke:#FFFFFF;stroke-width:4;stroke-miterlimit:10;}
	.st6{clip-path:url(#SVGID_2_);fill:#7E5035;}
	.st7{clip-path:url(#SVGID_2_);fill:#F9C093;}
	.st8{clip-path:url(#SVGID_2_);}
	.st9{fill:#329437;}
	.st10{fill:#FFFFFF;stroke:#224E23;stroke-miterlimit:10;}
	.st11{fill:#224E23;}
	.st12{fill:#F2E74F;}
	.st13{fill:#FDD31B;}
	.st14{fill:#F4B817;}
	.st15{clip-path:url(#SVGID_2_);fill:#297043;}
	.st16{fill:none;}
	.st17{clip-path:url(#SVGID_2_);fill:#F2E74F;}
	.st18{clip-path:url(#SVGID_2_);fill:#FDD31B;}
	.st19{clip-path:url(#SVGID_2_);fill:#F4B817;}
	.st20{clip-path:url(#SVGID_2_);fill:#FAC291;}
	.st21{clip-path:url(#SVGID_2_);fill:none;stroke:#000000;stroke-linecap:round;stroke-linejoin:round;stroke-miterlimit:10;}
	.st22{clip-path:url(#SVGID_2_);fill:#25110D;}
	.st23{clip-path:url(#SVGID_2_);fill:#331B12;}
	.st24{clip-path:url(#SVGID_2_);fill:none;stroke:#331B12;stroke-linecap:round;stroke-linejoin:round;stroke-miterlimit:10;}
	.st25{clip-path:url(#SVGID_2_);fill:none;stroke:#381810;stroke-linecap:round;stroke-linejoin:round;stroke-miterlimit:10;}
	.st26{clip-path:url(#SVGID_2_);fill:none;}
	.st27{clip-path:url(#SVGID_2_);fill:#734D39;}
	.st28{clip-path:url(#SVGID_2_);fill:none;stroke:#311E12;stroke-linecap:round;stroke-linejoin:round;stroke-miterlimit:10;}
	.st29{clip-path:url(#SVGID_2_);fill:#316D33;}
	.st30{fill:#1E4A22;}
	.st31{fill:none;stroke:#2B682D;stroke-linecap:round;stroke-linejoin:round;stroke-miterlimit:10;}
	.st32{clip-path:url(#SVGID_2_);fill:url(#SVGID_4_);stroke:#FFFFFF;stroke-width:2;stroke-miterlimit:10;}
	.st33{clip-path:url(#SVGID_2_);fill:url(#SVGID_5_);stroke:#FFFFFF;stroke-width:2;stroke-miterlimit:10;}
	.st34{clip-path:url(#SVGID_2_);fill:url(#SVGID_6_);stroke:#FFFFFF;stroke-width:2;stroke-miterlimit:10;}
	.st35{clip-path:url(#SVGID_2_);fill:url(#SVGID_7_);stroke:#FFFFFF;stroke-width:2;stroke-miterlimit:10;}
	.st36{clip-path:url(#SVGID_2_);fill:#1F4423;stroke:#FFFFFF;stroke-width:3;stroke-miterlimit:10;}
	.st37{fill:none;stroke:#5E9330;stroke-width:3;stroke-linecap:round;stroke-linejoin:round;stroke-miterlimit:10;}
</style>
<g id="Layer_1">
	
		<image style="overflow:visible;" width="385" height="601" xlink:href="../jQuery/pf/img/image03.JPG"  transform="matrix(1.4008 0 0 1.4008 27.9809 0.5551)">
	</image>
</g>
<g id="Layer_2">
	<g>
		<defs>
			<rect id="SVGID_1_" x="0" y="0" width="595.276" height="841.89"/>
		</defs>
		<clipPath id="SVGID_2_">
			<use xlink:href="#SVGID_1_"  style="overflow:visible;"/>
		</clipPath>
		<rect x="-1.354" y="-0.347" class="st0" width="597.984" height="842.583"/>
		
			<radialGradient id="SVGID_3_" cx="305.8024" cy="121.6223" r="82.9129" gradientTransform="matrix(1.1771 0 0 0.7501 -51.2182 31.4243)" gradientUnits="userSpaceOnUse">
			<stop  offset="0" style="stop-color:#FFFFFF"/>
			<stop  offset="1" style="stop-color:#F6F6F6;stop-opacity:0"/>
		</radialGradient>
		<ellipse class="st1" cx="308.74" cy="122.652" rx="110.302" ry="69.644"/>
		<path class="st2" d="M397.777,345.959c5.801,0,8.083,4.297,8.083,8.389c0,4.195-2.377,8.389-8.083,8.389h-34.519
			c-11.221,0-15.595-4.399-15.595-16.471v-20.462c0-12.072,4.374-16.266,15.595-16.266h13.828c1.554,0,2.814-1.26,2.814-2.814
			v-12.226c0-1.33-0.38-2.66-2.377-2.66h-21.016c-5.706,0-8.083-4.297-8.083-8.491c0-4.093,2.283-8.594,8.083-8.594h26.531
			c12.458,0,15.786,3.785,15.786,14.732V323.4c0,1.554-1.26,2.813-2.814,2.813h-25.24c-3.138,0-4.184,0.819-4.184,4.195v11.356
			c0,3.376,1.046,4.195,4.184,4.195H397.777z M432.012,306.776c5.801,0,7.512,4.809,7.512,8.901c0,4.195-1.806,8.901-7.512,8.901
			h-0.61c-1.554,0-2.813,1.26-2.813,2.814v36.83c0,1.554-1.26,2.814-2.814,2.814h-13.392c-1.554,0-2.814-1.26-2.814-2.814v-83.124
			c0-6.65,4.469-10.128,9.509-10.128c5.04,0,9.509,3.478,9.509,10.128v22.865c0,1.554,1.26,2.814,2.813,2.814H432.012z"/>
		<path class="st2" d="M137.325,189.529c0,0-11.914-35.61,12.675-37.388h310.938c3.242,0,6.48,0.585,9.436,1.917
			c0.071,0.032,0.141,0.064,0.212,0.097c5.072,2.354,8.255,7.513,8.271,13.104l0.054,19.109c0,0,9.335,6.305-0.067,13.39
			c0,0,8.932,7.139,0.067,15.341c0,0,8.384,19.114-6.934,33.855l-14.381,22.271l-50.335,44.637L137.325,189.529z"/>
		<path class="st3" d="M234.062,141.843c0,0,49.263-102.431,138.628-28.837L234.062,141.843z"/>
		<path class="st2" d="M255.752,309.566c5.135,0,7.417,3.172,7.417,7.366c0,4.297-2.377,7.366-7.417,7.366h-74.174
			c-5.04,0-7.417-3.069-7.417-7.366c0-4.195,2.283-7.366,7.417-7.366h27.387v-4.195h-17.783c-11.316,0-13.599-3.99-13.599-15.653
			v-12.072c0-6.855,4.374-9.719,9.415-9.719c3.899,0,7.798,2.251,8.939,6.855h13.884c1.046-4.604,4.755-6.445,8.844-6.445
			c3.994,0,7.703,1.943,8.844,6.445h13.694c1.046-4.706,4.85-6.855,9.034-6.855c4.85,0,9.319,2.967,9.319,9.719v27.725h-31.191
			v4.195H255.752z M258.89,335.347v20.71c0,4.496-3.645,8.141-8.141,8.141h-58.711c-11.507,0-13.599-3.683-13.599-15.551v-13.3
			c0-6.65,4.66-8.798,9.7-8.798c4.279,0,8.368,2.046,9.224,7.059h42.508c0.76-5.32,4.85-7.059,9.414-7.059
			C254.135,326.549,258.89,328.8,258.89,335.347z M196.317,289.309c0,2.046,0.666,3.069,2.853,3.069h10.27v-5.422h-13.123V289.309z
			 M239.776,351.103v-5.218h-42.222v2.046c0,2.047,0.666,3.172,2.948,3.172H239.776z M227.889,292.379h13.028v-5.422h-13.028
			V292.379z"/>
		<path class="st4" d="M390.32,111.432c-0.569-2.598-0.77-5.006-0.755-7.174c-16.445,10.963-45.465,2.881-45.465,2.881
			c-39.754-18.125-99.332,24.343-106.661,29.751c-0.517,0.382-1.082,0.698-1.667,0.965c-18.35,8.38-19.367,24.526-18.723,32.465
			c0.229,2.823,1.324,5.504,3.087,7.721l4.285,5.388c2.453,3.085,6.179,4.883,10.12,4.883h135.034l51.124-49.646
			c0.512-0.105,1.011-0.218,1.511-0.33c-5.841-0.892-10.631-2.623-14.423-4.555C398.961,129.284,392.438,121.107,390.32,111.432z"/>
		<polygon class="st5" points="129.066,247.19 172.025,289.458 419.486,287.747 467.538,244.193 		"/>
		<path class="st2" d="M315.444,300.177v37.853c0,17.699-10.936,27.316-26.247,27.316c-15.405,0-26.436-9.617-26.436-27.316v-37.853
			c0-17.597,10.936-27.316,26.341-27.316C304.508,272.862,315.444,282.478,315.444,300.177z M297.186,299.154
			c0-6.343-3.899-9.719-8.083-9.617c-4.279,0.103-8.083,3.376-8.083,9.617v39.797c0,6.548,3.804,9.719,8.083,9.719
			c4.184,0,8.083-3.171,8.083-9.719V299.154z M347.206,307.032c5.801,0,7.512,4.809,7.512,8.901c0,4.195-1.807,8.901-7.512,8.901
			h-0.477c-1.628,0-2.947,1.32-2.947,2.947v36.563c0,1.628-1.32,2.947-2.947,2.947h-13.124c-1.628,0-2.947-1.32-2.947-2.947v-82.99
			c0-6.65,4.469-10.128,9.509-10.128c5.04,0,9.509,3.478,9.509,10.128v22.731c0,1.628,1.32,2.947,2.947,2.947H347.206z"/>
		<path class="st6" d="M338.771,101.789c0,0-3.046-6.837,4.838-7.545c0,0-2.202-7.699,3.987-9.877c0,0-1.719-8.482,3.439-10.545
			c0,0,1.455-5.302-1.871-9.767c-0.219-0.295-0.025-0.715,0.341-0.744c3.088-0.242,13.485-0.685,17.496,3.852
			c0.373,0.422,0.547,0.981,0.451,1.536c-0.296,1.711-1.59,5.44-7.248,5.352c0,0,1.375,11.118-6.075,11.347
			c0,0,3.897,6.955-4.126,10.297C350.004,95.696,352.64,108.551,338.771,101.789z"/>
		<path class="st6" d="M271.721,108.093c0,0,4.355-2.636,9.399,0c5.043,2.636,4.407,9.406-5.476,9.975c0,0-7.934,1.435-8.278-4.958
			c0,0-8.596-0.777-6.992-8.685c0,0-9.055-1.45-8.367-9.379c0,0-8.505-0.983-10.463-3.559c-0.228-0.3-0.199-0.724,0.031-1.022
			c1.55-2.002,8.186-9.962,16.101-10.537c0.442-0.032,0.835,0.277,0.937,0.707c0.391,1.655,1.19,5.76,0.385,8.889
			c0,0,5.96,1.287,6.419,9.527C265.417,99.051,272.867,102.935,271.721,108.093z"/>
		<path class="st7" d="M354.537,113.617c-2.759-7.149-10.437-6.478-10.437-6.478l0,0.002c-0.396-1.498-0.897-2.953-1.484-4.363
			c-0.185,3.251-1.081,5.504-1.081,5.504c-11.986-3.334-19.576-13.286-19.576-13.286c0.884,6.038,10.856,14.223,10.856,14.223
			l-9.341,0.056c-3.663-1.786-9.407-14.279-9.407-14.279c-0.819,3.638,6.055,16.064,6.055,16.064l-12.435,0.631
			c1.642,0.126-0.631-17.808-0.631-17.808c-2.273,2.273-3.031,19.226-3.031,19.226h-10.735l1.263-9.743
			c-5.305,12.009-16.166,17.291-16.166,17.291c-0.671-0.559-1.118-1.742-1.409-3.244c-1.239,0.56-17.811,8.278-5.973,15.768
			c0,0,3.258,3.072,11.286,0.846c0.002-0.001,0.004-0.001,0.006-0.002c0.001,0.002,0.003,0.004,0.004,0.006
			c6.037,9.569,16.694,15.931,28.844,15.931c3.107,0,6.117-0.416,8.977-1.195c0,0,0.001,0,0.001,0
			c12.333-3.359,21.883-13.469,24.435-26.115C356.846,120.786,354.537,113.617,354.537,113.617z"/>
		<g class="st8">
			<polygon class="st9" points="225.895,74.86 151.33,84.181 139.858,131.501 182.877,137.237 192.197,131.501 206.537,143.69 
				207.971,129.351 231.631,117.879 			"/>
			<polygon class="st10" points="222.567,68.619 148.001,77.939 136.529,125.26 179.548,130.996 188.869,125.26 203.208,137.449 
				204.642,123.109 228.302,111.637 			"/>
			<g>
				<path class="st11" d="M165.143,89.942c-0.71,0.118-1.076-0.332-1.156-0.817c-0.079-0.473,0.106-1.039,0.828-1.159l8.259-1.372
					c0.722-0.12,1.08,0.355,1.159,0.829c0.08,0.485-0.121,1.029-0.831,1.147L165.143,89.942z M174.905,95.068
					c0.711-0.118,1.074,0.32,1.155,0.806c0.085,0.509-0.135,1.02-0.833,1.136l-9.086,1.509c-0.698,0.116-1.07-0.297-1.155-0.806
					c-0.08-0.485,0.124-1.018,0.833-1.135l3.336-0.554l-0.33-1.987L168.819,94l-3.064,0.509c-0.709,0.118-1.07-0.296-1.15-0.781
					c-0.078-0.473,0.117-0.98,0.839-1.1l0.805-0.133l-0.171-1.029c-0.14-0.841,0.298-1.278,1.02-1.398
					c0.71-0.118,1.256,0.168,1.394,0.997l0.171,1.029l2.106-0.35l-0.171-1.029c-0.14-0.84,0.298-1.277,1.02-1.397
					c0.71-0.118,1.256,0.168,1.394,0.997l0.171,1.029l0.805-0.134c0.722-0.12,1.071,0.296,1.149,0.77
					c0.081,0.485-0.127,0.993-0.837,1.111l-3.064,0.509l0.006,0.036l0.33,1.987L174.905,95.068z"/>
				<path class="st11" d="M175.965,88.668c-0.292-1.763,0.974-2.921,2.914-3.243c1.94-0.322,3.523,0.351,3.818,2.125l0.167,1.006
					c0.295,1.774-0.985,2.924-2.914,3.244c-1.94,0.322-3.523-0.352-3.818-2.126L175.965,88.668z M179.628,96.521
					c-1.325,0.22-1.757-0.182-1.967-1.448l-0.206-1.242c-0.128-0.77,0.367-1.229,1.03-1.339c0.662-0.11,1.245,0.183,1.371,0.94
					l0.145,0.875c0.038,0.225,0.105,0.262,0.33,0.225l6.472-1.074c0.71-0.118,1.053,0.263,1.131,0.736
					c0.081,0.484-0.131,0.97-0.828,1.086L179.628,96.521z M178.436,89.278c0.097,0.58,0.629,0.856,1.209,0.761
					c0.579-0.097,1.018-0.534,0.922-1.114l-0.163-0.981c-0.099-0.592-0.655-0.864-1.232-0.756s-0.994,0.529-0.897,1.109
					L178.436,89.278z M184.949,92.841l-1.198-7.217c-0.127-0.769,0.362-1.263,0.989-1.367c0.627-0.104,1.249,0.206,1.377,0.974
					l1.198,7.217L184.949,92.841z"/>
				<path class="st11" d="M196.66,82.641c0.662-0.11,0.991,0.334,1.064,0.772c0.074,0.45-0.108,0.954-0.76,1.062l-6.295,1.045
					c-0.236,0.04-0.339,0.154-0.304,0.367l0.077,0.461l6.578-1.092c0.663-0.11,0.987,0.31,1.059,0.736
					c0.072,0.438-0.113,0.931-0.764,1.039l-6.578,1.092l0.074,0.449c0.04,0.237,0.171,0.3,0.407,0.261l6.484-1.077
					c0.662-0.11,0.99,0.322,1.062,0.759c0.074,0.45-0.109,0.955-0.76,1.062l-7.359,1.222c-1.372,0.228-1.976-0.255-2.188-1.533
					l-0.544-3.277c-0.213-1.278,0.202-1.93,1.574-2.158L196.66,82.641z M198.548,91.082c0.733-0.122,1.104,0.352,1.185,0.837
					c0.082,0.497-0.131,1.043-0.853,1.163l-9.039,1.501c-0.722,0.12-1.1-0.328-1.183-0.825c-0.08-0.485,0.117-1.053,0.851-1.175
					L198.548,91.082z"/>
				<path class="st11" d="M156.182,103.887c0.687-0.114,1.252,0.218,1.382,0.999l1.556,9.37l-2.366,0.393l-1.146-6.897l-0.993,0.165
					c-0.662,0.11-1.276-0.141-1.385-0.792c-0.09-0.544,0.229-0.962,0.691-1.111c0.625-0.189,1.221-0.555,1.342-1.22
					C155.359,104.279,155.684,103.97,156.182,103.887z"/>
				<path class="st11" d="M159.987,111.049l-0.732-4.413c-0.346-2.083,0.917-3.411,2.964-3.751c2.046-0.34,3.671,0.509,4.017,2.592
					l0.732,4.413c0.348,2.094-0.917,3.41-2.963,3.75C161.958,113.98,160.335,113.143,159.987,111.049z M164.607,110.391
					l-0.769-4.626c-0.121-0.733-0.695-0.966-1.286-0.868c-0.592,0.098-1.06,0.504-0.938,1.237l0.769,4.626
					c0.125,0.757,0.695,0.966,1.287,0.868C164.262,111.53,164.733,111.149,164.607,110.391z"/>
				<path class="st11" d="M168.155,109.693l-0.732-4.413c-0.346-2.083,0.917-3.411,2.964-3.751s3.671,0.509,4.017,2.592l0.733,4.413
					c0.348,2.094-0.917,3.41-2.964,3.75S168.503,111.786,168.155,109.693z M172.776,109.035l-0.769-4.626
					c-0.122-0.733-0.695-0.966-1.287-0.868s-1.059,0.504-0.938,1.237l0.769,4.626c0.126,0.757,0.695,0.966,1.287,0.868
					S172.901,109.792,172.776,109.035z"/>
				<path class="st11" d="M175.279,103.877l-0.21-1.266c-0.245-1.479,0.608-2.411,1.945-2.633c1.349-0.224,2.436,0.386,2.681,1.865
					l0.21,1.266c0.242,1.455-0.585,2.407-1.934,2.631C176.635,105.962,175.521,105.332,175.279,103.877z M178.121,103.418
					l-0.214-1.29c-0.071-0.426-0.402-0.517-0.615-0.481c-0.213,0.036-0.521,0.232-0.45,0.658l0.214,1.29
					c0.071,0.426,0.424,0.501,0.637,0.465C177.905,104.025,178.191,103.843,178.121,103.418z M180.406,110.151
					c-0.16,0.5-0.415,0.725-0.781,0.786c-0.426,0.071-0.861-0.209-0.939-0.683c-0.024-0.142-0.03-0.323,0.01-0.451l3.137-9.956
					c0.16-0.501,0.426-0.727,0.793-0.788c0.426-0.071,0.861,0.209,0.94,0.683c0.023,0.142,0.018,0.325-0.054,0.556L180.406,110.151z
					 M182.592,108.158l-0.21-1.266c-0.244-1.467,0.61-2.399,1.959-2.624c1.325-0.22,2.424,0.389,2.667,1.855l0.21,1.266
					c0.244,1.467-0.599,2.397-1.924,2.617C183.945,110.231,182.835,109.625,182.592,108.158z M185.445,107.696l-0.214-1.29
					c-0.067-0.402-0.402-0.517-0.615-0.481c-0.225,0.038-0.517,0.256-0.45,0.658l0.214,1.29c0.071,0.426,0.414,0.515,0.639,0.477
					C185.231,108.316,185.516,108.122,185.445,107.696z"/>
				<path class="st11" d="M189.114,104.132c-1.005,0.167-1.39-0.17-1.541-1.081l-0.481-2.899c-0.151-0.911,0.105-1.343,1.111-1.51
					l4.26-0.708c0.686-0.114,0.966,0.327,1.038,0.765c0.073,0.438-0.06,0.958-0.733,1.07l-3.089,0.513
					c-0.165,0.027-0.225,0.11-0.199,0.264l0.232,1.396c0.025,0.153,0.107,0.212,0.273,0.185l3.597-0.597
					c0.687-0.114,0.944,0.342,1.015,0.768c0.075,0.449-0.039,0.93-0.714,1.042L189.114,104.132z M195.566,103.742
					c1.716-0.285,2.763,0.526,2.988,1.887s-0.503,2.466-2.218,2.751l-4.709,0.782c-1.739,0.289-2.767-0.55-2.988-1.887
					s0.479-2.462,2.218-2.751L195.566,103.742z M195.462,106.848c0.557-0.093,0.754-0.442,0.69-0.82
					c-0.062-0.379-0.363-0.657-0.92-0.564l-3.502,0.581c-0.557,0.093-0.751,0.453-0.688,0.832c0.062,0.378,0.362,0.646,0.918,0.553
					L195.462,106.848z M197.601,98.785c0.721-0.12,1.027,0.401,1.105,0.874c0.081,0.485-0.054,1.066-0.764,1.185l-0.366,0.061
					l0.344,2.071l-2.367,0.393l-0.825-4.969c-0.127-0.769,0.362-1.264,0.989-1.368c0.627-0.104,1.25,0.206,1.378,0.975l0.139,0.84
					L197.601,98.785z"/>
				<path class="st11" d="M199.307,102.21c-0.087-0.521,0.168-0.892,0.622-1.015c1.031-0.306,1.536-1.07,1.367-2.088l-0.02-0.118
					l-1.515,0.251c-0.557,0.092-0.944-0.342-1.015-0.768c-0.07-0.426,0.104-0.978,0.708-1.078l1.468-0.244
					c-0.116-0.698,0.219-1.094,0.953-1.216c0.732-0.122,1.204,0.153,1.318,0.839l1.502-0.25c0.604-0.1,0.948,0.365,1.02,0.791
					c0.07,0.426-0.157,0.962-0.713,1.055l-1.526,0.253l0.025,0.153c0.027,0.166,0.044,0.333,0.048,0.503
					c1.711-0.236,2.729,0.471,3.013,2.478l-2.188,0.363c-0.049-0.879-0.554-1.282-1.175-1.142c-0.532,1.037-1.573,1.732-2.718,1.934
					C199.88,103.026,199.394,102.742,199.307,102.21z M208.595,101.992c1.338-0.222,1.668,0.161,1.871,1.379l0.424,2.556
					l-8.27,1.373c-1.432,0.238-1.763-0.145-1.983-1.47l-0.115-0.698c-0.221-1.325-0.03-1.794,1.401-2.032L208.595,101.992z
					 M208.294,104.717l-0.126-0.758c-0.033-0.201-0.103-0.251-0.292-0.219l-4.803,0.798c-0.189,0.031-0.238,0.101-0.205,0.302
					l0.08,0.485c0.037,0.225,0.104,0.263,0.294,0.231L208.294,104.717z M206.492,97.892l0.604-0.1l-0.234-1.408
					c-0.128-0.769,0.362-1.264,0.989-1.368s1.25,0.206,1.377,0.975l0.885,5.324l-2.367,0.393l-0.344-2.07l-0.603,0.1
					c-0.593,0.098-1.041-0.192-1.134-0.748C205.575,98.445,205.889,97.992,206.492,97.892z"/>
				<path class="st11" d="M211.821,102.563l-1.085-6.53c-0.128-0.77,0.386-1.268,1.013-1.373c0.615-0.102,1.275,0.214,1.401,0.972
					l1.085,6.53L211.821,102.563z M213.121,102.919c0.792-0.131,1.344,0.263,1.464,0.984c0.119,0.722-0.275,1.274-1.067,1.405
					c-0.793,0.132-1.343-0.251-1.465-0.985C211.932,103.59,212.328,103.05,213.121,102.919z"/>
			</g>
		</g>
		<g class="st8">
			<path class="st11" d="M182.974,403.556l-0.564-2.062h-2.878l-0.563,2.062h-2.591l3.083-9.714
				c0.216-0.672,0.899-0.996,1.547-0.996c0.611,0,1.271,0.348,1.475,0.996l3.13,9.714H182.974z M180.083,399.466h1.775l-0.887-3.287
				L180.083,399.466z"/>
			<path class="st11" d="M188.928,400.51v3.046h-2.471v-8.623c0-1.379,0.432-1.895,1.871-1.895h2.027
				c2.135,0,3.658,1.031,3.658,3.538v0.396c0,2.506-1.523,3.538-3.658,3.538H188.928z M188.928,398.423h1.307
				c0.864,0,1.319-0.6,1.319-1.511v-0.276c0-0.912-0.456-1.511-1.319-1.511h-0.959c-0.276,0-0.348,0.06-0.348,0.348V398.423z"/>
			<path class="st11" d="M197.508,400.51v3.046h-2.471v-8.623c0-1.379,0.432-1.895,1.871-1.895h2.027
				c2.135,0,3.658,1.031,3.658,3.538v0.396c0,2.506-1.523,3.538-3.658,3.538H197.508z M197.508,398.423h1.307
				c0.864,0,1.319-0.6,1.319-1.511v-0.276c0-0.912-0.456-1.511-1.319-1.511h-0.959c-0.276,0-0.348,0.06-0.348,0.348V398.423z"/>
			<path class="st11" d="M216.919,401.613c0.72,0,1.007,0.492,1.007,0.983c0,0.516-0.3,0.984-1.007,0.984h-9.211
				c-0.708,0-1.007-0.468-1.007-0.984c0-0.492,0.288-0.983,1.007-0.983h3.382v-1.667h-1.583c-1.56,0-2.375-0.815-2.375-2.111v-0.216
				c0-1.283,0.815-2.075,2.375-2.075h5.241v-0.384c0-0.156-0.048-0.336-0.324-0.336h-6.249c-0.563,0-0.912-0.468-0.912-0.959
				c0-0.468,0.348-0.948,0.912-0.948h6.968c1.631,0,2.099,0.744,2.099,1.871v2.567h-7.112c-0.276,0-0.408,0.132-0.408,0.359
				c0,0.252,0.132,0.36,0.408,0.36h6.512c0.66,0,0.912,0.504,0.912,0.948s-0.264,0.923-0.912,0.923h-3.106v1.667H216.919z"/>
			<path class="st11" d="M228.896,401.553c0.744,0,1.031,0.528,1.031,1.02c0,0.504-0.3,1.008-1.031,1.008h-9.163
				c-0.731,0-1.031-0.504-1.031-1.008c0-0.492,0.288-1.02,1.031-1.02H228.896z M226.965,396v-0.72c0-0.168-0.108-0.3-0.3-0.3h-6.513
				c-0.72,0-1.055-0.54-1.055-1.031c0-0.48,0.324-1.032,1.055-1.032h7.328c1.415,0,1.847,0.54,1.847,1.715v1.319
				c0,1.871-0.264,3.274-0.624,4.065c-0.336,0.684-1.175,0.959-1.787,0.66c-0.479-0.228-0.671-0.731-0.456-1.271
				C226.797,398.566,226.965,397.499,226.965,396z"/>
			<path class="st11" d="M231.013,395.472c0-1.787,1.439-2.722,3.406-2.722c1.967,0,3.418,0.923,3.418,2.722v1.02
				c0,1.799-1.451,2.723-3.406,2.723c-1.967,0-3.418-0.924-3.418-2.723V395.472z M233.34,403.82c-1.343,0-1.703-0.468-1.703-1.751
				v-1.259c0-0.78,0.563-1.151,1.235-1.151c0.671,0,1.199,0.384,1.199,1.151v0.887c0,0.228,0.06,0.276,0.288,0.276h6.56
				c0.72,0,0.996,0.432,0.996,0.912c0,0.492-0.288,0.936-0.996,0.936H233.34z M233.352,396.479c0,0.588,0.48,0.948,1.067,0.948
				c0.588,0,1.092-0.36,1.092-0.948v-0.995c0-0.6-0.504-0.959-1.092-0.948c-0.587,0.012-1.067,0.36-1.067,0.948V396.479z
				 M239.192,401.061v-7.316c0-0.779,0.564-1.187,1.199-1.187c0.636,0,1.2,0.408,1.2,1.187v7.316H239.192z"/>
			<path class="st11" d="M243.217,396.072c0-0.276,0.06-0.527,0.168-0.744c-0.54-0.024-0.839-0.372-0.839-0.863
				c0-0.504,0.3-0.852,0.887-0.852h1.715c0.036-0.684,0.503-1.091,1.223-1.091s1.175,0.408,1.211,1.091h1.715
				c0.588,0,0.9,0.348,0.9,0.852c0,0.492-0.312,0.839-0.852,0.863c0.108,0.216,0.168,0.468,0.168,0.744v1.104
				c0,1.595-1.211,2.519-3.143,2.519c-1.931,0-3.154-0.923-3.154-2.519V396.072z M252.692,401.985c0.708,0,0.983,0.432,0.983,0.911
				c0,0.492-0.288,0.924-0.983,0.924h-7.352c-1.343,0-1.703-0.468-1.703-1.751v-0.936c0-0.744,0.563-1.116,1.235-1.116
				c0.671,0,1.199,0.384,1.199,1.116v0.611c0,0.192,0.06,0.24,0.24,0.24H252.692z M247.331,396.204c0-0.576-0.372-0.948-0.959-0.948
				c-0.6,0-0.971,0.372-0.971,0.948v0.779c0,0.564,0.372,0.959,0.971,0.959c0.588,0,0.959-0.396,0.959-0.959V396.204z
				 M253.663,395.556c0.731,0,0.948,0.564,0.948,1.043c0,0.492-0.228,1.043-0.948,1.043h-0.372v3.418h-2.399v-7.316
				c0-0.779,0.564-1.187,1.199-1.187c0.636,0,1.2,0.408,1.2,1.187v1.811H253.663z"/>
			<path class="st11" d="M265.102,401.433c0.744,0,1.032,0.528,1.032,1.02c0,0.503-0.3,1.007-1.032,1.007h-6.009
				c-0.731,0-1.031-0.504-1.031-1.007c0-0.492,0.288-1.02,1.031-1.02h1.679v-1.595c-1.295-0.3-2.123-1.188-2.123-2.758v-0.552
				c0-0.408,0.072-0.756,0.204-1.067c-0.552-0.024-0.887-0.408-0.887-0.9c0-0.503,0.335-0.875,0.923-0.875h1.835
				c0.024-0.743,0.479-1.187,1.235-1.187c0.755,0,1.211,0.444,1.235,1.187h1.823c0.588,0,0.924,0.372,0.924,0.875
				c0,0.492-0.336,0.876-0.876,0.9c0.12,0.312,0.192,0.66,0.192,1.067v0.552c0,1.595-0.84,2.47-2.159,2.771v1.583H265.102z
				 M260.904,397.104c0,0.731,0.48,1.055,1.056,1.055s1.055-0.324,1.055-1.055v-0.672c0-0.72-0.479-1.043-1.055-1.043
				s-1.056,0.324-1.056,1.043V397.104z M268.952,393.745v10.075h-2.399v-10.075c0-0.779,0.564-1.187,1.199-1.187
				C268.388,392.558,268.952,392.966,268.952,393.745z"/>
			<path class="st11" d="M280.304,401.985c0.696,0,0.972,0.432,0.972,0.911c0,0.492-0.288,0.924-0.972,0.924h-7.664
				c-1.343,0-1.703-0.468-1.703-1.751v-0.732c0-0.708,0.564-1.079,1.235-1.079c0.192,0,0.384,0.036,0.54,0.096v-1.271h-1.703
				c-0.647,0-0.947-0.384-0.947-0.888c0-0.492,0.288-0.899,0.947-0.899h6.177c0.66,0,0.948,0.408,0.948,0.899
				c0,0.504-0.3,0.888-0.948,0.888h-2.147v1.919h-1.715c0.036,0.108,0.048,0.216,0.048,0.335v0.444c0,0.168,0.048,0.204,0.216,0.204
				H280.304z M272.592,396.755c-1.355,0-2.159-0.792-2.159-1.955v-0.036c0-1.151,0.804-1.943,2.159-1.943h2.794
				c1.355,0,2.123,0.792,2.123,1.943v0.036c0,1.163-0.768,1.955-2.123,1.955H272.592z M272.712,394.812
				c0,0.216,0.156,0.372,0.492,0.372h1.547c0.336,0,0.479-0.156,0.479-0.372v-0.036c0-0.228-0.144-0.396-0.479-0.396h-1.547
				c-0.335,0-0.492,0.168-0.492,0.396V394.812z M278.553,399.466v-5.721c0-0.779,0.564-1.187,1.199-1.187
				c0.636,0,1.2,0.408,1.2,1.187v7.796h-2.399v-0.384h-1.823c-0.552,0-0.924-0.312-0.924-0.84c0-0.516,0.36-0.851,0.924-0.851
				H278.553z"/>
			<path class="st11" d="M290.327,401.337c0.696,0,0.899,0.552,0.899,1.008c0,0.468-0.216,0.995-0.899,0.995h-2.807
				c-1.559,0-1.847-0.372-1.847-1.871v-6.632c0-1.499,0.288-1.859,1.847-1.859h2.531c0.696,0,0.923,0.552,0.923,1.008
				c0,0.467-0.24,1.019-0.923,1.019h-1.655c-0.216,0-0.312,0.072-0.312,0.348v5.637c0,0.276,0.096,0.348,0.312,0.348H290.327z
				 M296.491,393.589v10.23h-2.099v-4.917h-0.6v4.917h-2.099v-10.23c0-0.624,0.42-1.031,1.056-1.031
				c0.635,0,1.043,0.408,1.043,1.031v3.322h0.6v-3.322c0-0.624,0.419-1.031,1.055-1.031S296.491,392.966,296.491,393.589z"/>
			<path class="st11" d="M298.477,398.782c-0.647,0-1.079-0.348-1.079-1.031c0-0.456,0.276-0.792,0.744-0.947
				c1.091-0.42,1.679-1.14,1.727-2.687l0.012-0.42c0.036-0.66,0.564-1.031,1.224-1.02c0.66,0.012,1.163,0.42,1.163,1.08v0.396
				c0,0.288-0.023,0.552-0.06,0.816c1.751,0.156,2.807,1.343,2.723,3.658h-2.327c0.072-1.091-0.3-1.703-1.031-1.871
				C300.779,398.087,299.473,398.782,298.477,398.782z M305.565,399.154c1.738,0,2.639,0.972,2.639,2.351
				c0,1.379-0.9,2.351-2.639,2.351h-4.773c-1.764,0-2.639-0.995-2.639-2.351c0-1.355,0.875-2.351,2.639-2.351H305.565z
				 M305.05,402.141c0.516,0,0.719-0.3,0.719-0.636s-0.203-0.647-0.719-0.647h-3.742c-0.516,0-0.72,0.312-0.72,0.647
				s0.204,0.636,0.72,0.636H305.05z M308.384,394.597c0.731,0,0.947,0.564,0.947,1.043c0,0.492-0.228,1.043-0.947,1.043h-0.372
				v2.099h-2.398v-5.037c0-0.779,0.563-1.187,1.199-1.187s1.199,0.408,1.199,1.187v0.852H308.384z"/>
			<path class="st11" d="M319.318,393.829c0.587,0,0.899,0.432,0.899,0.936c0,0.492-0.312,0.936-0.864,0.947
				c0.12,0.3,0.192,0.636,0.192,1.02v3.802c0,2.086-1.296,3.058-3.131,3.058c-1.822,0-3.13-0.972-3.13-3.058v-3.802
				c0-0.384,0.072-0.719,0.192-1.02c-0.54-0.024-0.852-0.456-0.852-0.947c0-0.504,0.3-0.936,0.887-0.936h1.691v-0.12
				c0-0.744,0.456-1.188,1.211-1.188c0.756,0,1.212,0.444,1.212,1.188v0.12H319.318z M317.327,396.6
				c0-0.624-0.336-0.996-0.912-0.996c-0.575,0-0.911,0.372-0.911,0.996v4.018c0,0.611,0.336,1.043,0.911,1.043
				c0.576,0,0.912-0.432,0.912-1.043V396.6z M323.743,396.755c0.731,0,0.948,0.564,0.948,1.043c0,0.492-0.229,1.043-0.948,1.043
				h-0.432v4.978h-2.398v-10.075c0-0.779,0.563-1.187,1.199-1.187s1.199,0.408,1.199,1.187v3.01H323.743z"/>
			<path class="st11" d="M335,399.454c0.72,0,1.007,0.492,1.007,0.983c0,0.504-0.3,0.983-1.007,0.983h-3.382v2.459h-2.447v-2.459
				h-3.382c-0.708,0-1.008-0.479-1.008-0.983c0-0.492,0.288-0.983,1.008-0.983H335z M327.3,398.866
				c-1.367,0-2.087-0.719-2.087-1.835v-0.18c0-1.115,0.72-1.775,2.087-1.775h5.565v-0.3c0-0.144-0.048-0.276-0.288-0.276h-6.416
				c-0.528,0-0.828-0.42-0.828-0.852c0-0.42,0.288-0.852,0.828-0.852h7.376c1.402,0,1.811,0.611,1.811,1.571v2.243h-7.208
				c-0.24,0-0.348,0.108-0.348,0.3c0,0.204,0.107,0.288,0.348,0.288h6.681c0.6,0,0.827,0.432,0.827,0.84
				c0,0.396-0.228,0.827-0.827,0.827H327.3z"/>
			<path class="st11" d="M340.657,396.072c0-0.276,0.06-0.527,0.168-0.744c-0.54-0.024-0.84-0.372-0.84-0.863
				c0-0.504,0.3-0.852,0.888-0.852h1.715c0.036-0.684,0.504-1.091,1.224-1.091s1.175,0.408,1.211,1.091h1.715
				c0.588,0,0.9,0.348,0.9,0.852c0,0.492-0.312,0.839-0.852,0.863c0.107,0.216,0.167,0.468,0.167,0.744v1.104
				c0,1.595-1.211,2.519-3.142,2.519s-3.154-0.923-3.154-2.519V396.072z M350.132,401.985c0.708,0,0.983,0.432,0.983,0.911
				c0,0.492-0.288,0.924-0.983,0.924h-7.352c-1.344,0-1.703-0.468-1.703-1.751v-0.936c0-0.744,0.563-1.116,1.235-1.116
				c0.671,0,1.199,0.384,1.199,1.116v0.611c0,0.192,0.06,0.24,0.239,0.24H350.132z M344.771,396.204
				c0-0.576-0.371-0.948-0.959-0.948c-0.6,0-0.972,0.372-0.972,0.948v0.779c0,0.564,0.372,0.959,0.972,0.959
				c0.588,0,0.959-0.396,0.959-0.959V396.204z M351.104,395.556c0.731,0,0.947,0.564,0.947,1.043c0,0.492-0.228,1.043-0.947,1.043
				h-0.372v3.418h-2.398v-7.316c0-0.779,0.563-1.187,1.199-1.187s1.199,0.408,1.199,1.187v1.811H351.104z"/>
			<path class="st11" d="M359.086,399.106h-5.014c-1.199,0-1.583-0.48-1.583-1.535v-3.658c0-0.72,0.432-1.079,1.127-1.079
				c0.684,0,1.067,0.372,1.067,1.079v0.348h2.231v-0.348c0-0.72,0.396-1.079,1.079-1.079c0.695,0,1.092,0.372,1.092,1.079v1.14
				h1.547v-1.308c0-0.779,0.563-1.187,1.199-1.187s1.199,0.408,1.199,1.187v7.316h-2.398v-4.138h-1.547V399.106z M362.359,401.973
				c0.72,0,0.996,0.432,0.996,0.912c0,0.492-0.288,0.936-0.996,0.936h-7.579c-1.344,0-1.703-0.468-1.703-1.751v-1.2
				c0-0.779,0.563-1.151,1.235-1.151c0.671,0,1.199,0.384,1.199,1.151v0.84c0,0.228,0.06,0.264,0.288,0.264H362.359z
				 M356.902,395.928h-2.219v1.139c0,0.276,0.061,0.312,0.336,0.312h1.871L356.902,395.928z"/>
			<path class="st11" d="M367.585,398.255c0-0.54,0.312-0.852,0.792-0.912c1.091-0.108,1.727-0.792,1.727-1.799v-0.132h-1.583
				c-0.563,0-0.875-0.492-0.875-0.923s0.264-0.947,0.875-0.947h1.535c0-0.72,0.408-1.056,1.151-1.056
				c0.744,0,1.163,0.348,1.163,1.056h1.584c0.611,0,0.875,0.516,0.875,0.947s-0.312,0.923-0.875,0.923h-1.607v0.168
				c0,0.168-0.012,0.324-0.024,0.48c1.751,0.036,2.663,0.887,2.615,2.938h-2.231c0.084-0.888-0.359-1.368-1.007-1.332
				c-0.708,0.948-1.883,1.463-3.059,1.475C368.029,399.154,367.585,398.794,367.585,398.255z M376.544,399.562
				c1.355,0,1.619,0.432,1.619,1.667v2.591h-8.144c-1.451,0-1.715-0.432-1.715-1.775v-0.708c0-1.343,0.264-1.775,1.715-1.775
				H376.544z M375.801,402.201v-0.768c0-0.204-0.061-0.264-0.252-0.264h-4.63c-0.191,0-0.252,0.06-0.252,0.264v0.492
				c0,0.228,0.061,0.276,0.252,0.276H375.801z M378.463,394.717c0.731,0,0.948,0.563,0.948,1.043c0,0.492-0.229,1.043-0.948,1.043
				h-0.371v2.338h-2.399v-5.397c0-0.779,0.564-1.187,1.199-1.187c0.636,0,1.2,0.408,1.2,1.187v0.972H378.463z"/>
			<path class="st11" d="M390.392,393.745v10.075h-2.399v-2.878h-1.631c-0.216,1.715-1.499,2.65-3.25,2.65
				c-1.931,0-3.298-1.127-3.298-3.19v-4.461c0-2.051,1.354-3.19,3.286-3.19c1.667,0,2.902,0.827,3.214,2.362h1.679v-1.367
				c0-0.779,0.564-1.187,1.199-1.187C389.827,392.558,390.392,392.966,390.392,393.745z M384.106,395.82
				c0-0.744-0.479-1.14-1.007-1.127c-0.516,0.012-0.996,0.396-0.996,1.127v4.701c0,0.744,0.48,1.115,0.996,1.115
				c0.527,0,1.007-0.372,1.007-1.115V395.82z M386.397,398.95h1.595v-1.847h-1.595V398.95z"/>
			<path class="st11" d="M396.431,392.99c1.319,0,1.823,0.612,1.823,1.703v2.818c0,4.09-2.483,5.685-5.386,5.805
				c-0.647,0.036-1.235-0.324-1.199-1.031c0.024-0.504,0.324-0.888,0.924-0.959c1.895-0.216,3.298-1.02,3.298-3.826v-2.146
				c0-0.168-0.107-0.3-0.3-0.3h-2.71c-0.72,0-1.067-0.516-1.067-1.02c0-0.492,0.335-1.043,1.067-1.043H396.431z M402.463,396.755
				c0.731,0,0.948,0.564,0.948,1.043c0,0.492-0.229,1.043-0.948,1.043h-0.432v4.978h-2.398v-10.075c0-0.779,0.563-1.187,1.199-1.187
				s1.199,0.408,1.199,1.187v3.01H402.463z"/>
			<path class="st11" d="M413.731,396.996c0.708,0,0.995,0.468,0.995,0.959c0,0.503-0.3,0.947-0.995,0.947h-9.234
				c-0.696,0-0.996-0.444-0.996-0.947c0-0.492,0.288-0.959,0.996-0.959H413.731z M412.04,399.538c1.632,0,2.352,0.899,2.352,2.159
				s-0.72,2.159-2.352,2.159h-5.853c-1.631,0-2.351-0.899-2.351-2.159s0.72-2.159,2.351-2.159H412.04z M413.324,394.573
				c0.695,0,0.959,0.42,0.959,0.899c0,0.492-0.275,0.948-0.959,0.948h-7.676c-1.212,0-1.619-0.504-1.619-1.451v-1.116
				c0-0.803,0.587-1.163,1.235-1.163c0.659,0,1.211,0.372,1.211,1.163v0.48c0,0.18,0.072,0.24,0.348,0.24H413.324z M411.381,402.165
				c0.396,0,0.576-0.192,0.576-0.468s-0.181-0.468-0.576-0.468h-4.533c-0.396,0-0.576,0.192-0.576,0.468s0.18,0.468,0.576,0.468
				H411.381z"/>
			<path class="st11" d="M417.097,401.217c0.803,0,1.283,0.479,1.283,1.211c0,0.731-0.48,1.211-1.283,1.211
				c-0.804,0-1.283-0.468-1.283-1.211C415.813,401.685,416.293,401.217,417.097,401.217z M415.873,400.653v-6.62
				c0-0.78,0.588-1.188,1.224-1.188c0.623,0,1.223,0.42,1.223,1.188v6.62H415.873z"/>
		</g>
		<g class="st8">
			<circle class="st12" cx="97.571" cy="649.47" r="45.138"/>
			
				<ellipse transform="matrix(0.6747 -0.7381 0.7381 0.6747 -447.6163 283.2709)" class="st13" cx="97.571" cy="649.47" rx="36.634" ry="36.634"/>
			<g>
				<path class="st14" d="M93.297,653.08l-4.951,7.562l-6.132-4.015l14.015-21.405c2.241-3.423,4.152-4.002,7.724-1.663l5.031,3.294
					c5.299,3.47,7.403,8.506,3.33,14.727l-0.643,0.982c-4.074,6.222-9.531,6.307-14.83,2.837L93.297,653.08z M96.688,647.9
					l3.245,2.125c2.143,1.403,4.249,0.656,5.731-1.607l0.448-0.685c1.481-2.262,1.325-4.492-0.819-5.895l-2.382-1.559
					c-0.685-0.448-0.961-0.417-1.429,0.298L96.688,647.9z"/>
			</g>
		</g>
		<path class="st15" d="M212.83,650.727c-8.939,4.571-14.356,10.515-14.356,17.02c0,8.381,8.983,15.835,22.93,20.612
			c-1.926-2.456-3.631-5.144-5.058-8.061C211.675,670.748,210.695,660.357,212.83,650.727z"/>
		<path class="st15" d="M317.107,667.747c0-6.979-6.233-13.313-16.367-17.998c3.423,13.946-0.088,28.563-8.998,39.401
			C307.072,684.43,317.107,676.607,317.107,667.747z"/>
		<g class="st8">
			<path class="st12" d="M300.74,649.749c-0.758-3.087-1.845-6.143-3.298-9.115c-10.953-22.394-37.986-31.669-60.38-20.716
				c-12.844,6.282-21.361,17.856-24.232,30.808c-2.135,9.63-1.154,20.021,3.516,29.571c1.427,2.917,3.131,5.605,5.058,8.061
				c5.305,1.817,11.327,3.246,17.852,4.19c-6.403-3.508-11.826-8.944-15.271-15.987c-4.772-9.756-4.791-20.619-0.975-29.96
				c3.282-8.033,9.399-14.941,17.788-19.044c18.146-8.875,40.129-1.333,49.004,16.813c0.261,0.533,0.504,1.069,0.737,1.608
				c7.539,17.482,0.338,37.982-16.571,46.886c6.437-0.802,12.427-2.068,17.774-3.714
				C300.652,678.312,304.163,663.696,300.74,649.749z"/>
			<path class="st13" d="M259.765,652.237c-1.188-2.429-3.184-3.433-5.486-2.308l-2.557,1.251c-0.735,0.36-0.849,0.613-0.474,1.381
				l3.846,7.863l3.484-1.704c2.301-1.126,2.734-3.318,1.546-5.747L259.765,652.237z"/>
			<path class="st13" d="M290.539,645.979c-0.232-0.539-0.476-1.076-0.737-1.608c-8.875-18.146-30.858-25.688-49.004-16.813
				c-8.39,4.104-14.507,11.012-17.788,19.044c-3.816,9.341-3.797,20.204,0.975,29.96c3.445,7.043,8.868,12.479,15.271,15.987
				c5.833,0.844,12.059,1.307,18.534,1.307c5.611,0,11.033-0.35,16.178-0.991C290.877,683.962,298.078,663.461,290.539,645.979z
				 M261.618,664.125l-3.804,1.86l3.971,8.12l-6.585,3.221l-11.241-22.983c-1.798-3.676-1.319-5.613,2.517-7.489l5.402-2.642
				c5.69-2.783,11.094-2.019,14.361,4.661l0.516,1.054C270.023,656.609,267.308,661.342,261.618,664.125z"/>
			<path class="st14" d="M266.239,648.873c-3.267-6.68-8.672-7.444-14.361-4.661l-5.402,2.642c-3.836,1.876-4.314,3.814-2.517,7.489
				l11.241,22.983l6.585-3.221l-3.971-8.12l3.804-1.86c5.69-2.783,8.405-7.517,5.137-14.198L266.239,648.873z M258.578,658.72
				l-3.484,1.704l-3.846-7.863c-0.375-0.768-0.261-1.021,0.474-1.381l2.557-1.251c2.301-1.126,4.298-0.121,5.486,2.308l0.36,0.735
				C261.312,655.402,260.88,657.594,258.578,658.72z"/>
		</g>
		<path class="st15" d="M362.031,716.552c1.426-6.466,4.183-12.292,7.905-17.273c-14.07,4.774-23.143,12.262-23.143,20.686
			c0,6.811,5.929,13.01,15.633,17.659C360.684,730.941,360.442,723.76,362.031,716.552z"/>
		<path class="st15" d="M465.427,719.966c0-8.428-9.08-15.918-23.16-20.692c7.569,10.145,10.862,23.391,7.922,36.722
			c-0.121,0.551-0.263,1.092-0.404,1.633C459.494,732.98,465.427,726.778,465.427,719.966z"/>
		<g class="st8">
			<path class="st12" d="M442.267,699.274c-6.253-8.382-15.422-14.649-26.435-17.078c-17.877-3.943-35.606,3.314-45.895,17.084
				c-3.722,4.981-6.479,10.806-7.905,17.273c-1.59,7.208-1.348,14.389,0.395,21.072c3.111,1.49,6.607,2.822,10.425,3.962
				c-3.239-7.013-4.304-15.095-2.515-23.203c2.19-9.93,8.244-18.028,16.231-23.07c7.879-4.974,17.638-6.974,27.434-4.814
				c4.273,0.942,8.206,2.602,11.703,4.821c12.649,8.024,19.589,23.39,16.181,38.843c-0.575,2.607-1.423,5.083-2.495,7.416
				c3.806-1.138,7.292-2.466,10.396-3.952c0.14-0.541,0.282-1.082,0.404-1.633C453.128,722.665,449.836,709.419,442.267,699.274z"/>
			<path class="st13" d="M410.623,716.4l-2.78-0.613c-0.799-0.176-1.046-0.049-1.23,0.786l-1.885,8.548l3.788,0.835
				c2.502,0.552,4.205-0.895,4.788-3.535l0.176-0.799C414.062,718.981,413.125,716.952,410.623,716.4z"/>
			<path class="st13" d="M425.704,695.321c-3.498-2.219-7.43-3.879-11.703-4.821c-9.796-2.16-19.555-0.16-27.434,4.814
				c-7.987,5.042-14.041,13.14-16.231,23.07c-1.788,8.108-0.723,16.19,2.515,23.203c9.486,2.833,20.933,4.489,33.259,4.489
				c12.335,0,23.789-1.659,33.279-4.495c1.072-2.333,1.92-4.809,2.495-7.416C445.292,718.711,438.352,703.346,425.704,695.321z
				 M420.641,723.019l-0.253,1.146c-1.602,7.263-6.674,9.277-12.859,7.913l-4.135-0.912l-1.947,8.827l-7.158-1.579l5.51-24.984
				c0.881-3.996,2.462-5.214,6.632-4.294l5.872,1.295C418.489,711.795,422.243,715.757,420.641,723.019z"/>
			<path class="st14" d="M412.303,710.431l-5.872-1.295c-4.17-0.92-5.751,0.299-6.632,4.294l-5.51,24.984l7.158,1.579l1.947-8.827
				l4.135,0.912c6.185,1.364,11.257-0.65,12.859-7.913l0.253-1.146C422.243,715.757,418.489,711.795,412.303,710.431z
				 M413.479,721.621l-0.176,0.799c-0.582,2.641-2.286,4.087-4.788,3.535l-3.788-0.835l1.885-8.548
				c0.184-0.834,0.431-0.962,1.23-0.786l2.78,0.613C413.125,716.952,414.062,718.981,413.479,721.621z"/>
		</g>
		<path class="st15" d="M397.339,464.06c-16.199,4.661-26.912,12.71-26.912,21.865c0,6.626,5.618,12.672,14.858,17.275
			c-0.065-0.376-0.14-0.748-0.196-1.128C382.956,487.635,387.917,473.793,397.339,464.06z"/>
		<path class="st15" d="M489.06,485.924c0-9.156-10.715-17.205-26.918-21.866c6.365,6.554,10.815,15.086,12.252,24.814
			c0.722,4.888,0.621,9.705-0.18,14.321C483.447,498.59,489.06,492.547,489.06,485.924z"/>
		<g class="st8">
			<path class="st16" d="M442.164,487.259c-1.087-7.357-6.005-9.723-12.271-8.797l-5.949,0.879c-4.224,0.624-5.268,2.326-4.67,6.373
				l3.741,25.31l7.251-1.072l-1.322-8.942l4.189-0.619c6.266-0.926,10.289-4.614,9.201-11.971L442.164,487.259z"/>
			<path class="st12" d="M474.395,488.872c-1.438-9.728-5.887-18.26-12.252-24.814c-9.771-10.061-24.067-15.446-39-13.239
				c-10.224,1.511-19.131,6.347-25.803,13.24c-9.422,9.733-14.383,23.576-12.249,38.012c0.056,0.38,0.131,0.752,0.196,1.128
				c2.902,1.446,6.161,2.748,9.719,3.882c-0.669-2.005-1.183-4.091-1.503-6.253c-2.731-18.475,8.91-35.808,26.474-40.655
				c1.434-0.396,2.902-0.718,4.41-0.941c5.214-0.771,10.334-0.388,15.112,0.94c13.535,3.762,24.301,15.174,26.484,29.943
				c0.872,5.896,0.27,11.673-1.511,16.97c3.567-1.136,6.835-2.442,9.743-3.892C475.015,498.577,475.117,493.76,474.395,488.872z"/>
			<path class="st13" d="M465.982,490.116c-2.183-14.769-12.949-26.181-26.484-29.943c-4.778-1.328-9.898-1.711-15.112-0.94
				c-1.508,0.223-2.977,0.546-4.41,0.941c-17.563,4.847-29.204,22.18-26.474,40.655c0.32,2.162,0.833,4.248,1.503,6.253
				c9.766,3.112,21.761,4.952,34.739,4.952c12.973,0,24.964-1.839,34.728-4.948C466.252,501.789,466.854,496.012,465.982,490.116z
				 M433.134,500.391l-4.189,0.619l1.322,8.942l-7.251,1.072l-3.741-25.31c-0.598-4.048,0.445-5.749,4.67-6.373l5.949-0.879
				c6.266-0.926,11.184,1.441,12.271,8.797l0.172,1.161C443.423,495.778,439.4,499.465,433.134,500.391z"/>
		</g>
		<g class="st8">
			<path class="st13" d="M434.974,488.501c-0.395-2.675-1.993-4.238-4.528-3.863l-2.816,0.416c-0.81,0.12-0.995,0.327-0.87,1.172
				l1.28,8.659l3.837-0.567c2.534-0.375,3.612-2.333,3.216-5.008L434.974,488.501z"/>
			<path class="st14" d="M442.335,488.42l-0.172-1.161c-1.087-7.357-6.005-9.723-12.271-8.797l-5.949,0.879
				c-4.224,0.624-5.268,2.326-4.67,6.373l3.741,25.31l7.251-1.072l-1.322-8.942l4.189-0.619
				C439.4,499.465,443.423,495.778,442.335,488.42z M431.877,494.319l-3.837,0.567l-1.28-8.659c-0.125-0.845,0.061-1.052,0.87-1.172
				l2.816-0.416c2.534-0.375,4.132,1.188,4.528,3.863l0.12,0.81C435.489,491.986,434.411,493.944,431.877,494.319z"/>
		</g>
		<path class="st15" d="M364.367,450.328c0-14.42-26.557-26.109-59.317-26.109s-59.317,11.69-59.317,26.109
			c0,6.666,5.684,12.746,15.025,17.36c6.061-13.685,18.782-24.066,34.683-26.417c21.378-3.16,41.459,9.228,48.803,28.646
			C356.577,465.133,364.367,458.133,364.367,450.328z"/>
		<path class="st17" d="M295.442,441.272c-15.901,2.35-28.622,12.731-34.683,26.417c2.396,1.184,5.036,2.268,7.88,3.244
			c4.962-11.007,15.241-19.355,28.047-21.247c17.182-2.54,33.377,7.353,39.459,22.878c2.874-0.78,5.58-1.667,8.1-2.645
			C336.901,450.499,316.82,438.112,295.442,441.272z"/>
		<path class="st18" d="M306.305,476.424c-0.788-1.053-1.993-1.564-3.559-1.333l-2.816,0.416c-0.671,0.099-0.909,0.264-0.901,0.797
			c1.98,0.088,3.989,0.133,6.022,0.133C305.471,476.438,305.886,476.427,306.305,476.424z"/>
		<path class="st18" d="M296.244,469.793l5.949-0.879c5.791-0.856,10.423,1.11,11.952,7.218c7.969-0.54,15.41-1.78,22.001-3.569
			c-6.082-15.525-22.277-25.418-39.459-22.878c-12.806,1.893-23.085,10.24-28.047,21.247c6.643,2.278,14.412,3.945,22.882,4.815
			C291.06,472.005,292.171,470.395,296.244,469.793z"/>
		<path class="st19" d="M302.192,468.914l-5.949,0.879c-4.073,0.602-5.184,2.212-4.723,5.954c2.45,0.252,4.951,0.444,7.507,0.557
			c-0.008-0.533,0.231-0.698,0.901-0.797l2.816-0.416c1.566-0.231,2.771,0.28,3.559,1.333c2.658-0.024,5.278-0.118,7.839-0.292
			C312.615,470.024,307.983,468.058,302.192,468.914z"/>
		<path class="st15" d="M131.809,458.381c-10.21,4.69-16.495,11.048-16.495,18.057c0,7.962,8.107,15.087,20.875,19.876
			c-3.118-5.059-5.287-10.817-6.211-17.068C128.906,471.991,129.635,464.891,131.809,458.381z"/>
		<path class="st15" d="M233.947,476.438c0-7.009-6.287-13.369-16.499-18.059c0.816,2.459,1.444,5.015,1.835,7.666
			c1.618,10.944-0.845,21.545-6.231,30.276C225.831,491.533,233.947,484.404,233.947,476.438z"/>
		<g class="st8">
			<path class="st12" d="M219.283,466.045c-0.392-2.651-1.019-5.208-1.835-7.666c-6.776-20.412-27.407-33.64-49.417-30.386
				c-17.407,2.573-31.003,14.767-36.221,30.388c-2.174,6.51-2.904,13.611-1.831,20.865c0.924,6.251,3.093,12.01,6.211,17.068
				c4.334,1.626,9.204,2.981,14.481,4.008c-6.408-5.54-10.946-13.302-12.279-22.32c-1.253-8.48,0.529-16.716,4.513-23.62
				c5.404-9.366,14.868-16.276,26.371-17.976c15.297-2.261,29.811,5.334,37.105,17.982c2.234,3.874,3.799,8.216,4.492,12.901
				c1.896,12.825-3.139,25.098-12.267,33.03c5.264-1.025,10.122-2.377,14.448-3.998C218.439,487.59,220.901,476.989,219.283,466.045
				z"/>
			<path class="st13" d="M210.871,467.289c-0.693-4.685-2.258-9.027-4.492-12.901c-7.294-12.648-21.808-20.243-37.105-17.982
				c-11.503,1.7-20.967,8.61-26.371,17.976c-3.984,6.904-5.766,15.141-4.513,23.62c1.333,9.018,5.871,16.779,12.279,22.32
				c7.329,1.427,15.431,2.225,23.961,2.225c8.534,0,16.64-0.799,23.973-2.228C207.731,492.386,212.766,480.114,210.871,467.289z
				 M178.022,477.565l-4.189,0.619l1.322,8.942l-7.251,1.072l-3.741-25.31c-0.598-4.048,0.445-5.749,4.67-6.373l5.949-0.879
				c6.266-0.926,11.184,1.441,12.271,8.797l0.172,1.161C188.311,472.951,184.288,476.639,178.022,477.565z"/>
			<path class="st13" d="M179.862,465.675c-0.395-2.675-1.993-4.238-4.528-3.863l-2.816,0.416c-0.81,0.12-0.995,0.327-0.87,1.172
				l1.28,8.659l3.837-0.567c2.534-0.375,3.612-2.333,3.216-5.008L179.862,465.675z"/>
			<path class="st14" d="M187.052,464.432c-1.087-7.357-6.005-9.723-12.271-8.797l-5.949,0.879c-4.224,0.624-5.268,2.326-4.67,6.373
				l3.741,25.31l7.251-1.072l-1.322-8.942l4.189-0.619c6.266-0.926,10.289-4.614,9.201-11.971L187.052,464.432z M176.765,471.492
				l-3.837,0.567l-1.28-8.659c-0.125-0.845,0.061-1.052,0.87-1.172l2.816-0.416c2.534-0.375,4.132,1.188,4.528,3.863l0.12,0.81
				C180.377,469.159,179.3,471.117,176.765,471.492z"/>
		</g>
		<g class="st8">
			<circle class="st12" cx="561.291" cy="365.631" r="37.273"/>
			
				<ellipse transform="matrix(0.8639 -0.5036 0.5036 0.8639 -107.7612 332.4267)" class="st13" cx="561.291" cy="365.631" rx="30.251" ry="30.25"/>
			<g>
				<path class="st14" d="M563.086,369.888l4.743,5.763l-4.673,3.847l-13.426-16.312c-2.147-2.609-2.133-4.257,0.589-6.497
					l3.834-3.155c4.038-3.324,8.526-3.744,12.428,0.997l0.616,0.748c3.903,4.742,2.627,9.064-1.411,12.388L563.086,369.888z
					 M559.837,365.941l2.473-2.036c1.633-1.344,1.562-3.188,0.143-4.912l-0.429-0.522c-1.419-1.724-3.215-2.149-4.848-0.805
					l-1.815,1.494c-0.522,0.429-0.565,0.655-0.116,1.2L559.837,365.941z"/>
			</g>
		</g>
		<g class="st8">
			<circle class="st12" cx="36.477" cy="148.246" r="41.272"/>
			
				<ellipse transform="matrix(0.9702 -0.2422 0.2422 0.9702 -34.8141 13.2459)" class="st13" cx="36.477" cy="148.247" rx="33.497" ry="33.496"/>
			<g>
				<path class="st14" d="M37.068,153.329l3.26,7.595l-6.159,2.644l-9.228-21.497c-1.476-3.438-0.951-5.186,2.637-6.726l5.052-2.169
					c5.322-2.284,10.223-1.343,12.905,4.905l0.423,0.986c2.682,6.249-0.011,10.45-5.333,12.734L37.068,153.329z M34.835,148.127
					l3.259-1.399c2.153-0.924,2.647-2.907,1.672-5.179l-0.295-0.688c-0.975-2.272-2.753-3.279-4.906-2.355l-2.392,1.027
					c-0.688,0.295-0.803,0.522-0.495,1.24L34.835,148.127z"/>
			</g>
		</g>
		<path class="st15" d="M258.396,538.116c-10.05,4.678-16.224,10.985-16.224,17.932c0,8.589,9.426,16.209,23.97,20.967
			c-3.694-4.842-6.472-10.506-7.987-16.808C256.341,552.669,256.538,545.119,258.396,538.116z"/>
		<path class="st15" d="M360.805,556.048c0-6.656-5.667-12.727-14.982-17.338c0.033,0.131,0.073,0.259,0.104,0.391
			c3.248,13.506,0.046,27.05-7.614,37.408C352.01,571.726,360.805,564.341,360.805,556.048z"/>
		<path class="st17" d="M345.928,539.1c-0.032-0.132-0.072-0.259-0.104-0.391c-3.081-1.525-6.562-2.888-10.37-4.062
			c0.916,2.041,1.664,4.189,2.206,6.441c3.759,15.631-3.168,31.367-16.05,39.525c6.096-0.968,11.721-2.365,16.704-4.105
			C345.974,566.15,349.176,552.606,345.928,539.1z"/>
		<path class="st17" d="M291.487,505.767c-16.7,4.016-28.976,16.836-33.091,32.349c-1.858,7.002-2.055,14.553-0.242,22.091
			c1.515,6.302,4.293,11.966,7.987,16.808c5.016,1.641,10.646,2.936,16.704,3.819c-7.964-4.902-14.069-12.825-16.423-22.614
			c-2.007-8.348-0.96-16.724,2.406-23.964c4.553-9.793,13.356-17.504,24.648-20.22c17.388-4.181,34.909,4.857,41.978,20.612
			c3.808,1.173,7.289,2.536,10.37,4.062C339.826,514.705,315.594,499.97,291.487,505.767z"/>
		<path class="st18" d="M298.247,540.711l2.047,8.51l3.771-0.907c2.491-0.599,3.39-2.645,2.757-5.274l-0.191-0.796
			c-0.632-2.629-2.363-4.043-4.854-3.444l-2.768,0.666C298.213,539.658,298.047,539.88,298.247,540.711z"/>
		<path class="st18" d="M337.66,541.089c-0.542-2.252-1.29-4.4-2.206-6.441c-7.069-15.755-24.59-24.794-41.978-20.612
			c-11.292,2.715-20.095,10.426-24.648,20.22c-3.366,7.24-4.413,15.616-2.406,23.964c2.354,9.789,8.46,17.712,16.423,22.614
			c5.865,0.854,12.128,1.323,18.643,1.323c7.064,0,13.838-0.546,20.121-1.544C334.492,572.456,341.418,556.72,337.66,541.089z
			 M305.858,554.251l-4.117,0.99l2.113,8.789l-7.127,1.714l-5.982-24.876c-0.957-3.978-0.069-5.766,4.083-6.764l5.846-1.406
			c6.158-1.481,11.268,0.438,13.007,7.669l0.274,1.141C315.695,548.739,312.016,552.771,305.858,554.251z"/>
		<path class="st19" d="M294.828,534.104c-4.152,0.998-5.04,2.786-4.083,6.764l5.982,24.876l7.127-1.714l-2.113-8.789l4.117-0.99
			c6.158-1.481,9.837-5.512,8.098-12.744l-0.274-1.141c-1.739-7.23-6.848-9.15-13.007-7.669L294.828,534.104z M306.63,542.245
			l0.191,0.796c0.632,2.629-0.266,4.675-2.757,5.274l-3.771,0.907l-2.047-8.51c-0.2-0.831-0.033-1.054,0.762-1.245l2.768-0.666
			C304.268,538.202,305.998,539.616,306.63,542.245z"/>
		<path class="st15" d="M435.056,572.813c-13.08,4.789-21.41,12.006-21.41,20.08c0,6.953,6.186,13.266,16.253,17.945
			c-0.453-1.446-0.838-2.928-1.149-4.444C426.269,594.328,428.861,582.401,435.056,572.813z"/>
		<path class="st15" d="M532.28,592.893c0-8.072-8.325-15.287-21.399-20.076c2.953,4.57,5.134,9.746,6.295,15.396
			c1.603,7.798,1.082,15.537-1.154,22.627C526.092,606.161,532.28,599.847,532.28,592.893z"/>
		<g class="st8">
			<path class="st12" d="M517.176,588.213c-1.162-5.65-3.342-10.826-6.295-15.396c-9.809-15.18-28.24-23.585-47.008-19.727
				c-12.352,2.54-22.473,9.906-28.816,19.722c-6.196,9.589-8.787,21.515-6.306,33.581c0.312,1.516,0.697,2.998,1.149,4.444
				c3.251,1.511,6.906,2.85,10.892,3.986c-1.693-3.104-2.963-6.503-3.711-10.142c-2.848-13.853,2.573-27.511,12.866-35.858
				c4.409-3.576,9.706-6.183,15.64-7.403c11.141-2.291,22.162,0.764,30.392,7.402c6.386,5.151,11.091,12.459,12.869,21.103
				c1.814,8.821,0.27,17.562-3.743,24.906c3.996-1.137,7.66-2.478,10.919-3.992C518.259,603.75,518.78,596.011,517.176,588.213z"/>
			<path class="st13" d="M477.796,590.051c-0.545-2.649-2.227-4.119-4.737-3.603l-2.788,0.573c-0.802,0.165-0.975,0.382-0.803,1.219
				l1.763,8.574l3.799-0.781c2.51-0.516,3.476-2.531,2.931-5.18L477.796,590.051z"/>
			<path class="st13" d="M508.847,589.926c-1.777-8.645-6.483-15.953-12.869-21.103c-8.23-6.638-19.251-9.693-30.392-7.402
				c-5.934,1.22-11.231,3.827-15.64,7.403c-10.293,8.347-15.714,22.006-12.866,35.858c0.748,3.639,2.019,7.038,3.711,10.142
				c9.27,2.64,20.309,4.179,32.172,4.179c11.849,0,22.878-1.535,32.141-4.17C509.117,607.488,510.66,598.747,508.847,589.926z
				 M476.625,602.025l-4.148,0.853l1.82,8.854l-7.18,1.476l-5.153-25.061c-0.824-4.008,0.123-5.765,4.305-6.625l5.89-1.211
				c6.204-1.276,11.247,0.812,12.745,8.096l0.236,1.15C486.64,596.843,482.829,600.75,476.625,602.025z"/>
			<path class="st14" d="M484.905,588.408c-1.498-7.284-6.54-9.372-12.745-8.096l-5.89,1.211c-4.182,0.86-5.129,2.617-4.305,6.625
				l5.153,25.061l7.18-1.476l-1.82-8.854l4.148-0.853c6.204-1.276,10.014-5.183,8.517-12.468L484.905,588.408z M475.03,596.032
				l-3.799,0.781l-1.763-8.574c-0.172-0.837,0.002-1.054,0.803-1.219l2.788-0.573c2.51-0.516,4.192,0.955,4.737,3.603l0.165,0.802
				C478.506,593.501,477.54,595.516,475.03,596.032z"/>
		</g>
		<path class="st15" d="M188.806,561.853c0-14.42-26.557-26.109-59.317-26.109c-32.76,0-59.317,11.69-59.317,26.109
			c0,7.143,6.523,13.614,17.084,18.328c3.57-20.513,21.049-36.474,42.695-37.322c22.16-0.868,41.201,14.396,45.824,35.313
			C183.922,573.702,188.806,568.03,188.806,561.853z"/>
		<g class="st8">
			<path class="st12" d="M129.952,542.86c-21.647,0.848-39.126,16.809-42.695,37.322c2.498,1.115,5.227,2.129,8.144,3.033
				c2.263-17.374,16.8-31.148,34.884-31.857c18.567-0.728,34.484,12.569,37.533,30.416c2.907-1.085,5.573-2.291,7.959-3.6
				C171.152,557.255,152.112,541.991,129.952,542.86z"/>
			<path class="st13" d="M133.582,577.268l-2.844,0.112c-0.818,0.032-1.024,0.218-0.991,1.072l0.343,8.746l3.876-0.152
				c2.56-0.1,3.841-1.931,3.736-4.633l-0.032-0.818C137.563,578.892,136.142,577.167,133.582,577.268z"/>
			<path class="st13" d="M130.285,551.357c-18.084,0.709-32.621,14.483-34.884,31.857c7.92,2.453,17.26,4.076,27.376,4.577
				l-0.418-10.654c-0.16-4.089,1.06-5.668,5.327-5.835l6.009-0.235c6.329-0.248,10.965,2.633,11.256,10.064l0.046,1.173
				c0.073,1.87-0.151,3.472-0.627,4.83c8.77-0.997,16.744-2.859,23.448-5.361C164.769,563.926,148.852,550.63,130.285,551.357z"/>
			<path class="st14" d="M144.951,581.131c-0.291-7.431-4.927-10.312-11.256-10.064l-6.009,0.235
				c-4.267,0.167-5.487,1.746-5.327,5.835l0.418,10.654c2.204,0.109,4.441,0.171,6.712,0.171c5.139,0,10.125-0.288,14.88-0.829
				c0.476-1.358,0.701-2.96,0.627-4.83L144.951,581.131z M133.965,587.045l-3.876,0.152l-0.343-8.746
				c-0.033-0.854,0.173-1.04,0.991-1.072l2.844-0.112c2.56-0.1,3.981,1.625,4.087,4.327l0.032,0.818
				C137.807,585.114,136.526,586.945,133.965,587.045z"/>
		</g>
		<g class="st8">
			<path class="st10" d="M263.85,487.037l99.172,16.623v9.487c0,0-21.468,8.481-3.121,21.971l-3.238,15.649l-101.447-19.716v-12.149
				c0,0,22.162-7.189,5.686-22.096L263.85,487.037z"/>
			<g>
				<path class="st11" d="M292.05,508.583c0.831,0.136,1.351,0.735,1.196,1.682l-1.857,11.354l-2.867-0.469l1.367-8.358
					l-1.203-0.197c-0.803-0.131-1.41-0.657-1.28-1.445c0.107-0.659,0.637-1.015,1.225-1.007c0.79,0.027,1.616-0.162,2.013-0.877
					C290.953,508.712,291.447,508.484,292.05,508.583z"/>
				<path class="st11" d="M294.192,522.107l0.002-0.015c-0.791-0.203-1.226-0.789-1.092-1.606c0.143-0.874,0.849-1.318,1.751-1.171
					c0.903,0.147,1.417,0.88,1.277,1.739l-0.021,0.13c-0.272,1.662-1.144,2.58-2.21,2.803c-0.258,0.046-0.525,0.062-0.75-0.005
					c-0.24-0.068-0.506-0.244-0.413-0.627c0.052-0.227,0.205-0.35,0.472-0.364c0.105-0.013,0.193-0.013,0.317-0.051
					C293.869,522.819,294.124,522.523,294.192,522.107z"/>
				<path class="st11" d="M297.496,518.909l0.875-5.348c0.413-2.523,2.377-3.556,4.857-3.15c2.479,0.405,4.014,2.011,3.601,4.534
					l-0.875,5.348c-0.415,2.537-2.377,3.555-4.856,3.149C298.617,523.036,297.082,521.446,297.496,518.909z M303.052,519.949
					l0.917-5.604c0.145-0.89-0.422-1.379-1.139-1.496s-1.41,0.166-1.557,1.056l-0.916,5.604c-0.15,0.917,0.422,1.38,1.139,1.497
					C302.213,521.123,302.902,520.867,303.052,519.949z"/>
				<path class="st11" d="M307.386,520.526l0.875-5.348c0.413-2.522,2.377-3.556,4.856-3.149c2.48,0.405,4.014,2.01,3.602,4.533
					l-0.875,5.348c-0.415,2.537-2.377,3.555-4.857,3.149C308.507,524.654,306.971,523.063,307.386,520.526z M312.942,521.567
					l0.916-5.605c0.146-0.889-0.421-1.379-1.139-1.496c-0.717-0.117-1.41,0.166-1.555,1.056l-0.917,5.604
					c-0.15,0.918,0.421,1.38,1.138,1.497C312.103,522.74,312.791,522.484,312.942,521.567z"/>
				<path class="st11" d="M317.276,522.144l0.875-5.348c0.412-2.523,2.377-3.556,4.857-3.15c2.479,0.405,4.014,2.011,3.601,4.533
					l-0.875,5.348c-0.415,2.537-2.377,3.556-4.856,3.15C318.397,526.271,316.861,524.681,317.276,522.144z M322.831,523.184
					l0.917-5.604c0.145-0.89-0.422-1.379-1.139-1.496s-1.41,0.166-1.557,1.055l-0.916,5.605c-0.15,0.917,0.422,1.379,1.139,1.496
					C321.992,524.358,322.681,524.102,322.831,523.184z"/>
				<path class="st11" d="M330.196,524.227l-0.596,3.642l-2.953-0.483l1.687-10.308c0.27-1.648,0.887-2.18,2.606-1.898l2.423,0.396
					c2.552,0.417,4.171,1.947,3.681,4.943l-0.078,0.474c-0.489,2.996-2.512,3.931-5.063,3.514L330.196,524.227z M330.604,521.733
					l1.562,0.256c1.032,0.169,1.694-0.459,1.873-1.549l0.054-0.329c0.178-1.09-0.25-1.896-1.282-2.064l-1.146-0.188
					c-0.33-0.055-0.428,0.003-0.483,0.348L330.604,521.733z"/>
			</g>
		</g>
		<path class="st20" d="M443.857,72.718c-15.56-2.984-26.1,19.007-29.755,28.109c-0.427,1.253-0.888,2.521-1.422,3.822
			c0,0,0.485-1.488,1.422-3.822c5.032-14.752,2.964-26.048,1.437-31.136c-0.653-2.176-1.768-4.2-3.383-5.798
			c-3.736-3.695-6.515-2.013-8.159-0.031c-1.089,1.313-1.57,3.017-1.416,4.716c0.623,6.867-2.814,19.134-4.487,24.586
			c-0.824,2.685-2.179,5.19-4.063,7.273c-1.338,1.479-2.843,2.739-4.466,3.821c-0.015,2.168,0.186,4.576,0.755,7.174
			c2.119,9.675,8.642,17.852,17.466,22.349c3.792,1.932,8.583,3.663,14.423,4.555c22.133-4.963,32.469-16.615,32.469-16.615
			C491.027,99.723,443.857,72.718,443.857,72.718z"/>
		<path class="st21" d="M414.102,100.827"/>
		
			<ellipse transform="matrix(0.9492 -0.3146 0.3146 0.9492 -19.8336 108.1275)" class="st22" cx="325.011" cy="115.499" rx="2.509" ry="3.271"/>
		
			<ellipse transform="matrix(0.0793 -0.9968 0.9968 0.0793 157.71 408.9185)" class="st23" cx="300.233" cy="119.079" rx="3.271" ry="2.509"/>
		<path class="st24" d="M311.612,115.875c0,0,7.528,0.417,3.943,5.346"/>
		<path class="st25" d="M292.264,124.189c0,0,5.033,7.492,17.524,8.455c6.655,0.513,13.32-1.685,17.889-6.345
			c2.114-2.156,4.238-5.012,5.989-8.831"/>
		<polygon class="st26" points="320.122,148.768 320.122,148.768 320.123,148.768 		"/>
		<polygon class="st26" points="282.297,134.027 282.291,134.029 282.301,134.033 		"/>
		<path class="st3" d="M311.145,149.963c-12.15,0-22.808-6.362-28.844-15.931l-0.01-0.004c0,0-2.364,19.007,15.347,27.61
			c0,0,17.041,5.983,22.485-12.871l-0.001,0C317.262,149.547,314.252,149.963,311.145,149.963z"/>
		<path class="st3" d="M320.123,148.768L320.123,148.768c-0.001,0.001,12.567,15.871,22.784-0.483c0,0,4.512-7.757,1.651-25.633
			C342.006,135.299,332.456,145.409,320.123,148.768z"/>
		<circle class="st3" cx="301.244" cy="118.068" r="1.011"/>
		<circle class="st3" cx="325.606" cy="114.121" r="1.011"/>
		<path class="st27" d="M294.552,103.368l-1.263,9.743h10.735c0,0,0.758-16.953,3.031-19.226c0,0,2.273,17.934,0.631,17.808
			l12.435-0.631c0,0-6.874-12.427-6.055-16.064c0,0,5.745,12.493,9.407,14.279l9.341-0.056c0,0-9.972-8.185-10.856-14.223
			c0,0,7.59,9.952,19.576,13.286c0,0,0.896-2.253,1.081-5.504c-5.134-12.324-17.286-20.992-31.47-20.992
			c-18.827,0-34.089,15.262-34.089,34.089c0,0.519,0.016,1.034,0.039,1.548c-0.025-0.028-0.039-0.043-0.039-0.043
			s-0.032,0.014-0.079,0.036c0.291,1.502,0.739,2.685,1.409,3.244C278.386,120.659,289.248,115.377,294.552,103.368z"/>
		<path class="st28" d="M294.763,90.92c0,0-4.89,8.135-9.78,11.746"/>
		<path class="st28" d="M299.271,102.993c0,0,3.6-11.996,2.985-14.594"/>
		<path class="st28" d="M310.736,87.787c0,0,1.678,12.455,0.875,14.518"/>
		<path class="st28" d="M314.858,88.399c0,0,3.82,5.043,5.654,11.691"/>
		<path class="st28" d="M321.811,88.399c0,0,6.724,8.405,10.544,9.322"/>
		<g class="st8">
			<circle class="st12" cx="457.783" cy="88.269" r="39.626"/>
			
				<ellipse transform="matrix(0.8639 -0.5036 0.5036 0.8639 17.838 242.5575)" class="st13" cx="457.783" cy="88.269" rx="32.161" ry="32.16"/>
			<g>
				<path class="st14" d="M459.692,92.795l5.043,6.127l-4.968,4.089l-14.274-17.342c-2.283-2.773-2.268-4.526,0.626-6.908
					l4.076-3.355c4.293-3.534,9.064-3.98,13.213,1.06l0.655,0.796c4.149,5.041,2.793,9.636-1.5,13.17L459.692,92.795z
					 M456.237,88.598l2.629-2.164c1.737-1.429,1.66-3.39,0.152-5.223l-0.457-0.555c-1.509-1.833-3.418-2.285-5.154-0.855
					l-1.93,1.588c-0.555,0.457-0.6,0.696-0.124,1.276L456.237,88.598z"/>
			</g>
		</g>
		<path class="st29" d="M609.927,669.576c-2.888,0.382-73.635-1.423-94.931,73.655c0,0-35.01-11.911-36.636,46.563
			c0,0-29.047-3.609-39.881,31.403c0,0-31.048,7.58-35.74,33.569h207.188V669.576z"/>
		<path class="st29" d="M-23.908,681.127c0,0,85.546,0.381,103.955,74.376c0,0,39.57-4.692,33.321,46.924
			c0,0,32.012-7.219,42.48,30.32c0,0,14.799,0,30.32,22.018H-13.801L-23.908,681.127z"/>
		<g class="st8">
			<path class="st30" d="M123.496,812.729c0,0-15.01-13.468-26.187-1.793C97.309,810.936,110.445,826.558,123.496,812.729z"/>
			<path class="st31" d="M119.934,812.149c0,0-14.266-3.246-19.167-1.024"/>
			<path class="st31" d="M102.738,810.574c0,0,3.173,0.548,4.119,3.394"/>
			<path class="st31" d="M107.031,810.367c0,0,0.087-2.146,2.482-2.697"/>
			<path class="st31" d="M110.799,810.641c0,0,2.844,1.925,2.963,4.44"/>
			<path class="st31" d="M115.651,811.321c0,0,2.296,1.485,2.536,3.141"/>
			<path class="st31" d="M112.794,810.884c0,0-0.264-0.968,2.284-1.524"/>
		</g>
		<g class="st8">
			<path class="st30" d="M66.815,808.646c0,0-34.239,7.455-29.154,35.075C37.661,843.722,73.029,841.098,66.815,808.646z"/>
			<path class="st31" d="M62.375,813.076c0,0-19.08,16.801-20.931,25.966"/>
			<path class="st31" d="M42.671,835.705c0,0,3.998-3.913,8.971-2.353"/>
			<path class="st31" d="M46.744,829.444c0,0-2.936-2.304-1.276-6.24"/>
			<path class="st31" d="M50.961,824.414c0,0,5.605-2.05,9.269,0.339"/>
			<path class="st31" d="M56.853,818.268c0,0,4.427-1.726,7.004-0.381"/>
			<path class="st31" d="M53.332,821.849c0,0-1.633-0.612,0.175-4.768"/>
		</g>
		<g class="st8">
			<path class="st30" d="M534.793,805.397c0,0-1.316,35.016,26.7,36.977C561.493,842.374,567.769,807.469,534.793,805.397z"/>
			<path class="st31" d="M537.975,810.801c0,0,11.514,22.666,19.928,26.744"/>
			<path class="st31" d="M554.978,835.524c0,0-2.793-4.848-0.042-9.274"/>
			<path class="st31" d="M549.93,830.019c0,0-2.963,2.269-6.361-0.32"/>
			<path class="st31" d="M546.111,824.681c0,0-0.588-5.939,2.639-8.891"/>
			<path class="st31" d="M541.628,817.443c0,0-0.567-4.718,1.378-6.878"/>
			<path class="st31" d="M544.218,821.745c0,0-0.999,1.429-4.574-1.358"/>
		</g>
		<g class="st8">
			<path class="st30" d="M600.065,777.384c0,0-31.936,14.422-21.211,40.377C578.854,817.762,612.9,807.83,600.065,777.384z"/>
			<path class="st31" d="M596.644,782.641c0,0-15.163,20.406-15.065,29.755"/>
			<path class="st31" d="M582.085,808.878c0,0,3.096-4.66,8.284-4.17"/>
			<path class="st31" d="M584.765,801.906c0,0-3.351-1.642-2.547-5.837"/>
			<path class="st31" d="M587.842,796.108c0,0,5.055-3.172,9.136-1.598"/>
			<path class="st31" d="M592.325,788.87c0,0,3.971-2.61,6.771-1.831"/>
			<path class="st31" d="M589.627,793.105c0,0-1.724-0.258-0.822-4.7"/>
		</g>
		<g class="st8">
			<path class="st30" d="M592.114,696.753c0,0-19.485,29.124,3.341,45.487C595.454,742.24,619.104,715.811,592.114,696.753z"/>
			<path class="st31" d="M591.989,703.024c0,0-2.083,25.338,2.942,33.222"/>
			<path class="st31" d="M593.5,732.991c0,0,0.164-5.592,4.828-7.919"/>
			<path class="st31" d="M592.09,725.656c0,0-3.713,0.378-5.248-3.608"/>
			<path class="st31" d="M591.637,719.108c0,0,2.614-5.365,6.91-6.186"/>
			<path class="st31" d="M591.616,710.594c0,0,1.991-4.314,4.78-5.134"/>
			<path class="st31" d="M591.565,715.615c0,0-1.6,0.692-3.183-3.555"/>
		</g>
		<g class="st8">
			<path class="st30" d="M566.393,751.861c0,0-25.031,6.944-20.118,27.175C546.276,779.035,572.344,775.621,566.393,751.861z"/>
			<path class="st31" d="M563.291,755.324c0,0-13.422,13.23-14.411,20.09"/>
			<path class="st31" d="M549.65,772.893c0,0,2.796-3.063,6.542-2.115"/>
			<path class="st31" d="M552.404,768.09c0,0-2.269-1.583-1.204-4.565"/>
			<path class="st31" d="M555.316,764.192c0,0,4.063-1.75,6.874-0.135"/>
			<path class="st31" d="M559.421,759.397c0,0,3.205-1.461,5.168-0.573"/>
			<path class="st31" d="M556.964,762.194c0,0-1.234-0.385-0.069-3.537"/>
		</g>
		<g class="st8">
			<path class="st30" d="M498.128,755.121c0,0,8.582,24.518,28.444,18.279C526.572,773.4,521.443,747.614,498.128,755.121z"/>
			<path class="st31" d="M501.789,757.988c0,0,14.087,12.519,20.998,13.053"/>
			<path class="st31" d="M520.221,770.439c0,0-3.241-2.588-2.543-6.388"/>
			<path class="st31" d="M515.246,768.008c0,0-1.43,2.369-4.476,1.503"/>
			<path class="st31" d="M511.164,765.36c0,0-2.015-3.938-0.588-6.85"/>
			<path class="st31" d="M506.109,761.581c0,0-1.67-3.102-0.913-5.119"/>
			<path class="st31" d="M509.062,763.848c0,0-0.302,1.257-3.524,0.303"/>
		</g>
		<g class="st8">
			<path class="st30" d="M548.426,732.364c0,0-18.873,4.939-15.406,20.185C533.02,752.549,552.633,750.271,548.426,732.364z"/>
			<path class="st31" d="M546.058,734.93c0,0-10.225,9.787-11.043,14.928"/>
			<path class="st31" d="M535.621,747.973c0,0,2.134-2.269,4.936-1.516"/>
			<path class="st31" d="M537.742,744.397c0,0-1.686-1.214-0.854-3.441"/>
			<path class="st31" d="M539.971,741.501c0,0,3.07-1.27,5.164-0.026"/>
			<path class="st31" d="M543.107,737.946c0,0,2.423-1.062,3.887-0.374"/>
			<path class="st31" d="M541.231,740.02c0,0-0.922-0.302-0.013-2.657"/>
		</g>
		<g class="st8">
			<path class="st30" d="M500.989,836.858c0,0-15.501,11.844-6.415,24.569C494.574,861.427,511.786,851.752,500.989,836.858z"/>
			<path class="st31" d="M499.797,840.14c0,0-5.652,12.976-4.421,18.034"/>
			<path class="st31" d="M495.207,856.202c0,0,1.092-2.917,3.967-3.305"/>
			<path class="st31" d="M495.782,852.084c0,0-2.024-0.468-2.117-2.844"/>
			<path class="st31" d="M496.72,848.552c0,0,2.342-2.357,4.753-2.018"/>
			<path class="st31" d="M498.239,844.062c0,0,1.825-1.915,3.441-1.846"/>
			<path class="st31" d="M497.31,846.699c0,0-0.968,0.077-1.038-2.445"/>
		</g>
		<g class="st8">
			<path class="st30" d="M562.979,695.467c0,0-17.183-0.346-17.906,13.41C545.073,708.877,562.244,711.656,562.979,695.467z"/>
			<path class="st31" d="M560.355,697.074c0,0-11.017,5.84-12.945,10.001"/>
			<path class="st31" d="M548.376,705.624c0,0,2.353-1.411,4.548-0.1"/>
			<path class="st31" d="M551.033,703.101c0,0-1.138-1.434,0.102-3.122"/>
			<path class="st31" d="M553.618,701.182c0,0,2.907-0.339,4.383,1.218"/>
			<path class="st31" d="M557.13,698.922c0,0,2.309-0.318,3.385,0.617"/>
			<path class="st31" d="M555.042,700.229c0,0-0.709-0.478,0.627-2.255"/>
		</g>
		<g class="st8">
			<path class="st30" d="M453.47,822.369c0,0,8.851,14.733,20.882,8.025C474.352,830.393,467.568,814.376,453.47,822.369z"/>
			<path class="st31" d="M456.227,823.735c0,0,10.807,6.22,15.356,5.638"/>
			<path class="st31" d="M469.84,829.327c0,0-2.447-1.242-2.505-3.797"/>
			<path class="st31" d="M466.29,828.42c0,0-0.609,1.727-2.698,1.575"/>
			<path class="st31" d="M463.29,827.253c0,0-1.834-2.281-1.301-4.359"/>
			<path class="st31" d="M459.508,825.483c0,0-1.498-1.785-1.279-3.194"/>
			<path class="st31" d="M461.725,826.555c0,0-0.027,0.855-2.243,0.669"/>
		</g>
		<g class="st8">
			<path class="st30" d="M497.859,797.003c0,0-18.099-10.186-26.728,4.048C471.131,801.052,487.827,813.822,497.859,797.003z"/>
			<path class="st31" d="M494.147,797.215c0,0-15.068-0.076-19.498,3.253"/>
			<path class="st31" d="M476.507,799.475c0,0,3.312-0.158,4.9,2.492"/>
			<path class="st31" d="M480.777,798.307c0,0-0.392-2.177,1.893-3.266"/>
			<path class="st31" d="M484.626,797.741c0,0,3.289,1.3,3.971,3.802"/>
			<path class="st31" d="M489.657,797.34c0,0,2.64,0.98,3.252,2.591"/>
			<path class="st31" d="M486.687,797.539c0,0-0.482-0.914,1.956-2.043"/>
		</g>
		<g class="st8">
			<path class="st30" d="M-5.661,790.114c0,0-15.048,31.645,9.911,44.52C4.25,834.633,23.811,805.05-5.661,790.114z"/>
			<path class="st31" d="M-4.874,796.336c0,0,1.618,25.372,7.735,32.443"/>
			<path class="st31" d="M0.973,825.766c0,0-0.649-5.557,3.627-8.536"/>
			<path class="st31" d="M-1.488,818.714c0,0-3.619,0.913-5.716-2.808"/>
			<path class="st31" d="M-2.887,812.301c0,0,1.807-5.687,5.939-7.124"/>
			<path class="st31" d="M-4.144,803.88c0,0,1.344-4.558,3.984-5.774"/>
			<path class="st31" d="M-3.465,808.856c0,0-1.483,0.917-3.665-3.055"/>
		</g>
		<g class="st8">
			<path class="st30" d="M23.251,762.116c0,0,3.933,27.59,26.136,25.155C49.386,787.271,49.351,759.065,23.251,762.116z"/>
			<path class="st31" d="M26.507,765.895c0,0,12.223,16.107,19.386,18.106"/>
			<path class="st31" d="M43.317,782.834c0,0-2.873-3.398-1.347-7.252"/>
			<path class="st31" d="M38.587,779.24c0,0-1.998,2.195-5.023,0.651"/>
			<path class="st31" d="M34.841,775.604c0,0-1.302-4.564,0.806-7.333"/>
			<path class="st31" d="M30.307,770.575c0,0-1.113-3.612,0.103-5.578"/>
			<path class="st31" d="M32.943,773.575c0,0-0.58,1.26-3.772-0.414"/>
		</g>
		<g class="st8">
			<path class="st30" d="M96.956,764.559c0,0-22.884-0.007-23.482,18.323C73.473,782.882,96.405,786.129,96.956,764.559z"/>
			<path class="st31" d="M93.506,766.767c0,0-14.512,8.065-16.968,13.655"/>
			<path class="st31" d="M77.785,778.464c0,0,3.096-1.94,6.051-0.253"/>
			<path class="st31" d="M81.255,775.036c0,0-1.553-1.879,0.054-4.159"/>
			<path class="st31" d="M84.646,772.414c0,0,3.861-0.528,5.867,1.506"/>
			<path class="st31" d="M89.261,769.312c0,0,3.065-0.485,4.522,0.732"/>
			<path class="st31" d="M86.516,771.107c0,0-0.957-0.617,0.775-3.018"/>
		</g>
		<g class="st8">
			<path class="st30" d="M6.313,737.309c0,0-25.778,10.593-17.96,31.516C-11.647,768.825,15.686,761.859,6.313,737.309z"/>
			<path class="st31" d="M3.451,741.394c0,0-12.609,15.807-12.786,23.241"/>
			<path class="st31" d="M-8.837,761.852c0,0,2.588-3.62,6.698-3.088"/>
			<path class="st31" d="M-6.516,756.383c0,0-2.619-1.397-1.866-4.709"/>
			<path class="st31" d="M-3.912,751.858c0,0,4.104-2.383,7.306-1.021"/>
			<path class="st31" d="M-0.152,746.227c0,0,3.228-1.966,5.432-1.271"/>
			<path class="st31" d="M-2.412,749.52c0,0-1.364-0.252-0.525-3.758"/>
		</g>
		<g class="st8">
			<path class="st30" d="M21.718,706.215c0,0,9.423,25.495,30.09,18.607C51.807,724.821,45.974,697.938,21.718,706.215z"/>
			<path class="st31" d="M25.6,709.147c0,0,14.965,12.842,22.205,13.274"/>
			<path class="st31" d="M45.109,721.839c0,0-3.437-2.649-2.776-6.637"/>
			<path class="st31" d="M39.86,719.386c0,0-1.453,2.504-4.655,1.654"/>
			<path class="st31" d="M35.541,716.69c0,0-2.18-4.084-0.74-7.156"/>
			<path class="st31" d="M30.184,712.828c0,0-1.803-3.214-1.049-5.339"/>
			<path class="st31" d="M33.315,715.145c0,0-0.294,1.32-3.682,0.381"/>
		</g>
		<g class="st8">
			<path class="st30" d="M0.888,692.269c0,0-16.979,7.265-11.599,21.054C-10.711,713.323,7.333,708.446,0.888,692.269z"/>
			<path class="st31" d="M-0.969,695.003c0,0-8.204,10.594-8.25,15.521"/>
			<path class="st31" d="M-8.916,708.676c0,0,1.68-2.423,4.409-2.11"/>
			<path class="st31" d="M-7.431,705.03c0,0-1.749-0.901-1.281-3.102"/>
			<path class="st31" d="M-5.749,702.007c0,0,2.697-1.618,4.831-0.746"/>
			<path class="st31" d="M-3.31,698.24c0,0,2.12-1.334,3.587-0.894"/>
			<path class="st31" d="M-4.776,700.444c0,0-0.906-0.154-0.384-2.485"/>
		</g>
		<g class="st8">
			<path class="st30" d="M41.208,743.016c0,0,1.353,18.418,16.142,17.812C57.35,760.828,58.602,742.178,41.208,743.016z"/>
			<path class="st31" d="M43.19,745.661c0,0,7.353,11.201,11.998,12.846"/>
			<path class="st31" d="M53.539,757.619c0,0-1.746-2.376-0.563-4.855"/>
			<path class="st31" d="M50.573,755.03c0,0-1.42,1.361-3.35,0.204"/>
			<path class="st31" d="M48.261,752.457c0,0-0.654-3.076,0.864-4.811"/>
			<path class="st31" d="M45.491,748.927c0,0-0.572-2.438,0.32-3.683"/>
			<path class="st31" d="M47.098,751.029c0,0-0.44,0.807-2.475-0.444"/>
		</g>
		<g class="st8">
			<path class="st30" d="M137.146,832.339c0,0-18.39-1.699-20.227,12.988C116.919,845.328,135.108,849.634,137.146,832.339z"/>
			<path class="st31" d="M134.211,833.859c0,0-12.259,5.408-14.647,9.719"/>
			<path class="st31" d="M120.712,842.096c0,0,2.631-1.33,4.882,0.244"/>
			<path class="st31" d="M123.754,839.598c0,0-1.109-1.625,0.351-3.338"/>
			<path class="st31" d="M126.673,837.741c0,0,3.142-0.139,4.603,1.644"/>
			<path class="st31" d="M130.611,835.59c0,0,2.499-0.163,3.58,0.923"/>
			<path class="st31" d="M128.272,836.83c0,0-0.723-0.567,0.846-2.368"/>
		</g>
		<path class="st5" d="M197.014,171.272c1.3,0.044,2.587,0.312,3.776,0.842c2.877,1.283,9.763,3.426,18.984,0.147
			c11.015-3.917,194.685-3.374,233.298-3.216c3.958,0.016,7.184,3.165,7.304,7.122l2.224,72.788l-334.229-1.729
			c-4.371-0.023-7.781-3.962-6.985-8.26c0.741-4.002,3.265-7.673,10.422-6.233l-0.715-15.076l0.711-32.629
			c0.191-8.778,7.518-15.708,16.293-15.411L197.014,171.272z"/>
		<linearGradient id="SVGID_4_" gradientUnits="userSpaceOnUse" x1="162.9221" y1="265.2631" x2="162.9221" y2="176.5933">
			<stop  offset="0" style="stop-color:#FFFFFF"/>
			<stop  offset="1" style="stop-color:#009640"/>
		</linearGradient>
		<path class="st32" d="M196.777,232.731c5.29,0,7.406,3.615,7.406,7.229c0,3.792-2.205,7.229-7.406,7.229h-67.711
			c-5.202,0-7.406-3.438-7.406-7.229c0-3.615,2.116-7.229,7.406-7.229h24.863V217.92v-0.265h-22.835
			c-5.29,0-7.406-3.438-7.406-7.053c0-3.526,2.028-6.965,7.406-6.965h5.995v-7.67c0-6.26,3.703-8.905,9.081-8.905
			c5.29,0,8.905,2.733,8.905,8.905v7.67h15.693v-7.67c0-6.26,3.703-8.905,9.081-8.905c5.29,0,8.905,2.733,8.905,8.905v7.67h5.995
			c5.378,0,7.406,3.438,7.406,6.965c0,3.615-2.116,7.053-7.406,7.053h-22.834v0.265v14.812H196.777z M132.152,183.8
			c-5.29,0-7.406-3.703-7.406-7.318c0-3.526,2.028-7.406,7.406-7.406h61.54c5.378,0,7.406,3.879,7.406,7.406
			c0,3.615-2.116,7.318-7.406,7.318H132.152z"/>
		<linearGradient id="SVGID_5_" gradientUnits="userSpaceOnUse" x1="252.1907" y1="265.2631" x2="252.1907" y2="176.5933">
			<stop  offset="0" style="stop-color:#FFFFFF"/>
			<stop  offset="1" style="stop-color:#009640"/>
		</linearGradient>
		<path class="st33" d="M212.12,187.591c0-13.137,10.58-20.013,25.039-20.013c14.459,0,25.127,6.789,25.127,20.013v7.494
			c0,13.225-10.668,20.014-25.039,20.014c-14.459,0-25.127-6.789-25.127-20.014V187.591z M229.224,248.954
			c-9.875,0-12.52-3.438-12.52-12.872v-9.257c0-5.731,4.144-8.464,9.081-8.464c4.937,0,8.816,2.821,8.816,8.464v6.524
			c0,1.675,0.441,2.028,2.116,2.028h48.226c5.29,0,7.318,3.174,7.318,6.701c0,3.615-2.116,6.877-7.318,6.877H229.224z
			 M229.312,194.997c0,4.32,3.527,6.965,7.847,6.965c4.32,0,8.023-2.645,8.023-6.965v-7.318c0-4.408-3.703-7.053-8.023-6.965
			c-4.32,0.088-7.847,2.645-7.847,6.965V194.997z M272.248,228.676v-53.781c0-5.73,4.144-8.728,8.816-8.728
			c4.673,0,8.817,2.998,8.817,8.728v53.781H272.248z"/>
		<linearGradient id="SVGID_6_" gradientUnits="userSpaceOnUse" x1="339.2554" y1="265.2631" x2="339.2554" y2="176.5933">
			<stop  offset="0" style="stop-color:#FFFFFF"/>
			<stop  offset="1" style="stop-color:#009640"/>
		</linearGradient>
		<path class="st34" d="M372.935,232.291c5.466,0,7.582,3.879,7.582,7.494c0,3.703-2.204,7.406-7.582,7.406h-67.358
			c-5.378,0-7.582-3.703-7.582-7.406c0-3.615,2.116-7.494,7.582-7.494H372.935z M369.408,168.812c4.938,0,6.788,3.615,6.788,6.877
			c0,3.351-1.939,6.789-6.788,6.789h-46.904c-1.763,0-2.645,0.705-2.645,2.292v3.438h49.02c4.938,0,6.789,3.438,6.789,6.612
			c0,3.262-1.939,6.613-6.789,6.613h-49.02v3.35c0,1.763,0.882,2.38,2.645,2.38h48.314c4.938,0,6.789,3.527,6.789,6.789
			c0,3.351-1.939,6.789-6.789,6.789h-54.839c-10.227,0-14.018-4.232-14.018-13.754v-24.422c0-9.522,3.791-13.754,14.018-13.754
			H369.408z"/>
		<linearGradient id="SVGID_7_" gradientUnits="userSpaceOnUse" x1="427.4224" y1="265.2631" x2="427.4224" y2="176.5933">
			<stop  offset="0" style="stop-color:#FFFFFF"/>
			<stop  offset="1" style="stop-color:#009640"/>
		</linearGradient>
		<path class="st35" d="M462.248,202.314c4.32,0,6.436,2.116,6.436,5.731c0,3.703-2.204,5.643-6.436,5.643h-69.65
			c-4.232,0-6.437-1.94-6.437-5.643c0-3.615,2.116-5.731,6.437-5.731H462.248z M399.738,248.954
			c-7.582,0-11.108-4.585-11.108-10.315v-0.265c0-5.73,3.438-9.875,11.108-9.875h45.582c0.876,0,1.587-0.71,1.587-1.587l0,0
			c0-0.793-0.353-1.146-1.322-1.146h-51.048c-3.263,0-5.025-2.204-5.025-4.761c0-2.557,1.498-4.761,5.025-4.761h60.657
			c7.494,0,9.875,2.821,9.875,8.199v10.58c0,0.876-0.71,1.587-1.587,1.587h-54.574c-0.882,0-1.323,0.706-1.323,1.411
			c0,0.617,0.441,1.322,1.323,1.322h53.692c3.614,0,4.938,2.292,4.938,4.849c0,2.557-1.234,4.761-4.938,4.761H399.738z
			 M401.237,199.758c-7.935,0-11.99-4.056-11.99-10.051v-0.706c0-6.171,3.968-9.522,11.99-9.522h44.7v-0.97
			c0-1.146-0.353-1.499-1.764-1.499h-49.196c-3.262,0-4.938-2.469-4.938-4.849s1.499-5.025,4.938-5.025h59.424
			c7.317,0,9.698,2.733,9.698,7.67v11.109c0,0.876-0.71,1.587-1.587,1.587h-52.547c-1.322,0-1.852,0.353-1.852,1.234
			c0,0.881,0.529,1.234,1.852,1.234h51.312c3.526,0,4.849,2.469,4.849,5.026c0,2.204-1.322,4.761-4.849,4.761H401.237z"/>
		<rect x="171.613" y="267.927" class="st3" width="244.127" height="69.934"/>
		<path class="st36" d="M244.497,306.562c4.761,0,6.876,2.733,6.876,6.348c0,3.703-2.204,6.348-6.876,6.348h-68.769
			c-4.673,0-6.877-2.645-6.877-6.348c0-3.615,2.116-6.348,6.877-6.348h23.628c0.974,0,1.763-0.789,1.763-1.763v-0.088
			c0-0.974-0.789-1.763-1.763-1.763h-14.724c-10.492,0-12.608-3.438-12.608-13.489v-10.403c0-5.907,4.056-8.376,8.729-8.376
			c3.269,0,6.538,1.586,7.916,4.824c0.278,0.652,0.909,1.084,1.618,1.084h10.352c0.731,0,1.364-0.462,1.644-1.137
			c1.302-3.136,4.424-4.417,7.829-4.417c3.341,0,6.466,1.363,7.823,4.478c0.282,0.647,0.909,1.076,1.615,1.076h10.179
			c0.725,0,1.366-0.452,1.635-1.126c1.307-3.274,4.52-4.781,8.02-4.781c4.497,0,8.64,2.557,8.64,8.376v22.129
			c0,0.974-0.789,1.763-1.763,1.763h-25.392c-0.974,0-1.763,0.789-1.763,1.763v0.088c0,0.974,0.789,1.763,1.763,1.763H244.497z
			 M247.406,328.78v23.1c0,0.974-0.789,1.763-1.763,1.763h-60.217c-10.668,0-12.608-3.174-12.608-13.401V328.78
			c0-5.73,4.32-7.582,8.993-7.582c3.571,0,6.999,1.428,8.227,4.864c0.257,0.718,0.909,1.22,1.672,1.22h36.673
			c0.788,0,1.448-0.535,1.692-1.284c1.166-3.585,4.618-4.799,8.427-4.799C242.998,321.198,247.406,323.137,247.406,328.78z
			 M189.393,289.105c0,1.763,0.617,2.645,2.645,2.645h7.759c0.974,0,1.763-0.789,1.763-1.763v-1.146
			c0-0.974-0.789-1.763-1.763-1.763h-8.641c-0.974,0-1.763,0.789-1.763,1.763V289.105z M229.685,340.594v-0.97
			c0-0.974-0.789-1.763-1.763-1.763h-35.619c-0.974,0-1.763,0.789-1.763,1.763l0,0c0,1.764,0.617,2.733,2.733,2.733h34.649
			C228.896,342.357,229.685,341.568,229.685,340.594z M220.428,291.75h8.552c0.974,0,1.763-0.789,1.763-1.763v-1.146
			c0-0.974-0.789-1.763-1.763-1.763h-8.552c-0.974,0-1.763,0.789-1.763,1.763v1.146C218.664,290.961,219.454,291.75,220.428,291.75z
			"/>
		<path class="st36" d="M305.047,296.918v32.621c0,15.252-10.139,23.54-24.334,23.54c-14.283,0-24.51-8.288-24.51-23.54v-32.621
			c0-15.165,10.139-23.54,24.421-23.54C294.908,273.378,305.047,281.665,305.047,296.918z M288.119,296.036
			c0-5.466-3.615-8.375-7.494-8.288c-3.967,0.088-7.494,2.91-7.494,8.288v34.296c0,5.643,3.526,8.375,7.494,8.375
			c3.879,0,7.494-2.733,7.494-8.375V296.036z M334.494,302.825c5.378,0,6.965,4.144,6.965,7.67c0,3.615-1.676,7.67-6.965,7.67l0,0
			c-1.753,0-3.175,1.421-3.175,3.175v30.239c0,1.753-1.421,3.175-3.175,3.175h-11.283c-1.753,0-3.175-1.421-3.175-3.175v-70.884
			c0-5.73,4.144-8.728,8.816-8.728s8.816,2.998,8.816,8.728v18.955C331.319,301.403,332.741,302.825,334.494,302.825
			L334.494,302.825z"/>
		<path class="st36" d="M390.921,336.592c5.378,0,7.494,3.703,7.494,7.229c0,3.615-2.204,7.229-7.494,7.229h-28.926
			c-9.685,0-17.537-7.851-17.537-17.537v-11.213c0-9.442,7.654-17.096,17.096-17.096h9.714c1.7,0,3.078-1.378,3.078-3.078v-9.883
			c0-1.146-0.353-2.292-2.204-2.292h-19.484c-5.29,0-7.494-3.703-7.494-7.317c0-3.527,2.116-7.406,7.494-7.406h24.598
			c11.55,0,14.636,3.262,14.636,12.696v28.574c0,1.7-1.378,3.078-3.078,3.078H368.96c-3.842,0-6.957,3.115-6.957,6.957v3.367
			c0,3.696,2.996,6.693,6.693,6.693H390.921z M422.66,302.825c5.378,0,6.965,4.144,6.965,7.67c0,3.615-1.675,7.67-6.965,7.67h-0.096
			c-1.7,0-3.078,1.378-3.078,3.078v30.433c0,1.7-1.378,3.078-3.078,3.078h-11.477c-1.7,0-3.078-1.378-3.078-3.078v-70.981
			c0-5.73,4.144-8.728,8.816-8.728s8.816,2.998,8.816,8.728v19.052c0,1.7,1.378,3.078,3.078,3.078H422.66z"/>
		<g class="st8">
			<polygon class="st9" points="524.113,256.036 455.49,225.413 421.18,259.963 455.018,287.138 465.962,287.055 471.922,304.907 
				480.571,293.38 506.753,295.812 			"/>
			<polygon class="st10" points="524.496,248.973 455.873,218.35 421.563,252.899 455.401,280.075 466.345,279.992 472.305,297.843 
				480.954,286.316 507.136,288.749 			"/>
			<g>
				<g>
					<path class="st11" d="M476.002,247.142c0.65,0.307,0.695,0.885,0.486,1.33c-0.215,0.455-0.686,0.751-1.324,0.449l-5.48-2.58
						c-0.641-0.302-0.713-0.852-0.498-1.308c0.209-0.444,0.686-0.778,1.336-0.472l1.594,0.751l0.496-1.053
						c0.322-0.683,0.9-0.676,1.477-0.405c0.564,0.267,0.945,0.725,0.629,1.396l-0.496,1.053L476.002,247.142z M474.563,240.089
						l0.031-0.065l-1.508-0.71c-0.512-0.24-0.578-0.829-0.395-1.22s0.646-0.756,1.201-0.495l1.465,0.689l0.057-0.119
						c0.301-0.64,0.823-0.766,1.496-0.448c0.673,0.316,0.916,0.815,0.619,1.444l-0.057,0.119l1.553,0.731
						c0.553,0.261,0.566,0.851,0.383,1.24c-0.184,0.391-0.681,0.714-1.19,0.474l-1.584-0.746l-0.03,0.065
						c-0.103,0.218-0.211,0.418-0.336,0.598c1.65,0.804,2.066,2.087,1.141,3.97l-2.008-0.945c0.473-0.916,0.232-1.561-0.473-1.812
						c-1.107,0.579-2.422,0.557-3.469,0.05c-0.521-0.245-0.781-0.818-0.531-1.351c0.203-0.434,0.619-0.609,1.09-0.454
						C473.131,241.469,474.066,241.115,474.563,240.089z M482.746,241.795l-4.291,9.115l-2.17-1.021l4.291-9.115
						c0.332-0.705,1.016-0.834,1.592-0.562C482.742,240.481,483.078,241.089,482.746,241.795z"/>
					<path class="st11" d="M484.955,251.226c0.629,0.296,0.578,0.882,0.385,1.295c-0.199,0.423-0.619,0.809-1.238,0.518
						l-2.539-1.196c-1.41-0.664-1.512-1.123-0.873-2.479l2.824-6c0.639-1.356,1.053-1.56,2.463-0.896l2.291,1.079
						c0.629,0.296,0.6,0.892,0.406,1.304c-0.199,0.423-0.651,0.82-1.27,0.529l-1.498-0.705c-0.195-0.092-0.313-0.067-0.432,0.182
						l-2.4,5.101c-0.117,0.249-0.061,0.355,0.135,0.447L484.955,251.226z M493.834,246.842l-4.359,9.256l-1.898-0.894l2.094-4.449
						l-0.542-0.256l-2.095,4.449l-1.898-0.895l4.357-9.256c0.266-0.563,0.82-0.754,1.395-0.482c0.575,0.271,0.77,0.812,0.504,1.377
						l-1.414,3.006l0.542,0.256l1.415-3.006c0.266-0.564,0.819-0.754,1.395-0.483S494.1,246.279,493.834,246.842z"/>
					<path class="st11" d="M454.945,243.627c0.629,0.296,0.905,0.891,0.568,1.606l-4.047,8.594l-2.17-1.022l2.979-6.326
						l-0.911-0.429c-0.607-0.286-0.97-0.841-0.688-1.438c0.235-0.499,0.735-0.661,1.2-0.521c0.622,0.199,1.32,0.237,1.797-0.241
						C454.045,243.481,454.488,243.412,454.945,243.627z"/>
					<path class="st11" d="M462.225,257.142c0.65,0.307,0.716,0.814,0.512,1.248c-0.209,0.445-0.658,0.725-1.299,0.423l-6.641-3.127
						c-1.215-0.572-1.342-1.148-0.795-2.31l0.537-1.139c0.332-0.706,1-0.803,1.607-0.516c0.608,0.285,0.922,0.857,0.595,1.553
						l-0.378,0.803c-0.098,0.205-0.064,0.274,0.143,0.372L462.225,257.142z M460.773,253.158l-4.524-2.131
						c-1.085-0.511-1.337-0.961-0.852-1.991l1.334-2.832c0.48-1.021,0.998-1.135,2.082-0.624l3.125,1.472
						c1.021,0.48,1.262,0.952,0.751,2.037L460.773,253.158z M457.677,249.486c-0.066,0.141-0.042,0.259,0.131,0.34l1.693,0.797
						l0.976-2.072c0.066-0.141,0.049-0.242-0.115-0.319l-1.508-0.71c-0.152-0.071-0.247-0.01-0.313,0.131L457.677,249.486z
						 M465.848,251.755c0.662,0.312,0.617,0.914,0.412,1.348c-0.209,0.445-0.65,0.848-1.302,0.541l-0.336-0.158l-1.456,3.092
						l-2.17-1.021l3.116-6.619c0.332-0.705,1.016-0.834,1.591-0.562c0.575,0.271,0.911,0.879,0.579,1.584l-0.771,1.639
						L465.848,251.755z"/>
					<path class="st11" d="M467.161,257.849l-1.298,2.756l-2.235-1.053l3.674-7.801c0.587-1.248,1.198-1.531,2.499-0.918
						l1.834,0.863c1.932,0.91,2.871,2.492,1.804,4.76l-0.169,0.358c-1.068,2.268-2.885,2.552-4.816,1.643L467.161,257.849z
						 M468.05,255.961l1.183,0.558c0.781,0.368,1.449,0.02,1.838-0.806l0.117-0.249c0.389-0.825,0.231-1.562-0.549-1.929
						l-0.868-0.409c-0.25-0.117-0.341-0.095-0.464,0.166L468.05,255.961z"/>
					<path class="st11" d="M483.424,264.009c1.574,0.74,1.975,2.003,1.387,3.25c-0.588,1.248-1.814,1.744-3.389,1.003l-4.318-2.034
						c-1.596-0.75-1.965-2.023-1.387-3.25s1.794-1.754,3.389-1.002L483.424,264.009z M477.895,260.663
						c-0.922-0.435-1.047-0.93-0.653-1.766l1.251-2.658c0.395-0.836,0.85-1.045,1.773-0.61l3.906,1.839
						c0.629,0.296,0.609,0.817,0.42,1.219s-0.594,0.755-1.213,0.463l-2.832-1.333c-0.152-0.071-0.248-0.037-0.314,0.104l-0.602,1.28
						c-0.066,0.142-0.033,0.237,0.119,0.309l3.299,1.554c0.629,0.296,0.582,0.817,0.398,1.208c-0.193,0.412-0.561,0.743-1.18,0.452
						L477.895,260.663z M481.574,266.504c0.51,0.24,0.869,0.065,1.033-0.282c0.164-0.347,0.074-0.747-0.436-0.987l-3.213-1.513
						c-0.51-0.24-0.876-0.055-1.039,0.293c-0.164,0.348-0.068,0.736,0.441,0.977L481.574,266.504z M487.916,261.086
						c0.662,0.312,0.617,0.913,0.412,1.347c-0.209,0.445-0.65,0.848-1.301,0.541l-0.338-0.158l-0.893,1.898l-2.17-1.021l2.145-4.558
						c0.332-0.705,1.016-0.833,1.592-0.562c0.574,0.271,0.91,0.88,0.578,1.585l-0.361,0.77L487.916,261.086z"/>
					<path class="st11" d="M495.139,269.975c1.225,0.577,1.281,1.081,0.754,2.198l-1.104,2.344l-7.584-3.571
						c-1.314-0.618-1.367-1.121-0.796-2.336l0.302-0.641c0.572-1.216,0.994-1.494,2.307-0.876L495.139,269.975z M487.373,264.874
						c0.225-0.478,0.645-0.638,1.088-0.481c1.021,0.335,1.873-0.006,2.312-0.939l0.051-0.109l-1.389-0.653
						c-0.511-0.24-0.584-0.818-0.4-1.209c0.185-0.391,0.645-0.744,1.197-0.484l1.346,0.634c0.301-0.64,0.802-0.775,1.475-0.458
						c0.673,0.316,0.904,0.811,0.607,1.439l1.379,0.648c0.553,0.261,0.572,0.84,0.389,1.23c-0.185,0.391-0.676,0.702-1.187,0.462
						l-1.399-0.658l-0.066,0.141c-0.071,0.152-0.154,0.299-0.248,0.44c1.543,0.779,1.979,1.938,1.072,3.752l-2.008-0.945
						c0.459-0.751,0.273-1.369-0.317-1.606c-1.028,0.549-2.278,0.53-3.337,0.045C487.38,265.872,487.143,265.362,487.373,264.874z
						 M493.342,272.045l0.326-0.694c0.087-0.185,0.059-0.264-0.115-0.346l-4.404-2.074c-0.174-0.082-0.254-0.054-0.342,0.131
						l-0.209,0.445c-0.098,0.206-0.062,0.275,0.111,0.356L493.342,272.045z M495.738,265.406l0.554,0.261l0.608-1.291
						c0.332-0.705,1.016-0.834,1.59-0.563c0.576,0.271,0.912,0.88,0.58,1.585l-2.299,4.883l-2.17-1.021l0.893-1.898l-0.553-0.261
						c-0.543-0.256-0.748-0.75-0.508-1.26C494.668,265.339,495.185,265.146,495.738,265.406z"/>
					<path class="st11" d="M498.334,273.31c0.727,0.342,0.957,0.98,0.646,1.643c-0.312,0.662-0.951,0.891-1.678,0.549
						s-0.963-0.97-0.646-1.643C496.974,273.186,497.608,272.967,498.334,273.31z M497.469,272.279l2.819-5.989
						c0.333-0.706,1.037-0.824,1.612-0.554c0.564,0.266,0.928,0.901,0.602,1.596l-2.82,5.989L497.469,272.279z"/>
				</g>
			</g>
		</g>
		<g class="st8">
			<line class="st37" x1="535.997" y1="126.626" x2="539.786" y2="137.312"/>
			<path class="st37" d="M544.976,118.479c0,0-0.775,10.537,2.169,14.565"/>
			<path class="st37" d="M554.273,121.888c0,0-2.479,5.576,0,8.134"/>
		</g>
		<g class="st8">
			<line class="st37" x1="84.645" y1="51.739" x2="88.434" y2="62.426"/>
			<path class="st37" d="M93.624,43.592c0,0-0.775,10.537,2.169,14.565"/>
			<path class="st37" d="M102.921,47.001c0,0-2.479,5.576,0,8.134"/>
		</g>
		<g class="st8">
			<line class="st37" x1="67.4" y1="307.48" x2="71.189" y2="318.167"/>
			<path class="st37" d="M76.379,299.333c0,0-0.775,10.537,2.169,14.565"/>
			<path class="st37" d="M85.676,302.742c0,0-2.479,5.576,0,8.134"/>
		</g>
		<g class="st8">
			<line class="st37" x1="15.034" y1="484.654" x2="18.823" y2="495.341"/>
			<path class="st37" d="M24.013,476.507c0,0-0.775,10.537,2.169,14.565"/>
			<path class="st37" d="M33.31,479.916c0,0-2.479,5.576,0,8.134"/>
		</g>
		<g class="st8">
			<line class="st37" x1="220.547" y1="591.623" x2="224.336" y2="602.31"/>
			<path class="st37" d="M229.526,583.476c0,0-0.775,10.537,2.169,14.565"/>
			<path class="st37" d="M238.823,586.885c0,0-2.479,5.576,0,8.134"/>
		</g>
		<g class="st8">
			<line class="st37" x1="133.765" y1="757.237" x2="137.554" y2="767.924"/>
			<path class="st37" d="M142.744,749.09c0,0-0.775,10.537,2.169,14.565"/>
			<path class="st37" d="M152.041,752.499c0,0-2.479,5.576,0,8.134"/>
		</g>
		<g class="st8">
			<line class="st37" x1="236.345" y1="742.121" x2="235.184" y2="751.335"/>
			<path class="st37" d="M245.913,739.465c0,0-4.445,7.424-3.774,11.455"/>
			<path class="st37" d="M251.461,745.381c0,0-3.866,3.167-2.994,5.951"/>
		</g>
		<g class="st8">
			<line class="st37" x1="327.003" y1="800.119" x2="333.423" y2="806.829"/>
			<path class="st37" d="M330.974,791.018c0,0,2.96,8.131,6.513,10.151"/>
			<path class="st37" d="M339.063,790.441c0,0,0.021,4.997,2.732,6.076"/>
		</g>
		<g class="st8">
			<line class="st37" x1="393.601" y1="630.879" x2="397.391" y2="641.565"/>
			<path class="st37" d="M402.581,622.732c0,0-0.775,10.537,2.169,14.565"/>
			<path class="st37" d="M411.878,626.141c0,0-2.479,5.576,0,8.134"/>
		</g>
		<g class="st8">
			<line class="st37" x1="535.231" y1="502.277" x2="534.449" y2="513.589"/>
			<path class="st37" d="M546.712,498.381c0,0-4.908,9.356-3.812,14.224"/>
			<path class="st37" d="M553.882,505.211c0,0-4.495,4.127-3.24,7.46"/>
		</g>
		<g class="st8">
			<line class="st37" x1="556.921" y1="233.638" x2="553.635" y2="244.49"/>
			<path class="st37" d="M568.982,232.401c0,0-6.871,8.025-6.889,13.015"/>
			<path class="st37" d="M574.447,240.659c0,0-5.302,3.02-4.823,6.55"/>
		</g>
	</g>
</g>
</svg>
