<?xml version="1.0" encoding="utf-8"?>
<!-- Generator: Adobe Illustrator 27.0.0, SVG Export Plug-In . SVG Version: 6.00 Build 0)  -->
<svg version="1.1" id="Layer_1" xmlns="http://www.w3.org/2000/svg" xmlns:xlink="http://www.w3.org/1999/xlink" x="0px" y="0px"
	 viewBox="0 0 233.191 232.831" style="enable-background:new 0 0 233.191 232.831;" xml:space="preserve">
<style type="text/css">
	.st0{fill:#231F20;}
	.st1{fill:#789CD6;}
	.st2{fill:#FFFFFF;}
</style>
<g>
	<path class="st0" d="M298.484,384.65l-9.458-8.867h-15.96v80.982h31.329v-47.88c0,0,10.049-7.093,18.916-5.32v-30.147
		C323.31,373.419,303.804,376.965,298.484,384.65z"/>
	<polygon class="st0" points="332.768,344.163 332.768,421.007 365.87,425.736 365.87,344.163 	"/>
	<path class="st0" d="M332.768,432.829c0,0,17.142-7.093,33.102,0c0,0,4.138,12.413,0,20.098c0,0-13.004,7.093-33.102,0
		C332.768,452.927,326.562,443.765,332.768,432.829z"/>
	<path class="st0" d="M374.409,455.164v-83.347h18.324l5.911,9.458c0,0,19.507-22.462,49.653-3.547c0,0,19.507-13.004,39.604-5.911
		c0,0,11.231,5.911,11.231,12.413v70.933h-34.284l-0.591-59.702c0,0-8.276-1.032-10.049,3.622l0.591,56.08h-39.013v-59.111
		c0,0-4.729-2.214-8.867,3.031l-1.677,56.08H374.409z"/>
</g>
<image style="overflow:visible;" width="198" height="237" xlink:href="하늘색1.JPG"  transform="matrix(0.75 0 0 0.75 -247.2824 347.4286)">
</image>
<circle class="st1" cx="116.596" cy="116.596" r="116.596"/>
<g>
	<path class="st2" d="M38.861,73.155l-6.34-5.944c-0.35-0.328-0.812-0.511-1.292-0.511H19.817c-1.044,0-1.89,0.846-1.89,1.89v67.5
		c0,1.044,0.846,1.89,1.89,1.89h23.796c1.044,0,1.89-0.846,1.89-1.89V96.86c0-0.657,0.341-1.263,0.899-1.609
		c2.191-1.36,8.051-4.597,13.794-4.333c1.069,0.049,1.956-0.813,1.956-1.883V66.95c0-1.217-1.131-2.114-2.317-1.841
		c-4.401,1.015-13.926,3.622-18.353,8.002C40.757,73.829,39.604,73.852,38.861,73.155z"/>
	<path class="st2" d="M69.854,36.778v63.134c0,1.2,0.882,2.218,2.07,2.387l24.313,3.473c1.453,0.208,2.753-0.92,2.753-2.387V36.778
		c0-1.332-1.08-2.411-2.411-2.411H72.265C70.934,34.366,69.854,35.446,69.854,36.778z"/>
	<path class="st2" d="M72.514,111.507c4.445-1.317,13.832-3.3,23.295-0.302c2.051,0.65,3.585,2.371,4.03,4.475
		c0.625,2.954,1.217,7.427,0.285,11.36c-0.473,1.998-2.016,3.563-3.967,4.201c-4.128,1.349-12.546,3.019-23.774-0.319
		c-1.779-0.529-3.231-1.865-3.872-3.607c-1-2.72-1.883-7.19,0.108-12.317C69.284,113.288,70.755,112.028,72.514,111.507z"/>
	<path class="st2" d="M105.483,171.793v-68.24c0-1.414,1.146-2.56,2.56-2.56h12.15c0.883,0,1.703,0.455,2.171,1.203l2.776,4.442
		c0.829,1.326,2.648,1.627,3.84,0.613c5.286-4.498,19.922-13.847,40.267-1.83c0.783,0.463,1.753,0.457,2.542,0.004
		c4.26-2.449,18.609-9.597,33.368-4.509c0.15,0.052,0.294,0.115,0.433,0.192c1.434,0.794,9.674,5.586,9.674,10.811v59.874
		c0,1.414-1.146,2.56-2.56,2.56h-25.081c-1.404,0-2.546-1.131-2.56-2.535l-0.471-47.54c-0.014-1.446-1.223-2.616-2.666-2.533
		c-2.012,0.115-4.634,0.649-5.838,2.523c-0.255,0.396-0.363,0.871-0.358,1.342l0.487,46.156c0.015,1.424-1.136,2.587-2.56,2.587
		h-29.191c-1.414,0-2.56-1.146-2.56-2.56V124.5c0-1.506-1.294-2.706-2.792-2.553c-1.266,0.129-2.814,0.686-4.325,2.254
		c-0.441,0.458-0.696,1.072-0.715,1.707l-1.374,45.96c-0.041,1.384-1.175,2.484-2.559,2.484h-22.095
		C106.629,174.353,105.483,173.207,105.483,171.793z"/>
</g>
<image style="overflow:visible;" width="230" height="273" xlink:href="노랑.JPG"  transform="matrix(0.75 0 0 0.75 -263.2824 32.9287)">
</image>
<image style="overflow:visible;" width="154" height="262" xlink:href="노랑2.JPG"  transform="matrix(0.75 0 0 0.75 -304.7824 602.0536)">
</image>
</svg>
